<?xml version="1.0" standalone="yes"?>
<svg xmlns="http://www.w3.org/2000/svg" width="4307" height="4307">
<path style="fill:#ffffff; stroke:none;" d="M0 0L0 4307L4307 4307L4307 0L0 0z"/>
<path style="fill:#034f51; stroke:none;" d="M1064 652L1064 1197L434 1197L434 1306L1948 1306L1948 1420L2312 1420L2321 864L2227 871.83L2024 888.089L1948 894L1948 1197L1699 1197C1709.33 1115.71 1726.02 1034.99 1738.58 954C1747.49 896.531 1753.39 836.519 1767 780L1313 780L1313 885C1313 898.889 1309.33 918.782 1313.56 932C1316.45 941.01 1325.09 950.137 1330.33 958C1342.59 976.388 1355.08 994.613 1367.33 1013C1408.32 1074.48 1449.67 1135.74 1491 1197L1172 1197L1172 652L1064 652M2953 667L2954 767L3062 766L3061 666L2953 667M2604 707L2604 1361L3798 1361L3798 1253L3748 1253L3748 1069L3748 1021C3748 1016.26 3749.83 1006.65 3746.97 1002.65C3742.94 997.003 3728.35 994.419 3722 992.05C3700.63 984.082 3679.32 975.915 3658 967.808C3575.73 936.523 3493.56 904.845 3411 874.319C3387.6 865.667 3364.32 856.674 3341 847.808C3334.9 845.488 3320.66 836.853 3314.27 838.789C3308.87 840.427 3305.54 857.101 3303.6 862C3294.05 886.08 3279.39 913.51 3275 939C3365.87 969.745 3455.54 1006.54 3545 1041.19C3567.6 1049.94 3590.31 1058.46 3613 1066.95C3619.54 1069.39 3635.17 1072.14 3638.97 1078.27C3641.15 1081.78 3640 1088.04 3640 1092L3640 1126L3640 1253L3064 1253L3064 885L2956 885L2956 1253L2712 1253L2712 707L2604 707M650 794L650 848L650.603 871.7L673 890.349L729 934L614 937L616 1028L887 1019L887 963C887 956.616 889.054 945.822 885.972 940.089C880.107 929.18 860.812 919.371 851 911.884C823.02 890.535 793.608 870.026 767 847L798 836.05L863 812L851.424 779L832 727C785.296 739.747 739.385 761.13 694 778.05C679.644 783.403 664.9 790.469 650 794z"/>
<path style="fill:#ffffff; stroke:none;" d="M1421 888C1421 901.528 1428 909.124 1435.33 920C1445.66 935.331 1456.08 950.619 1466.33 966C1496.44 1011.16 1527.23 1055.84 1557.33 1101C1569.72 1119.59 1583.95 1137.6 1595 1157L1596 1157L1605.73 1095L1629.41 949L1639 888L1421 888M2056 994L2056 1312L2205 1312L2210 982L2056 994z"/>
<path style="fill:#014f51; stroke:none;" d="M2936 1722L2951.73 1831L2979 2017L3041 2008.27L3164 1990.27L3592 1927.73L3749 1904.73L3824 1894L3811.27 1805L3781 1598L3568 1629.27L3129 1693.73L2936 1722M1775 1626L1770 2735L2073 2726L2078 1617L2046 1618.04L1978 1620.04L1775 1626M2690 1693L2688.09 1854L2688 1890L2686.4 1903.26L2663 1906.91L2601 1913L2595 1704L2503 1707L2502 1943C2473.99 1943.23 2442.55 1946.89 2415 1952L2409 1742L2378 1743.04L2317 1745L2321.96 1919L2326 2054L2523 2033.83L2593 2027L2593 2007L2651 2001.17L2779 1988L2783 1694L2690 1693M2786 2305L2792.09 2387L2803.09 2538L2818.09 2744L2826 2852L2955 2844.09L3207 2828.91L3330 2821L3318.07 2939L3315.09 2968L3312.4 2980.4L3301 2982L3273 2983.17L3148 2989.17L3024 2995.04L2785 3006.96L2682 3011.91L2641 3014L2584.83 2445L2566.83 2263L2560 2193L2473 2201.83L2263 2224C2264.09 2276.74 2274.58 2330.49 2279.83 2383C2290.67 2491.39 2303.33 2599.61 2314.17 2708C2318.84 2754.71 2328.87 2803.07 2329 2850L2157 2862.91L1847 2886.09L1706 2897L1704 3030L1701 3186C1835.18 3175.41 1969.72 3169.11 2104 3159.91C2189.33 3154.07 2275.5 3144.76 2361 3143C2361 3203.34 2369.25 3264.86 2374 3325L2497 3319.04L2748 3307.04L3585 3267L3590.91 3176L3601.91 3013L3642.09 2409L3656.09 2201L3663 2093C3615.35 2093.98 3566.34 2105.18 3519 2110.84C3415.59 2123.23 3312.41 2137.46 3209 2149.84C3153.29 2156.51 3097.71 2164.18 3042 2170.84C3023.98 2173 3005.99 2175.37 2988 2177.72C2980.2 2178.74 2970.47 2178.32 2963.1 2181.15C2955.84 2183.93 2951.66 2199.48 2948.22 2206C2940.15 2221.29 2931.98 2236.54 2924.25 2252C2920.22 2260.05 2916.41 2271.02 2910.36 2277.72C2904.28 2284.46 2885.64 2284.67 2877 2286.4C2846.86 2292.44 2816.47 2301.07 2786 2305z"/>
<path style="fill:#ffffff; stroke:none;" d="M3370 2423C3344.46 2430.76 3314.46 2431.46 3288 2435.27C3224.5 2444.42 3160.06 2451.25 3097 2463L3102 2536L3198 2530.09L3361 2520L3368.07 2451L3370 2423z"/>
<path style="fill:#014f51; stroke:none;" d="M1046 2558L979 2567.73L837 2589.42L759 2601L765.83 2683L778.17 2833L784 2905C758.513 2905.02 732.34 2910.12 707 2912.83C638.463 2920.17 568.841 2932.04 500 2935L509.576 3000L528.728 3125L588.424 3515L605.272 3625L613 3678C635.097 3677.82 658.139 3671.49 680 3668.27C731.036 3660.75 781.917 3652.05 833 3644.87C851.364 3642.29 869.675 3639.27 888 3636.42C892.392 3635.74 904.101 3636.09 906.971 3632.4C910.845 3627.42 905.216 3609.93 904.246 3604C899.953 3577.73 895.837 3551.36 892.13 3525C876.782 3415.85 855.89 3307.34 842 3198C861.228 3197.99 880.886 3194.21 900 3192.17C940 3187.88 979.971 3183.17 1020 3179.17C1142.09 3166.96 1263.91 3152.04 1386 3139.83C1435.34 3134.9 1486.43 3124.03 1536 3124L1550 2438L1213 2466.91L1109 2475.71L1074.28 2479.18L1065.33 2500L1046 2558z"/>
<path style="fill:#ffffff; stroke:none;" d="M1073 2778L1081 2872C1134.76 2871.96 1189.4 2859.23 1243 2855L1245 2764L1073 2778z"/>
</svg>
