<svg width="82" height="64" viewBox="0 0 82 64" fill="none" xmlns="http://www.w3.org/2000/svg">
<g clip-path="url(#clip0_1084_15735)">
<path d="M60 23H22M60 23L57.4597 14.5322C57.1868 13.6228 56.3498 13 55.4003 13H27.4556C26.5765 13 25.7859 13.5352 25.4594 14.3515L22 23M60 23V29C60 30.1046 59.1046 31 58 31V31M22 23V29C22 30.1046 22.8954 31 24 31V31M24 31V49.35C24 50.5374 24.9626 51.5 26.15 51.5H55.85C57.0374 51.5 58 50.5374 58 49.35V31M24 31H58" stroke="#214187" stroke-width="1.3"/>
<rect x="34" y="35" width="14" height="4" rx="2" stroke="#214187" stroke-width="1.3"/>
</g>
<defs>
<clipPath id="clip0_1084_15735">
<rect width="81.9803" height="63.0618" fill="white"/>
</clipPath>
</defs>
</svg>
