<?xml version="1.0" encoding="UTF-8" standalone="no"?>
<svg
   viewBox="0 0 24 24"
   version="1.1"
   id="svg10"
   sodipodi:docname="3ohad.svg"
   inkscape:version="1.2 (dc2aedaf03, 2022-05-15)"
   xmlns:inkscape="http://www.inkscape.org/namespaces/inkscape"
   xmlns:sodipodi="http://sodipodi.sourceforge.net/DTD/sodipodi-0.dtd"
   xmlns="http://www.w3.org/2000/svg"
   xmlns:svg="http://www.w3.org/2000/svg">
  <defs
     id="defs14" />
  <sodipodi:namedview
     id="namedview12"
     pagecolor="#ffffff"
     bordercolor="#000000"
     borderopacity="0.25"
     inkscape:showpageshadow="2"
     inkscape:pageopacity="0.0"
     inkscape:pagecheckerboard="0"
     inkscape:deskcolor="#d1d1d1"
     showgrid="false"
     inkscape:zoom="34.875"
     inkscape:cx="11.913978"
     inkscape:cy="12.014337"
     inkscape:window-width="1920"
     inkscape:window-height="1017"
     inkscape:window-x="-8"
     inkscape:window-y="-8"
     inkscape:window-maximized="1"
     inkscape:current-layer="svg10" />
  <g
     id="Layer_2"
     data-name="Layer 2">
    <g
       id="Layer_1-2"
       data-name="Layer 1">
      <path
         d="M0,0H24V24H0Z"
         fill="none"
         id="path2" />
      <path
         d="M3,17H21V5H3ZM8,8H19v2H8Zm0,4H19v2H8ZM5,8H7v2H5Zm0,4H7v2H5Z"
         fill="#2e8d9a"
         id="path4"
         style="fill:#e9dfcf;fill-opacity:1" />
      <path
         d="M22,2H4A2,2,0,0,0,2,4V16a2,2,0,0,0,2,2H9v2h8V18h5a2,2,0,0,0,2-2V4A2,2,0,0,0,22,2Zm0,14H4V4H22Z"
         fill="#274690"
         id="path6"
         style="fill:#6b4e45;fill-opacity:1" />
    </g>
  </g>
</svg>
