<svg width="60" height="54" viewBox="0 0 60 54" fill="none" xmlns="http://www.w3.org/2000/svg">
<g id="Group 548">
<g id="Group 346">
<path id="Vector" d="M36.4026 0.27771V0.927115H35.7506V1.57406H35.0987V2.22562H37.0546V0.27771H36.4026Z" fill="white"/>
<path id="Vector_2" d="M23.5726 0.27771V0.927115H24.2246V1.57406H24.8765V2.22562H22.9206V0.27771H23.5726Z" fill="white"/>
<path id="Vector_3" d="M22.9208 2.87732H37.0549V3.53032H22.9208V2.87732Z" fill="white"/>
<path id="Vector_4" d="M35.5198 25.48L35.5184 42.9603L37.0536 42.9606L37.0549 25.48H35.5198Z" fill="white"/>
<path id="Vector_5" d="M33.0003 25.48L32.9989 41.4275L32.0272 41.4272L32.0276 40.5714V40.5586L32.0279 39.0366H30.4931V39.038L22.9282 39.0366V40.5696L30.4924 40.571L30.4921 41.4272L22.9282 41.4262V42.9595L30.4916 42.9603V42.9606L32.0265 42.9609V42.9606L34.5447 42.9609V42.9606V42.2844V41.4275L34.5462 25.48H33.0003Z" fill="white"/>
<path id="Vector_6" d="M30.4777 27.014L30.478 27.9938L29.5124 27.9942L29.5118 27.014H30.4777ZM24.4645 27.0147L27.9768 27.0144L27.9773 27.9945H27.9768V29.528L32.0132 29.5265V29.5113H32.0135L32.0128 27.0137H32.0286V25.4807H32.0122H30.4774L29.5114 25.481V25.4807H27.9765V25.481L23.0256 25.482V25.4878H22.9297L22.9282 38.0554L24.463 38.0557L24.4645 27.0147Z" fill="white"/>
<path id="Vector_7" d="M28.9185 33.0254V33.0244L29.5166 33.0247V33.0254H30.4729V33.0247L31.071 33.0251V33.0254H31.9349H31.9853H32.027L32.0278 30.5215L31.0718 30.5211L31.0713 32.0541L30.4729 32.0538L30.4737 30.5215L29.5174 30.5211L29.5169 32.0534H28.9188L28.9193 30.5215L27.9633 30.5211L27.9625 32.0526V33.024V33.0254H28.9185Z" fill="white"/>
<path id="Vector_8" d="M30.4921 36.5225H29.4979L29.4987 35.4695L30.4924 35.47L30.4921 36.5225ZM32.028 35.4703L32.0284 33.9372H32.028H31.6766L28.0241 33.9359V33.9369H27.9642L27.9632 36.5222L26.9808 36.5218L26.9797 27.9938H25.4445L25.446 38.0558H26.9811V38.0548L32.0273 38.0558L32.0277 36.5229H32.027L32.0277 35.4703H32.028Z" fill="white"/>
<path id="Vector_9" d="M18.6581 28.0562C18.6242 28.0769 18.6003 28.1093 18.5906 28.1481L18.3056 29.3073C18.2962 29.3457 18.3023 29.3857 18.323 29.4196C18.3438 29.4537 18.3762 29.4776 18.4147 29.4869L19.5431 29.7638L19.2754 30.8517C19.2662 30.8902 19.2722 30.9302 19.293 30.964C19.3133 30.9979 19.3461 31.0222 19.3849 31.0317L20.5451 31.3161L20.5811 31.3204L20.6578 31.299C20.6917 31.2784 20.7156 31.2459 20.7253 31.2071L21.0101 30.048C21.0197 30.0091 21.0137 29.9695 20.9929 29.9353C20.9726 29.9015 20.9398 29.8776 20.9013 29.8679L19.7729 29.5914L20.0405 28.5035C20.0498 28.4647 20.0437 28.4252 20.023 28.3909C20.0023 28.357 19.9699 28.3332 19.9313 28.3235L18.7708 28.0391C18.7323 28.0299 18.6919 28.0355 18.6581 28.0562Z" fill="white"/>
<path id="Vector_10" d="M11.9659 36.7097C11.988 36.7428 12.0216 36.7653 12.0609 36.7732L12.1023 36.7757L12.1726 36.7511L13.1664 36.0885C13.2345 36.0429 13.2531 35.9505 13.2074 35.8821L12.544 34.8894C12.5218 34.8562 12.488 34.8338 12.4491 34.826C12.4103 34.8185 12.3706 34.8263 12.3377 34.8485L11.3436 35.511C11.2754 35.5566 11.2569 35.649 11.3025 35.7171L11.9659 36.7097Z" fill="white"/>
<path id="Vector_11" d="M13.3618 38.638C13.3839 38.6711 13.4175 38.6936 13.4567 38.7015L13.4982 38.7039L13.5685 38.6793L14.5623 38.0164C14.6304 37.9712 14.6489 37.8785 14.6033 37.8104L13.9399 36.8176C13.9177 36.7843 13.8838 36.7621 13.8449 36.7543C13.8061 36.7468 13.7665 36.7543 13.7336 36.7767L12.7394 37.4393C12.6713 37.4849 12.6527 37.5773 12.6984 37.6454L13.3618 38.638Z" fill="white"/>
<path id="Vector_12" d="M18.3425 26.9784H19.5376C19.6196 26.9784 19.6863 26.9118 19.6863 26.8298V25.6362C19.6863 25.5541 19.6196 25.4874 19.5376 25.4874H18.3425C18.2604 25.4874 18.1936 25.5541 18.1936 25.6362V26.8298C18.1936 26.9118 18.2604 26.9784 18.3425 26.9784Z" fill="white"/>
<path id="Vector_13" d="M20.2743 26.9784H21.4693C21.5514 26.9784 21.6181 26.9118 21.6181 26.8298V25.6362C21.6181 25.5541 21.5514 25.4874 21.4693 25.4874H20.2743C20.1923 25.4874 20.1254 25.5541 20.1254 25.6362V26.8298C20.1254 26.9118 20.1923 26.9784 20.2743 26.9784Z" fill="white"/>
<path id="Vector_14" d="M9.79863 29.5276L8.67956 29.1091V29.1088C8.60256 29.0803 8.51648 29.1195 8.48753 29.1961L8.07147 30.3076L7.01989 29.9139C6.98273 29.9001 6.94238 29.9015 6.90604 29.9179C6.86959 29.9343 6.84218 29.9639 6.82822 30.0013L6.40895 31.1188C6.39498 31.1562 6.39642 31.1968 6.41285 31.2328C6.42969 31.2687 6.45925 31.2966 6.49631 31.3105L7.61544 31.729L7.66759 31.7385L7.72929 31.725C7.76533 31.7086 7.79284 31.679 7.8067 31.6419L8.2235 30.5303L9.2752 30.9237L9.32725 30.9334L9.38931 30.9198C9.42535 30.9034 9.45291 30.8739 9.46646 30.8368L9.8861 29.7191C9.91466 29.642 9.87532 29.5565 9.79863 29.5276Z" fill="white"/>
<path id="Vector_15" d="M11.909 33.9381C11.9165 33.8992 11.9086 33.8597 11.8865 33.8265L11.2207 32.8353C11.1745 32.7676 11.0822 32.7494 11.0137 32.7946L10.0217 33.4601C9.9888 33.4826 9.96631 33.5157 9.95846 33.555C9.95092 33.5937 9.95885 33.6337 9.98133 33.6669L10.6469 34.6577C10.6693 34.6906 10.7029 34.713 10.7421 34.7205L10.7796 34.7233L10.8539 34.698L11.8459 34.0329C11.8791 34.0108 11.9016 33.9769 11.909 33.9381Z" fill="white"/>
<path id="Vector_16" d="M21.6049 38.0747L11.1257 46.8858L12.2894 47.8427L21.6049 40.0561V38.0747Z" fill="white"/>
<path id="Vector_17" d="M21.605 35.0424L10.1554 43.8959L8.48285 42.1957L12.7804 39.2797C12.8279 39.247 12.8396 39.1828 12.8068 39.1354L12.0693 38.0614C12.0367 38.0144 11.9722 38.0027 11.9251 38.035C11.9251 38.035 10.9255 38.7102 9.79788 39.4719C9.63056 39.1963 9.44777 38.8959 9.25944 38.5883L11.4087 37.1462C11.4565 37.114 11.469 37.0499 11.4366 37.0025L10.7104 35.921C10.6782 35.8736 10.614 35.8609 10.5662 35.8933L10.4866 35.9468L8.46583 37.3023L8.46368 37.299C8.30021 37.0374 8.12643 36.7387 7.95406 36.4282L10.0477 35.1801C10.0973 35.1509 10.1136 35.0874 10.0844 35.0381L9.41505 33.9204C9.3861 33.8709 9.32257 33.8545 9.27299 33.8838L7.24466 35.0931C7.09981 34.8094 6.97097 34.5517 6.86635 34.34L8.89478 33.2257C8.93613 33.1994 8.97432 33.1648 8.94005 33.1064L8.29205 31.9318C8.26308 31.8823 8.20785 31.8781 8.15815 31.9073L4.07547 34.1392C3.08304 31.5338 2.28483 28.3255 2.11103 25.7364C2.10713 25.679 2.08783 25.6597 2.02038 25.6668C1.96217 25.6732 0.946941 25.7813 0.669342 25.8105C0.625095 25.8154 0.600866 25.8422 0.605794 25.9009C0.837092 28.5243 1.31242 31.9461 2.84579 35.7589L3.17441 36.3677L5.53964 35.0685C5.92247 35.8423 6.59481 37.1615 7.18183 38.0993C7.59762 38.7634 8.13033 39.6369 8.54429 40.3188C7.56046 40.9832 6.72797 41.5452 6.66298 41.5887C6.49852 41.6985 6.50776 41.9412 6.57305 42.0304C7.60542 43.4382 8.85582 44.8277 9.91676 45.8008C9.9789 45.8574 10.1548 45.872 10.2657 45.7832C10.3663 45.702 18.1478 39.7571 21.605 36.9811V35.0424Z" fill="white"/>
<path id="Vector_18" d="M20.0585 33.5685L18.1532 34.811C17.81 34.3277 17.0984 33.3268 17.0984 33.3268L20.0585 33.5685ZM4.9248 32.3349L4.93056 32.3513L4.94555 32.3595C4.96515 32.3709 5.14071 32.4653 5.20744 32.3524L5.99681 31.0161L5.98829 30.9954C5.77126 30.4621 5.19573 28.3382 5.16391 28.263C5.24963 28.1739 5.45835 27.8762 6.0504 26.9185L14.2029 26.7709L9.86185 28.3889L10.1751 29.1377C10.1824 29.1544 11.1362 31.2281 12.7227 33.7407C14.274 36.1969 15.5864 37.5498 15.6535 37.6094C15.6535 37.6094 15.7174 37.67 15.8173 37.7545C15.9176 37.8389 16.2416 37.9048 16.3751 37.8048C16.4921 37.7166 20.6405 34.8353 21.4751 34.209C21.5912 34.122 21.6211 33.8954 21.6211 33.8954V32.6849C21.6211 32.6849 21.5487 32.5174 21.4209 32.4906C20.5049 32.2977 16.3272 31.7589 16.1692 31.7246C15.9893 31.6855 15.8341 31.7439 15.7577 31.7923C15.6971 31.8309 15.0187 32.2586 14.7397 32.4346C14.6664 32.481 14.6901 32.6025 14.7346 32.6624C14.7686 32.7084 16.3272 34.8281 16.9129 35.6198L16.2299 36.065C15.7021 35.5257 14.9797 34.4845 14.0013 32.9355C13.8161 32.6421 13.648 32.3719 13.4875 32.1115L17.3358 30.0441C17.4396 30.0744 17.4657 29.9839 17.426 29.9118L16.8569 28.8408C16.8237 28.7781 16.7541 28.7338 16.6545 28.783L12.7477 30.8813C12.378 30.2451 12.1011 29.7272 11.9005 29.2967L17.4207 27.0696C17.6151 27.0051 17.7318 26.8112 17.6983 26.6095L17.5658 25.8153C17.532 25.615 17.3603 25.5216 17.1569 25.5216H5.71417C5.42087 25.5216 5.23464 25.6443 5.13968 25.7914C5.06258 25.9109 4.1459 27.3292 3.80332 27.8592C3.72407 27.9825 3.71196 28.2487 3.73875 28.3406C4.07989 29.5176 4.91526 32.306 4.9248 32.3349Z" fill="white"/>
<path id="Vector_19" d="M34.9754 46.36L35.1563 45.8748C35.3123 45.4771 35.4347 44.9731 35.9575 44.9731H37.0894V44.0607H35.7772C35.2538 44.0607 34.9051 44.4848 34.6896 44.898C34.4769 44.6516 34.2871 44.4363 34.2735 44.4213L34.1522 44.2838H33.0103V45.1962H33.7854C34.0219 45.3826 34.9754 46.36 34.9754 46.36Z" fill="white"/>
<path id="Vector_20" d="M19.9629 42.2008C19.9239 42.1923 19.8841 42.1993 19.8505 42.2208C19.8173 42.2421 19.7941 42.2753 19.7855 42.3142L19.5354 43.4472L18.4402 43.2063C18.4017 43.1977 18.3614 43.2049 18.3282 43.2262C18.2946 43.2477 18.2714 43.2807 18.2629 43.3196L18.006 44.4852C17.9973 44.524 18.0041 44.564 18.0255 44.5974C18.047 44.6306 18.0805 44.6538 18.1191 44.6623L19.2863 44.9193C19.3251 44.9278 19.3652 44.9207 19.3984 44.8994C19.4319 44.8779 19.4551 44.8444 19.4637 44.8059L19.7134 43.6725L20.809 43.9137C20.8475 43.9224 20.8875 43.9152 20.9211 43.8938C20.9546 43.8724 20.9778 43.8393 20.9864 43.8005L21.2433 42.6349L21.2464 42.5989L21.2233 42.5226C21.2018 42.4895 21.1687 42.4664 21.1297 42.4574L19.9629 42.2008Z" fill="white"/>
<path id="Vector_21" d="M26.5261 45.8436C26.5539 45.872 26.5911 45.888 26.6306 45.8888C26.6707 45.8892 26.7082 45.8742 26.7367 45.8467L27.5711 45.0394L28.3514 45.8436C28.3793 45.8725 28.4163 45.888 28.456 45.8888C28.496 45.8895 28.5334 45.8747 28.5619 45.8467L29.4202 45.0167L29.4427 44.9885L29.4655 44.9119C29.4659 44.8722 29.4512 44.8349 29.4234 44.806L28.5919 43.9492C28.5641 43.9203 28.5271 43.9041 28.4874 43.9038C28.4474 43.9031 28.41 43.9181 28.3814 43.9456L27.5471 44.7532L26.7667 43.9487C26.7389 43.9203 26.7017 43.9041 26.662 43.9034C26.6222 43.9031 26.5847 43.9178 26.5561 43.9456L25.6979 44.7761C25.6697 44.8039 25.6533 44.8409 25.6526 44.8805C25.6518 44.9201 25.6669 44.9578 25.6947 44.9863L26.5261 45.8436Z" fill="white"/>
<path id="Vector_22" d="M59.2037 25.4874H41.8886C41.823 25.4874 41.7699 25.5405 41.7699 25.6062V26.8782C41.7699 26.9438 41.823 26.997 41.8886 26.997H59.2223C59.319 26.997 59.3979 26.9185 59.3979 26.8219V25.6813C59.3979 25.5743 59.3108 25.4874 59.2037 25.4874Z" fill="white"/>
<path id="Vector_23" d="M45.4314 29.604C45.5134 29.604 45.5801 29.5374 45.5801 29.4555V28.2617C45.5801 28.1797 45.5134 28.113 45.4314 28.113H44.236C44.1543 28.113 44.0875 28.1797 44.0875 28.2617V29.4555C44.0875 29.5374 44.1543 29.604 44.2363 29.604H45.4314Z" fill="white"/>
<path id="Vector_24" d="M39.1745 45.8793L39.249 45.8593L40.2821 45.2595C40.3167 45.2399 40.3411 45.2078 40.3514 45.1689C40.3617 45.1309 40.356 45.0909 40.336 45.056L39.7354 44.0244C39.6944 43.9536 39.6034 43.9293 39.5321 43.9706L38.4987 44.5705C38.4279 44.6115 38.4037 44.7027 38.4451 44.7733L39.0457 45.8052C39.0732 45.853 39.1231 45.8793 39.1745 45.8793Z" fill="white"/>
<path id="Vector_25" d="M43.6667 31.0876C43.5711 31.1621 43.5165 31.2744 43.5165 31.3955V33.1146C43.5165 33.2393 43.5768 33.3573 43.6781 33.4308C43.9654 33.63 49.9241 38.1293 50.1192 38.2383C50.1446 38.2526 50.1885 38.259 50.251 38.259C50.3912 38.259 51.916 38.1193 52.2936 38.0797C52.347 38.074 52.3999 38.0344 52.4128 38.0127C52.7328 37.4792 53.7513 35.2941 53.8866 34.8575C53.9079 34.7884 53.9019 34.7189 53.8694 34.6612C53.6666 34.303 53.5346 34.1244 53.186 33.6528L53.0803 33.5095C53.0575 33.4793 53.0087 33.4332 52.983 33.4711C52.8175 33.9615 51.6976 36.4625 51.6188 36.576C51.3889 36.603 50.5646 36.6803 50.3654 36.6829L45.0374 32.8145L50.1497 33.9255C50.3515 33.9761 50.5646 33.9347 50.7341 33.8132C50.9033 33.6916 51.01 33.5027 51.0267 33.295L51.2933 29.834C51.3008 29.7463 51.2769 29.6579 51.2268 29.5855L50.3206 28.271C50.2484 28.1669 50.1303 28.1049 50.0032 28.1049L46.615 28.1174C46.5497 28.1174 46.4969 28.1701 46.4969 28.2354V29.5086C46.4969 29.5738 46.5497 29.6269 46.6154 29.6269L49.6678 29.6149C49.701 29.6149 49.7317 29.6279 49.7539 29.6522C49.7764 29.6765 49.787 29.7078 49.7845 29.741L49.5951 32.0018L44.0021 31.0159C43.8844 30.9867 43.7623 31.0127 43.6667 31.0876Z" fill="white"/>
<path id="Vector_26" d="M56.4513 32.9687C56.011 32.1761 55.4056 31.1185 54.6334 29.85L54.6285 29.7607C54.6435 29.732 54.6723 29.7148 54.7049 29.7148L57.2499 29.8146L57.3188 29.8486L57.333 29.9237L56.4513 32.9687ZM57.9551 28.374C57.9551 28.374 57.864 28.2617 57.6575 28.2617C57.4508 28.2617 52.8607 28.1622 52.8607 28.1622C52.8121 28.1622 52.7671 28.189 52.7335 28.2238C52.7001 28.2588 52.6829 28.3047 52.6847 28.353L52.689 29.4429L52.718 29.5334L55.8176 35.0543C55.6073 35.6305 55.1474 36.7476 54.2577 38.3637C53.6285 39.5054 52.926 40.4271 52.4831 40.9611C52.4249 41.0313 52.3679 41.1001 52.3114 41.1685C52.2705 41.2195 52.1962 41.2291 52.1419 41.1899L38.3405 31.3224V33.1815L52.2893 43.1625C52.3268 43.1898 52.3713 43.2031 52.4153 43.2031C52.4724 43.2031 52.5287 43.1809 52.5705 43.1374L52.897 42.7978L52.9196 42.7764C53.3032 42.4103 54.4187 40.9885 55.4878 39.0462C56.7438 36.7655 57.3509 35.2535 57.3766 35.1736L57.3869 35.1402L57.4069 35.0999C57.4069 35.0999 58.4218 32.5481 58.9281 29.8197C58.9363 29.7754 58.9353 29.7377 58.9039 29.6938C58.8725 29.6496 57.9551 28.374 57.9551 28.374Z" fill="white"/>
<path id="Vector_27" d="M38.3405 34.3605V36.2392L50.3435 45.1761C50.4112 45.226 50.4902 45.2502 50.5691 45.2502C50.685 45.2502 50.7995 45.1975 50.8738 45.098L51.5026 44.3934C51.5368 44.3474 51.5514 44.2907 51.5432 44.2341C51.5347 44.1775 51.5047 44.1271 51.4586 44.0932L38.3405 34.3605Z" fill="white"/>
<path id="Vector_28" d="M38.3705 27.4721H38.4251H39.056H40.0395V28.071C40.0427 28.1051 40.083 28.1468 40.1262 28.1468H40.7568C40.7868 28.1468 40.8453 28.1144 40.8453 28.0556V25.5727C40.8453 25.5214 40.8221 25.48 40.7657 25.48H40.1498C40.1227 25.48 40.0734 25.4914 40.0395 25.5117V26.6673H39.1442V25.5727C39.1442 25.5214 39.1212 25.48 39.0649 25.48H38.4491C38.4215 25.48 38.3722 25.4914 38.3388 25.5117V26.7468V27.362V27.3958L38.3463 27.4094L38.3705 27.4721Z" fill="white"/>
<path id="Vector_29" d="M47.3436 46.1676C46.9011 46.5297 46.2887 46.9973 45.5254 47.5089L43.9449 45.7495L45.1717 44.5252L47.3436 46.1676ZM32.1653 52.1079V51.5896L36.7131 48.5296C36.769 48.4923 36.8383 48.4819 36.9029 48.5016C36.9675 48.5212 37.0192 48.5682 37.0449 48.6302L38.027 51.0144C35.8155 51.6638 33.7712 51.9719 32.1653 52.1079ZM38.3406 39.3583L43.9549 43.6048L42.4626 45.0943L42.3694 46.256L44.2272 48.3247C43.7544 48.6035 43.2426 48.8861 42.693 49.1652L40.7305 45.8703L40.7225 45.8746L40.7012 45.8379C40.6601 45.7667 40.5692 45.7428 40.4977 45.7841L39.4647 46.3835C39.3937 46.425 39.3693 46.5162 39.4108 46.5868L39.4401 46.6373L39.4315 46.6426L41.3203 49.8129C40.7687 50.0552 40.1894 50.2897 39.5781 50.5094C39.5356 50.5246 39.494 50.5378 39.4515 50.5528L37.6623 46.6056C37.6205 46.5141 37.541 46.4448 37.4438 46.4171C37.3471 46.389 37.2426 46.4047 37.158 46.4598L32.1757 49.7315L32.1821 44.39C32.1821 44.308 32.1158 44.2361 32.0333 44.2357L30.8201 44.2344C30.7379 44.2344 30.6708 44.3009 30.6708 44.383L30.6615 52.1946C30.4107 52.202 30.1777 52.2057 29.971 52.2057H29.4715V47.6786C29.4715 47.6223 29.4315 47.5095 29.3644 47.4657C29.0397 47.2536 28.0822 46.6281 27.999 46.5604C27.9274 46.5016 27.8107 46.5208 27.7008 46.5721C27.6091 46.6153 24.5448 48.272 23.8582 48.6434C23.7712 48.6905 23.6973 48.7627 23.677 48.9139C23.6609 49.0305 23.5285 49.9996 23.4689 50.4348C23.4515 50.5631 23.4996 50.7064 23.5991 50.8101C23.6652 50.8786 23.9917 51.1872 24.4021 51.5718C23.0846 51.3523 22.0515 51.0511 21.3842 50.8198L24.4282 44.5583C24.4466 44.5234 24.4506 44.4831 24.4389 44.4449C24.4275 44.4071 24.4014 44.3757 24.3663 44.3573L23.0974 43.5834C23.0247 43.5453 22.919 43.5567 22.8405 43.6056C22.8405 43.6056 16.4654 46.9097 16.354 46.9689C16.2427 47.028 16.1885 47.1399 16.1778 47.2173C16.1692 47.2811 16.0118 48.4324 15.9576 48.8291C15.9462 48.9122 15.9694 49.0027 16.0411 49.0986C16.1125 49.1944 17.9481 51.2204 17.9481 51.2204L19.1624 50.3877L17.298 48.1819L22.4205 45.4141C22.4205 45.4141 19.4094 51.3918 19.3787 51.446C19.2902 51.6032 19.3144 51.7323 19.4369 51.7833C20.097 52.0591 22.3812 52.7969 24.0941 53.0521L26.4993 53.5279L27.5534 52.0045L25.0687 49.7185L27.9331 48.1836V53.6549L29.3694 53.7223L29.3868 53.7204C29.4564 53.7215 29.5471 53.7223 29.6574 53.7223C31.681 53.7223 35.459 53.5931 40.0895 51.9304C45.5101 49.984 48.9169 46.9065 49.0592 46.7725L49.7059 46.164L38.3406 37.4592V39.3583Z" fill="white"/>
<path id="Vector_30" d="M41.8498 31.1377L41.0711 31.944C41.0437 31.9726 41.0287 32.0102 41.0294 32.0499C41.0305 32.0895 41.0466 32.1265 41.0751 32.1544L41.9351 32.983C41.9637 33.01 42.0011 33.0254 42.0411 33.0243C42.0807 33.024 42.1178 33.0076 42.1457 32.9791L42.9753 32.1201C43.0028 32.0916 43.0178 32.0538 43.0171 32.0139C43.0164 31.9743 42.9999 31.9373 42.9714 31.9098L42.1353 31.1042L42.9139 30.298C42.9417 30.2691 42.9564 30.2317 42.9557 30.1922C42.9549 30.1522 42.9385 30.1152 42.91 30.0877L42.0503 29.259L42.0211 29.2372L41.9441 29.2173C41.9044 29.218 41.8673 29.2344 41.8394 29.2629L41.0099 30.1219C40.9823 30.1505 40.9673 30.1879 40.968 30.2278C40.9687 30.2674 40.9852 30.3044 41.0137 30.3323L41.8498 31.1377Z" fill="white"/>
<path id="Vector_31" d="M22.9206 10.0248H21.6182V10.676H22.9206V10.0248Z" fill="white"/>
<path id="Vector_32" d="M27.1804 10.0248H24.7956V10.676H27.1804V10.0248Z" fill="white"/>
<path id="Vector_33" d="M37.0543 10.6768H38.3629V10.0255H37.0543V10.6768Z" fill="white"/>
<path id="Vector_34" d="M35.0623 10.0248H32.6774V10.676H35.0623V10.0248Z" fill="white"/>
<path id="Vector_35" d="M31.1215 10.0248H28.7366V10.676H31.1215V10.0248Z" fill="white"/>
<path id="Vector_36" d="M24.2096 10.6736H23.5587V9.98462H24.2096V10.6736Z" fill="white"/>
<path id="Vector_37" d="M36.3836 10.674H35.7327V10.0032H36.3836V10.674Z" fill="white"/>
<path id="Vector_38" d="M22.9206 13.6116H21.6182V14.2628H22.9206V13.6116Z" fill="white"/>
<path id="Vector_39" d="M27.1804 13.6116H24.7956V14.2628H27.1804V13.6116Z" fill="white"/>
<path id="Vector_40" d="M37.0543 14.2628H38.3629V13.6116H37.0543V14.2628Z" fill="white"/>
<path id="Vector_41" d="M35.0623 13.6116H32.6774V14.2628H35.0623V13.6116Z" fill="white"/>
<path id="Vector_42" d="M31.1215 13.6116H28.7366V14.2628H31.1215V13.6116Z" fill="white"/>
<path id="Vector_43" d="M24.2096 14.2597H23.5587V13.5707H24.2096V14.2597Z" fill="white"/>
<path id="Vector_44" d="M36.3836 14.2601H35.7327V13.5892H36.3836V14.2601Z" fill="white"/>
<path id="Vector_45" d="M22.9206 17.1954H21.6182V17.847H22.9206V17.1954Z" fill="white"/>
<path id="Vector_46" d="M27.1804 17.1954H24.7956V17.847H27.1804V17.1954Z" fill="white"/>
<path id="Vector_47" d="M37.0543 17.847H38.3629V17.1954H37.0543V17.847Z" fill="white"/>
<path id="Vector_48" d="M35.0623 17.1954H32.6774V17.847H35.0623V17.1954Z" fill="white"/>
<path id="Vector_49" d="M31.1215 17.1954H28.7366V17.847H31.1215V17.1954Z" fill="white"/>
<path id="Vector_50" d="M24.2096 17.8441H23.5587V17.1552H24.2096V17.8441Z" fill="white"/>
<path id="Vector_51" d="M36.3836 17.8442H35.7327V17.1738H36.3836V17.8442Z" fill="white"/>
<path id="Vector_52" d="M36.3837 10.6566H35.7329V10.0051H36.3837V10.6566ZM36.3837 14.2523H35.7329V13.6007H36.3837V14.2523ZM36.3837 17.8455H35.7329V17.194H36.3837V17.8455ZM35.0623 21.438H32.6774V6.70124L33.4743 5.88541H34.2469L35.0623 6.70124V21.438ZM35.0623 22.7668H32.6774V22.1025H35.0623V22.7668ZM31.1216 21.438H28.7367V6.70124L29.5333 5.88541H30.3062L31.1216 6.70124V21.438ZM31.1216 22.7668H28.7367V22.1025H31.1216V22.7668ZM27.1805 21.438H24.7957V6.70124L25.5926 5.88541H26.3655L27.1805 6.70124V21.438ZM27.1805 22.7668H24.7957V22.1025H27.1805V22.7668ZM24.2099 10.6566H23.5589V10.0051H24.2099V10.6566ZM24.2099 14.2523H23.5589V13.6007H24.2099V14.2523ZM24.2099 17.8455H23.5589V17.194H24.2099V17.8455ZM22.9208 24.2144H37.0549V4.13428H22.9208V24.2144Z" fill="white"/>
</g>
</g>
</svg>
