<svg width="53" height="57" viewBox="0 0 53 57" fill="none" xmlns="http://www.w3.org/2000/svg">
<g id="Group 358">
<g id="Group 346">
<path id="Vector" d="M31.2509 0.608398V1.11808H30.7392V1.62583H30.2275V2.1372H31.7626V0.608398H31.2509Z" fill="#363087"/>
<path id="Vector_2" d="M21.1804 0.608398V1.11808H21.6921V1.62583H22.2038V2.1372H20.6687V0.608398H21.1804Z" fill="#363087"/>
<path id="Vector_3" d="M20.6687 2.64941H31.7616V3.16191H20.6687V2.64941Z" fill="#008C9D"/>
<path id="Vector_4" d="M30.5571 20.3872L30.5559 34.1065L31.7608 34.1067L31.7618 20.3872H30.5571Z" fill="#363087"/>
<path id="Vector_5" d="M28.5806 20.3872L28.5795 32.9035L27.8169 32.9032L27.8172 32.2316V32.2216L27.8174 31.027H26.6129V31.0281L20.6757 31.027V32.2301L26.6123 32.2313L26.6121 32.9032L20.6757 32.9024V34.1059L26.6117 34.1065V34.1067L27.8163 34.107V34.1067L29.7927 34.107V34.1067V33.576V32.9035L29.7939 20.3872H28.5806Z" fill="#363087"/>
<path id="Vector_6" d="M26.6008 21.593L26.601 22.362L25.8432 22.3623L25.8427 21.593H26.6008ZM21.8814 21.5936L24.638 21.5933L24.6384 22.3626H24.638V23.5661L27.8059 23.5649V23.553H27.8062L27.8056 21.5928H27.818V20.3896H27.8051H26.6005L25.8424 20.3899V20.3896H24.6378V20.3899L20.7522 20.3907V20.3952H20.6769L20.6757 30.2587L21.8803 30.259L21.8814 21.5936Z" fill="#363087"/>
<path id="Vector_7" d="M25.3777 26.3097V26.3089L25.8472 26.3091V26.3097H26.5977V26.3091L27.0671 26.3094V26.3097H27.7451H27.7846H27.8174L27.818 24.3445L27.0677 24.3442L27.0673 25.5474L26.5977 25.5472L26.5983 24.3445L25.8478 24.3442L25.8474 25.5469H25.378L25.3783 24.3445L24.628 24.3442L24.6274 25.5462V26.3086V26.3097H25.3777Z" fill="#363087"/>
<path id="Vector_8" d="M26.6114 29.0545H25.8311L25.8317 28.2281L26.6116 28.2285L26.6114 29.0545ZM27.8168 28.2287L27.8171 27.0255H27.8168H27.541L24.6744 27.0244V27.0253H24.6273L24.6266 29.0543L23.8555 29.054L23.8547 22.3608H22.6498L22.651 30.2579H23.8558V30.2571L27.8162 30.2579L27.8165 29.0548H27.816L27.8165 28.2287H27.8168Z" fill="#363087"/>
<path id="Vector_9" d="M17.3246 22.4108C17.298 22.4271 17.2793 22.4525 17.2716 22.483L17.0479 23.3928C17.0406 23.4229 17.0453 23.4543 17.0616 23.4809C17.0779 23.5077 17.1033 23.5264 17.1336 23.5338L18.0192 23.751L17.8091 24.6049C17.8019 24.6351 17.8066 24.6665 17.8229 24.693C17.8388 24.7196 17.8646 24.7387 17.895 24.7461L18.8056 24.9694L18.8339 24.9727L18.8941 24.956C18.9206 24.9398 18.9394 24.9142 18.947 24.8838L19.1705 23.9741C19.1781 23.9436 19.1734 23.9125 19.157 23.8857C19.1411 23.8591 19.1153 23.8403 19.0851 23.8328L18.1995 23.6157L18.4096 22.7619C18.4168 22.7314 18.4121 22.7004 18.3958 22.6735C18.3796 22.6469 18.3542 22.6282 18.3238 22.6206L17.413 22.3974C17.3828 22.3902 17.3512 22.3946 17.3246 22.4108Z" fill="#008C9D"/>
<path id="Vector_10" d="M12.0704 29.2013C12.0878 29.2273 12.1141 29.2449 12.1449 29.2511L12.1774 29.253L12.2326 29.2337L13.0126 28.7137C13.0661 28.6779 13.0806 28.6054 13.0448 28.5517L12.5241 27.7726C12.5067 27.7466 12.4801 27.729 12.4496 27.7229C12.4192 27.717 12.388 27.7231 12.3622 27.7405L11.582 28.2605C11.5285 28.2963 11.5139 28.3688 11.5498 28.4223L12.0704 29.2013Z" fill="#008C9D"/>
<path id="Vector_11" d="M13.1693 30.715C13.1866 30.741 13.213 30.7586 13.2438 30.7648L13.2763 30.7668L13.3315 30.7474L14.1114 30.2271C14.1649 30.1916 14.1795 30.1189 14.1437 30.0654L13.623 29.2863C13.6056 29.2601 13.579 29.2427 13.5485 29.2366C13.518 29.2307 13.4869 29.2366 13.4611 29.2542L12.6808 29.7742C12.6274 29.81 12.6128 29.8825 12.6486 29.936L13.1693 30.715Z" fill="#008C9D"/>
<path id="Vector_12" d="M17.0749 21.5638H18.0129C18.0772 21.5638 18.1296 21.5114 18.1296 21.4471V20.5103C18.1296 20.4459 18.0772 20.3936 18.0129 20.3936H17.0749C17.0105 20.3936 16.9581 20.4459 16.9581 20.5103V21.4471C16.9581 21.5114 17.0105 21.5638 17.0749 21.5638Z" fill="#008C9D"/>
<path id="Vector_13" d="M18.5913 21.5638H19.5292C19.5936 21.5638 19.646 21.5114 19.646 21.4471V20.5103C19.646 20.4459 19.5936 20.3936 19.5292 20.3936H18.5913C18.5269 20.3936 18.4745 20.4459 18.4745 20.5103V21.4471C18.4745 21.5114 18.5269 21.5638 18.5913 21.5638Z" fill="#008C9D"/>
<path id="Vector_14" d="M10.3693 23.5645L9.49101 23.2361V23.2358C9.43058 23.2134 9.36302 23.2442 9.3403 23.3043L9.01376 24.1767L8.18845 23.8677C8.15928 23.8569 8.12762 23.858 8.09909 23.8708C8.07049 23.8837 8.04897 23.907 8.03802 23.9363L7.70896 24.8133C7.698 24.8427 7.69913 24.8745 7.71202 24.9028C7.72524 24.931 7.74844 24.9529 7.77752 24.9638L8.65585 25.2922L8.69678 25.2997L8.74521 25.2891C8.77349 25.2762 8.79508 25.2531 8.80596 25.2239L9.13308 24.3515L9.95849 24.6603L9.99934 24.6678L10.048 24.6572C10.0763 24.6443 10.098 24.6212 10.1086 24.592L10.4379 23.7148C10.4604 23.6543 10.4295 23.5872 10.3693 23.5645Z" fill="#008C9D"/>
<path id="Vector_15" d="M12.0263 27.0254C12.0321 26.9948 12.026 26.9638 12.0086 26.9378L11.486 26.1598C11.4498 26.1067 11.3773 26.0924 11.3236 26.1279L10.545 26.6502C10.5192 26.6678 10.5016 26.6939 10.4954 26.7246C10.4895 26.7551 10.4957 26.7864 10.5133 26.8125L11.0357 27.5901C11.0533 27.6159 11.0796 27.6335 11.1105 27.6394L11.1399 27.6416L11.1981 27.6218L11.9767 27.0998C12.0028 27.0824 12.0204 27.0558 12.0263 27.0254Z" fill="#008C9D"/>
<path id="Vector_16" d="M19.6384 30.2734L11.4139 37.1888L12.3272 37.9398L19.6384 31.8285V30.2734Z" fill="#008C9D"/>
<path id="Vector_17" d="M19.6371 27.8941L10.6511 34.8427L9.33843 33.5083L12.7113 31.2197C12.7486 31.194 12.7578 31.1437 12.732 31.1064L12.1532 30.2636C12.1276 30.2266 12.077 30.2175 12.04 30.2429C12.04 30.2429 11.2555 30.7728 10.3705 31.3706C10.2392 31.1543 10.0957 30.9185 9.94792 30.6771L11.6348 29.5452C11.6722 29.52 11.6821 29.4697 11.6566 29.4325L11.0867 28.5837C11.0614 28.5465 11.0111 28.5365 10.9735 28.5619L10.911 28.6039L9.32507 29.6678L9.32338 29.6652C9.19509 29.4599 9.0587 29.2254 8.92342 28.9818L10.5665 28.0022C10.6055 27.9792 10.6183 27.9294 10.5954 27.8908L10.07 27.0136C10.0473 26.9747 9.99747 26.9618 9.95856 26.9848L8.36666 27.9339C8.25297 27.7113 8.15186 27.509 8.06975 27.3428L9.66173 26.4683C9.69418 26.4476 9.72415 26.4205 9.69726 26.3746L9.18868 25.4528C9.16594 25.414 9.1226 25.4106 9.0836 25.4336L5.87937 27.1853C5.10048 25.1404 4.47402 22.6224 4.33762 20.5904C4.33455 20.5453 4.31941 20.5302 4.26647 20.5358C4.22079 20.5408 3.424 20.6256 3.20613 20.6485C3.1714 20.6524 3.15239 20.6734 3.15626 20.7195C3.33779 22.7785 3.71084 25.4641 4.91428 28.4565L5.17219 28.9343L7.0285 27.9146C7.32896 28.5219 7.85663 29.5573 8.31735 30.2933C8.64367 30.8145 9.06176 31.5 9.38665 32.0353C8.6145 32.5567 7.96114 32.9978 7.91014 33.0319C7.78106 33.1181 7.78831 33.3086 7.83955 33.3786C8.6498 34.4835 9.63115 35.574 10.4638 36.3377C10.5126 36.3821 10.6506 36.3937 10.7377 36.3239C10.8167 36.2602 16.9238 31.5944 19.6371 29.4157V27.8941Z" fill="#008C9D"/>
<path id="Vector_18" d="M18.4243 26.7384L16.929 27.7135C16.6596 27.3342 16.1011 26.5487 16.1011 26.5487L18.4243 26.7384ZM6.5469 25.7702L6.55142 25.7831L6.56318 25.7895C6.57857 25.7984 6.71635 25.8726 6.76872 25.7839L7.38825 24.7351L7.38156 24.7189C7.21123 24.3004 6.75954 22.6334 6.73456 22.5744C6.80184 22.5045 6.96564 22.2708 7.43031 21.5192L13.8287 21.4033L10.4217 22.6732L10.6675 23.2609C10.6732 23.274 11.4218 24.9016 12.667 26.8735C13.8845 28.8012 14.9145 29.8631 14.9672 29.9099C14.9672 29.9099 15.0173 29.9574 15.0957 30.0237C15.1744 30.09 15.4287 30.1417 15.5335 30.0632C15.6253 29.994 18.8811 27.7326 19.5361 27.241C19.6272 27.1728 19.6507 26.995 19.6507 26.995V26.0449C19.6507 26.0449 19.5939 25.9134 19.4936 25.8924C18.7747 25.741 15.4959 25.3182 15.3719 25.2912C15.2307 25.2605 15.1089 25.3064 15.0489 25.3444C15.0013 25.3747 14.4689 25.7103 14.2499 25.8485C14.1925 25.8849 14.211 25.9802 14.2459 26.0273C14.2727 26.0634 15.4959 27.727 15.9556 28.3483L15.4195 28.6977C15.0053 28.2745 14.4384 27.4573 13.6704 26.2415C13.5251 26.0113 13.3932 25.7992 13.2672 25.5949L16.2874 23.9723C16.3689 23.996 16.3894 23.9251 16.3583 23.8684L15.9116 23.0279C15.8855 22.9787 15.8309 22.9439 15.7528 22.9825L12.6866 24.6294C12.3964 24.13 12.1791 23.7236 12.0217 23.3857L16.3541 21.6378C16.5067 21.5872 16.5983 21.435 16.5719 21.2767L16.468 20.6534C16.4414 20.4962 16.3067 20.4229 16.1471 20.4229H7.16643C6.93623 20.4229 6.79007 20.5191 6.71554 20.6346C6.65504 20.7284 5.9356 21.8415 5.66673 22.2575C5.60453 22.3542 5.59502 22.5632 5.61605 22.6353C5.88379 23.5591 6.53941 25.7475 6.5469 25.7702Z" fill="#008C9D"/>
<path id="Vector_19" d="M30.1302 36.7743L30.2722 36.3936C30.3946 36.0814 30.4907 35.6858 30.901 35.6858H31.7893V34.9697H30.7595C30.3487 34.9697 30.0751 35.3026 29.9059 35.6269C29.739 35.4335 29.59 35.2645 29.5794 35.2528L29.4841 35.1448H28.5879V35.8609H29.1962C29.3819 36.0073 30.1302 36.7743 30.1302 36.7743Z" fill="#008C9D"/>
<path id="Vector_20" d="M18.3501 33.512C18.3195 33.5053 18.2882 33.5109 18.2618 33.5277C18.2358 33.5445 18.2176 33.5705 18.2108 33.601L18.0146 34.4902L17.155 34.3012C17.1248 34.2944 17.0931 34.3001 17.0671 34.3168C17.0407 34.3337 17.0226 34.3596 17.0158 34.3902L16.8142 35.305C16.8074 35.3354 16.8127 35.3668 16.8295 35.393C16.8464 35.4191 16.8727 35.4373 16.903 35.4439L17.819 35.6456C17.8495 35.6523 17.881 35.6467 17.907 35.63C17.9334 35.6132 17.9515 35.5869 17.9582 35.5567L18.1543 34.6671L19.0141 34.8564C19.0444 34.8632 19.0757 34.8576 19.1021 34.8408C19.1284 34.824 19.1466 34.798 19.1533 34.7675L19.355 33.8528L19.3574 33.8245L19.3392 33.7647C19.3224 33.7386 19.2964 33.7205 19.2658 33.7135L18.3501 33.512Z" fill="#008C9D"/>
<path id="Vector_21" d="M23.4988 36.3708C23.5206 36.3932 23.5498 36.4057 23.5808 36.4063C23.6122 36.4066 23.6416 36.3949 23.664 36.3733L24.3189 35.7397L24.9313 36.3708C24.9532 36.3935 24.9823 36.4057 25.0134 36.4063C25.0447 36.4069 25.0741 36.3952 25.0965 36.3733L25.7701 35.7219L25.7878 35.6997L25.8057 35.6396C25.806 35.6085 25.7944 35.5792 25.7726 35.5565L25.12 34.8841C25.0982 34.8614 25.0692 34.8487 25.038 34.8485C25.0066 34.8479 24.9773 34.8597 24.9548 34.8812L24.3001 35.5151L23.6875 34.8837C23.6657 34.8614 23.6365 34.8487 23.6054 34.8481C23.5741 34.8479 23.5447 34.8594 23.5223 34.8812L22.8487 35.5331C22.8266 35.5548 22.8137 35.5839 22.8132 35.615C22.8126 35.646 22.8244 35.6756 22.8462 35.698L23.4988 36.3708Z" fill="#008C9D"/>
<path id="Vector_22" d="M49.1433 20.3936H35.5539C35.5024 20.3936 35.4607 20.4352 35.4607 20.4868V21.4851C35.4607 21.5366 35.5024 21.5783 35.5539 21.5783H49.1579C49.2338 21.5783 49.2957 21.5167 49.2957 21.4409V20.5457C49.2957 20.4618 49.2274 20.3936 49.1433 20.3936Z" fill="#008C9D"/>
<path id="Vector_23" d="M38.3359 23.6248C38.4003 23.6248 38.4526 23.5725 38.4526 23.5082V22.5713C38.4526 22.5069 38.4003 22.4546 38.3359 22.4546H37.3977C37.3336 22.4546 37.2811 22.5069 37.2811 22.5713V23.5082C37.2811 23.5725 37.3336 23.6248 37.3979 23.6248H38.3359Z" fill="#008C9D"/>
<path id="Vector_24" d="M33.4267 36.3977L33.4852 36.382L34.296 35.9112C34.3232 35.8958 34.3423 35.8706 34.3504 35.8401C34.3585 35.8102 34.354 35.7789 34.3383 35.7515L33.8669 34.9418C33.8347 34.8863 33.7634 34.8672 33.7074 34.8996L32.8963 35.3704C32.8408 35.4026 32.8218 35.4742 32.8543 35.5296L33.3256 36.3395C33.3472 36.377 33.3863 36.3977 33.4267 36.3977Z" fill="#008C9D"/>
<path id="Vector_25" d="M36.9508 24.7887C36.8758 24.8472 36.833 24.9353 36.833 25.0304V26.3796C36.833 26.4775 36.8803 26.5701 36.9598 26.6277C37.1853 26.7841 41.8618 30.3153 42.015 30.4009C42.0349 30.4121 42.0694 30.4171 42.1184 30.4171C42.2285 30.4171 43.4252 30.3075 43.7215 30.2764C43.7634 30.272 43.805 30.2409 43.8151 30.2238C44.0663 29.8051 44.8656 28.0902 44.9717 27.7475C44.9885 27.6933 44.9838 27.6387 44.9583 27.5934C44.7991 27.3123 44.6955 27.1721 44.4219 26.802L44.339 26.6895C44.3211 26.6658 44.2828 26.6297 44.2626 26.6594C44.1327 27.0443 43.2538 29.0072 43.1919 29.0962C43.0115 29.1175 42.3646 29.1781 42.2082 29.1802L38.0266 26.1441L42.0389 27.016C42.1973 27.0558 42.3646 27.0233 42.4976 26.9279C42.6304 26.8325 42.7141 26.6842 42.7272 26.5212L42.9365 23.8048C42.9423 23.736 42.9236 23.6667 42.8843 23.6098L42.1731 22.5781C42.1164 22.4965 42.0237 22.4478 41.924 22.4478L39.2648 22.4576C39.2135 22.4576 39.1721 22.4989 39.1721 22.5502V23.5494C39.1721 23.6006 39.2135 23.6423 39.2651 23.6423L41.6607 23.6329C41.6868 23.6329 41.7109 23.6431 41.7283 23.6621C41.7459 23.6812 41.7543 23.7058 41.7523 23.7319L41.6036 25.5063L37.2141 24.7324C37.1217 24.7095 37.0259 24.73 36.9508 24.7887Z" fill="#008C9D"/>
<path id="Vector_26" d="M46.986 26.266C46.6405 25.6439 46.1654 24.8138 45.5593 23.8183L45.5554 23.7482C45.5672 23.7257 45.5898 23.7122 45.6154 23.7122L47.6128 23.7905L47.6669 23.8172L47.678 23.8761L46.986 26.266ZM48.1662 22.6598C48.1662 22.6598 48.0948 22.5717 47.9327 22.5717C47.7705 22.5717 44.168 22.4937 44.168 22.4937C44.1298 22.4937 44.0946 22.5147 44.0682 22.542C44.042 22.5695 44.0285 22.6055 44.0299 22.6433L44.0333 23.4988L44.056 23.5698L46.4887 27.9028C46.3236 28.3551 45.9627 29.2318 45.2644 30.5002C44.7706 31.3963 44.2192 32.1196 43.8716 32.5387C43.826 32.5938 43.7812 32.6478 43.7369 32.7015C43.7048 32.7415 43.6465 32.7491 43.6039 32.7183L32.7721 24.9739V26.433L43.7196 34.2664C43.749 34.2879 43.7839 34.2983 43.8185 34.2983C43.8632 34.2983 43.9075 34.2809 43.9403 34.2468L44.1965 33.9802L44.2142 33.9634C44.5153 33.6761 45.3908 32.5602 46.2298 31.0359C47.2156 29.2458 47.6921 28.0591 47.7122 27.9965L47.7203 27.9702L47.736 27.9386C47.736 27.9386 48.5325 25.9359 48.9299 23.7945C48.9364 23.7598 48.9356 23.7301 48.9109 23.6957C48.8863 23.661 48.1662 22.6598 48.1662 22.6598Z" fill="#008C9D"/>
<path id="Vector_27" d="M32.7721 27.3574V28.832L42.1924 35.846C42.2456 35.8851 42.3076 35.9041 42.3695 35.9041C42.4604 35.9041 42.5503 35.8628 42.6086 35.7847L43.1021 35.2317C43.1289 35.1956 43.1404 35.1511 43.134 35.1066C43.1273 35.0622 43.1038 35.0227 43.0676 34.9961L32.7721 27.3574Z" fill="#008C9D"/>
<path id="Vector_28" d="M32.7935 21.9507H32.8363H33.3314H34.1033V22.4207C34.1058 22.4475 34.1375 22.4802 34.1714 22.4802H34.6663C34.6898 22.4802 34.7357 22.4548 34.7357 22.4087V20.46C34.7357 20.4197 34.7175 20.3872 34.6733 20.3872H34.1899C34.1686 20.3872 34.1299 20.3961 34.1033 20.4121V21.319H33.4006V20.46C33.4006 20.4197 33.3826 20.3872 33.3384 20.3872H32.8551C32.8335 20.3872 32.7948 20.3961 32.7686 20.4121V21.3815V21.8643V21.8908L32.7744 21.9015L32.7935 21.9507Z" fill="#008C9D"/>
<path id="Vector_29" d="M39.8372 36.6247C39.49 36.909 39.0094 37.2759 38.4103 37.6774L37.1699 36.2966L38.1327 35.3357L39.8372 36.6247ZM27.9249 41.2869V40.8802L31.4941 38.4786C31.538 38.4492 31.5924 38.4411 31.643 38.4565C31.6938 38.4719 31.7344 38.5089 31.7545 38.5575L32.5253 40.4287C30.7896 40.9383 29.1852 41.1801 27.9249 41.2869ZM32.7714 31.2805L37.1777 34.6133L36.0065 35.7824L35.9334 36.6941L37.3914 38.3177C37.0203 38.5365 36.6186 38.7583 36.1874 38.9774L34.6471 36.3914L34.6408 36.3948L34.6241 36.366C34.5918 36.3101 34.5205 36.2913 34.4644 36.3237L33.6537 36.7942C33.5979 36.8267 33.5788 36.8983 33.6114 36.9537L33.6343 36.9934L33.6276 36.9976L35.11 39.4857C34.677 39.6759 34.2224 39.86 33.7427 40.0323C33.7093 40.0443 33.6766 40.0547 33.6433 40.0664L32.2391 36.9685C32.2063 36.8966 32.1438 36.8423 32.0676 36.8205C31.9917 36.7985 31.9097 36.8108 31.8433 36.8541L27.933 39.4219L27.938 35.2296C27.938 35.1653 27.886 35.1088 27.8212 35.1085L26.869 35.1074C26.8046 35.1074 26.7519 35.1597 26.7519 35.2241L26.7446 41.3549C26.5478 41.3608 26.3649 41.3636 26.2027 41.3636H25.8106V37.8106C25.8106 37.7664 25.7793 37.6779 25.7266 37.6435C25.4717 37.4771 24.7203 36.9861 24.655 36.933C24.5988 36.8869 24.5072 36.902 24.4209 36.9422C24.349 36.9761 21.944 38.2763 21.4051 38.5678C21.3368 38.6048 21.2789 38.6615 21.2629 38.7801C21.2503 38.8716 21.1464 39.6323 21.0996 39.9738C21.0859 40.0745 21.1237 40.187 21.2018 40.2683C21.2537 40.3221 21.5099 40.5643 21.832 40.8661C20.798 40.6939 19.9872 40.4575 19.4635 40.2759L21.8525 35.3617C21.867 35.3343 21.8701 35.3027 21.8609 35.2727C21.8519 35.243 21.8315 35.2184 21.804 35.2039L20.8081 34.5966C20.751 34.5666 20.6681 34.5756 20.6064 34.6139C20.6064 34.6139 15.603 37.2071 15.5156 37.2536C15.4283 37.3 15.3857 37.3878 15.3773 37.4486C15.3706 37.4987 15.247 38.4022 15.2045 38.7136C15.1956 38.7788 15.2137 38.8498 15.27 38.9251C15.3261 39.0003 16.7667 40.5904 16.7667 40.5904L17.7198 39.9368L16.2565 38.2056L20.2768 36.0334C20.2768 36.0334 17.9136 40.7249 17.8895 40.7674C17.8201 40.8908 17.839 40.9921 17.9352 41.0321C18.4533 41.2486 20.246 41.8277 21.5903 42.028L23.478 42.4014L24.3053 41.2058L22.3552 39.4116L24.6032 38.2069V42.5011L25.7306 42.5539L25.7442 42.5525C25.7988 42.5533 25.87 42.5539 25.9566 42.5539C27.5448 42.5539 30.5099 42.4526 34.144 41.1476C38.3983 39.62 41.072 37.2047 41.1837 37.0994L41.6913 36.6219L32.7714 29.79V31.2805Z" fill="#008C9D"/>
<path id="Vector_30" d="M35.5264 24.8295L34.9153 25.4623C34.8938 25.4847 34.882 25.5143 34.8825 25.5454C34.8834 25.5765 34.896 25.6055 34.9184 25.6274L35.5934 26.2777C35.6158 26.299 35.6452 26.311 35.6765 26.3102C35.7076 26.31 35.7367 26.297 35.7586 26.2747L36.4097 25.6005C36.4313 25.5782 36.4431 25.5485 36.4425 25.5171C36.442 25.486 36.429 25.457 36.4067 25.4355L35.7505 24.8032L36.3615 24.1704C36.3834 24.1477 36.3949 24.1184 36.3944 24.0874C36.3938 24.056 36.3809 24.027 36.3585 24.0054L35.6838 23.355L35.6608 23.3379L35.6004 23.3223C35.5693 23.3228 35.5401 23.3357 35.5183 23.3581L34.8672 24.0323C34.8455 24.0547 34.8338 24.084 34.8344 24.1153C34.8349 24.1464 34.8478 24.1755 34.8702 24.1974L35.5264 24.8295Z" fill="#008C9D"/>
<path id="Vector_31" d="M20.6698 8.25781H19.6476V8.76894H20.6698V8.25781Z" fill="#008C9D"/>
<path id="Vector_32" d="M24.0114 8.25781H22.1397V8.76894H24.0114V8.25781Z" fill="#008C9D"/>
<path id="Vector_33" d="M31.7596 8.76894H32.7866V8.25781H31.7596V8.76894Z" fill="#008C9D"/>
<path id="Vector_34" d="M30.2002 8.25781H28.3285V8.76894H30.2002V8.25781Z" fill="#008C9D"/>
<path id="Vector_35" d="M27.1036 8.25781H25.2319V8.76894H27.1036V8.25781Z" fill="#008C9D"/>
<path id="Vector_36" d="M21.6818 8.7683H21.171V8.22754H21.6818V8.7683Z" fill="#008C9D"/>
<path id="Vector_37" d="M31.2371 8.76822H30.7263V8.2417H31.2371V8.76822Z" fill="#008C9D"/>
<path id="Vector_38" d="M20.6698 11.0728H19.6476V11.5839H20.6698V11.0728Z" fill="#008C9D"/>
<path id="Vector_39" d="M24.0114 11.0737H22.1397V11.5849H24.0114V11.0737Z" fill="#008C9D"/>
<path id="Vector_40" d="M31.7596 11.5849H32.7866V11.0737H31.7596V11.5849Z" fill="#008C9D"/>
<path id="Vector_41" d="M30.2002 11.0737H28.3285V11.5849H30.2002V11.0737Z" fill="#008C9D"/>
<path id="Vector_42" d="M27.1036 11.0737H25.2319V11.5849H27.1036V11.0737Z" fill="#008C9D"/>
<path id="Vector_43" d="M21.6818 11.5813H21.171V11.0405H21.6818V11.5813Z" fill="#008C9D"/>
<path id="Vector_44" d="M31.2371 11.5802H30.7263V11.0537H31.2371V11.5802Z" fill="#008C9D"/>
<path id="Vector_45" d="M20.6698 13.8843H19.6476V14.3956H20.6698V13.8843Z" fill="#008C9D"/>
<path id="Vector_46" d="M24.0114 13.8843H22.1397V14.3956H24.0114V13.8843Z" fill="#008C9D"/>
<path id="Vector_47" d="M31.7596 14.3956H32.7866V13.8843H31.7596V14.3956Z" fill="#008C9D"/>
<path id="Vector_48" d="M30.2002 13.8843H28.3285V14.3956H30.2002V13.8843Z" fill="#008C9D"/>
<path id="Vector_49" d="M27.1036 13.8843H25.2319V14.3956H27.1036V13.8843Z" fill="#008C9D"/>
<path id="Vector_50" d="M21.6818 14.3962H21.171V13.8555H21.6818V14.3962Z" fill="#008C9D"/>
<path id="Vector_51" d="M31.2371 14.3948H30.7263V13.8687H31.2371V14.3948Z" fill="#008C9D"/>
<path id="Vector_52" d="M31.2349 8.75475H30.7241V8.24338H31.2349V8.75475ZM31.2349 11.5768H30.7241V11.0654H31.2349V11.5768ZM31.2349 14.3969H30.7241V13.8855H31.2349V14.3969ZM30.1977 17.2164H28.326V5.6504L28.9514 5.0101H29.5578L30.1977 5.6504V17.2164ZM30.1977 18.2593H28.326V17.7379H30.1977V18.2593ZM27.1049 17.2164H25.2333V5.6504L25.8584 5.0101H26.4651L27.1049 5.6504V17.2164ZM27.1049 18.2593H25.2333V17.7379H27.1049V18.2593ZM24.0119 17.2164H22.1402V5.6504L22.7656 5.0101H23.3723L24.0119 5.6504V17.2164ZM24.0119 18.2593H22.1402V17.7379H24.0119V18.2593ZM21.6804 8.75475H21.1695V8.24338H21.6804V8.75475ZM21.6804 11.5768H21.1695V11.0654H21.6804V11.5768ZM21.6804 14.3969H21.1695V13.8855H21.6804V14.3969ZM20.6687 19.3954H31.7616V3.63574H20.6687V19.3954Z" fill="#008C9D"/>
</g>
<g id="Group 345">
<path id="Vector_53" d="M4.43566 46.3126C4.43566 46.2298 4.46603 46.1572 4.52687 46.0948C4.5877 46.0325 4.66119 46.001 4.74724 46.001C4.83055 46.001 4.90323 46.0318 4.96567 46.0925C5.02803 46.1533 5.05881 46.2267 5.05881 46.3126C5.05881 46.3954 5.02844 46.468 4.96801 46.5304C4.90717 46.5927 4.83377 46.6234 4.74724 46.6234C4.66119 46.6234 4.5877 46.5935 4.52687 46.5328C4.46603 46.472 4.43566 46.3986 4.43566 46.3126ZM4.81435 48.7022V47.4715C4.69317 47.414 4.54113 47.3856 4.35904 47.3856C4.18331 47.3856 4.04432 47.4447 3.94199 47.5647C3.83974 47.6845 3.78882 47.84 3.78882 48.0317C3.78882 48.479 4.02813 48.7022 4.50753 48.7022H4.81435ZM3.66877 46.3126C3.66877 46.2298 3.69915 46.1572 3.75997 46.0948C3.8204 46.0325 3.89421 46.001 3.98034 46.001C4.0668 46.001 4.14028 46.0309 4.20111 46.0902C4.26154 46.1493 4.29192 46.2235 4.29192 46.3126C4.29192 46.3986 4.26227 46.472 4.20345 46.5328C4.14423 46.5935 4.06994 46.6234 3.98034 46.6234C3.89067 46.6234 3.81646 46.5935 3.75756 46.5328C3.69834 46.472 3.66877 46.3986 3.66877 46.3126ZM5.92215 49.2001H4.43566C3.58264 49.2001 3.15576 48.83 3.15576 48.0893C3.15576 47.7508 3.26276 47.466 3.47684 47.2341C3.69125 47.0029 4.00597 46.8869 4.42148 46.8869C4.59085 46.8869 4.75948 46.9012 4.92732 46.928C5.09515 46.9548 5.22036 46.9832 5.30367 47.0116L5.42807 47.055V48.7022H5.92215V49.2001Z" fill="#363087"/>
<path id="Vector_54" d="M6.88823 50.0813C6.82739 50.0205 6.79742 49.9472 6.79742 49.8612C6.79742 49.7744 6.82739 49.701 6.88823 49.6402C6.94906 49.5796 7.02246 49.5495 7.109 49.5495C7.19191 49.5495 7.26458 49.5796 7.32695 49.6402C7.38939 49.701 7.42057 49.7744 7.42057 49.8612C7.42057 49.944 7.39019 50.0166 7.32936 50.0789C7.26853 50.1412 7.19505 50.172 7.109 50.172C7.02246 50.172 6.94906 50.142 6.88823 50.0813ZM6.12133 50.0813C6.0605 50.0205 6.03004 49.9472 6.03004 49.8612C6.03004 49.7744 6.0605 49.701 6.12133 49.6402C6.18176 49.5796 6.25557 49.5495 6.3417 49.5495C6.42501 49.5495 6.49769 49.5796 6.56005 49.6402C6.6221 49.701 6.65328 49.7744 6.65328 49.8612C6.65328 49.944 6.62282 50.0166 6.56239 50.0789C6.50164 50.1412 6.42815 50.172 6.3417 50.172C6.25557 50.172 6.18176 50.142 6.12133 50.0813ZM5.84803 49.2C5.79034 49.2 5.72798 49.1764 5.66086 49.1282C5.59407 49.0801 5.56055 49.021 5.56055 48.9508C5.56055 48.8838 5.59407 48.8261 5.66086 48.7764C5.72798 48.7267 5.79034 48.7023 5.84803 48.7023H6.41357V46.9492H7.04655V48.7023H7.54022V49.2H5.84803Z" fill="#363087"/>
<path id="Vector_55" d="M9.09516 46.3126C9.09516 46.2298 9.12556 46.1572 9.18641 46.0948C9.24684 46.0325 9.32068 46.001 9.40674 46.001C9.49007 46.001 9.56277 46.0318 9.62519 46.0925C9.68713 46.1533 9.71831 46.2267 9.71831 46.3126C9.71831 46.3954 9.68798 46.468 9.62755 46.5304C9.56669 46.5927 9.49327 46.6234 9.40674 46.6234C9.32068 46.6234 9.24684 46.5935 9.18641 46.5328C9.12556 46.472 9.09516 46.3986 9.09516 46.3126ZM9.5505 48.7022V48.0648C9.5505 47.612 9.37954 47.3856 9.03787 47.3856C8.86176 47.3856 8.72277 47.4447 8.62052 47.5647C8.51819 47.6845 8.46727 47.84 8.46727 48.0317C8.46727 48.2581 8.52529 48.4269 8.64219 48.5366C8.7587 48.647 8.9404 48.7022 9.18641 48.7022H9.5505ZM8.32829 46.3126C8.32829 46.2298 8.35866 46.1572 8.41949 46.0948C8.47992 46.0325 8.55333 46.001 8.63986 46.001C8.72591 46.001 8.79979 46.0309 8.86022 46.0902C8.92106 46.1493 8.95146 46.2235 8.95146 46.3126C8.95146 46.3986 8.92179 46.472 8.86256 46.5328C8.80375 46.5935 8.72905 46.6234 8.63986 46.6234C8.55018 46.6234 8.47598 46.5935 8.41667 46.5328C8.35785 46.472 8.32829 46.3986 8.32829 46.3126ZM10.169 49.2001H7.4701C7.41241 49.2001 7.35005 49.1764 7.28293 49.1283C7.21614 49.0802 7.18262 49.021 7.18262 48.9508C7.18262 48.8837 7.21614 48.8261 7.28293 48.7765C7.35005 48.7267 7.41241 48.7022 7.4701 48.7022H7.83937C7.89029 48.7022 7.93807 48.7055 7.98311 48.7117C8.02774 48.718 8.05974 48.7244 8.07907 48.7306L8.10751 48.7354C7.92856 48.6044 7.83937 48.3764 7.83937 48.0506C7.83937 47.7256 7.9487 47.4502 8.16754 47.2246C8.3863 46.9998 8.69239 46.8869 9.08567 46.8869C9.44976 46.8869 9.72158 46.984 9.90081 47.1773C10.0797 47.3698 10.169 47.6404 10.169 47.9883V49.2001Z" fill="#363087"/>
<path id="Vector_56" d="M10.516 50.4165C10.375 50.4165 10.2408 50.4 10.1132 50.3684L10.161 49.8659C10.2921 49.9037 10.4217 49.9235 10.5496 49.9235C10.7222 49.9235 10.8512 49.873 10.9378 49.772C11.0238 49.6718 11.0673 49.4983 11.0673 49.2529V46.9492H11.6999V48.7023H12.1936V49.2H11.6999V49.219C11.6999 49.3886 11.6834 49.5385 11.6498 49.6695C11.6162 49.8004 11.5578 49.9251 11.4745 50.0427C11.3915 50.161 11.2691 50.2525 11.108 50.318C10.9464 50.3834 10.749 50.4165 10.516 50.4165Z" fill="#363087"/>
<path id="Vector_57" d="M14.3775 46.3369C14.3775 46.2541 14.4087 46.1816 14.4711 46.1191C14.5335 46.0568 14.6062 46.0261 14.6891 46.0261C14.7757 46.0261 14.8491 46.0561 14.9099 46.1168C14.9703 46.1776 15.0007 46.2509 15.0007 46.3369C15.0007 46.4206 14.9703 46.4931 14.9099 46.5547C14.8491 46.617 14.7757 46.6486 14.6891 46.6486C14.6062 46.6486 14.5335 46.6178 14.4711 46.5578C14.4087 46.4971 14.3775 46.4237 14.3775 46.3369ZM13.9846 45.7098C13.9846 45.627 14.015 45.5544 14.0754 45.492C14.1362 45.4297 14.2097 45.3989 14.2961 45.3989C14.3823 45.3989 14.4557 45.4289 14.5165 45.4896C14.5774 45.5504 14.6077 45.6237 14.6077 45.7098C14.6077 45.7926 14.5774 45.8651 14.5165 45.9274C14.4557 45.9899 14.3823 46.0214 14.2961 46.0214C14.2097 46.0214 14.1362 45.9906 14.0754 45.9299C14.015 45.8699 13.9846 45.7957 13.9846 45.7098ZM13.5866 46.3369C13.5866 46.2541 13.6169 46.1816 13.6778 46.1191C13.7386 46.0568 13.812 46.0261 13.8982 46.0261C13.9814 46.0261 14.0541 46.0561 14.1165 46.1168C14.1785 46.1776 14.2097 46.2509 14.2097 46.3369C14.2097 46.4206 14.1785 46.4931 14.1165 46.5547C14.0541 46.617 13.9814 46.6486 13.8982 46.6486C13.812 46.6486 13.7386 46.6178 13.6778 46.5578C13.6169 46.4971 13.5866 46.4237 13.5866 46.3369ZM15.1303 49.2008C14.868 49.2008 14.6702 49.1778 14.5359 49.1313C14.4017 49.0847 14.3009 48.9979 14.2338 48.8701C14.1829 48.979 14.094 49.0674 13.9676 49.1361C13.8417 49.2047 13.6888 49.2394 13.51 49.2394C13.3531 49.2394 13.2165 49.2055 13.1 49.1383C12.9835 49.0713 12.9057 48.9806 12.8673 48.8655C12.7718 49.0887 12.5589 49.2008 12.2299 49.2008H12.0621C12.0045 49.2008 11.942 49.1771 11.875 49.1289C11.8083 49.0808 11.7747 49.0217 11.7747 48.9514C11.7747 48.8844 11.8083 48.8268 11.875 48.7771C11.942 48.7274 12.0045 48.7029 12.0621 48.7029H12.2347C12.3947 48.7029 12.5064 48.6611 12.5704 48.5782C12.634 48.4954 12.666 48.3384 12.666 48.1088V47.2371H13.299V48.123C13.299 48.3534 13.3208 48.5136 13.3638 48.6043C13.4068 48.6958 13.4957 48.7408 13.63 48.7408C13.7607 48.7408 13.8583 48.695 13.9222 48.602C13.9862 48.5096 14.0182 48.3519 14.0182 48.1278V47.0462H14.6272V48.2477C14.6272 48.4331 14.6662 48.5554 14.7444 48.6138C14.8226 48.673 14.9739 48.7029 15.1974 48.7029H15.327C15.3459 48.5112 15.3558 48.3195 15.3558 48.1278C15.3558 47.6875 15.3091 47.2599 15.2167 46.845L15.8352 46.7582C15.9374 47.1898 15.9884 47.6315 15.9884 48.0852C15.9884 48.3085 15.9821 48.5143 15.9694 48.7029H16.4438V49.2008H15.1303Z" fill="#363087"/>
<path id="Vector_58" d="M17.5741 49.2H16.3755C16.3179 49.2 16.2554 49.1764 16.1883 49.1283C16.1216 49.0802 16.088 49.021 16.088 48.9507C16.088 48.8837 16.1216 48.8262 16.1883 48.7764C16.2554 48.7267 16.3179 48.7023 16.3755 48.7023H16.941V45.8242H17.5741V49.2Z" fill="#363087"/>
<path id="Vector_59" d="M18.34 45.8242H18.973V49.2H18.34V45.8242Z" fill="#363087"/>
<path id="Vector_60" d="M21.9294 46.3126C21.9294 46.2298 21.9598 46.1572 22.0206 46.0948C22.0814 46.0325 22.1549 46.001 22.241 46.001C22.3243 46.001 22.397 46.0318 22.4594 46.0925C22.5218 46.1533 22.5525 46.2267 22.5525 46.3126C22.5525 46.3954 22.5222 46.468 22.4618 46.5304C22.4009 46.5927 22.3275 46.6234 22.241 46.6234C22.1549 46.6234 22.0814 46.5935 22.0206 46.5328C21.9598 46.472 21.9294 46.3986 21.9294 46.3126ZM22.3081 48.7022V47.4715C22.1869 47.414 22.0349 47.3856 21.8528 47.3856C21.677 47.3856 21.538 47.4447 21.4357 47.5647C21.3335 47.6845 21.2825 47.84 21.2825 48.0317C21.2825 48.479 21.5218 48.7022 22.0013 48.7022H22.3081ZM21.1625 46.3126C21.1625 46.2298 21.1929 46.1572 21.2537 46.0948C21.3141 46.0325 21.3879 46.001 21.4741 46.001C21.5605 46.001 21.634 46.0309 21.6948 46.0902C21.7553 46.1493 21.7857 46.2235 21.7857 46.3126C21.7857 46.3986 21.756 46.472 21.6972 46.5328C21.638 46.5935 21.5637 46.6234 21.4741 46.6234C21.3844 46.6234 21.3102 46.5935 21.2513 46.5328C21.1921 46.472 21.1625 46.3986 21.1625 46.3126ZM23.4159 49.2001H21.9294C21.0764 49.2001 20.6495 48.83 20.6495 48.0893C20.6495 47.7508 20.7565 47.466 20.9706 47.2341C21.185 47.0029 21.4997 46.8869 21.9152 46.8869C22.0846 46.8869 22.2532 46.9012 22.421 46.928C22.5889 46.9548 22.7141 46.9832 22.7974 47.0116L22.9218 47.055V48.7022H23.4159V49.2001Z" fill="#363087"/>
<path id="Vector_61" d="M24.9535 46.3126C24.9535 46.2298 24.9839 46.1572 25.0443 46.0948C25.1051 46.0325 25.1786 46.001 25.2651 46.001C25.348 46.001 25.4207 46.0318 25.4831 46.0925C25.5455 46.1533 25.5767 46.2267 25.5767 46.3126C25.5767 46.3954 25.5463 46.468 25.4855 46.5304C25.4246 46.5927 25.3512 46.6234 25.2651 46.6234C25.1786 46.6234 25.1051 46.5935 25.0443 46.5328C24.9839 46.472 24.9535 46.3986 24.9535 46.3126ZM24.867 48.7022C25.0238 48.7022 25.1525 48.6447 25.2528 48.5295C25.3536 48.4151 25.4041 48.2502 25.4041 48.0364C25.4041 47.6024 25.2283 47.3856 24.8769 47.3856C24.7265 47.3856 24.5993 47.4392 24.4954 47.5481C24.3915 47.657 24.3398 47.8163 24.3398 48.0269C24.3398 48.4766 24.5155 48.7022 24.867 48.7022ZM24.1862 46.3126C24.1862 46.2298 24.2166 46.1572 24.2774 46.0948C24.3383 46.0325 24.4116 46.001 24.4982 46.001C24.5842 46.001 24.6577 46.0309 24.7186 46.0902C24.7794 46.1493 24.8098 46.2235 24.8098 46.3126C24.8098 46.3986 24.7801 46.472 24.7209 46.5328C24.6617 46.5935 24.5874 46.6234 24.4982 46.6234C24.4085 46.6234 24.3343 46.5935 24.275 46.5328C24.2158 46.472 24.1862 46.3986 24.1862 46.3126ZM26.3345 49.2001H23.3426C23.285 49.2001 23.2226 49.1764 23.1554 49.1283C23.0887 49.0802 23.0551 49.021 23.0551 48.9508C23.0551 48.8837 23.0887 48.8261 23.1554 48.7765C23.2226 48.7267 23.285 48.7022 23.3426 48.7022H23.6302L23.9275 48.7259C23.7771 48.5761 23.7021 48.3607 23.7021 48.0798C23.7021 47.7319 23.8157 47.4455 24.0425 47.2223C24.2695 46.999 24.5633 46.8869 24.9247 46.8869C25.273 46.8869 25.5455 46.9809 25.7422 47.167C25.9388 47.354 26.0367 47.6325 26.0367 48.0032C26.0367 48.1468 26.013 48.2849 25.9649 48.4175C25.9175 48.55 25.8484 48.6526 25.7587 48.7259C25.893 48.7101 26.0163 48.7022 26.1284 48.7022H26.3345V49.2001Z" fill="#363087"/>
<path id="Vector_62" d="M27.4579 48.7022H28.2296C28.5108 48.7022 28.7083 48.6406 28.822 48.5175C28.935 48.3945 28.9918 48.2265 28.9918 48.0126C28.9918 47.5977 28.8275 47.3902 28.4982 47.3902C28.2493 47.3902 28.0259 47.5211 27.8292 47.7823C27.6333 48.0443 27.5093 48.3511 27.4579 48.7022ZM28.172 49.2H26.2645C26.2069 49.2 26.1444 49.1763 26.0774 49.1281C26.0102 49.08 25.9771 49.0209 25.9771 48.9507C25.9771 48.8837 26.0102 48.826 26.0774 48.7763C26.1444 48.7266 26.2069 48.7022 26.2645 48.7022H26.8301V45.8242H27.4627V47.0691C27.4627 47.3373 27.4438 47.5732 27.405 47.7775H27.4146C27.5172 47.4967 27.6791 47.2782 27.9019 47.122C28.1238 46.9657 28.3655 46.8869 28.6277 46.8869C28.9571 46.8869 29.2082 46.9831 29.3804 47.1748C29.5534 47.3657 29.6394 47.6324 29.6394 47.974C29.6394 48.2675 29.5707 48.5105 29.4334 48.7022H29.9507V49.2H28.2493H28.172Z" fill="#363087"/>
<path id="Vector_63" d="M30.5302 46.5608C30.4645 46.4953 30.4321 46.4181 30.4321 46.3281C30.4321 46.239 30.4645 46.1617 30.5302 46.0961C30.5957 46.0307 30.6731 45.9976 30.7632 45.9976C30.8524 45.9976 30.9298 46.0307 30.9954 46.0961C31.0609 46.1617 31.0932 46.239 31.0932 46.3281C31.0932 46.4181 31.0609 46.4953 30.9954 46.5608C30.9298 46.6263 30.8524 46.6587 30.7632 46.6587C30.6731 46.6587 30.5957 46.6263 30.5302 46.5608ZM29.8809 49.2014C29.8233 49.2014 29.7608 49.1777 29.6937 49.1296C29.6266 49.0815 29.5934 49.0223 29.5934 48.9521C29.5934 48.885 29.6266 48.8274 29.6937 48.7777C29.7608 48.728 29.8233 48.7036 29.8809 48.7036H30.4464V46.9506H31.0791V48.7036H31.5728V49.2014H29.8809Z" fill="#363087"/>
<path id="Vector_64" d="M33.7163 48.703V48.0656C33.7163 47.6127 33.5457 47.3863 33.2037 47.3863C33.0276 47.3863 32.8886 47.4454 32.7866 47.5654C32.684 47.6853 32.6335 47.8408 32.6335 48.0325C32.6335 48.2588 32.6919 48.4277 32.808 48.5373C32.9249 48.6478 33.1065 48.703 33.3522 48.703H33.7163ZM33.3522 49.2008C33.0331 49.2008 32.7977 49.1709 32.6476 49.1101C32.4975 49.0493 32.3744 48.9563 32.2788 48.8324C32.1824 49.0777 31.9558 49.2008 31.598 49.2008H31.4968C31.4392 49.2008 31.3768 49.1771 31.3097 49.129C31.2434 49.0809 31.2094 49.0217 31.2094 48.9515C31.2094 48.8845 31.2434 48.8269 31.3097 48.7771C31.3768 48.7275 31.4392 48.703 31.4968 48.703H31.5308C31.6841 48.703 31.8017 48.6533 31.8831 48.5547C31.9645 48.4553 32.0055 48.288 32.0055 48.0514C32.0055 47.7263 32.1145 47.451 32.3333 47.2254C32.5521 47.0006 32.8585 46.8877 33.2519 46.8877C33.616 46.8877 33.8877 46.9848 34.0669 47.178C34.2455 47.3705 34.3348 47.6412 34.3348 47.9891V48.703H34.7186V49.2008H33.3522Z" fill="#363087"/>
<path id="Vector_65" d="M35.8458 49.2H34.6476C34.59 49.2 34.5276 49.1764 34.4604 49.1283C34.3933 49.0802 34.3601 49.021 34.3601 48.9507C34.3601 48.8837 34.3933 48.8262 34.4604 48.7764C34.5276 48.7267 34.59 48.7023 34.6476 48.7023H35.2131V45.8242H35.8458V49.2Z" fill="#363087"/>
<path id="Vector_66" d="M36.6128 45.8242H37.2463V49.2H36.6128V45.8242Z" fill="#363087"/>
<path id="Vector_67" d="M40.2054 46.3126C40.2054 46.2298 40.2362 46.1572 40.297 46.0948C40.3578 46.0325 40.4313 46.001 40.5174 46.001C40.6003 46.001 40.673 46.0318 40.7354 46.0925C40.7978 46.1533 40.8285 46.2267 40.8285 46.3126C40.8285 46.3954 40.7986 46.468 40.7378 46.5304C40.6769 46.5927 40.6035 46.6234 40.5174 46.6234C40.4313 46.6234 40.3578 46.5935 40.297 46.5328C40.2362 46.472 40.2054 46.3986 40.2054 46.3126ZM40.5845 48.7022V47.4715C40.4629 47.414 40.3113 47.3856 40.1288 47.3856C39.9535 47.3856 39.8145 47.4447 39.7117 47.5647C39.6099 47.6845 39.5585 47.84 39.5585 48.0317C39.5585 48.479 39.7978 48.7022 40.2773 48.7022H40.5845ZM39.4385 46.3126C39.4385 46.2298 39.4693 46.1572 39.5301 46.0948C39.5901 46.0325 39.6644 46.001 39.7505 46.001C39.8365 46.001 39.91 46.0309 39.9709 46.0902C40.0316 46.1493 40.0617 46.2235 40.0617 46.3126C40.0617 46.3986 40.0324 46.472 39.9732 46.5328C39.914 46.5935 39.8397 46.6234 39.7505 46.6234C39.6604 46.6234 39.5862 46.5935 39.5277 46.5328C39.4685 46.472 39.4385 46.3986 39.4385 46.3126ZM41.6919 49.2001H40.2054C39.3524 49.2001 38.9259 48.83 38.9259 48.0893C38.9259 47.7508 39.0325 47.466 39.2466 47.2341C39.4614 47.0029 39.7757 46.8869 40.1912 46.8869C40.361 46.8869 40.5292 46.9012 40.6975 46.928C40.8649 46.9548 40.9905 46.9832 41.0734 47.0116L41.1982 47.055V48.7022H41.6919V49.2001Z" fill="#363087"/>
<path id="Vector_68" d="M42.2683 46.5608C42.2027 46.4953 42.1696 46.4181 42.1696 46.3281C42.1696 46.239 42.2027 46.1617 42.2683 46.0961C42.3338 46.0307 42.4112 45.9976 42.5005 45.9976C42.5897 45.9976 42.6671 46.0307 42.7327 46.0961C42.7983 46.1617 42.8314 46.239 42.8314 46.3281C42.8314 46.4181 42.7983 46.4953 42.7327 46.5608C42.6671 46.6263 42.5897 46.6587 42.5005 46.6587C42.4112 46.6587 42.3338 46.6263 42.2683 46.5608ZM42.8172 49.2014H41.6182C41.5606 49.2014 41.4981 49.1777 41.431 49.1296C41.3647 49.0815 41.3307 49.0223 41.3307 48.9521C41.3307 48.885 41.3647 48.8274 41.431 48.7777C41.4981 48.728 41.5606 48.7036 41.6182 48.7036H42.1837V46.9506H42.8172V49.2014Z" fill="#363087"/>
<path id="Vector_69" d="M43.5835 49.2V45.8242H44.2161V48.7023H44.7098V49.2H43.5835Z" fill="#363087"/>
<path id="Vector_70" d="M46.7192 48.703V48.0656C46.7192 47.6127 46.5486 47.3863 46.2066 47.3863C46.0304 47.3863 45.8914 47.4454 45.7895 47.5654C45.6869 47.6853 45.6364 47.8408 45.6364 48.0325C45.6364 48.2588 45.6939 48.4277 45.8109 48.5373C45.9278 48.6478 46.1094 48.703 46.355 48.703H46.7192ZM47.3376 49.2008H44.6388C44.5811 49.2008 44.5187 49.1771 44.4516 49.129C44.3852 49.0809 44.3513 49.0217 44.3513 48.9515C44.3513 48.8845 44.3852 48.8269 44.4516 48.7771C44.5187 48.7275 44.5811 48.703 44.6388 48.703H45.0084C45.0589 48.703 45.1072 48.7062 45.1521 48.7125C45.1964 48.7188 45.2288 48.725 45.2477 48.7314L45.2762 48.7362C45.0976 48.6052 45.0084 48.3771 45.0084 48.0514C45.0084 47.7263 45.1174 47.451 45.3362 47.2254C45.555 47.0006 45.8614 46.8877 46.2547 46.8877C46.6189 46.8877 46.8906 46.9848 47.0698 47.178C47.2484 47.3705 47.3376 47.6412 47.3376 47.9891V49.2008Z" fill="#363087"/>
<path id="Vector_71" d="M48.0264 45.9681H48.6598V49.2003H48.0264V45.9681ZM47.6907 45.7282V45.3834C47.7934 45.3834 47.8889 45.3937 47.979 45.4127C47.8984 45.3708 47.8589 45.3006 47.8589 45.202C47.8589 45.0679 47.9182 44.9519 48.0359 44.8549C48.1544 44.7571 48.3305 44.709 48.5635 44.709C48.618 44.709 48.7119 44.7184 48.8463 44.7374L48.7838 45.0727C48.6882 45.0536 48.6022 45.0434 48.5256 45.0434C48.3684 45.0434 48.2902 45.0978 48.2902 45.2067C48.2902 45.3251 48.4055 45.3834 48.6353 45.3834H48.9275V45.7282H47.6907Z" fill="#363087"/>
</g>
<path id="Vector_72" d="M49.143 51.8149H3.15442V51.4961H49.143V51.8149Z" fill="#008C9D"/>
<path id="Vector_73" d="M0.131226 56.1611V53.5491H1.89327V54.0045H0.684102V54.6268H1.80262V55.0821H0.684102V55.7058H1.89838V56.1611H0.131226ZM2.88187 56.1981C2.75674 56.1981 2.64522 56.1764 2.54733 56.1331C2.44944 56.0888 2.37198 56.0237 2.31495 55.9379C2.25877 55.8512 2.23068 55.7432 2.23068 55.614C2.23068 55.5051 2.25068 55.4138 2.29069 55.3398C2.3307 55.2658 2.38518 55.2063 2.45413 55.1612C2.52308 55.1161 2.60139 55.0821 2.68907 55.0592C2.7776 55.0362 2.87038 55.0201 2.96742 55.0107C3.08148 54.9988 3.17342 54.9877 3.24322 54.9775C3.31301 54.9665 3.36367 54.9504 3.39516 54.9291C3.42666 54.9078 3.44241 54.8764 3.44241 54.8347V54.8271C3.44241 54.7463 3.41687 54.6838 3.36579 54.6396C3.31557 54.5953 3.24407 54.5732 3.15128 54.5732C3.05339 54.5732 2.9755 54.5949 2.91762 54.6383C2.85974 54.6808 2.82143 54.7344 2.8027 54.799L2.29963 54.7582C2.32517 54.6392 2.37539 54.5362 2.4503 54.4496C2.52521 54.362 2.62182 54.2948 2.74014 54.248C2.85931 54.2004 2.99721 54.1766 3.15384 54.1766C3.2628 54.1766 3.36707 54.1894 3.46666 54.2149C3.56711 54.2404 3.65606 54.2799 3.73353 54.3335C3.81184 54.387 3.87355 54.4559 3.91866 54.5401C3.96378 54.6234 3.98634 54.7233 3.98634 54.8398V56.1611H3.47049V55.8894H3.45517C3.42368 55.9507 3.38154 56.0047 3.32876 56.0514C3.27599 56.0973 3.21257 56.1335 3.13852 56.1598C3.06446 56.1853 2.97891 56.1981 2.88187 56.1981ZM3.03764 55.8231C3.11766 55.8231 3.18831 55.8074 3.2496 55.7759C3.31089 55.7436 3.35898 55.7003 3.39388 55.6458C3.42879 55.5915 3.44623 55.5298 3.44623 55.4609V55.253C3.42921 55.2641 3.4058 55.2743 3.37601 55.2836C3.34707 55.2921 3.3143 55.3002 3.27769 55.3079C3.24108 55.3147 3.20448 55.321 3.16788 55.327C3.13128 55.3321 3.09808 55.3368 3.06829 55.341C3.00445 55.3504 2.94869 55.3653 2.90102 55.3857C2.85335 55.4061 2.81632 55.4337 2.78994 55.4686C2.76355 55.5026 2.75035 55.5451 2.75035 55.5961C2.75035 55.6701 2.77717 55.7266 2.8308 55.7657C2.88528 55.804 2.95423 55.8231 3.03764 55.8231ZM6.04017 54.7607L5.54217 54.7913C5.53366 54.7488 5.51536 54.7106 5.48727 54.6766C5.45918 54.6417 5.42215 54.614 5.37618 54.5936C5.33107 54.5724 5.27702 54.5618 5.21403 54.5618C5.12975 54.5618 5.05868 54.5796 5.0008 54.6154C4.94291 54.6502 4.91397 54.697 4.91397 54.7556C4.91397 54.8024 4.9327 54.842 4.97015 54.8743C5.0076 54.9065 5.07187 54.9325 5.16295 54.9521L5.51792 55.0235C5.70859 55.0626 5.85074 55.1255 5.94439 55.2122C6.038 55.2989 6.08483 55.4128 6.08483 55.554C6.08483 55.6824 6.04694 55.795 5.97122 55.892C5.89628 55.9889 5.79329 56.0646 5.6622 56.119C5.53196 56.1726 5.38172 56.1993 5.21147 56.1993C4.95185 56.1993 4.745 56.1454 4.59093 56.0374C4.43771 55.9286 4.3479 55.7806 4.32151 55.5936L4.85651 55.5655C4.87268 55.6446 4.91184 55.7049 4.97398 55.7466C5.03612 55.7874 5.11571 55.8078 5.21275 55.8078C5.30809 55.8078 5.3847 55.7896 5.44258 55.753C5.50132 55.7156 5.53111 55.6675 5.53196 55.6088C5.53111 55.5595 5.51025 55.5191 5.4694 55.4877C5.42853 55.4554 5.36554 55.4307 5.28042 55.4138L4.94078 55.3461C4.74926 55.3079 4.60667 55.2415 4.51304 55.1472C4.42025 55.0528 4.37386 54.9325 4.37386 54.7863C4.37386 54.6604 4.40791 54.552 4.47601 54.461C4.54496 54.3701 4.64157 54.2999 4.76585 54.2506C4.89098 54.2012 5.0374 54.1766 5.20509 54.1766C5.4528 54.1766 5.64773 54.2289 5.78989 54.3335C5.93291 54.4381 6.0163 54.5805 6.04017 54.7607ZM7.47054 54.2021V54.6102H6.28945V54.2021H7.47054ZM6.55757 53.7328H7.1015V55.5591C7.1015 55.6093 7.10917 55.6484 7.12452 55.6764C7.13981 55.7037 7.16108 55.7228 7.18834 55.7338C7.21644 55.7449 7.24877 55.7504 7.28539 55.7504C7.31095 55.7504 7.33645 55.7483 7.36201 55.744C7.38751 55.739 7.40709 55.7351 7.42075 55.7326L7.50626 56.1369C7.47906 56.1454 7.44075 56.1552 7.39138 56.1662C7.34201 56.1781 7.282 56.1853 7.21136 56.1879C7.08023 56.193 6.96535 56.1756 6.86661 56.1356C6.76871 56.0956 6.69251 56.0335 6.638 55.9494C6.58356 55.8652 6.55673 55.7589 6.55757 55.6306V53.7328ZM8.69757 56.1993C8.49585 56.1993 8.32218 56.1585 8.1766 56.0769C8.03193 55.9945 7.92038 55.878 7.84206 55.7274C7.76381 55.5761 7.72465 55.3972 7.72465 55.1905C7.72465 54.989 7.76381 54.8122 7.84206 54.66C7.92038 54.5078 8.03067 54.3892 8.1728 54.3042C8.31577 54.2191 8.48347 54.1766 8.67587 54.1766C8.80525 54.1766 8.92569 54.1974 9.03724 54.2391C9.14958 54.2799 9.24748 54.3416 9.33087 54.424C9.41517 54.5065 9.48074 54.6102 9.52751 54.7352C9.57434 54.8593 9.59773 55.0048 9.59773 55.1714V55.3206H7.94171V54.9839H9.08577C9.08577 54.9057 9.06873 54.8364 9.03464 54.776C9.00062 54.7157 8.95337 54.6685 8.89294 54.6344C8.83335 54.5996 8.76398 54.5822 8.68482 54.5822C8.60227 54.5822 8.52903 54.6013 8.46521 54.6396C8.40219 54.677 8.35282 54.7276 8.3171 54.7913C8.28133 54.8543 8.26302 54.9244 8.26217 55.0018V55.3219C8.26217 55.4188 8.28006 55.5026 8.31577 55.5732C8.35239 55.6437 8.40388 55.6981 8.47029 55.7364C8.5367 55.7746 8.61544 55.7938 8.70651 55.7938C8.76694 55.7938 8.82229 55.7853 8.87251 55.7683C8.92273 55.7513 8.96569 55.7258 9.00147 55.6918C9.03724 55.6577 9.06444 55.6161 9.08317 55.5668L9.58625 55.5999C9.56074 55.7207 9.50835 55.8261 9.42919 55.9162C9.35087 56.0055 9.24959 56.0752 9.12535 56.1254C9.00189 56.1747 8.85934 56.1993 8.69757 56.1993ZM9.95269 56.1611V54.2021H10.4801V54.5439H10.5005C10.5363 54.4223 10.5963 54.3305 10.6805 54.2684C10.7648 54.2055 10.8619 54.1741 10.9717 54.1741C10.9989 54.1741 11.0282 54.1758 11.0598 54.1791C11.0912 54.1826 11.1189 54.1872 11.1427 54.1932V54.6753C11.1172 54.6676 11.0819 54.6608 11.0367 54.6549C10.9917 54.6489 10.9504 54.646 10.9129 54.646C10.8329 54.646 10.7614 54.6634 10.6984 54.6982C10.6363 54.7322 10.5869 54.7799 10.5503 54.8411C10.5145 54.9023 10.4967 54.9729 10.4967 55.0528V56.1611H9.95269ZM11.9679 55.0285V56.1611H11.424V54.2021H11.9423V54.5478H11.9654C12.0087 54.4338 12.0816 54.3437 12.1837 54.2774C12.2858 54.2102 12.4097 54.1766 12.5553 54.1766C12.6914 54.1766 12.8102 54.2064 12.9115 54.2659C13.0128 54.3254 13.0915 54.4104 13.1477 54.521C13.2039 54.6306 13.232 54.7616 13.232 54.9138V56.1611H12.688V55.0107C12.6889 54.8908 12.6582 54.7973 12.5961 54.7301C12.5339 54.6621 12.4484 54.6281 12.3395 54.6281C12.2662 54.6281 12.2016 54.6438 12.1454 54.6753C12.09 54.7068 12.0466 54.7526 12.0152 54.813C11.9845 54.8726 11.9687 54.9444 11.9679 55.0285ZM14.5031 56.1611V53.5491H15.5348C15.7331 53.5491 15.902 53.587 16.0417 53.6627C16.1813 53.7374 16.2876 53.8416 16.3609 53.9751C16.4349 54.1077 16.472 54.2608 16.472 54.4342C16.472 54.6077 16.4345 54.7607 16.3596 54.8934C16.2847 55.026 16.1762 55.1293 16.034 55.2033C15.8927 55.2773 15.7216 55.3142 15.5207 55.3142H14.8631V54.8717H15.4314C15.5377 54.8717 15.6254 54.8534 15.6944 54.8169C15.7641 54.7794 15.8161 54.728 15.8501 54.6625C15.8851 54.5962 15.9025 54.5201 15.9025 54.4342C15.9025 54.3475 15.8851 54.2719 15.8501 54.2072C15.8161 54.1417 15.7641 54.0911 15.6944 54.0555C15.6246 54.0189 15.536 54.0006 15.4288 54.0006H15.056V56.1611H14.5031ZM16.8209 56.1611V54.2021H17.3482V54.5439H17.3686C17.4044 54.4223 17.4644 54.3305 17.5487 54.2684C17.6329 54.2055 17.73 54.1741 17.8398 54.1741C17.867 54.1741 17.8964 54.1758 17.9279 54.1791C17.9594 54.1826 17.9871 54.1872 18.0109 54.1932V54.6753C17.9854 54.6676 17.95 54.6608 17.9049 54.6549C17.8598 54.6489 17.8185 54.646 17.781 54.646C17.701 54.646 17.6295 54.6634 17.5665 54.6982C17.5044 54.7322 17.455 54.7799 17.4184 54.8411C17.3827 54.9023 17.3648 54.9729 17.3648 55.0528V56.1611H16.8209ZM19.0869 56.1993C18.8886 56.1993 18.7171 56.1573 18.5724 56.0731C18.4285 55.9881 18.3174 55.8699 18.2391 55.7186C18.1608 55.5663 18.1216 55.3899 18.1216 55.1893C18.1216 54.9869 18.1608 54.81 18.2391 54.6587C18.3174 54.5065 18.4285 54.3883 18.5724 54.3042C18.7171 54.2191 18.8886 54.1766 19.0869 54.1766C19.2853 54.1766 19.4564 54.2191 19.6002 54.3042C19.7449 54.3883 19.8564 54.5065 19.9348 54.6587C20.0131 54.81 20.0522 54.9869 20.0522 55.1893C20.0522 55.3899 20.0131 55.5663 19.9348 55.7186C19.8564 55.8699 19.7449 55.9881 19.6002 56.0731C19.4564 56.1573 19.2853 56.1993 19.0869 56.1993ZM19.0895 55.7785C19.1798 55.7785 19.255 55.753 19.3155 55.702C19.376 55.6501 19.4215 55.5795 19.4521 55.4902C19.4836 55.401 19.4994 55.2994 19.4994 55.1854C19.4994 55.0715 19.4836 54.9699 19.4521 54.8806C19.4215 54.7913 19.376 54.7208 19.3155 54.6689C19.255 54.6171 19.1798 54.5911 19.0895 54.5911C18.9984 54.5911 18.9218 54.6171 18.8597 54.6689C18.7984 54.7208 18.752 54.7913 18.7205 54.8806C18.6898 54.9699 18.6745 55.0715 18.6745 55.1854C18.6745 55.2994 18.6898 55.401 18.7205 55.4902C18.752 55.5795 18.7984 55.6501 18.8597 55.702C18.9218 55.753 18.9984 55.7785 19.0895 55.7785ZM22.1711 54.2021L21.4855 56.1611H20.8726L20.1869 54.2021H20.7616L21.1689 55.6038H21.1893L21.5953 54.2021H22.1711ZM22.4495 56.1611V54.2021H22.9935V56.1611H22.4495ZM22.7227 53.9496C22.6419 53.9496 22.5725 53.9228 22.5146 53.8693C22.4576 53.8148 22.4291 53.7498 22.4291 53.6741C22.4291 53.5993 22.4576 53.5351 22.5146 53.4815C22.5725 53.4271 22.6419 53.3999 22.7227 53.3999C22.8037 53.3999 22.8726 53.4271 22.9296 53.4815C22.9875 53.5351 23.0164 53.5993 23.0164 53.6741C23.0164 53.7498 22.9875 53.8148 22.9296 53.8693C22.8726 53.9228 22.8037 53.9496 22.7227 53.9496ZM23.9731 55.0285V56.1611H23.4292V54.2021H23.9476V54.5478H23.9706C24.014 54.4338 24.0868 54.3437 24.1889 54.2774C24.2911 54.2102 24.4149 54.1766 24.5605 54.1766C24.6967 54.1766 24.8154 54.2064 24.9167 54.2659C25.018 54.3254 25.0967 54.4104 25.1529 54.521C25.2091 54.6306 25.2372 54.7616 25.2372 54.9138V56.1611H24.6932V55.0107C24.6941 54.8908 24.6634 54.7973 24.6013 54.7301C24.5392 54.6621 24.4536 54.6281 24.3447 54.6281C24.2715 54.6281 24.2068 54.6438 24.1506 54.6753C24.0953 54.7068 24.0518 54.7526 24.0203 54.813C23.9897 54.8726 23.9739 54.9444 23.9731 55.0285ZM26.552 56.1993C26.3511 56.1993 26.1783 56.1568 26.0336 56.0718C25.8897 55.986 25.7791 55.8669 25.7016 55.7147C25.6251 55.5625 25.5867 55.3874 25.5867 55.1893C25.5867 54.9886 25.6255 54.8126 25.7029 54.6612C25.7812 54.5091 25.8923 54.3905 26.0362 54.3054C26.18 54.2195 26.3511 54.1766 26.5494 54.1766C26.7206 54.1766 26.8704 54.2076 26.9989 54.2697C27.1275 54.3318 27.2292 54.419 27.3041 54.5312C27.379 54.6434 27.4203 54.7752 27.4279 54.9265H26.9146C26.9002 54.8287 26.8619 54.7501 26.7997 54.6906C26.7384 54.6302 26.658 54.6 26.5584 54.6C26.4742 54.6 26.4005 54.623 26.3375 54.6689C26.2754 54.714 26.2269 54.7799 26.1919 54.8666C26.1571 54.9533 26.1396 55.0583 26.1396 55.1816C26.1396 55.3066 26.1566 55.4128 26.1907 55.5004C26.2255 55.588 26.2745 55.6548 26.3375 55.7007C26.4005 55.7466 26.4742 55.7696 26.5584 55.7696C26.6206 55.7696 26.6763 55.7568 26.7257 55.7313C26.7759 55.7058 26.8172 55.6688 26.8495 55.6204C26.8827 55.571 26.9044 55.512 26.9146 55.4431H27.4279C27.4194 55.5927 27.3785 55.7245 27.3054 55.8384C27.233 55.9515 27.133 56.0399 27.0053 56.1037C26.8776 56.1675 26.7265 56.1993 26.552 56.1993ZM28.67 56.1993C28.4683 56.1993 28.2946 56.1585 28.149 56.0769C28.0044 55.9945 27.8928 55.878 27.8145 55.7274C27.7362 55.5761 27.697 55.3972 27.697 55.1905C27.697 54.989 27.7362 54.8122 27.8145 54.66C27.8928 54.5078 28.003 54.3892 28.1452 54.3042C28.2882 54.2191 28.4559 54.1766 28.6483 54.1766C28.7777 54.1766 28.8981 54.1974 29.0096 54.2391C29.122 54.2799 29.2199 54.3416 29.3033 54.424C29.3876 54.5065 29.4531 54.6102 29.4999 54.7352C29.5468 54.8593 29.5701 55.0048 29.5701 55.1714V55.3206H27.9141V54.9839H29.0581C29.0581 54.9057 29.0411 54.8364 29.0071 54.776C28.973 54.7157 28.9258 54.6685 28.8654 54.6344C28.8058 54.5996 28.7364 54.5822 28.6572 54.5822C28.5746 54.5822 28.5014 54.6013 28.4376 54.6396C28.3746 54.677 28.3252 54.7276 28.2895 54.7913C28.2537 54.8543 28.2354 54.9244 28.2346 55.0018V55.3219C28.2346 55.4188 28.2525 55.5026 28.2882 55.5732C28.3248 55.6437 28.3763 55.6981 28.4427 55.7364C28.5091 55.7746 28.5879 55.7938 28.6789 55.7938C28.7394 55.7938 28.7947 55.7853 28.8449 55.7683C28.8951 55.7513 28.9381 55.7258 28.9739 55.6918C29.0096 55.6577 29.0369 55.6161 29.0556 55.5668L29.5587 55.5999C29.5332 55.7207 29.4808 55.8261 29.4016 55.9162C29.3233 56.0055 29.222 56.0752 29.0977 56.1254C28.9743 56.1747 28.8317 56.1993 28.67 56.1993ZM30.7675 53.5491H31.4494L32.1695 55.304H32.2002L32.9203 53.5491H33.6021V56.1611H33.0658V54.461H33.0441L32.3674 56.1483H32.0023L31.3255 54.4546H31.3038V56.1611H30.7675V53.5491ZM35.3051 55.327V54.2021H35.849V56.1611H35.3268V55.8052H35.3064C35.2621 55.92 35.1885 56.0123 35.0855 56.082C34.9834 56.1517 34.8586 56.1866 34.7114 56.1866C34.5803 56.1866 34.4649 56.1568 34.3654 56.0973C34.2658 56.0378 34.1879 55.9532 34.1317 55.8435C34.0764 55.7338 34.0483 55.6025 34.0474 55.4494V54.2021H34.5914V55.3525C34.5922 55.4681 34.6233 55.5595 34.6845 55.6267C34.7459 55.6939 34.828 55.7274 34.931 55.7274C34.9965 55.7274 35.0578 55.7126 35.1149 55.6828C35.1719 55.6522 35.2178 55.6071 35.2528 55.5476C35.2885 55.4881 35.3059 55.4146 35.3051 55.327ZM36.828 55.0285V56.1611H36.2841V54.2021H36.8025V54.5478H36.8255C36.8689 54.4338 36.9417 54.3437 37.0438 54.2774C37.146 54.2102 37.2698 54.1766 37.4154 54.1766C37.5516 54.1766 37.6704 54.2064 37.7717 54.2659C37.8729 54.3254 37.9517 54.4104 38.0079 54.521C38.0641 54.6306 38.0922 54.7616 38.0922 54.9138V56.1611H37.5482V55.0107C37.549 54.8908 37.5184 54.7973 37.4563 54.7301C37.3941 54.6621 37.3086 54.6281 37.1996 54.6281C37.1264 54.6281 37.0617 54.6438 37.0055 54.6753C36.9502 54.7068 36.9068 54.7526 36.8753 54.813C36.8447 54.8726 36.8289 54.9444 36.828 55.0285ZM38.5209 56.1611V54.2021H39.0648V56.1611H38.5209ZM38.7941 53.9496C38.7132 53.9496 38.6438 53.9228 38.5859 53.8693C38.529 53.8148 38.5004 53.7498 38.5004 53.6741C38.5004 53.5993 38.529 53.5351 38.5859 53.4815C38.6438 53.4271 38.7132 53.3999 38.7941 53.3999C38.875 53.3999 38.9439 53.4271 39.0009 53.4815C39.0588 53.5351 39.0877 53.5993 39.0877 53.6741C39.0877 53.7498 39.0588 53.8148 39.0009 53.8693C38.9439 53.9228 38.875 53.9496 38.7941 53.9496ZM40.3866 56.1993C40.1858 56.1993 40.0129 56.1568 39.8683 56.0718C39.7244 55.986 39.6137 55.8669 39.5363 55.7147C39.4596 55.5625 39.4213 55.3874 39.4213 55.1893C39.4213 54.9886 39.4601 54.8126 39.5375 54.6612C39.6158 54.5091 39.7269 54.3905 39.8708 54.3054C40.0146 54.2195 40.1858 54.1766 40.3841 54.1766C40.5552 54.1766 40.705 54.2076 40.8335 54.2697C40.962 54.3318 41.0638 54.419 41.1387 54.5312C41.2136 54.6434 41.2549 54.7752 41.2626 54.9265H40.7493C40.7348 54.8287 40.6965 54.7501 40.6343 54.6906C40.573 54.6302 40.4926 54.6 40.393 54.6C40.3087 54.6 40.2351 54.623 40.1721 54.6689C40.11 54.714 40.0615 54.7799 40.0266 54.8666C39.9917 54.9533 39.9742 55.0583 39.9742 55.1816C39.9742 55.3066 39.9912 55.4128 40.0253 55.5004C40.0602 55.588 40.1091 55.6548 40.1721 55.7007C40.2351 55.7466 40.3087 55.7696 40.393 55.7696C40.4552 55.7696 40.5109 55.7568 40.5603 55.7313C40.6105 55.7058 40.6518 55.6688 40.6841 55.6204C40.7174 55.571 40.7391 55.512 40.7493 55.4431H41.2626C41.254 55.5927 41.2132 55.7245 41.14 55.8384C41.0676 55.9515 40.9676 56.0399 40.8399 56.1037C40.7122 56.1675 40.5611 56.1993 40.3866 56.1993ZM41.6108 56.1611V54.2021H42.1547V56.1611H41.6108ZM41.8841 53.9496C41.8032 53.9496 41.7338 53.9228 41.6759 53.8693C41.6189 53.8148 41.5904 53.7498 41.5904 53.6741C41.5904 53.5993 41.6189 53.5351 41.6759 53.4815C41.7338 53.4271 41.8032 53.3999 41.8841 53.3999C41.9649 53.3999 42.0339 53.4271 42.0909 53.4815C42.1488 53.5351 42.1777 53.5993 42.1777 53.6741C42.1777 53.7498 42.1488 53.8148 42.0909 53.8693C42.0339 53.9228 41.9649 53.9496 41.8841 53.9496ZM42.5905 56.8957V54.2021H43.1267V54.5312H43.151C43.1748 54.4785 43.2093 54.4249 43.2544 54.3705C43.3004 54.3152 43.36 54.2693 43.4332 54.2327C43.5073 54.1953 43.5992 54.1766 43.709 54.1766C43.852 54.1766 43.9839 54.214 44.1048 54.2888C44.2257 54.3628 44.3223 54.4746 44.3947 54.6242C44.467 54.7731 44.5032 54.9597 44.5032 55.1841C44.5032 55.4026 44.4679 55.5872 44.3972 55.7376C44.3274 55.8873 44.2321 56.0008 44.1112 56.0782C43.9912 56.1547 43.8567 56.193 43.7077 56.193C43.6021 56.193 43.5123 56.1756 43.4383 56.1407C43.3651 56.1058 43.3051 56.062 43.2582 56.0093C43.2115 55.9558 43.1757 55.9018 43.151 55.8474H43.1344V56.8957H42.5905ZM43.1229 55.1816C43.1229 55.2981 43.1391 55.3997 43.1715 55.4864C43.2038 55.5732 43.2506 55.6408 43.3119 55.6892C43.3732 55.7368 43.4477 55.7606 43.5353 55.7606C43.6238 55.7606 43.6988 55.7364 43.76 55.6879C43.8213 55.6386 43.8677 55.5706 43.8992 55.4839C43.9316 55.3963 43.9477 55.2956 43.9477 55.1816C43.9477 55.0686 43.932 54.969 43.9005 54.8832C43.869 54.7973 43.8227 54.7301 43.7613 54.6816C43.7 54.6332 43.6247 54.609 43.5353 54.609C43.4468 54.609 43.3719 54.6323 43.3106 54.6791C43.2501 54.7259 43.2038 54.7922 43.1715 54.8781C43.1391 54.964 43.1229 55.0651 43.1229 55.1816ZM45.4251 56.1981C45.2999 56.1981 45.1884 56.1764 45.0905 56.1331C44.9926 56.0888 44.9152 56.0237 44.8581 55.9379C44.802 55.8512 44.7739 55.7432 44.7739 55.614C44.7739 55.5051 44.7939 55.4138 44.8339 55.3398C44.8739 55.2658 44.9284 55.2063 44.9973 55.1612C45.0663 55.1161 45.1446 55.0821 45.2322 55.0592C45.3208 55.0362 45.4136 55.0201 45.5106 55.0107C45.6247 54.9988 45.7166 54.9877 45.7864 54.9775C45.8562 54.9665 45.9069 54.9504 45.9384 54.9291C45.9698 54.9078 45.9856 54.8764 45.9856 54.8347V54.8271C45.9856 54.7463 45.96 54.6838 45.909 54.6396C45.8588 54.5953 45.7873 54.5732 45.6945 54.5732C45.5966 54.5732 45.5187 54.5949 45.4608 54.6383C45.4029 54.6808 45.3646 54.7344 45.3459 54.799L44.8428 54.7582C44.8684 54.6392 44.9186 54.5362 44.9935 54.4496C45.0684 54.362 45.165 54.2948 45.2834 54.248C45.4025 54.2004 45.5404 54.1766 45.6971 54.1766C45.806 54.1766 45.9103 54.1894 46.0098 54.2149C46.1103 54.2404 46.1992 54.2799 46.2767 54.3335C46.355 54.387 46.4167 54.4559 46.4619 54.5401C46.507 54.6234 46.5295 54.7233 46.5295 54.8398V56.1611H46.0137V55.8894H45.9984C45.9669 55.9507 45.9248 56.0047 45.8719 56.0514C45.8192 56.0973 45.7557 56.1335 45.6817 56.1598C45.6076 56.1853 45.5221 56.1981 45.4251 56.1981ZM45.5809 55.8231C45.6609 55.8231 45.7315 55.8074 45.7928 55.7759C45.8541 55.7436 45.9022 55.7003 45.9371 55.6458C45.972 55.5915 45.9894 55.5298 45.9894 55.4609V55.253C45.9724 55.2641 45.949 55.2743 45.9192 55.2836C45.8903 55.2921 45.8575 55.3002 45.8209 55.3079C45.7843 55.3147 45.7477 55.321 45.7111 55.327C45.6745 55.3321 45.6413 55.3368 45.6115 55.341C45.5476 55.3504 45.4919 55.3653 45.4442 55.3857C45.3965 55.4061 45.3595 55.4337 45.3332 55.4686C45.3067 55.5026 45.2936 55.5451 45.2936 55.5961C45.2936 55.6701 45.3203 55.7266 45.374 55.7657C45.4285 55.804 45.4974 55.8231 45.5809 55.8231ZM47.4954 53.5491V56.1611H46.9515V53.5491H47.4954ZM47.9312 56.1611V54.2021H48.4751V56.1611H47.9312ZM48.2045 53.9496C48.1236 53.9496 48.0542 53.9228 47.9963 53.8693C47.9393 53.8148 47.9108 53.7498 47.9108 53.6741C47.9108 53.5993 47.9393 53.5351 47.9963 53.4815C48.0542 53.4271 48.1236 53.3999 48.2045 53.3999C48.2853 53.3999 48.3543 53.4271 48.4113 53.4815C48.4691 53.5351 48.4981 53.5993 48.4981 53.6741C48.4981 53.7498 48.4691 53.8148 48.4113 53.8693C48.3543 53.9228 48.2853 53.9496 48.2045 53.9496ZM49.954 54.2021V54.6102H48.7729V54.2021H49.954ZM49.0411 53.7328H49.585V55.5591C49.585 55.6093 49.5927 55.6484 49.608 55.6764C49.6234 55.7037 49.6446 55.7228 49.6719 55.7338C49.6999 55.7449 49.7323 55.7504 49.7689 55.7504C49.7944 55.7504 49.82 55.7483 49.8455 55.744C49.8711 55.739 49.8906 55.7351 49.9042 55.7326L49.9898 56.1369C49.9625 56.1454 49.9242 56.1552 49.8749 56.1662C49.8255 56.1781 49.7655 56.1853 49.6948 56.1879C49.5638 56.193 49.4488 56.1756 49.3501 56.1356C49.2522 56.0956 49.176 56.0335 49.1215 55.9494C49.067 55.8652 49.0402 55.7589 49.0411 55.6306V53.7328ZM50.6442 56.8957C50.5752 56.8957 50.5105 56.8902 50.4501 56.8791C50.3905 56.8689 50.3411 56.8558 50.302 56.8396L50.4245 56.434C50.4884 56.4536 50.5459 56.4642 50.5969 56.4659C50.6488 56.4676 50.6936 56.4557 50.731 56.4302C50.7693 56.4047 50.8003 56.3613 50.8242 56.3001L50.8561 56.2172L50.1526 54.2021H50.7246L51.1306 55.6408H51.1511L51.561 54.2021H52.1368L51.3745 56.3728C51.3379 56.4783 51.2881 56.5701 51.2251 56.6483C51.163 56.7274 51.0842 56.7881 50.9889 56.8306C50.8936 56.874 50.7786 56.8957 50.6442 56.8957Z" fill="#363087"/>
</g>
</svg>
