<svg width="255" height="216" viewBox="0 0 255 216" fill="none" xmlns="http://www.w3.org/2000/svg">
<g clip-path="url(#clip0_2061_4414)" filter="url(#filter0_d_2061_4414)">
<mask id="mask0_2061_4414" style="mask-type:luminance" maskUnits="userSpaceOnUse" x="0" y="0" width="251" height="208">
<path d="M251 208L0 208L0 0L251 0L251 208Z" fill="white"/>
</mask>
<g mask="url(#mask0_2061_4414)">
<g opacity="0.33">
<path d="M249.239 11.18H249.237L121.262 11.133C120.522 11.133 119.921 10.533 119.921 9.79699L119.925 0.42599C119.926 0.0709463 120.067 -0.269269 120.319 -0.519948C120.57 -0.770627 120.911 -0.911276 121.266 -0.91101L249.106 -0.86401C249.611 -0.86401 250.087 -0.66701 250.446 -0.30901C250.803 0.0479897 251 0.52099 251 1.02599L250.997 9.42899C250.997 10.395 250.208 11.179 249.238 11.179L249.239 11.18ZM121.266 0.00998962C121.156 0.00998932 121.05 0.0537859 120.971 0.131772C120.893 0.209759 120.849 0.315568 120.849 0.42599L120.845 9.79599C120.845 10.026 121.032 10.212 121.262 10.212L249.237 10.258H249.238C249.698 10.258 250.072 9.88599 250.072 9.42799L250.075 1.02499C250.075 0.897412 250.051 0.771017 250.002 0.653086C249.953 0.535156 249.882 0.428022 249.791 0.337857C249.701 0.247692 249.594 0.176278 249.476 0.127731C249.358 0.0791832 249.232 0.0544613 249.104 0.0549896L121.266 0.0109897V0.00998962ZM147.41 30.354L138.586 30.351C138.173 30.3499 137.777 30.1857 137.485 29.894C137.192 29.6024 137.027 29.207 137.025 28.794L137.029 20C137.029 19.144 137.728 18.446 138.587 18.444L147.414 18.447C147.827 18.4467 148.224 18.6106 148.517 18.9025C148.809 19.1944 148.974 19.5906 148.975 20.004L148.972 28.798C148.972 29.657 148.27 30.354 147.41 30.354ZM138.589 19.364C138.42 19.3645 138.259 19.4317 138.14 19.5509C138.021 19.67 137.954 19.8315 137.953 20L137.95 28.794C137.951 28.9627 138.019 29.1241 138.138 29.2433C138.258 29.3624 138.419 29.4295 138.588 29.43L147.41 29.433C147.579 29.433 147.74 29.3662 147.86 29.2471C147.979 29.1281 148.046 28.9666 148.047 28.798L148.05 20.004C148.049 19.8355 147.982 19.6741 147.862 19.5551C147.743 19.4362 147.581 19.3693 147.413 19.369L138.588 19.366L138.589 19.364ZM122.242 36.569C121.826 36.569 121.435 36.409 121.14 36.117L114.903 29.895C114.758 29.7504 114.644 29.5788 114.565 29.3899C114.487 29.2009 114.447 28.9985 114.447 28.794C114.447 28.5895 114.487 28.387 114.565 28.1981C114.644 28.0092 114.758 27.8376 114.903 27.693L121.143 21.477C121.709 20.912 122.785 20.91 123.353 21.477L129.589 27.698C129.733 27.8426 129.848 28.0142 129.926 28.203C130.004 28.3919 130.045 28.5943 130.044 28.7987C130.044 29.0031 130.004 29.2055 129.926 29.3943C129.847 29.583 129.733 29.7546 129.588 29.899L123.347 36.115C123.202 36.2597 123.029 36.3743 122.84 36.4523C122.65 36.5302 122.447 36.5698 122.242 36.569ZM121.792 35.463C121.915 35.5773 122.076 35.6409 122.243 35.6409C122.411 35.6409 122.572 35.5773 122.695 35.463L128.935 29.247C128.994 29.1881 129.041 29.1181 129.073 29.0411C129.105 28.964 129.121 28.8814 129.121 28.798C129.121 28.7146 129.105 28.632 129.073 28.5549C129.041 28.4779 128.994 28.4079 128.935 28.349L122.699 22.129C122.474 21.904 122.02 21.905 121.798 22.129L115.557 28.345C115.438 28.4642 115.371 28.6259 115.371 28.7945C115.371 28.9631 115.438 29.1247 115.557 29.244L121.792 35.463ZM122.236 54.214C121.818 54.214 121.427 54.052 121.132 53.758L114.896 47.538C114.605 47.2459 114.441 46.8504 114.441 46.438C114.441 46.0256 114.605 45.63 114.896 45.338L121.138 39.12C121.433 38.8321 121.83 38.6719 122.242 38.674H122.244C122.661 38.674 123.064 38.837 123.347 39.121L129.583 45.341C129.875 45.6331 130.039 46.0291 130.039 46.442C130.039 46.8549 129.875 47.2509 129.583 47.543L123.343 53.758C123.198 53.9028 123.025 54.0176 122.835 54.0957C122.646 54.1738 122.442 54.2136 122.237 54.213L122.236 54.214ZM122.242 39.596C122.074 39.5933 121.912 39.6569 121.791 39.773L115.55 45.988C115.431 46.1074 115.364 46.2693 115.364 46.438C115.364 46.6067 115.431 46.7686 115.55 46.888L121.786 53.108C122.027 53.348 122.449 53.346 122.688 53.108L128.928 46.893C129.047 46.7736 129.114 46.6117 129.114 46.443C129.114 46.2743 129.047 46.1124 128.928 45.993L122.692 39.773C122.571 39.6574 122.409 39.5932 122.242 39.596ZM101.172 150.237C100.898 150.237 100.629 150.165 100.392 150.029C100.155 149.893 99.9577 149.696 99.82 149.46L95.389 141.857C95.2864 141.68 95.2197 141.485 95.1926 141.283C95.1655 141.08 95.1785 140.874 95.231 140.677C95.2835 140.479 95.3743 140.294 95.4984 140.132C95.6224 139.97 95.7773 139.833 95.954 139.731L103.584 135.315C103.761 135.212 103.958 135.145 104.161 135.118C104.365 135.09 104.572 135.104 104.77 135.157C105.174 135.264 105.511 135.521 105.719 135.88L110.149 143.483C110.253 143.66 110.321 143.855 110.348 144.059C110.376 144.262 110.363 144.469 110.31 144.667C110.257 144.865 110.166 145.05 110.04 145.213C109.915 145.375 109.759 145.511 109.581 145.613L101.954 150.027C101.718 150.165 101.447 150.237 101.172 150.237ZM104.367 136.026C104.255 136.026 104.145 136.056 104.049 136.112L96.419 140.529C96.3469 140.571 96.2838 140.626 96.2333 140.693C96.1827 140.759 96.1457 140.834 96.1243 140.915C96.103 140.995 96.0977 141.079 96.1088 141.162C96.1199 141.244 96.1471 141.324 96.189 141.396L100.619 148.999C100.707 149.142 100.846 149.245 101.008 149.288C101.17 149.331 101.342 149.311 101.489 149.231L109.118 144.815C109.191 144.774 109.255 144.719 109.306 144.653C109.357 144.587 109.393 144.511 109.414 144.43C109.436 144.349 109.441 144.265 109.43 144.182C109.419 144.099 109.391 144.019 109.349 143.947L104.918 136.343C104.862 136.246 104.782 136.166 104.685 136.11C104.588 136.055 104.479 136.025 104.367 136.026ZM7.04999 150.41C6.63399 150.41 6.24299 150.25 5.94999 149.959L-0.290009 143.735C-0.580378 143.443 -0.743347 143.047 -0.743347 142.635C-0.743347 142.223 -0.580378 141.828 -0.290009 141.536L5.95299 135.318C6.56299 134.711 7.55299 134.711 8.16199 135.318L14.399 141.54C14.694 141.833 14.856 142.224 14.856 142.642C14.856 143.058 14.693 143.448 14.396 143.741L8.15599 149.957C7.86257 150.248 7.46548 150.411 7.05199 150.41H7.04999ZM7.05599 135.783C6.97244 135.783 6.88967 135.799 6.81245 135.831C6.73523 135.863 6.66507 135.91 6.60599 135.969L0.363991 142.186C0.245714 142.306 0.179474 142.467 0.179662 142.636C0.179849 142.804 0.246448 142.965 0.364991 143.085L6.60099 149.307C6.72375 149.421 6.88503 149.484 7.05238 149.483C7.21974 149.483 7.38074 149.419 7.50299 149.305L13.743 143.089C13.8025 143.031 13.8499 142.961 13.8822 142.884C13.9146 142.807 13.9314 142.724 13.9316 142.641C13.9317 142.557 13.9153 142.475 13.8833 142.398C13.8513 142.321 13.8043 142.251 13.745 142.192L7.50799 135.97C7.38823 135.851 7.22603 135.784 7.05699 135.784L7.05599 135.783Z" fill="#B9E4E4" fill-opacity="0.67"/>
<path d="M22.645 150.417C22.229 150.417 21.837 150.255 21.543 149.962L15.305 143.741C15.0138 143.449 14.8503 143.053 14.8503 142.641C14.8503 142.229 15.0138 141.833 15.305 141.541L21.547 135.323C21.6916 135.178 21.8634 135.063 22.0525 134.985C22.2417 134.907 22.4444 134.867 22.649 134.868C23.067 134.868 23.459 135.03 23.755 135.323L29.991 141.545C30.285 141.839 30.448 142.23 30.448 142.646C30.448 143.062 30.285 143.453 29.99 143.746L23.75 149.962C23.6047 150.107 23.4324 150.221 23.2427 150.299C23.0531 150.377 22.85 150.417 22.645 150.416V150.417ZM22.65 135.79C22.48 135.79 22.32 135.855 22.2 135.974L15.959 142.191C15.8401 142.31 15.7734 142.472 15.7734 142.64C15.7734 142.809 15.8401 142.971 15.959 143.09L22.195 149.311C22.435 149.549 22.857 149.548 23.096 149.311L29.336 143.095C29.3954 143.036 29.4425 142.966 29.4746 142.889C29.5067 142.812 29.5231 142.729 29.523 142.646C29.5233 142.563 29.507 142.48 29.475 142.403C29.4431 142.326 29.3962 142.256 29.337 142.197L23.101 135.975C23.0416 135.916 22.9711 135.869 22.8935 135.837C22.8159 135.805 22.7338 135.789 22.65 135.79ZM182.972 94.125C182.415 94.125 182.035 94.058 181.775 93.915C180.95 93.455 168.159 83.875 151.524 71.4C142.678 64.766 135.039 59.038 134.193 58.453C133.764 58.1431 133.414 57.736 133.172 57.265C132.93 56.7939 132.804 56.2724 132.802 55.743L132.807 43.079C132.807 42.043 133.278 41.084 134.096 40.447C134.497 40.1332 134.964 39.9151 135.462 39.8093C135.96 39.7036 136.476 39.7131 136.97 39.837L177.73 47.021L179.092 30.867C179.097 30.8117 179.09 30.7559 179.072 30.7034C179.054 30.651 179.024 30.6031 178.986 30.563C178.949 30.5223 178.903 30.4899 178.853 30.468C178.802 30.4461 178.747 30.4352 178.692 30.436L156.156 30.517C155.416 30.517 154.817 29.92 154.817 29.186L154.82 19.804C154.82 19.07 155.42 18.474 156.157 18.474L181.173 18.391C182.261 18.391 183.277 18.925 183.894 19.817L190.582 29.501C191.013 30.126 191.216 30.882 191.153 31.633L189.175 57.129C189.109 57.9515 188.864 58.7497 188.458 59.4678C188.051 60.1858 187.492 60.8063 186.821 61.286C186.15 61.7676 185.382 62.0972 184.57 62.2519C183.759 62.4066 182.923 62.3828 182.122 62.182L146.545 54.455L183.97 81.59C185.575 81.541 190.873 81.051 192.793 80.838C193.846 78.843 201.492 61.871 202.72 58.25L202.774 58.141C202.833 58.0486 202.914 57.972 203.01 57.918C203.105 57.8639 203.212 57.8341 203.322 57.831C203.746 57.829 204.08 58.185 204.246 58.403L205.029 59.463C207.62 62.962 208.589 64.271 210.102 66.941C210.404 67.475 210.462 68.118 210.267 68.75C209.245 72.038 201.683 88.181 199.332 92.093C199.152 92.393 198.631 92.753 198.104 92.807C195.253 93.104 184.039 94.126 182.973 94.126L182.972 94.125ZM136.154 40.66C135.611 40.66 135.094 40.837 134.665 41.172C134.374 41.3968 134.138 41.6856 133.976 42.0161C133.814 42.3466 133.73 42.7099 133.731 43.078L133.726 55.741C133.726 56.514 134.101 57.246 134.729 57.701C135.58 58.289 143.226 64.023 152.08 70.662C164.449 79.938 181.389 92.642 182.225 93.107C182.263 93.129 182.435 93.201 182.972 93.201C183.949 93.201 194.985 92.202 198.006 91.888C198.21 91.8528 198.397 91.7549 198.543 91.608C200.871 87.734 208.37 71.729 209.382 68.474C209.501 68.087 209.47 67.702 209.295 67.391C207.811 64.771 206.851 63.473 204.284 60.007L203.504 58.951L203.466 58.905C201.93 63.085 194.1 80.604 193.454 81.529L193.335 81.699L193.128 81.724C191.376 81.928 185.301 82.492 183.829 82.512L183.676 82.514L142.443 52.619L182.331 61.283C183.004 61.4534 183.706 61.4748 184.388 61.3456C185.07 61.2164 185.715 60.9397 186.279 60.535C186.841 60.1337 187.309 59.6143 187.65 59.0132C187.991 58.4121 188.196 57.7437 188.251 57.055L190.229 31.558C190.273 31.0139 190.128 30.4713 189.818 30.022L183.13 20.337C182.911 20.0202 182.618 19.7613 182.277 19.5824C181.936 19.4036 181.556 19.3101 181.171 19.31L156.156 19.392C156.102 19.3917 156.048 19.4021 155.998 19.4226C155.948 19.443 155.903 19.4732 155.864 19.5112C155.826 19.5493 155.795 19.5946 155.774 19.6445C155.753 19.6944 155.742 19.7479 155.742 19.802L155.738 29.183C155.738 29.409 155.924 29.593 156.152 29.593L178.687 29.512C179.063 29.512 179.409 29.662 179.664 29.937C179.918 30.213 180.04 30.568 180.011 30.941L178.564 48.103L178.066 48.015L136.775 40.736C136.571 40.6858 136.362 40.6603 136.152 40.66H136.154Z" fill="#B9E4E4" fill-opacity="0.67"/>
<path d="M198.936 130.563C198.497 130.563 198.08 130.426 197.73 130.168L94.583 56.465L94.589 41.633L95.319 42.155L197.194 114.89C197.287 114.96 197.404 114.992 197.519 114.979C197.635 114.966 197.742 114.909 197.817 114.82L198.301 114.234L199.086 113.286C202.523 109.155 207.579 102.495 212.148 94.226C218.752 82.261 222.12 74.05 223.572 70.112L200.807 29.614C200.638 29.3526 200.542 29.0502 200.531 28.739L200.503 20.692C200.496 20.4586 200.536 20.2262 200.62 20.0085C200.704 19.7907 200.831 19.592 200.993 19.424C201.359 19.038 201.812 18.824 202.267 18.824C202.617 18.832 236.18 19.574 237.681 19.574C239.406 19.574 240.203 20.528 240.236 20.568C240.253 20.59 247.024 29.992 247.256 30.318C247.605 30.806 247.583 31.238 247.514 31.598C243.86 51.202 236.552 69.805 236.252 70.564C236.21 70.7085 236.149 70.8465 236.069 70.974L236.03 71.104C235.721 72.049 231.019 83.45 222.04 99.706C213.809 114.613 205.506 124.891 202.982 127.291C202.911 127.353 202.871 127.391 202.852 127.412L200.417 129.938C200.225 130.137 199.995 130.295 199.741 130.402C199.487 130.51 199.212 130.564 198.936 130.563ZM95.508 55.993L198.275 129.424C198.723 129.754 199.369 129.691 199.752 129.298L202.164 126.797C202.166 126.792 202.24 126.714 202.358 126.611C204.835 124.255 213.051 114.076 221.23 99.261C230.176 83.066 234.844 71.754 235.151 70.814C235.154 70.808 235.164 70.775 235.18 70.721V70.639L235.266 70.514C235.313 70.4473 235.347 70.3728 235.367 70.294L235.383 70.246C235.458 70.058 242.91 51.255 246.605 31.426C246.655 31.164 246.631 31.031 246.503 30.852C246.271 30.527 239.502 21.127 239.502 21.127C239.499 21.127 238.944 20.495 237.681 20.494C236.169 20.494 203.641 19.775 202.257 19.744C201.999 19.744 201.774 19.941 201.663 20.058C201.583 20.1394 201.521 20.2364 201.481 20.3429C201.44 20.4494 201.422 20.5631 201.427 20.677L201.455 28.717C201.463 28.8654 201.511 29.0088 201.594 29.132L224.586 70.031L224.514 70.23C223.094 74.111 219.705 82.448 212.959 94.67C208.355 103.002 203.262 109.712 199.799 113.875C199.535 114.191 199.275 114.507 199.017 114.819L198.533 115.403C198.309 115.674 197.989 115.849 197.64 115.892C197.291 115.935 196.938 115.843 196.655 115.635L95.514 43.425L95.509 55.991L95.508 55.993ZM228.895 55.898L228.357 54.93C224.042 47.1912 219.575 39.5374 214.961 31.973C214.851 31.8089 214.788 31.6179 214.778 31.4206C214.768 31.2233 214.813 31.0271 214.906 30.853C215.09 30.496 215.463 30.273 215.878 30.273L234.688 31.011H234.69C234.857 31.0144 235.021 31.0558 235.169 31.1319C235.318 31.208 235.447 31.3168 235.547 31.4502C235.648 31.5837 235.716 31.7381 235.748 31.902C235.78 32.0658 235.774 32.2348 235.731 32.396L228.896 55.898H228.895ZM215.86 31.194C215.832 31.1948 215.805 31.2031 215.781 31.218C215.758 31.233 215.739 31.2541 215.726 31.279C215.709 31.3084 215.7 31.3424 215.702 31.3765C215.704 31.4106 215.716 31.4435 215.736 31.471L215.746 31.488C220.176 38.75 224.471 46.0939 228.627 53.516L234.841 32.146C234.854 32.102 234.841 32.046 234.805 31.998C234.789 31.9775 234.769 31.9608 234.746 31.9492C234.722 31.9376 234.697 31.9314 234.671 31.931L215.86 31.194ZM185.302 145.637H185.3C184.601 145.639 183.921 145.414 183.36 144.998L94.577 78.983L94.583 63.996L192.148 136.284C192.587 136.609 192.872 137.086 192.95 137.626C192.99 137.892 192.976 138.163 192.909 138.423C192.843 138.683 192.726 138.928 192.564 139.142L187.894 144.362C187.31 145.149 186.33 145.639 185.301 145.639L185.302 145.637ZM95.501 78.52L183.911 144.258C184.312 144.556 184.8 144.717 185.3 144.716H185.302C186.04 144.716 186.742 144.366 187.179 143.779L191.849 138.558C192.004 138.349 192.08 138.055 192.036 137.758C192.015 137.613 191.966 137.473 191.89 137.347C191.815 137.221 191.715 137.111 191.597 137.024L95.506 65.828L95.501 78.52ZM112.901 19.595L108.246 19.594C107.656 19.594 107.193 19.079 107.146 18.618L107.144 18.572L107.145 14.624L95.693 14.62C95.333 14.62 94.965 14.408 94.752 14.08L94.699 13.968C94.6329 13.7667 94.5962 13.5568 94.59 13.345L94.595 -0.547004L94.818 -0.681004C95.158 -0.886004 95.603 -0.979004 95.874 -0.979004L100.415 -0.978004C100.787 -0.978004 101.021 -0.823004 101.151 -0.692004C101.358 -0.486004 101.466 -0.190004 101.466 0.162996L101.463 7.767L107.147 7.769L107.15 -0.546004L107.376 -0.680004C107.706 -0.874004 108.155 -0.976004 108.428 -0.976004L112.975 -0.974004C113.604 -0.974004 114.026 -0.515004 114.026 0.165996L114.019 18.46C114.019 19.163 113.368 19.595 112.901 19.595ZM108.068 18.532C108.088 18.583 108.188 18.672 108.246 18.672L112.901 18.674C112.923 18.669 113.095 18.593 113.095 18.46L113.102 0.166996C113.102 -0.053004 113.043 -0.0530039 112.975 -0.0530039L108.428 -0.0550039C108.35 -0.0550039 108.211 -0.029004 108.074 0.0149961L108.071 8.69L100.538 8.688L100.541 0.162996C100.541 0.0459961 100.514 -0.0230039 100.496 -0.0420039C100.489 -0.0480039 100.46 -0.0570039 100.414 -0.0570039L95.873 -0.0580039C95.793 -0.0580039 95.653 -0.034004 95.518 0.00999606L95.514 13.345C95.514 13.401 95.527 13.502 95.559 13.618C95.606 13.668 95.664 13.698 95.692 13.698L108.068 13.702V18.532Z" fill="#B9E4E4" fill-opacity="0.67"/>
<path d="M96.565 16.807L94.753 14.084C94.6592 13.9487 94.603 13.791 94.59 13.627V13.345H95.514C95.514 13.413 95.534 13.547 95.58 13.691L96.565 16.808V16.807Z" fill="#B9E4E4" fill-opacity="0.67"/>
<path d="M95.692 14.619H95.018L94.884 14.389C94.8081 14.2557 94.7461 14.1149 94.699 13.969L93.655 10.689L95.528 13.579C95.575 13.651 95.658 13.698 95.693 13.698V14.619H95.692ZM28.773 208L17.692 207.473L17.706 167.495L-2.19301 178.128L15.961 194.808L7.77499 206.61L-10.28 203.038C-23.339 201.092 -40.23 195.534 -44.746 193.652C-45.246 193.44 -45.595 193.082 -45.755 192.616C-45.961 192.016 -45.84 191.289 -45.403 190.514C-45.1 189.962 -27.285 154.705 -23.598 147.41L-59.633 166.818L-45.906 183.033L-55.633 189.685L-55.904 189.387C-56.458 188.776 -69.472 174.427 -70.006 173.712C-70.576 172.947 -70.812 172.165 -70.706 171.387L-69.926 165.684C-69.516 162.7 -69.116 159.785 -69.08 159.514C-69.0067 159.057 -68.8293 158.624 -68.5616 158.247C-68.2939 157.87 -67.9429 157.56 -67.536 157.34C-66.722 156.905 -21.552 133.566 -19.63 132.572C-18.917 132.134 -17.97 132.064 -17.305 132.415L-7.91501 138.133C-7.57101 138.313 -7.30101 138.64 -7.17701 139.039C-7.05201 139.435 -7.09401 139.858 -7.29501 140.229L-29.545 185.865C-25.065 187.389 -18.125 189.426 -9.32601 190.981C-11.849 188.62 -13.736 186.829 -14.168 186.385C-14.988 185.533 -15.404 184.329 -15.254 183.242L-14.734 179.459C-14.291 176.232 -13.797 172.627 -13.714 172.035C-13.521 170.601 -12.722 170.016 -12.137 169.701L-10.671 168.91C0.617989 162.825 15.693 154.705 16.264 154.439C17.381 153.915 18.336 153.906 18.954 154.415C19.434 154.804 24.454 158.102 28.992 161.058C29.643 161.477 29.991 162.463 29.991 163.014L29.979 195.905L33.206 195.907H33.256C34.814 195.907 36.32 195.886 37.844 195.844L37.931 138.734C37.931 137.877 38.632 137.178 39.495 137.178L48.455 137.192C48.859 137.192 49.245 137.356 49.54 137.654C49.844 137.958 50.015 138.375 50.011 138.796L49.951 177.288L86.031 153.668C86.3952 153.431 86.8065 153.275 87.2366 153.211C87.6666 153.147 88.1055 153.177 88.523 153.298C89.373 153.542 90.069 154.142 90.427 154.943L103.459 183.649C107.813 182.108 112.111 180.413 116.345 178.568L102.423 155.226L102.495 155.188C102.095 154.448 102.353 153.521 103.083 153.1L110.711 148.685C111.045 148.493 111.437 148.43 111.814 148.508C112.191 148.587 112.526 148.801 112.755 149.11L112.812 149.073L127.319 173.393C130.85 171.596 134.328 169.698 137.75 167.701L124.282 152.724L125.007 143.799L135.771 133.087L94.569 101.966L94.575 86.81L95.318 87.379L179.64 151.87L174.468 156.72C174.222 156.951 148.644 180.27 108.069 194.796C71.774 207.787 41.881 208 31.413 208C30.377 208 29.533 207.996 28.909 207.984L28.773 208ZM28.863 207.061H28.895C29.517 207.074 30.367 207.077 31.41 207.078C41.833 207.078 71.606 206.868 107.757 193.929C148.156 179.466 173.589 156.279 173.834 156.048L178.214 151.941L95.497 88.676L95.492 101.506L137.175 132.989L125.899 144.208L125.233 152.401L139.19 167.922L138.704 168.207C134.985 170.391 131.198 172.459 127.35 174.408L126.964 174.603L112.503 150.358L112.438 150.399L112.043 149.704C111.956 149.56 111.817 149.456 111.654 149.414C111.492 149.372 111.32 149.395 111.174 149.479L103.546 153.895C103.474 153.937 103.41 153.993 103.36 154.059C103.309 154.126 103.272 154.201 103.25 154.282C103.229 154.363 103.224 154.447 103.235 154.53C103.246 154.613 103.274 154.693 103.316 154.765L103.773 155.547L103.709 155.581L117.671 178.99L117.193 179.2C112.653 181.192 108.039 183.013 103.361 184.657L102.962 184.796L89.582 155.32C89.4587 155.045 89.2767 154.801 89.0488 154.605C88.821 154.408 88.5527 154.264 88.263 154.182C87.9734 154.098 87.6693 154.078 87.3712 154.122C87.073 154.166 86.7879 154.274 86.535 154.438L49.022 178.996L49.084 138.789C49.084 138.698 49.0661 138.608 49.0313 138.524C48.9964 138.44 48.9454 138.364 48.881 138.3C48.8253 138.242 48.7587 138.195 48.6849 138.163C48.611 138.131 48.5315 138.113 48.451 138.112L39.491 138.098C39.3221 138.098 39.1602 138.165 39.0406 138.284C38.921 138.403 38.8535 138.565 38.853 138.734L38.763 196.737L38.316 196.751C36.652 196.801 34.948 196.827 33.252 196.827H33.202L29.052 196.825V196.365L29.064 163.013C29.064 162.692 28.804 162.034 28.484 161.828C25.648 159.981 18.988 155.632 18.365 155.125C18.045 154.863 17.406 154.918 16.653 155.272C16.039 155.557 -3.73701 166.216 -10.234 169.719L-11.7 170.51C-12.169 170.762 -12.666 171.155 -12.8 172.158C-12.883 172.752 -13.378 176.355 -13.82 179.582L-14.34 183.365C-14.452 184.18 -14.131 185.092 -13.504 185.744C-13.022 186.241 -10.637 188.497 -7.57101 191.358L-6.45601 192.399L-7.96301 192.149C-17.884 190.5 -25.609 188.202 -30.343 186.565L-30.834 186.395L-8.11901 139.808C-8.07585 139.734 -8.04843 139.652 -8.03845 139.567C-8.02847 139.481 -8.03615 139.395 -8.06101 139.313C-8.08465 139.232 -8.1246 139.156 -8.17842 139.091C-8.23224 139.026 -8.29879 138.973 -8.37401 138.934L-17.764 133.216C-18.114 133.031 -18.718 133.093 -19.177 133.373C-19.677 133.634 -66.293 157.72 -67.102 158.152C-67.3794 158.303 -67.6191 158.515 -67.8032 158.772C-67.9872 159.029 -68.1109 159.325 -68.165 159.636C-68.4458 161.694 -68.7274 163.751 -69.01 165.809L-69.791 171.511C-69.863 172.042 -69.686 172.598 -69.264 173.162C-68.853 173.714 -59.434 184.121 -55.489 188.47L-47.272 182.85L-61.072 166.548L-21.45 145.206L-22.111 146.515C-24.389 151.024 -44.372 190.572 -44.6 190.968C-44.897 191.497 -44.997 191.977 -44.88 192.318C-44.807 192.533 -44.64 192.696 -44.388 192.803C-39.903 194.672 -23.122 200.194 -10.122 202.132L7.35899 205.59L14.744 194.944L-3.77601 177.93L18.631 165.958L18.616 206.598L28.74 207.079L28.862 207.064L28.863 207.061ZM48.946 196.15L48.947 191.583L49.151 191.445L82.734 168.916C82.9947 168.743 83.2903 168.63 83.5997 168.584C83.9092 168.539 84.2249 168.562 84.5243 168.653C84.8236 168.744 85.0993 168.899 85.3315 169.109C85.5638 169.318 85.747 169.577 85.868 169.865L93.312 187.909L92.819 188.053C78.815 192.153 64.222 194.863 49.446 196.11L48.946 196.152V196.15ZM49.871 192.073L49.87 195.147C64.24 193.902 78.43 191.268 92.066 187.312L85.014 170.216C84.9477 170.053 84.8454 169.907 84.7146 169.788C84.5839 169.67 84.4281 169.583 84.259 169.534C84.0899 169.482 83.9114 169.469 83.7364 169.494C83.5614 169.52 83.3942 169.584 83.247 169.682L49.871 192.073ZM147.98 162.408L135.758 148.818L145.414 139.207L162.23 151.911L161.777 152.281C158.979 154.565 154.372 158.137 148.314 162.185L147.98 162.408ZM137.031 148.854L148.133 161.197C153.681 157.473 157.976 154.171 160.736 151.938L145.497 140.426L137.031 148.854Z" fill="#B9E4E4" fill-opacity="0.67"/>
</g>
<path opacity="0.33" d="M70.346 154.15L69.836 153.629C69.768 153.558 63.111 146.75 61.219 145.192L55.2 145.191L55.203 137.546L64.304 137.549L65.337 138.717C65.348 138.73 66.527 140.061 67.975 141.729C70.131 137.918 72.927 135.909 76.093 135.909H76.096L86.246 135.912L86.244 143.556L77.424 143.553H77.422C74.312 143.553 73.298 146.271 72.317 148.901C72.19 149.241 72.065 149.576 71.936 149.903L70.346 154.151V154.15ZM56.125 144.269L61.543 144.27L61.669 144.369C63.163 145.545 68.328 150.774 69.989 152.466L71.071 149.573C71.201 149.245 71.324 148.914 71.449 148.58C72.489 145.792 73.669 142.632 77.421 142.632H77.423L85.318 142.635L85.321 136.834L76.094 136.831H76.092C72.352 136.831 69.883 140.049 68.47 142.749L68.154 143.351L67.71 142.836C66.074 140.944 64.656 139.342 64.643 139.327L63.885 138.471L56.126 138.468L56.123 144.27L56.125 144.269Z" fill="#B9E4E4" fill-opacity="0.67"/>
<g opacity="0.33">
<path d="M85.98 128.727L73.722 128.72V128.26L73.78 -0.989014L86.037 -0.985014V-0.524014L85.979 128.727H85.98ZM74.647 127.8L85.056 127.804L85.114 -0.0640137L74.704 -0.0670136L74.647 127.8ZM48.404 128.716L36.611 128.712V127.79L37.074 127.786L48.405 127.795L48.404 128.716ZM48.887 99.814L36.632 99.81V98.89L37.094 98.879L48.887 98.883V99.814ZM37.423 55.515L29.902 55.507V54.586L37.422 54.589L37.423 55.515ZM25.947 55.511L17.964 55.503V54.582L18.427 54.577L25.947 54.58V55.511Z" fill="#B9E4E4" fill-opacity="0.67"/>
<path d="M67.457 128.723L37.073 128.707L-19.233 128.681L-19.229 116.46H-18.766L36.62 116.486L36.623 111.103L-19.227 111.073L-19.223 98.857H-18.76L48.887 98.892L48.875 116.495L55.123 116.498L55.176 -0.994995L67.514 -0.990995V-0.529995L67.456 128.722L67.457 128.723ZM-18.308 127.76L66.532 127.801L66.59 -0.0689951L56.1 -0.0729951L56.047 117.42L47.951 117.416L47.962 99.814L-18.298 99.78L-18.302 110.152L37.548 110.183L37.545 117.407H37.083L-18.304 117.381L-18.309 127.759L-18.308 127.76Z" fill="#B9E4E4" fill-opacity="0.67"/>
<path d="M67.457 128.257H66.533L66.537 116.502H67.462L67.466 116.963L67.457 128.257ZM48.897 55.519L17.964 55.498L17.977 36.134L25.96 36.142L25.95 47.426L29.443 47.431L29.453 36.138L37.435 36.146L37.425 47.436L40.919 47.44L40.929 36.14L48.911 36.15L48.898 55.518L48.897 55.519ZM18.888 54.577L47.974 54.597L47.985 37.072L41.852 37.065L41.842 48.365L36.5 48.356L36.51 37.068L30.376 37.061L30.366 48.356L25.025 48.347L25.034 37.064L18.901 37.057L18.888 54.577Z" fill="#B9E4E4" fill-opacity="0.67"/>
<path d="M48.884 92.579L11.621 92.555L11.165 92.565L-0.628006 92.561L-0.612006 17.506L11.643 17.51L11.63 80.34L17.96 80.347L17.973 61.303L48.901 61.315L48.889 80.365L48.893 80.825L48.883 92.58L48.884 92.579ZM11.164 91.633L47.961 91.657L47.969 81.265L47.965 80.825L47.976 62.235L19.327 62.214L18.897 62.223L18.884 81.269L10.706 81.26L10.719 18.43L0.311994 18.426L0.295994 91.64L10.702 91.644L11.165 91.634L11.164 91.633ZM37.557 81.281L29.291 81.271L29.294 72.595L37.56 72.597L37.557 81.281ZM30.216 80.351L36.633 80.358L36.636 73.518L30.219 73.516L30.216 80.351Z" fill="#B9E4E4" fill-opacity="0.67"/>
<path d="M48.897 73.529H47.972L47.967 73.068L47.977 61.774H48.9L48.897 73.529ZM48.925 11.23H47.887L47.886 -0.994019L48.929 -0.990019L48.925 11.228V11.23Z" fill="#B9E4E4" fill-opacity="0.67"/>
<path d="M-6.96 92.558L-19.22 92.554V92.094L-19.177 -0.96H-18.461L-18 -1L37.017 -0.99L48.81 -0.992V29.743H18.081L18.088 11.223L-6.92 11.219L-6.961 92.559L-6.96 92.558ZM-18.295 91.633L-7.884 91.636L-7.844 10.297L19.013 10.302L19.006 28.822H47.884L47.883 17.984L47.886 10.768V-0.07L37.016 -0.068L-17.539 -0.078L-18.252 -0.037L-18.295 91.633ZM37.477 18.445L29.423 18.442L29.42 10.306L37.48 10.303L37.477 18.445ZM30.347 17.521L36.552 17.523L36.555 11.225L30.345 11.228L30.347 17.521Z" fill="#B9E4E4" fill-opacity="0.67"/>
</g>
</g>
</g>
<defs>
<filter id="filter0_d_2061_4414" x="-4" y="0" width="259" height="216" filterUnits="userSpaceOnUse" color-interpolation-filters="sRGB">
<feFlood flood-opacity="0" result="BackgroundImageFix"/>
<feColorMatrix in="SourceAlpha" type="matrix" values="0 0 0 0 0 0 0 0 0 0 0 0 0 0 0 0 0 0 127 0" result="hardAlpha"/>
<feOffset dy="4"/>
<feGaussianBlur stdDeviation="2"/>
<feComposite in2="hardAlpha" operator="out"/>
<feColorMatrix type="matrix" values="0 0 0 0 0 0 0 0 0 0 0 0 0 0 0 0 0 0 0.25 0"/>
<feBlend mode="normal" in2="BackgroundImageFix" result="effect1_dropShadow_2061_4414"/>
<feBlend mode="normal" in="SourceGraphic" in2="effect1_dropShadow_2061_4414" result="shape"/>
</filter>
<clipPath id="clip0_2061_4414">
<rect width="251" height="208" fill="white"/>
</clipPath>
</defs>
</svg>
