<?xml version="1.0" encoding="UTF-8" standalone="no"?>
<svg
   height="24px"
   viewBox="0 0 24 24"
   width="24px"
   fill="#000000"
   version="1.1"
   id="svg3555"
   sodipodi:docname="assessment.svg"
   inkscape:version="1.2 (dc2aedaf03, 2022-05-15)"
   xmlns:inkscape="http://www.inkscape.org/namespaces/inkscape"
   xmlns:sodipodi="http://sodipodi.sourceforge.net/DTD/sodipodi-0.dtd"
   xmlns="http://www.w3.org/2000/svg"
   xmlns:svg="http://www.w3.org/2000/svg">
  <defs
     id="defs3559" />
  <sodipodi:namedview
     id="namedview3557"
     pagecolor="#ffffff"
     bordercolor="#000000"
     borderopacity="0.25"
     inkscape:showpageshadow="2"
     inkscape:pageopacity="0.0"
     inkscape:pagecheckerboard="0"
     inkscape:deskcolor="#d1d1d1"
     showgrid="false"
     inkscape:zoom="34.875"
     inkscape:cx="11.985663"
     inkscape:cy="12.071685"
     inkscape:window-width="1920"
     inkscape:window-height="1017"
     inkscape:window-x="-8"
     inkscape:window-y="-8"
     inkscape:window-maximized="1"
     inkscape:current-layer="svg3555" />
  <path
     d="M0 0h24v24H0V0z"
     fill="none"
     id="path3549" />
  <path
     d="M 4.4265233,5.7741935 V 19.774194 H 18.426523 V 5.7741935 Z m 4,12.0000005 h -2 v -7 h 2 z m 3.9999997,0 h -2 V 7.7741935 h 2 z m 4,0 h -2 v -4 h 2 z"
     opacity=".3"
     id="path3551"
     style="opacity:1;fill:#6ebe8a;fill-opacity:1" />
  <path
     d="M19 3H5c-1.1 0-2 .9-2 2v14c0 1.1.9 2 2 2h14c1.1 0 2-.9 2-2V5c0-1.1-.9-2-2-2zm0 16H5V5h14v14zM7 10h2v7H7zm4-3h2v10h-2zm4 6h2v4h-2z"
     id="path3553"
     style="fill:#005430;fill-opacity:1" />
</svg>
