<svg xmlns="http://www.w3.org/2000/svg" xmlns:xlink="http://www.w3.org/1999/xlink" viewBox="0 0 595.28 841.89"><defs><pattern id="rakamy" data-name="rakamy" width="420.47" height="245.4" patternTransform="translate(-1829.69 -254)" patternUnits="userSpaceOnUse" viewBox="0 0 420.47 245.4"><rect width="420.47" height="245.4" fill="none"/><path d="M396.63,322.73H372.11v-92H314.6l17.9,21.33v-8.48H357v46.64H332.5l-52.19-62.18L294,206.22H396.63V322.73Zm24.83-178.57,21.46,21.47,21.47-21.47L442.92,122.7l-21.46,21.46ZM399,346.63l21.46,21.47,21.46-21.47-21.46-21.46L399,346.63ZM376.55,144.16,398,165.63l21.46-21.47L398,122.7l-21.47,21.46Zm56.18,25.72H408.2l-75.85.27v24.53l75.85-.28V322.74h24.53V194.4l75.86.28V170.15l-75.86-.27ZM444.3,322.57V206.22H546.92l13.71,21.83-52.19,62.18H483.91V243.59h24.53v8.48l17.9-21.33H468.83v92H444.3Z" fill="#606161" fill-rule="evenodd" opacity="0.26"/><path d="M-23.83,322.73H-48.36v-92h-57.51L-88,252.07v-8.48h24.53v46.64H-88l-52.19-62.18,13.71-21.83H-23.83V322.73ZM1,144.16l21.46,21.47,21.47-21.47L22.45,122.7,1,144.16ZM-21.46,346.63,0,368.1l21.46-21.47L0,325.17l-21.46,21.46ZM-43.92,144.16l21.47,21.47L-1,144.16-22.45,122.7l-21.47,21.46Zm56.18,25.72H-12.26l-75.86.27v24.53l75.86-.28V322.74H12.26V194.4l75.86.28V170.15l-75.86-.27ZM23.84,322.57V206.22H126.45l13.71,21.83L88,290.23H63.45V243.59H88v8.48l17.9-21.33H48.36v92H23.84Z" fill="#606161" fill-rule="evenodd" opacity="0.26"/><path d="M396.63,77.34H372.11v-92H314.6L332.5,6.67V-1.8H357V44.83H332.5L280.31-17.35,294-39.18H396.63V77.34Zm24.83-178.58,21.46,21.47,21.47-21.47L442.92-122.7l-21.46,21.46ZM399,101.24l21.46,21.46,21.46-21.46L420.47,79.77,399,101.24ZM376.55-101.24,398-79.77l21.46-21.47L398-122.7l-21.47,21.46Zm56.18,25.72H408.2l-75.85.27v24.53L408.2-51V77.34h24.53V-51l75.86.27V-75.25l-75.86-.27ZM444.3,77.17V-39.18H546.92l13.71,21.83L508.44,44.83H483.91V-1.8h24.53V6.67l17.9-21.32H468.83v92H444.3Z" fill="#606161" fill-rule="evenodd" opacity="0.26"/><path d="M186.4,200H161.87v-92H104.36l17.9,21.32v-8.48h24.53v46.64H122.26L70.08,105.35l13.7-21.83H186.4V200ZM211.23,21.46l21.46,21.47,21.46-21.47L232.69,0,211.23,21.46ZM188.77,223.93l21.46,21.47,21.47-21.47-21.47-21.46-21.46,21.46ZM166.32,21.46l21.46,21.47,21.46-21.47L187.78,0,166.32,21.46ZM222.5,47.18H198l-75.85.27V72L198,71.71V200H222.5V71.71l75.85.27V47.45l-75.85-.27Zm11.57,152.69V83.52H336.69l13.7,21.83-52.18,62.18H273.68V120.89h24.53v8.48l17.9-21.32H258.6v92H234.07Z" fill="#606161" fill-rule="evenodd" opacity="0.26"/><path d="M-23.83,77.34H-48.36v-92h-57.51L-88,6.67V-1.8h24.53V44.83H-88l-52.19-62.18,13.71-21.83H-23.83V77.34ZM1-101.24,22.45-79.77l21.47-21.47L22.45-122.7,1-101.24ZM-21.46,101.24,0,122.7l21.46-21.46L0,79.77l-21.46,21.47ZM-43.92-101.24l21.47,21.47L-1-101.24-22.45-122.7l-21.47,21.46ZM12.26-75.52H-12.26l-75.86.27v24.53L-12.26-51V77.34H12.26V-51l75.86.27V-75.25l-75.86-.27ZM23.84,77.17V-39.18H126.45l13.71,21.83L88,44.83H63.45V-1.8H88V6.67l17.9-21.32H48.36v92H23.84Z" fill="#606161" fill-rule="evenodd" opacity="0.26"/></pattern></defs><g id="Layer_2" data-name="Layer 2"><g id="Layer_1-2" data-name="Layer 1"><rect width="595.28" height="841.89" opacity="0.14" fill="url(#rakamy)"/></g></g></svg>