<?xml version="1.0" encoding="UTF-8" standalone="no"?>
<!-- Svg Vector Icons : http://www.onlinewebfonts.com/icon -->

<svg
   version="1.1"
   x="0px"
   y="0px"
   viewBox="0 0 1000 1000"
   enable-background="new 0 0 1000 1000"
   xml:space="preserve"
   id="svg28"
   sodipodi:docname="AttendanceView.svg"
   inkscape:version="1.2 (dc2aedaf03, 2022-05-15)"
   xmlns:inkscape="http://www.inkscape.org/namespaces/inkscape"
   xmlns:sodipodi="http://sodipodi.sourceforge.net/DTD/sodipodi-0.dtd"
   xmlns="http://www.w3.org/2000/svg"
   xmlns:svg="http://www.w3.org/2000/svg"><defs
   id="defs32" /><sodipodi:namedview
   id="namedview30"
   pagecolor="#ffffff"
   bordercolor="#000000"
   borderopacity="0.25"
   inkscape:showpageshadow="2"
   inkscape:pageopacity="0.0"
   inkscape:pagecheckerboard="0"
   inkscape:deskcolor="#d1d1d1"
   showgrid="false"
   inkscape:zoom="0.837"
   inkscape:cx="500.59737"
   inkscape:cy="501.79211"
   inkscape:window-width="1920"
   inkscape:window-height="1017"
   inkscape:window-x="-8"
   inkscape:window-y="-8"
   inkscape:window-maximized="1"
   inkscape:current-layer="svg28" />
<metadata
   id="metadata2"> Svg Vector Icons : http://www.onlinewebfonts.com/icon </metadata>
<path
   style="fill:#dbc38f;fill-opacity:1;stroke:none;stroke-width:1;paint-order:markers fill stroke"
   d="M 51.373955,535.24492 V 501.19474 H 86.618878 121.8638 v 34.05018 34.05018 H 86.618878 51.373955 Z"
   id="path2464" /><path
   style="fill:#dbc38f;fill-opacity:1;stroke:none;stroke-width:1;paint-order:markers fill stroke"
   d="m 188.76942,536.43966 v -34.05018 h 35.24492 35.24492 v 34.05018 34.05018 h -35.24492 -35.24492 z"
   id="path2466" /><path
   style="fill:#dbc38f;fill-opacity:1;stroke:none;stroke-width:1;paint-order:markers fill stroke"
   d="M 326.16488,534.05018 V 500 h 34.64755 34.64755 v 34.05018 34.05018 h -34.64755 -34.64755 z"
   id="path2468" /><path
   style="fill:#dbc38f;fill-opacity:1;stroke:none;stroke-width:1;paint-order:markers fill stroke"
   d="m 53.763441,666.64862 v -34.06823 l 34.946237,0.31673 34.946242,0.31674 0.31729,33.75149 0.31729,33.75149 H 89.026968 53.763441 Z"
   id="path2470" /><path
   style="fill:#dbc38f;fill-opacity:1;stroke:none;stroke-width:1;paint-order:markers fill stroke"
   d="m 189.96416,667.86141 v -35.24493 h 35.54361 35.54361 v 35.24493 35.24492 h -35.54361 -35.54361 z"
   id="path2474" /><path
   style="fill:#dbc38f;fill-opacity:1;stroke:none;stroke-width:1;paint-order:markers fill stroke"
   d="m 328.55436,665.47192 v -34.05018 h 34.64755 34.64755 v 34.05018 34.05018 h -34.64755 -34.64755 z"
   id="path2476" /><path
   style="fill:#dbc38f;fill-opacity:1;stroke:none;stroke-width:1;paint-order:markers fill stroke"
   d="m 56.152928,807.64635 v -34.05018 h 34.647554 34.647548 v 34.05018 34.05018 H 90.800482 56.152928 Z"
   id="path2478" /><path
   style="fill:#dbc38f;fill-opacity:1;stroke:none;stroke-width:1;paint-order:markers fill stroke"
   d="m 193.54839,808.8411 v -34.05018 h 34.64755 34.64755 v 34.05018 34.05018 h -34.64755 -34.64755 z"
   id="path2480" /><path
   style="fill:#dbc38f;fill-opacity:1;stroke:none;stroke-width:1;paint-order:markers fill stroke"
   d="m 330.94385,806.45161 v -34.05018 h 34.64755 34.64755 v 34.05018 34.05018 H 365.5914 330.94385 Z"
   id="path2482" /><path
   style="fill:#dbc38f;fill-opacity:1;stroke:none;stroke-width:1;paint-order:markers fill stroke"
   d="m 728.79331,861.29742 c -28.85179,-3.43683 -57.00612,-12.99471 -78.1384,-26.52659 -33.58576,-21.50634 -60.60347,-55.80365 -72.96296,-92.62194 -6.6722,-19.87615 -8.2737,-30.58826 -8.33767,-55.76897 -0.0655,-25.79302 1.77345,-37.55765 9.12865,-58.39964 23.41944,-66.36224 83.84109,-112.57436 153.01746,-117.03192 47.69517,-3.07336 90.52953,10.97406 127.03531,41.66092 29.44507,24.75161 50.72188,61.44458 58.62342,101.09919 2.98254,14.96817 2.98377,49.51263 0.002,64.2888 -5.93929,29.43488 -16.95457,53.61092 -34.85869,76.50691 -32.2257,41.21058 -80.65055,65.52966 -133.16693,66.8768 -8.88848,0.228 -18.04259,0.1904 -20.34247,-0.0835 z m 31.06332,-38.71678 v -21.50538 h -15.53166 -15.53166 v 21.50538 21.50538 h 15.53166 15.53166 z m -34.34886,-83.88135 33.15412,-24.87295 v -60.91556 -60.91556 h -13.14218 -13.14217 v 54.82717 54.82718 l -28.6979,21.71153 c -18.5589,14.04082 -28.39794,22.21261 -27.84888,23.12982 4.04431,6.75597 14.05204,18.56817 15.16447,17.89875 0.74714,-0.44959 16.27777,-12.01026 34.51254,-25.69038 z m -95.87814,-52.31937 v -15.53166 h -21.50538 -21.50537 v 14.73517 c 0,8.10434 0.35842,15.09359 0.79649,15.53166 0.43808,0.43807 10.11549,0.7965 21.50538,0.7965 h 20.70888 z m 272.13845,-0.29868 0.33437,-15.23298 h -21.54106 -21.54108 v 15.55923 15.55923 l 21.20669,-0.32626 21.20669,-0.32625 z M 759.85663,542.41338 v -20.90801 h -15.53166 -15.53166 v 20.90801 20.908 h 15.53166 15.53166 z"
   id="path2393" /><g
   id="g26"
   style="fill:#00612a;fill-opacity:1;stroke:none"><path
     d="M766.1,268.2V166c0-20.1-15.7-36.4-35.1-36.4H45.1C25.7,129.7,10,145.9,10,166v102.2H766.1z"
     id="path4"
     style="fill:#00612a;fill-opacity:1;stroke:none" /><path
     d="M219,152.5c0,18.4-14.9,33.3-33.3,33.3h-74.3c-18.4,0-33.3-14.9-33.3-33.3v-72c0-18.4,14.9-33.3,33.3-33.3h74.3c18.4,0,33.3,14.9,33.3,33.3V152.5z"
     id="path6"
     style="fill:#00612a;fill-opacity:1;stroke:none" /><path
     d="M698,150.2c0,18.4-14.9,33.3-33.3,33.3h-74.3c-18.4,0-33.3-14.9-33.3-33.3v-72c0-18.4,14.9-33.3,33.3-33.3h74.3c18.4,0,33.3,14.9,33.3,33.3V150.2z"
     id="path8"
     style="fill:#00612a;fill-opacity:1;stroke:none" /><path
     d="M758.4,917.1c-80.8,0-152.7-38-198.9-97h-65.1V752h27.1c-8.4-22.9-13.6-47.3-15.1-72.8H492v-68.1h19.7c4.8-22.4,12.6-43.7,23-63.4h-45v-68.1h70.4v28.9c46.2-58.6,117.9-96.2,198.3-96.2c2.2,0,4.5,0,6.7,0.1v-71.3h-754v556c0,32,26,58,58,58h638c25,0,46.3-15.8,54.5-38C760.5,917.1,759.4,917.1,758.4,917.1z M75.2,477.3h70.4v68.1H75.2V477.3z M77.5,608.8H148v68.1H77.5V608.8z M150.3,817.8H79.9v-68.1h70.4V817.8z M212.5,478.5H283v68.1h-70.4V478.5z M214.9,610h70.4V678h-70.4V610z M287.7,818.9h-70.4v-68.1h70.4V818.9z M349.9,476.1h70.4v68.1h-70.4V476.1z M352.2,607.6h70.4v68.1h-70.4V607.6z M425,816.6h-70.4v-68.1H425V816.6z"
     id="path10"
     style="fill:#00612a;fill-opacity:1;stroke:none" /><path
     d="M759.8,439.1c-126.9,0-230.2,103.3-230.2,230.2c0,126.9,103.3,230.2,230.2,230.2c126.9,0,230.2-103.3,230.2-230.2C990,542.3,886.7,439.1,759.8,439.1L759.8,439.1z M759.8,845.5c-97.2,0-176.2-79.1-176.2-176.2S662.6,493,759.8,493C857,493,936,572.1,936,669.3S857,845.5,759.8,845.5L759.8,845.5z"
     id="path12"
     style="fill:#00612a;fill-opacity:1;stroke:none" /><path
     d="M602.9,654h41.9v30.5h-41.9V654z"
     id="path14"
     style="fill:#00612a;fill-opacity:1;stroke:none" /><path
     d="M874.7,654h41.9v30.5h-41.9V654z"
     id="path16"
     style="fill:#00612a;fill-opacity:1;stroke:none" /><path
     d="M744.5,504.8h30.5v41.9h-30.5V504.8z"
     id="path18"
     style="fill:#00612a;fill-opacity:1;stroke:none" /><path
     d="M744.5,784.8h30.5v41.9h-30.5V784.8z"
     id="path20"
     style="fill:#00612a;fill-opacity:1;stroke:none" /><path
     d="M748.8,575.4h24.7v121.5h-24.7V575.4z"
     id="path22"
     style="fill:#00612a;fill-opacity:1;stroke:none" /><path
     d="M705.5,748.3l-14.9-19.7l67.5-50.9l14.9,19.7L705.5,748.3z"
     id="path24"
     style="fill:#00612a;fill-opacity:1;stroke:none" /></g>
</svg>
