<svg xmlns="http://www.w3.org/2000/svg" viewBox="0 0 24 24"><g id="Layer_2" data-name="Layer 2"><g id="Layer_1-2" data-name="Layer 1"><path d="M0,0H24V24H0Z" fill="none"/><path d="M19,5H5V19H19ZM12,6A3,3,0,1,1,9,9,3,3,0,0,1,12,6Zm6,12H6V16.47c0-2.5,4-3.58,6-3.58s6,1.08,6,3.58Z" fill="#00bd82"/><path d="M21.66,3.88a2,2,0,0,0-.54-.54,2.21,2.21,0,0,0-.34-.18A2,2,0,0,0,20,3H15.82a3,3,0,0,0-5.64,0H6A2,2,0,0,0,4,5V19a2,2,0,0,0,2,2H20a2,2,0,0,0,.78-.16,2.21,2.21,0,0,0,.34-.18,2,2,0,0,0,.54-.54A2.05,2.05,0,0,0,22,19V5A2.05,2.05,0,0,0,21.66,3.88ZM13,2.75a.77.77,0,1,1-.55.25A.75.75,0,0,1,13,2.75ZM20,19H6V5H20Zm-7-7a3,3,0,1,0-3-3A3,3,0,0,0,13,12Zm0-2a1,1,0,1,1,1-1A1,1,0,0,1,13,10Zm0,2.88c-2,0-6,1.08-6,3.58V18H19V16.47C19,14,15,12.88,13,12.88ZM9.31,16A7,7,0,0,1,13,14.88,7,7,0,0,1,16.69,16Z" fill="#3d4d55"/></g></g></svg>