<?xml version="1.0" encoding="UTF-8" standalone="no"?>
<svg
   viewBox="0 0 24 24"
   version="1.1"
   id="svg7278"
   sodipodi:docname="baynaty.svg"
   inkscape:version="1.2 (dc2aedaf03, 2022-05-15)"
   xmlns:inkscape="http://www.inkscape.org/namespaces/inkscape"
   xmlns:sodipodi="http://sodipodi.sourceforge.net/DTD/sodipodi-0.dtd"
   xmlns="http://www.w3.org/2000/svg"
   xmlns:svg="http://www.w3.org/2000/svg">
  <defs
     id="defs7282" />
  <sodipodi:namedview
     id="namedview7280"
     pagecolor="#ffffff"
     bordercolor="#000000"
     borderopacity="0.25"
     inkscape:showpageshadow="2"
     inkscape:pageopacity="0.0"
     inkscape:pagecheckerboard="0"
     inkscape:deskcolor="#d1d1d1"
     showgrid="false"
     inkscape:zoom="34.875"
     inkscape:cx="11.985663"
     inkscape:cy="12.071685"
     inkscape:window-width="1920"
     inkscape:window-height="1017"
     inkscape:window-x="-8"
     inkscape:window-y="-8"
     inkscape:window-maximized="1"
     inkscape:current-layer="svg7278" />
  <g
     id="Layer_2"
     data-name="Layer 2">
    <g
       id="Layer_1-2"
       data-name="Layer 1">
      <path
         d="M0,0H24V24H0Z"
         fill="none"
         id="path7270" />
      <path
         d="M 19,5.5448029 H 5 V 19.544803 h 14 z m -7,1 a 3,3 0 1 1 -3,3 3,3 0 0 1 3,-3 z M 18,18.544803 H 6 v -1.53 c 0,-2.5 4,-3.58 6,-3.58 2,0 6,1.08 6,3.58 z"
         fill="#2e8d9a"
         id="path7272"
         style="fill:#dbc38f;fill-opacity:1" />
      <path
         d="M21.66,3.88a2,2,0,0,0-.54-.54,2.21,2.21,0,0,0-.34-.18A2,2,0,0,0,20,3H15.82a3,3,0,0,0-5.64,0H6A2,2,0,0,0,4,5V19a2,2,0,0,0,2,2H20a2,2,0,0,0,.78-.16,2.21,2.21,0,0,0,.34-.18,2,2,0,0,0,.54-.54A2.05,2.05,0,0,0,22,19V5A2.05,2.05,0,0,0,21.66,3.88ZM13,2.75a.77.77,0,1,1-.55.25A.75.75,0,0,1,13,2.75ZM20,19H6V5H20Zm-7-7a3,3,0,1,0-3-3A3,3,0,0,0,13,12Zm0-2a1,1,0,1,1,1-1A1,1,0,0,1,13,10Zm0,2.88c-2,0-6,1.08-6,3.58V18H19V16.47C19,14,15,12.88,13,12.88ZM9.31,16A7,7,0,0,1,13,14.88,7,7,0,0,1,16.69,16Z"
         fill="#274690"
         id="path7274"
         style="fill:#00612a;fill-opacity:1" />
    </g>
  </g>
</svg>
