<?xml version="1.0" encoding="UTF-8" standalone="no"?>
<svg
   height="24px"
   viewBox="0 0 24 24"
   width="24px"
   fill="#000000"
   version="1.1"
   id="svg17352"
   sodipodi:docname="bookmarks_black_24dp.svg"
   inkscape:version="1.2 (dc2aedaf03, 2022-05-15)"
   xmlns:inkscape="http://www.inkscape.org/namespaces/inkscape"
   xmlns:sodipodi="http://sodipodi.sourceforge.net/DTD/sodipodi-0.dtd"
   xmlns="http://www.w3.org/2000/svg"
   xmlns:svg="http://www.w3.org/2000/svg">
  <defs
     id="defs17356" />
  <sodipodi:namedview
     id="namedview17354"
     pagecolor="#ffffff"
     bordercolor="#000000"
     borderopacity="0.25"
     inkscape:showpageshadow="2"
     inkscape:pageopacity="0.0"
     inkscape:pagecheckerboard="0"
     inkscape:deskcolor="#d1d1d1"
     showgrid="false"
     inkscape:zoom="34.875"
     inkscape:cx="7.4121864"
     inkscape:cy="12.014337"
     inkscape:window-width="1920"
     inkscape:window-height="1017"
     inkscape:window-x="-8"
     inkscape:window-y="-8"
     inkscape:window-maximized="1"
     inkscape:current-layer="svg17352" />
  <path
     d="M0 0h24v24H0V0z"
     fill="none"
     id="path17348" />
  <path
     style="fill:#2E8D9A;fill-opacity:1;stroke:#2E8D9A;stroke-width:0.0286738"
     d="M 4.1290322,14.450903 V 7.9856631 H 9.1182789 14.107527 V 14.45468 c 0,5.163746 -0.0072,6.466124 -0.03584,6.454678 -0.01971,-0.0079 -1.134205,-0.486687 -2.476649,-1.064 -1.342444,-0.577313 -2.4607181,-1.049659 -2.4850521,-1.049659 -0.02433,0 -1.1259714,0.465717 -2.4480815,1.034928 -1.3221103,0.569211 -2.4328692,1.046311 -2.468353,1.060222 l -0.064516,0.02529 z"
     id="path17427" />
  <path
     d="M15 7v12.97l-4.21-1.81-.79-.34-.79.34L5 19.97V7h10m4-6H8.99C7.89 1 7 1.9 7 3h10c1.1 0 2 .9 2 2v13l2 1V3c0-1.1-.9-2-2-2zm-4 4H5c-1.1 0-2 .9-2 2v16l7-3 7 3V7c0-1.1-.9-2-2-2z"
     id="path17350"
     style="fill:#274690;fill-opacity:1" />
</svg>
