<svg width="82" height="64" viewBox="0 0 82 64" fill="none" xmlns="http://www.w3.org/2000/svg">
<g clip-path="url(#clip0_2081_4171)">
<path d="M54 16.4998V15.7998C54 12.4861 51.3137 9.7998 48 9.7998H29C25.6863 9.7998 23 12.4861 23 15.7998V54.1487C23 54.7568 23.6515 55.1425 24.1847 54.8502L37.9711 47.2899C38.3006 47.1092 38.6994 47.1092 39.0289 47.2899L52.8153 54.8502C53.3485 55.1425 54 54.7568 54 54.1487V43.7971M49.2403 27.0326L41.918 27.8624C41.0652 27.9591 40.7223 29.0144 41.3554 29.5938L46.7915 34.569C47.0508 34.8063 47.1664 35.1623 47.0962 35.5067L45.6227 42.7271C45.4511 43.5679 46.3487 44.2201 47.0954 43.7971L53.5071 40.1645C53.66 40.0778 53.83 40.0345 54 40.0345C54.17 40.0345 54.34 40.0778 54.4929 40.1645L60.9046 43.7971C61.6513 44.2201 62.5489 43.5679 62.3773 42.7271L60.9038 35.5067C60.8336 35.1623 60.9492 34.8063 61.2085 34.569L66.6446 29.5938C67.2777 29.0144 66.9348 27.9591 66.082 27.8624L58.7597 27.0326C58.4105 26.993 58.1077 26.773 57.9621 26.4531L54.9102 19.7456C54.7325 19.3551 54.3662 19.1598 54 19.1598C53.6338 19.1598 53.2675 19.3551 53.0898 19.7456L50.0379 26.4531C49.8923 26.773 49.5895 26.993 49.2403 27.0326Z" stroke="#214187" stroke-width="1.3" stroke-linecap="round" stroke-linejoin="round"/>
</g>
<defs>
<clipPath id="clip0_2081_4171">
<rect width="81.9803" height="63.0618" fill="white"/>
</clipPath>
</defs>
</svg>
