<?xml version="1.0" encoding="UTF-8" standalone="no"?>
<svg
   height="24px"
   viewBox="0 0 24 24"
   width="24px"
   fill="#000000"
   version="1.1"
   id="svg12"
   sodipodi:docname="car_details.svg"
   xml:space="preserve"
   inkscape:version="1.2 (dc2aedaf03, 2022-05-15)"
   xmlns:inkscape="http://www.inkscape.org/namespaces/inkscape"
   xmlns:sodipodi="http://sodipodi.sourceforge.net/DTD/sodipodi-0.dtd"
   xmlns="http://www.w3.org/2000/svg"
   xmlns:svg="http://www.w3.org/2000/svg"><defs
     id="defs16"><clipPath
       clipPathUnits="userSpaceOnUse"
       id="clipPath1756"><path
         id="path1758"
         style="fill:#ff0000;fill-opacity:1;fill-rule:nonzero;stroke:none"
         d="M 0,0 V 24 H 24 V 11.363281 c -0.7749,0.403774 -1.845345,0.602187 -3.195312,0.4375 -0.222769,-0.02718 -0.47029,-0.0526 -0.703126,-0.07226 -0.35614,-0.03942 -0.712412,-0.07882 -1.066406,-0.134766 -0.02804,-0.0044 -0.05594,-0.0093 -0.08398,-0.01367 h -0.002 c -0.03148,0.0011 -0.06429,-5.34e-4 -0.09961,-0.0039 -0.206431,-0.01999 -0.414397,-0.02943 -0.621093,-0.04687 -0.233272,-0.01946 -0.465372,-0.03451 -0.699219,-0.04492 -0.170534,-0.007 -0.343016,-0.0098 -0.513672,-0.01172 -0.14523,-0.0019 -0.288954,-0.0064 -0.433594,0.0078 -0.08854,0.0094 -0.04347,0.0044 -0.132812,0.01367 -0.03305,0.0034 -0.05842,-0.0013 -0.08789,-0.002 -0.03394,0.03632 -0.09394,0.0625 -0.179687,0.0625 h -0.195313 c -0.03917,0.02728 -0.09918,0.03129 -0.169922,-0.002 -0.0574,1.04e-4 -0.114897,0.0017 -0.171875,-0.0039 -0.08439,-0.0091 -0.155936,-0.04539 -0.222656,-0.0957 -0.07031,-0.05171 -0.116881,-0.121892 -0.150391,-0.201172 -0.0306,-0.09348 -0.0346,-0.193507 -0.03906,-0.291015 v -0.002 c -0.01369,-0.01428 -0.02885,-0.02666 -0.04102,-0.04297 -0.111773,-0.195242 -0.115975,-0.331653 -0.109375,-0.550782 V 9.8378906 9.4394531 c 0,-0.090717 0.01441,-0.1667919 0.03906,-0.2285156 -0.148124,-0.405425 -0.218315,-0.8329803 -0.210938,-1.2929687 -6.7e-5,-0.3459877 2.39e-4,-0.6911229 0,-1.0371094 -4e-4,-0.5938123 -3e-5,-1.1874393 -0.002,-1.78125 -0.0016,-0.5152129 -0.0032,-1.0297679 -0.01172,-1.5449219 -0.0051,-0.257975 -0.01214,-0.5177785 -0.02734,-0.7753906 C 14.802838,1.642464 14.974032,0.71352701 15.294922,0 Z m 20.005859,0 c 0.294933,0.59669651 0.503625,1.3470151 0.576172,2.2617188 0.03107,0.3917709 0.0389,0.7849546 0.04687,1.1777343 0.0094,0.5476071 0.01197,1.0949053 0.01367,1.6425781 7.89e-4,0.3118842 0.0016,0.6236619 0.002,0.9355469 0.02863,0.00313 0.05731,0.00663 0.08594,0.00977 0.302683,0.024772 0.603401,0.05872 0.904297,0.099609 C 22.618083,6.2605758 23.401781,6.5443036 24,6.9140625 V 0 Z M 15.65625,10.162109 v 0.0059 c 0.0014,-8.85e-4 0.0025,-0.0012 0.0039,-0.002 -0.0012,-0.0014 -0.0027,-0.0025 -0.0039,-0.0039 z m 0.601562,0.56836 -0.002,0.002 v 0.002 c 0.0017,4.58e-4 0.0042,-4.95e-4 0.0059,0 -0.0014,-0.001 -0.0025,-0.0029 -0.0039,-0.0039 z" /></clipPath><clipPath
       clipPathUnits="userSpaceOnUse"
       id="clipPath1766"><path
         id="path1768"
         style="fill:#ff0000;fill-opacity:1;fill-rule:nonzero;stroke:none"
         d="m 5,11 v 5 h 14 v -4.412109 l -0.05078,-0.0078 c -0.03148,0.0011 -0.06429,-5.1e-4 -0.09961,-0.0039 -0.206435,-0.01999 -0.414393,-0.02943 -0.621093,-0.04687 -0.233272,-0.01946 -0.465372,-0.03451 -0.699219,-0.04492 -0.170534,-0.007 -0.343016,-0.0098 -0.513672,-0.01172 -0.14523,-0.0019 -0.288954,-0.0064 -0.433594,0.0078 -0.08854,0.0094 -0.04347,0.0044 -0.132812,0.01367 -0.0331,0.0034 -0.06419,0.0046 -0.09375,0.0039 h -0.002 c -0.03483,0.03291 -0.0913,0.05664 -0.171875,0.05664 h -0.195313 c -0.03842,0.02676 -0.09702,0.03112 -0.166016,0 -0.0587,1.55e-4 -0.117509,-8.1e-5 -0.175781,-0.0059 -0.08439,-0.0091 -0.155936,-0.04539 -0.222656,-0.0957 -0.07031,-0.05171 -0.116881,-0.121892 -0.150391,-0.201172 -0.0265,-0.08107 -0.03295,-0.166912 -0.03711,-0.251953 z" /></clipPath><clipPath
       clipPathUnits="userSpaceOnUse"
       id="clipPath1776"><path
         id="path1778"
         style="fill:#ff0000;fill-opacity:1;fill-rule:nonzero;stroke:none"
         d="m 3,4 v 16 h 18 v -8.181641 c -0.06559,-0.0064 -0.128369,-0.0094 -0.195312,-0.01758 -0.222769,-0.02718 -0.47029,-0.0526 -0.703126,-0.07226 -0.35614,-0.03942 -0.712412,-0.07882 -1.066406,-0.134766 -0.02867,-0.0045 -0.05727,-0.0092 -0.08594,-0.01367 h -0.002 c -0.03093,10e-4 -0.06305,-6.02e-4 -0.09766,-0.0039 -0.206431,-0.01999 -0.414397,-0.02943 -0.621093,-0.04687 -0.233272,-0.01946 -0.465372,-0.03451 -0.699219,-0.04492 -0.170534,-0.007 -0.343016,-0.0098 -0.513672,-0.01172 -0.14523,-0.0019 -0.288954,-0.0064 -0.433594,0.0078 -0.08854,0.0094 -0.04347,0.0044 -0.132812,0.01367 -0.03308,0.0034 -0.0642,0.0046 -0.09375,0.0039 h -0.002 c -0.03483,0.03291 -0.0913,0.05664 -0.171875,0.05664 h -0.195313 c -0.03917,0.02728 -0.09918,0.03129 -0.169922,-0.002 -0.0574,1.04e-4 -0.114897,0.0017 -0.171875,-0.0039 -0.08439,-0.0091 -0.155936,-0.04539 -0.222656,-0.0957 -0.07031,-0.05171 -0.116881,-0.121892 -0.150391,-0.201172 -0.0306,-0.09348 -0.0346,-0.193507 -0.03906,-0.291015 v -0.002 c -0.01369,-0.01428 -0.02885,-0.02666 -0.04102,-0.04297 -0.111773,-0.195242 -0.115975,-0.331653 -0.109375,-0.550782 V 9.8378906 9.4394531 c 0,-0.090717 0.01441,-0.1667919 0.03906,-0.2285156 -0.148124,-0.405425 -0.218315,-0.8329803 -0.210938,-1.2929687 -6.7e-5,-0.3459877 2.39e-4,-0.6911229 0,-1.0371094 -4e-4,-0.5938123 -3e-5,-1.1874393 -0.002,-1.78125 C 14.908033,4.7328967 14.904091,4.366487 14.900391,4 Z m 17.632812,0 c 0.0036,0.3606408 0.0086,0.7212554 0.0098,1.0820312 7.89e-4,0.3118842 0.0016,0.6236619 0.002,0.9355469 0.02863,0.00313 0.05731,0.00663 0.08594,0.00977 0.09002,0.00737 0.179805,0.016459 0.269531,0.025391 V 4 Z m -4.976562,6.162109 v 0.0059 c 0.0014,-8.85e-4 0.0025,-0.0012 0.0039,-0.002 -0.0012,-0.0014 -0.0027,-0.0025 -0.0039,-0.0039 z m 0.601562,0.56836 -0.002,0.002 v 0.002 c 0.0017,4.58e-4 0.0042,-4.95e-4 0.0059,0 -0.0014,-0.001 -0.0025,-0.0029 -0.0039,-0.0039 z" /></clipPath><clipPath
       clipPathUnits="userSpaceOnUse"
       id="clipPath1786"><path
         id="path1788"
         style="fill:#ff0000;fill-opacity:1;fill-rule:nonzero;stroke:none;stroke-width:0.00454746"
         d="M 1.3400222e-5,-0.00111476 V 24.00263 H 24.000021 V -0.00111476 Z M 3.2379032,18.431668 c 0.2855434,0 0.5720516,0.279624 0.5720516,0.844991 v 0.796387 0.658046 c 0.018378,-0.01168 0.039052,-0.02326 0.063555,-0.02617 0.00555,-6.66e-4 0.009,1.07e-4 0.014932,0 0.019717,-1.99e-4 0.036965,0.01015 0.056089,0.01493 0.014932,0.0082 0.024944,0.02286 0.037387,0.03365 0.019181,-0.0059 0.040105,-0.0071 0.059822,-0.0075 0.1371991,-0.0029 0.2785102,0.128432 0.2841574,0.400064 7.179e-4,0.03339 0.00287,0.06717 0.00383,0.100942 0.00881,0.0057 0.01742,0.01302 0.026169,0.01876 0.041713,0.02268 0.082182,0.04363 0.1233777,0.06731 0.040488,0.02169 0.07619,0.05016 0.1121599,0.07852 0.049064,0.03095 0.081895,0.07489 0.1121598,0.123378 0.017995,0.02747 0.033615,0.05896 0.052337,0.08599 0.013783,0.01972 0.031873,0.03543 0.048605,0.05234 0.00632,-0.0036 0.016272,-0.0075 0.022436,-0.01129 0.1417552,-0.08408 0.2355663,0.0078 0.1719823,0.104694 0.00211,0.0073 0.00107,0.01493 0.00383,0.02244 0.1284124,0.02734 0.207422,0.09769 0.235551,0.179467 0.035434,0.02022 0.071883,0.04011 0.100942,0.06355 h 0.2617235 c 0.1900535,0 0.3130426,0.06645 0.3701505,0.153299 0.022493,-7.28e-4 0.044814,-0.0033 0.067307,-0.0038 0.1644973,-0.0025 0.3285792,-3.2e-4 0.4935359,0.0038 0.3525809,0.004 0.7057706,0.0077 1.0581083,0.02244 0.4808249,0.02152 0.9598196,0.05351 1.4394767,0.09348 0.4335508,0.03662 0.8685373,0.05437 1.3011382,0.100961 1.124233,0.12108 0.964703,1.241896 -0.160764,1.132887 -0.4111628,-0.03982 -0.8258805,-0.05885 -1.2375756,-0.09348 -0.464622,-0.03877 -0.9251072,-0.06905 -1.3908702,-0.08972 -0.339665,-0.01397 -0.6845542,-0.01857 -1.0244604,-0.02244 -0.2892629,-0.0038 -0.5755969,-0.0134 -0.8636864,0.01493 -0.1763469,0.01876 -0.087522,0.0077 -0.2654622,0.02617 -0.5382677,0.05582 -0.838002,-0.175983 -0.889857,-0.444929 -0.086527,-0.0086 -0.1698,-0.01531 -0.2542462,-0.03365 C 4.036252,22.845111 3.8388036,22.770357 3.6380913,22.701461 3.3547608,22.592919 3.0699984,22.470064 2.8828337,22.219143 2.6601163,21.830332 2.6528304,21.560101 2.665976,21.123644 v -1.050598 -0.796387 c 0,-0.565367 0.2864967,-0.844991 0.5720536,-0.844991 z" /></clipPath><clipPath
       clipPathUnits="userSpaceOnUse"
       id="clipPath1796"><path
         id="path1798"
         style="fill:#ff0000;fill-opacity:1;fill-rule:nonzero;stroke:none;stroke-width:0.00905748"
         d="M 4.0006381,1.9991973 V 20.753524 c 0.0134,-0.0029 0.027585,-0.0073 0.04112,-0.0075 0.1371991,-0.0029 0.2785102,0.128431 0.2841575,0.400063 7.178e-4,0.03339 0.00287,0.06717 0.00383,0.100942 0.00881,0.0057 0.01742,0.01302 0.026169,0.01876 0.041713,0.02269 0.082182,0.04363 0.1233778,0.06731 0.040488,0.02169 0.07619,0.05016 0.1121598,0.07853 0.049064,0.03095 0.081894,0.07489 0.1121599,0.123378 0.017995,0.02747 0.033615,0.05896 0.052337,0.08599 0.013783,0.01972 0.031873,0.03543 0.048604,0.05234 0.00632,-0.0036 0.016272,-0.0075 0.022436,-0.01129 0.1417552,-0.08408 0.2355683,0.0078 0.1719823,0.104694 0.00211,0.0073 0.00107,0.01493 0.00383,0.02244 0.1224589,0.02605 0.2004463,0.09129 0.2318105,0.168249 0.026934,0.01417 0.056491,0.02826 0.078525,0.04487 H 19.999538 V 1.9991973 Z" /></clipPath></defs><sodipodi:namedview
     id="namedview14"
     pagecolor="#ffffff"
     bordercolor="#000000"
     borderopacity="0.25"
     inkscape:showpageshadow="2"
     inkscape:pageopacity="0.0"
     inkscape:pagecheckerboard="0"
     inkscape:deskcolor="#d1d1d1"
     showgrid="false"
     inkscape:zoom="34.875"
     inkscape:cx="10.724014"
     inkscape:cy="6.3082437"
     inkscape:window-width="1920"
     inkscape:window-height="1017"
     inkscape:window-x="-8"
     inkscape:window-y="-8"
     inkscape:window-maximized="1"
     inkscape:current-layer="svg12" /><path
     d="M0 0h24v24H0V0z"
     fill="none"
     id="path2"
     clip-path="url(#clipPath1756)" /><path
     d="M5.12 11l-.12.34V16h14v-4.66l-.12-.34H5.12zm2.38 4c-.83 0-1.5-.67-1.5-1.5S6.67 12 7.5 12s1.5.67 1.5 1.5S8.33 15 7.5 15zm9 0c-.83 0-1.5-.67-1.5-1.5s.67-1.5 1.5-1.5 1.5.67 1.5 1.5-.67 1.5-1.5 1.5z"
     opacity=".3"
     id="path4"
     clip-path="url(#clipPath1766)"
     style="fill:#00bd82;fill-opacity:1;opacity:1" /><path
     d="M18.92 5.01C18.72 4.42 18.16 4 17.5 4h-11c-.66 0-1.21.42-1.42 1.01L3 11v8c0 .55.45 1 1 1h1c.55 0 1-.45 1-1v-1h12v1c0 .55.45 1 1 1h1c.55 0 1-.45 1-1v-8l-2.08-5.99zM6.85 6h10.29l1.04 3H5.81l1.04-3zM19 16H5v-4.66l.12-.34h13.77l.11.34V16z"
     id="path6"
     clip-path="url(#clipPath1776)"
     style="fill:#3d4d55;fill-opacity:1" /><circle
     cx="7.5"
     cy="13.5"
     r="1.5"
     id="circle8"
     style="fill:#3d4d55;fill-opacity:1" /><circle
     cx="16.5"
     cy="13.5"
     r="1.5"
     id="circle10"
     style="fill:#3d4d55;fill-opacity:1" /><g
     style="fill:#000000;stroke-width:1.91431"
     id="g156"
     transform="matrix(0.52237942,0,0,0.52237942,13.255852,-0.23965205)"><path
       d="M 0,0 H 24 V 24 H 0 Z"
       fill="none"
       id="path141"
       style="stroke-width:3.50609"
       clip-path="url(#clipPath1786)" /><path
       d="M 13,4 H 6 V 20 H 18 V 9 h -5 z m 3,14 H 8 v -2 h 8 z m 0,-6 v 2 H 8 v -2 z"
       opacity="0.3"
       id="path143"
       style="stroke-width:3.50609;fill:#00bd82;fill-opacity:1;opacity:1" /><path
       d="m 8,16 h 8 v 2 H 8 Z m 0,-4 h 8 v 2 H 8 Z M 14,2 H 6 C 4.9,2 4,2.9 4,4 v 16 c 0,1.1 0.89,2 1.99,2 H 18 c 1.1,0 2,-0.9 2,-2 V 8 Z m 4,18 H 6 V 4 h 7 v 5 h 5 z"
       id="path145"
       style="stroke-width:1.91431;fill:#3d4d55;fill-opacity:1"
       clip-path="url(#clipPath1796)" /></g></svg>
