<?xml version="1.0" encoding="UTF-8" standalone="no"?>
<svg
   height="24px"
   viewBox="0 0 24 24"
   width="24px"
   fill="#000000"
   version="1.1"
   id="svg12"
   sodipodi:docname="drive_eta_black_24dp.svg"
   xml:space="preserve"
   inkscape:version="1.2 (dc2aedaf03, 2022-05-15)"
   xmlns:inkscape="http://www.inkscape.org/namespaces/inkscape"
   xmlns:sodipodi="http://sodipodi.sourceforge.net/DTD/sodipodi-0.dtd"
   xmlns="http://www.w3.org/2000/svg"
   xmlns:svg="http://www.w3.org/2000/svg"><defs
     id="defs16"><clipPath
       clipPathUnits="userSpaceOnUse"
       id="clipPath1185"><path
         id="path1187"
         style="fill:#ff0000;fill-opacity:1;fill-rule:nonzero;stroke:none"
         d="m 5,11 v 5 h 14 v -4.412109 l -0.05078,-0.0078 c -0.03148,0.0011 -0.06429,-4.92e-4 -0.09961,-0.0039 -0.206438,-0.01999 -0.41439,-0.02943 -0.621093,-0.04687 -0.233272,-0.01946 -0.465372,-0.03451 -0.699219,-0.04492 -0.170534,-0.007 -0.343016,-0.0098 -0.513672,-0.01172 -0.14523,-0.0019 -0.288954,-0.0064 -0.433594,0.0078 -0.08854,0.0094 -0.04347,0.0044 -0.132812,0.01367 -0.270283,0.02807 -0.423387,-0.0877 -0.449219,-0.222657 -0.04279,-0.0043 -0.08518,-0.0086 -0.126953,-0.01758 -0.104199,-0.02363 -0.201959,-0.06111 -0.302735,-0.0957 C 15.463624,11.117336 15.355973,11.07306 15.269531,11 Z" /></clipPath><clipPath
       clipPathUnits="userSpaceOnUse"
       id="clipPath1499"><path
         id="path1501"
         style="fill:#ff0000;fill-opacity:1;fill-rule:nonzero;stroke:none"
         d="M 0,0 V 24 H 24 V 11.363281 c -0.774903,0.403774 -1.845339,0.602187 -3.195312,0.4375 -0.222769,-0.02718 -0.47029,-0.0526 -0.703126,-0.07226 -0.356143,-0.03942 -0.712412,-0.07882 -1.066406,-0.134766 -0.02804,-0.0044 -0.05594,-0.0093 -0.08398,-0.01367 h -0.002 c -0.03148,0.0011 -0.06429,-5.16e-4 -0.09961,-0.0039 -0.206434,-0.01999 -0.414394,-0.02943 -0.621093,-0.04687 -0.233272,-0.01946 -0.465372,-0.03451 -0.699219,-0.04492 -0.170534,-0.007 -0.343016,-0.0098 -0.513672,-0.01172 -0.14523,-0.0019 -0.288954,-0.0064 -0.433594,0.0078 -0.08854,0.0094 -0.04347,0.0044 -0.132812,0.01367 -0.270249,0.02807 -0.421231,-0.08763 -0.447266,-0.222657 -0.04344,-0.0043 -0.08651,-0.0084 -0.128906,-0.01758 -0.104199,-0.02363 -0.201959,-0.06111 -0.302735,-0.0957 -0.142246,-0.05449 -0.284936,-0.11621 -0.378906,-0.242187 -0.111773,-0.195242 -0.115975,-0.331653 -0.109375,-0.550782 V 9.8378906 9.4394531 c 0,-0.090717 0.01441,-0.1667916 0.03906,-0.2285156 -0.148124,-0.4054262 -0.218315,-0.8329788 -0.210938,-1.2929687 -6.7e-5,-0.3459886 2.39e-4,-0.6911217 0,-1.0371094 -4e-4,-0.5938141 -1.71e-4,-1.1874375 -0.002,-1.78125 C 14.90651,4.584395 14.90491,4.069843 14.89639,3.5546875 14.89129,3.2967116 14.88425,3.0369099 14.86905,2.7792969 14.802563,1.6424607 14.974032,0.71352914 15.294922,0 Z m 20.005859,0 c 0.294933,0.59669831 0.503625,1.3470124 0.576172,2.2617188 0.03107,0.3917721 0.0389,0.7849534 0.04687,1.1777343 0.0094,0.5476086 0.01197,1.0949035 0.01367,1.6425781 7.89e-4,0.3118851 0.0016,0.623661 0.002,0.9355469 0.02863,0.00313 0.05731,0.00663 0.08594,0.00977 0.302686,0.024772 0.603401,0.05872 0.904297,0.099609 C 22.618212,6.2605881 23.401778,6.5443024 24,6.9140625 V 0 Z M 15.65625,10.162109 v 0.0059 c 0.0014,-8.85e-4 0.0025,-0.0012 0.0039,-0.002 -0.0012,-0.0014 -0.0027,-0.0025 -0.0039,-0.0039 z m 0.601562,0.56836 -0.002,0.002 v 0.002 c 0.0017,4.58e-4 0.0042,-4.95e-4 0.0059,0 -0.0014,-0.001 -0.0025,-0.0029 -0.0039,-0.0039 z" /></clipPath><clipPath
       clipPathUnits="userSpaceOnUse"
       id="clipPath1509"><path
         id="path1511"
         style="fill:#ff0000;fill-opacity:1;fill-rule:nonzero;stroke:none"
         d="m 3,4 v 16 h 18 v -8.181641 c -0.06559,-0.0064 -0.128366,-0.0094 -0.195312,-0.01758 -0.222769,-0.02718 -0.47029,-0.0526 -0.703126,-0.07226 -0.356143,-0.03942 -0.712412,-0.07882 -1.066406,-0.134766 -0.02867,-0.0045 -0.05727,-0.0092 -0.08594,-0.01367 h -0.002 c -0.03093,10e-4 -0.06305,-5.84e-4 -0.09766,-0.0039 -0.206434,-0.01999 -0.414394,-0.02943 -0.621093,-0.04687 -0.233272,-0.01946 -0.465372,-0.03451 -0.699219,-0.04492 -0.170534,-0.007 -0.343016,-0.0098 -0.513672,-0.01172 -0.14523,-0.0019 -0.288954,-0.0064 -0.433594,0.0078 -0.08854,0.0094 -0.04347,0.0044 -0.132812,0.01367 -0.270146,0.02806 -0.423096,-0.0877 -0.449219,-0.222657 -0.04279,-0.0043 -0.08518,-0.0086 -0.126953,-0.01758 -0.104199,-0.02363 -0.201959,-0.06111 -0.302735,-0.0957 -0.142246,-0.05449 -0.284936,-0.11621 -0.378906,-0.242187 -0.111773,-0.195242 -0.115975,-0.331653 -0.109375,-0.550782 V 9.8378906 9.4394531 c 0,-0.090717 0.01441,-0.1667916 0.03906,-0.2285156 C 14.972914,8.8055113 14.902723,8.3779587 14.9101,7.9179688 c -6.7e-5,-0.3459886 2.39e-4,-0.6911217 0,-1.0371094 -4e-4,-0.5938141 -1.71e-4,-1.1874375 -0.002,-1.78125 C 14.907626,4.7328958 14.904023,4.3664882 14.900391,4 Z m 17.632812,0 c 0.0036,0.360642 0.0086,0.7212542 0.0098,1.0820312 7.89e-4,0.3118851 0.0016,0.623661 0.002,0.9355469 0.02863,0.00313 0.05731,0.00663 0.08594,0.00977 0.09002,0.00737 0.179805,0.016459 0.269531,0.025391 V 4 Z m -4.976562,6.162109 v 0.0059 c 0.0014,-8.85e-4 0.0025,-0.0012 0.0039,-0.002 -0.0012,-0.0014 -0.0027,-0.0025 -0.0039,-0.0039 z m 0.601562,0.56836 -0.002,0.002 v 0.002 c 0.0017,4.58e-4 0.0042,-4.95e-4 0.0059,0 -0.0014,-0.001 -0.0025,-0.0029 -0.0039,-0.0039 z" /></clipPath><clipPath
       clipPathUnits="userSpaceOnUse"
       id="clipPath1519"><path
         id="path1521"
         style="fill:#ff0000;fill-opacity:1;fill-rule:nonzero;stroke:none;stroke-width:0.0319015"
         d="M 0.0015954,-0.00115984 V 24.001156 H 24.000021 V -0.00115984 Z M 3.2382124,18.43044 c 0.2855473,0 0.5718534,0.282686 0.5718534,0.848056 v 0.793594 0.657438 c 0.018324,-0.01175 0.037724,-0.02042 0.062243,-0.02334 0.00558,-6.66e-4 0.00956,1.07e-4 0.015536,0 0.019719,-2e-4 0.039238,0.01075 0.058359,0.01553 0.0629,0.03482 0.1011817,0.09483 0.136157,0.155617 0.032167,0.053 0.055929,0.107256 0.081682,0.163384 0.020754,0.04876 0.040592,0.09861 0.073914,0.140041 0.033641,0.0341 0.076723,0.05947 0.1166974,0.08559 0.041708,0.02269 0.083276,0.04246 0.1244853,0.06613 0.040493,0.02169 0.076842,0.04944 0.1128135,0.0778 0.049057,0.03095 0.082539,0.07599 0.1128136,0.124485 0.017926,0.02747 0.031848,0.05856 0.050571,0.08559 0.013743,0.01972 0.03384,0.03752 0.050571,0.05445 0.00637,-0.0036 0.013345,-0.008 0.019519,-0.01175 0.1417539,-0.08407 0.2386214,0.0082 0.1750562,0.105026 0.00598,0.02079 0.014938,0.04149 0.011751,0.06224 -0.00239,0.01534 -0.00418,0.0283 -0.011751,0.0389 0.1645994,0.04643 0.3031903,0.109507 0.3890175,0.198399 0.026789,-0.0018 0.054853,-0.0018 0.081702,-0.004 0.1301817,-0.008 0.1856723,0.07766 0.1517127,0.140041 0.1386666,-0.01135 0.277642,-0.02125 0.4162489,-0.02334 0.1644998,-0.0024 0.3290952,6e-5 0.4940511,0.004 0.3525822,0.004 0.7057857,0.0086 1.0581248,0.02334 0.4808259,0.02151 0.9597018,0.05338 1.4393604,0.09335 0.4335514,0.03663 0.8667143,0.05455 1.2993158,0.101142 1.124237,0.121079 0.965995,1.241048 -0.159501,1.132039 -0.4111676,-0.03982 -0.8253749,-0.05872 -1.2370706,-0.09335 -0.4646229,-0.03876 -0.9269114,-0.06874 -1.3926795,-0.08947 -0.3396635,-0.01394 -0.683207,-0.01952 -1.0231135,-0.02334 -0.2892639,-0.0038 -0.5755283,-0.01275 -0.8636171,0.01553 -0.1763508,0.01872 -0.086582,0.0088 -0.2645302,0.02723 C 4.8512327,23.426616 4.5505122,23.196248 4.4986566,22.92731 4.4121344,22.918746 4.3263491,22.91058 4.2419062,22.892295 4.0343644,22.84523 3.8396435,22.770578 3.6389315,22.701683 3.355601,22.593152 3.0714041,22.47023 2.884238,22.219304 2.6616126,21.830428 2.6532432,21.558737 2.6663888,21.122276 V 20.07209 19.278496 c 0,-0.56537 0.2862982,-0.848056 0.5718554,-0.848056 z" /></clipPath><clipPath
       clipPathUnits="userSpaceOnUse"
       id="clipPath1529"><path
         id="path1531"
         style="fill:#ff0000;fill-opacity:1;fill-rule:nonzero;stroke:none;stroke-width:0.0635403"
         d="M 4.0006837,1.9983848 V 20.760649 c 0.033541,0.03294 0.057921,0.07537 0.081702,0.116698 0.032167,0.053 0.055929,0.107256 0.081682,0.163384 0.020754,0.04876 0.040592,0.09861 0.073914,0.140041 0.033641,0.0341 0.076723,0.05947 0.1166974,0.08559 0.041708,0.02269 0.083276,0.04246 0.1244853,0.06613 0.040493,0.02169 0.076842,0.04944 0.1128135,0.0778 0.049057,0.03095 0.082539,0.07599 0.1128135,0.124485 0.017926,0.02747 0.031848,0.05856 0.050571,0.08559 0.013743,0.01972 0.03384,0.03752 0.050571,0.05445 0.00637,-0.0036 0.013345,-0.008 0.019519,-0.01175 0.1417539,-0.08407 0.2386214,0.0082 0.1750562,0.105026 0.00598,0.02079 0.014938,0.04149 0.011751,0.06224 -0.00239,0.01593 -0.00737,0.02801 -0.015536,0.0389 0.1245451,0.03243 0.2360102,0.07258 0.3151031,0.132254 H 20.00109 V 1.9983848 Z" /></clipPath></defs><sodipodi:namedview
     id="namedview14"
     pagecolor="#ffffff"
     bordercolor="#000000"
     borderopacity="0.25"
     inkscape:showpageshadow="2"
     inkscape:pageopacity="0.0"
     inkscape:pagecheckerboard="0"
     inkscape:deskcolor="#d1d1d1"
     showgrid="false"
     inkscape:zoom="34.875"
     inkscape:cx="10.724014"
     inkscape:cy="6.2508961"
     inkscape:window-width="1920"
     inkscape:window-height="1017"
     inkscape:window-x="-8"
     inkscape:window-y="-8"
     inkscape:window-maximized="1"
     inkscape:current-layer="svg12" /><path
     d="M0 0h24v24H0V0z"
     fill="none"
     id="path2"
     clip-path="url(#clipPath1499)" /><path
     d="M5.12 11l-.12.34V16h14v-4.66l-.12-.34H5.12zm2.38 4c-.83 0-1.5-.67-1.5-1.5S6.67 12 7.5 12s1.5.67 1.5 1.5S8.33 15 7.5 15zm9 0c-.83 0-1.5-.67-1.5-1.5s.67-1.5 1.5-1.5 1.5.67 1.5 1.5-.67 1.5-1.5 1.5z"
     opacity=".3"
     id="path4"
     clip-path="url(#clipPath1185)"
     style="fill:#2cb1a6;fill-opacity:1;opacity:1" /><path
     d="M18.92 5.01C18.72 4.42 18.16 4 17.5 4h-11c-.66 0-1.21.42-1.42 1.01L3 11v8c0 .55.45 1 1 1h1c.55 0 1-.45 1-1v-1h12v1c0 .55.45 1 1 1h1c.55 0 1-.45 1-1v-8l-2.08-5.99zM6.85 6h10.29l1.04 3H5.81l1.04-3zM19 16H5v-4.66l.12-.34h13.77l.11.34V16z"
     id="path6"
     clip-path="url(#clipPath1509)"
     style="fill:#47235c;fill-opacity:1" /><circle
     cx="7.5"
     cy="13.5"
     r="1.5"
     id="circle8"
     style="fill:#47235c;fill-opacity:1" /><circle
     cx="16.5"
     cy="13.5"
     r="1.5"
     id="circle10"
     style="fill:#47235c;fill-opacity:1" /><g
     style="fill:#000000;stroke-width:1.91431"
     id="g156"
     transform="matrix(0.52237942,0,0,0.52237942,13.255852,-0.23965205)"><path
       d="M 0,0 H 24 V 24 H 0 Z"
       fill="none"
       id="path141"
       style="stroke-width:3.50609"
       clip-path="url(#clipPath1519)" /><path
       d="M 13,4 H 6 V 20 H 18 V 9 h -5 z m 3,14 H 8 v -2 h 8 z m 0,-6 v 2 H 8 v -2 z"
       opacity="0.3"
       id="path143"
       style="stroke-width:3.50609;fill:#2cb1a6;fill-opacity:1;opacity:1" /><path
       d="m 8,16 h 8 v 2 H 8 Z m 0,-4 h 8 v 2 H 8 Z M 14,2 H 6 C 4.9,2 4,2.9 4,4 v 16 c 0,1.1 0.89,2 1.99,2 H 18 c 1.1,0 2,-0.9 2,-2 V 8 Z m 4,18 H 6 V 4 h 7 v 5 h 5 z"
       id="path145"
       style="stroke-width:1.91431;fill:#47235c;fill-opacity:1"
       clip-path="url(#clipPath1529)" /></g></svg>
