<?xml version="1.0" encoding="UTF-8" standalone="no"?>
<svg
   height="24px"
   viewBox="0 0 24 24"
   width="24px"
   fill="#000000"
   version="1.1"
   id="svg3562"
   sodipodi:docname="card_membership_black_24dp.svg"
   inkscape:version="1.2 (dc2aedaf03, 2022-05-15)"
   xmlns:inkscape="http://www.inkscape.org/namespaces/inkscape"
   xmlns:sodipodi="http://sodipodi.sourceforge.net/DTD/sodipodi-0.dtd"
   xmlns="http://www.w3.org/2000/svg"
   xmlns:svg="http://www.w3.org/2000/svg">
  <defs
     id="defs3566" />
  <sodipodi:namedview
     id="namedview3564"
     pagecolor="#ffffff"
     bordercolor="#000000"
     borderopacity="0.25"
     inkscape:showpageshadow="2"
     inkscape:pageopacity="0.0"
     inkscape:pagecheckerboard="0"
     inkscape:deskcolor="#d1d1d1"
     showgrid="false"
     inkscape:zoom="34.875"
     inkscape:cx="11.985663"
     inkscape:cy="12.014337"
     inkscape:window-width="1920"
     inkscape:window-height="1017"
     inkscape:window-x="-8"
     inkscape:window-y="-8"
     inkscape:window-maximized="1"
     inkscape:current-layer="svg3562" />
  <path
     d="M0 0h24v24H0V0z"
     fill="none"
     id="path3556" />
  <path
     d="M 3.3405018,4.5734767 H 19.340502 V 10.573477 H 3.3405018 Z m 0,9.0000003 H 19.340502 v 2 H 3.3405018 Z"
     opacity="0.3"
     id="path3558"
     style="opacity:1;fill:#2CB1A6;fill-opacity:1" />
  <path
     d="M20 2H4c-1.11 0-2 .89-2 2v11c0 1.11.89 2 2 2h4v5l4-2 4 2v-5h4c1.11 0 2-.89 2-2V4c0-1.11-.89-2-2-2zm0 13H4v-2h16v2zm0-5H4V4h16v6z"
     id="path3560"
     style="fill:#47235C;fill-opacity:1" />
</svg>
