<?xml version="1.0" encoding="UTF-8" standalone="no"?>
<svg
   version="1.1"
   id="Layer_1"
   x="0px"
   y="0px"
   viewBox="0 0 122.88 92.539"
   enable-background="new 0 0 122.88 92.539"
   xml:space="preserve"
   sodipodi:docname="attendance-machine-icon.svg"
   inkscape:version="1.2 (dc2aedaf03, 2022-05-15)"
   xmlns:inkscape="http://www.inkscape.org/namespaces/inkscape"
   xmlns:sodipodi="http://sodipodi.sourceforge.net/DTD/sodipodi-0.dtd"
   xmlns="http://www.w3.org/2000/svg"
   xmlns:svg="http://www.w3.org/2000/svg"><defs
     id="defs1949" /><sodipodi:namedview
     id="namedview1947"
     pagecolor="#ffffff"
     bordercolor="#000000"
     borderopacity="0.25"
     inkscape:showpageshadow="2"
     inkscape:pageopacity="0.0"
     inkscape:pagecheckerboard="0"
     inkscape:deskcolor="#d1d1d1"
     showgrid="false"
     inkscape:zoom="9.044835"
     inkscape:cx="61.471547"
     inkscape:cy="46.324781"
     inkscape:window-width="1920"
     inkscape:window-height="1017"
     inkscape:window-x="-8"
     inkscape:window-y="-8"
     inkscape:window-maximized="1"
     inkscape:current-layer="Layer_1" /><path
     style="fill:#2e8d9a;fill-opacity:1;stroke:#2e8d9a;stroke-width:1;paint-order:markers fill stroke"
     d="M 5.7430924,89.780705 C 4.499007,89.321619 3.521247,88.417611 3.0758548,87.314656 L 2.8192886,86.679303 V 48.701828 10.724353 L 3.0758548,10.089 C 3.4151663,9.2487395 4.2801196,8.3149581 5.1313112,7.8699818 L 5.8044177,7.5181029 H 59.20506 112.6057 l 0.63415,0.297205 c 0.80903,0.379162 1.61134,1.1814832 2.02598,2.0259731 l 0.325,0.661951 v 38.198596 38.198596 l -0.325,0.661951 c -0.41398,0.843153 -1.15503,1.5842 -1.99818,1.998173 l -0.66195,0.325005 -53.2348,0.02009 C 15.682305,89.922127 6.0656238,89.899724 5.7430924,89.780705 Z M 104.12553,82.386873 c 2.11703,-0.613181 3.78832,-2.271746 4.4759,-4.441836 l 0.24522,-0.773923 V 49.973272 22.775429 l -0.3086,-0.884483 c -0.74015,-2.121333 -2.35312,-3.654121 -4.55606,-4.329577 -0.63291,-0.194059 -1.51857,-0.203397 -19.292773,-0.203397 H 66.059801 l -0.884483,0.301564 c -2.252376,0.767947 -3.919906,2.604901 -4.417874,4.866736 -0.159514,0.724533 -0.173593,3.411767 -0.14583,27.833961 l 0.03073,27.032002 0.301706,0.826707 c 0.598326,1.639475 1.750837,2.960553 3.228654,3.700877 1.513447,0.758174 0.09721,0.708734 20.531627,0.716756 l 18.533969,0.0073 z m -84.082918,-0.0027 c 0.576757,-0.241692 1.088019,-0.743005 1.365532,-1.33896 0.243932,-0.523841 0.259587,-0.685382 0.260601,-2.689158 0.0012,-2.296309 -0.0493,-2.564263 -0.625123,-3.319205 -0.158225,-0.207443 -0.542264,-0.49571 -0.853422,-0.640593 -0.54427,-0.253426 -0.662471,-0.263464 -3.114561,-0.264503 -2.511196,-0.0011 -2.557168,0.0031 -3.114329,0.280725 -1.195693,0.595835 -1.467992,1.322863 -1.467992,3.919483 0,2.6141 0.262073,3.318552 1.4559,3.913462 0.57261,0.285343 0.599897,0.287831 3.157612,0.287831 1.914887,0 2.67173,-0.03843 2.935782,-0.149087 z m 15.391976,-0.05864 c 0.539025,-0.247267 0.993876,-0.69281 1.310198,-1.283389 0.220997,-0.412607 0.237646,-0.602475 0.237646,-2.710178 0,-2.527625 -0.05192,-2.742404 -0.847154,-3.504688 -0.67564,-0.647641 -0.931619,-0.696605 -3.641801,-0.696605 -2.719251,0 -3.077508,0.06 -3.738909,0.626129 -0.813455,0.696288 -0.893364,1.014572 -0.893364,3.558341 0,2.47393 0.05734,2.75626 0.696606,3.430054 0.696947,0.734589 0.935086,0.783206 3.836368,0.783206 2.285867,0 2.651326,-0.02438 3.04041,-0.20287 z m 15.233237,0.05864 c 0.576757,-0.241691 1.088019,-0.743005 1.365532,-1.338959 0.243932,-0.523842 0.259587,-0.685383 0.260602,-2.689158 0.0012,-2.29631 -0.0493,-2.564264 -0.625124,-3.319205 -0.158225,-0.207443 -0.542264,-0.495711 -0.853422,-0.640593 -0.54427,-0.253427 -0.662471,-0.263464 -3.114561,-0.264504 -2.511195,-0.0011 -2.557168,0.0031 -3.114329,0.280725 -1.203279,0.59962 -1.467992,1.317026 -1.467992,3.978439 0,2.586502 0.252422,3.254792 1.4559,3.854511 0.57261,0.285343 0.599897,0.287831 3.157612,0.287831 1.914887,0 2.67173,-0.03843 2.935782,-0.149087 z M 20.404507,68.544485 c 0.334446,-0.206916 0.668518,-0.54096 0.875434,-0.87536 l 0.334604,-0.540759 0.0339,-2.240566 c 0.03184,-2.10428 0.01911,-2.274934 -0.209164,-2.805579 -0.277006,-0.643917 -0.945973,-1.276336 -1.533419,-1.449642 -0.241108,-0.07113 -1.42028,-0.10214 -3.063841,-0.08057 l -2.671878,0.03506 -0.476475,0.335101 c -0.262061,0.184305 -0.626908,0.578232 -0.810771,0.875394 l -0.334297,0.540294 -0.038,1.999174 c -0.04806,2.528725 0.03874,2.966731 0.737197,3.719994 0.778726,0.83983 0.957851,0.877709 4.008662,0.847707 l 2.607217,-0.02564 z m 14.775035,0.259863 c 0.62333,-0.186754 1.360084,-0.878288 1.60104,-1.502772 0.170641,-0.442248 0.20185,-0.856475 0.20185,-2.67906 V 62.46659 L 36.640456,61.858508 C 36.38625,61.406494 36.146309,61.158204 35.705584,60.891105 l -0.592896,-0.359321 -2.658338,0.0024 c -2.967453,0.0027 -3.197799,0.04915 -3.89654,0.785634 -0.638508,0.672989 -0.696606,0.957655 -0.696606,3.413226 0,1.611438 0.04079,2.315638 0.149087,2.57408 0.241691,0.576756 0.743005,1.088018 1.338959,1.365531 0.531098,0.247311 0.671164,0.259573 2.976821,0.260602 1.53783,6.63e-4 2.57764,-0.0463 2.853471,-0.128941 z M 51.02972,68.544485 c 0.334446,-0.206916 0.668519,-0.54096 0.875434,-0.87536 l 0.334605,-0.540759 0.0339,-2.240566 c 0.03184,-2.10428 0.01911,-2.274934 -0.209164,-2.805579 -0.277006,-0.643917 -0.945973,-1.276336 -1.533419,-1.449642 -0.241108,-0.07113 -1.42028,-0.10214 -3.06384,-0.08057 l -2.671879,0.03506 -0.476475,0.335101 c -0.262061,0.184305 -0.626908,0.578231 -0.810771,0.875392 l -0.334297,0.540293 -0.03665,2.04317 c -0.0473,2.637158 0.123016,3.305538 1.022645,4.013186 0.625987,0.492401 0.956363,0.537719 3.721865,0.510522 l 2.607216,-0.02564 z M 48.978229,51.92824 c 2.254242,-0.803768 3.925022,-2.475159 4.718314,-4.720038 l 0.312181,-0.883421 V 34.992346 23.659912 L 53.71251,22.848996 c -0.43281,-1.184857 -0.925585,-1.95186 -1.863455,-2.900466 -0.646724,-0.654125 -1.04221,-0.945068 -1.768965,-1.301352 -1.863492,-0.913556 -0.472949,-0.846964 -17.685912,-0.846964 -14.351466,0 -15.357714,0.01238 -16.031249,0.19721 -2.233533,0.612928 -3.878483,1.963944 -4.875233,4.004083 -0.781499,1.599564 -0.759284,1.221217 -0.761424,12.96786 -0.0017,9.200798 0.02034,10.643494 0.173752,11.387715 0.458667,2.224987 1.944306,4.140473 3.970341,5.119099 1.667983,0.805678 0.39301,0.753254 17.744934,0.729612 l 15.644288,-0.02132 z"
     id="path6317" /><g
     id="g1944"
     style="fill:#274690;fill-opacity:1"><path
       fill-rule="evenodd"
       clip-rule="evenodd"
       d="M69.332,14.956h35.218c3.57,0,6.491,2.921,6.491,6.492v52.258 c0,3.57-2.921,6.491-6.491,6.491H69.332c-3.57,0-6.491-2.921-6.491-6.491V21.447C62.841,17.877,65.762,14.956,69.332,14.956 L69.332,14.956z M9.144,0h104.592c2.517,0,4.804,1.029,6.459,2.685c1.656,1.656,2.685,3.942,2.685,6.459v74.25 c0,2.518-1.028,4.804-2.685,6.46c-1.655,1.655-3.942,2.685-6.459,2.685H9.144c-2.517,0-4.803-1.029-6.459-2.685 C1.029,88.198,0,85.912,0,83.395V9.144C0,6.627,1.029,4.34,2.685,2.685C4.341,1.029,6.627,0,9.144,0L9.144,0z M47.949,71.712h3.963 c1.411,0,2.564,1.154,2.564,2.564v3.264c0,1.411-1.153,2.564-2.564,2.564h-3.963c-1.41,0-2.564-1.153-2.564-2.564v-3.264 C45.385,72.866,46.539,71.712,47.949,71.712L47.949,71.712z M47.949,58.085h3.963c1.411,0,2.564,1.154,2.564,2.564v3.264 c0,1.411-1.153,2.564-2.564,2.564h-3.963c-1.41,0-2.564-1.153-2.564-2.564v-3.264C45.385,59.239,46.539,58.085,47.949,58.085 L47.949,58.085z M32.638,71.712h3.963c1.41,0,2.564,1.154,2.564,2.564v3.264c0,1.411-1.154,2.564-2.564,2.564h-3.963 c-1.411,0-2.564-1.153-2.564-2.564v-3.264C30.073,72.866,31.227,71.712,32.638,71.712L32.638,71.712z M32.638,58.085h3.963 c1.41,0,2.564,1.154,2.564,2.564v3.264c0,1.411-1.154,2.564-2.564,2.564h-3.963c-1.411,0-2.564-1.153-2.564-2.564v-3.264 C30.073,59.239,31.227,58.085,32.638,58.085L32.638,58.085z M17.326,71.712h3.963c1.411,0,2.564,1.154,2.564,2.564v3.264 c0,1.411-1.154,2.564-2.564,2.564h-3.963c-1.41,0-2.564-1.153-2.564-2.564v-3.264C14.762,72.866,15.916,71.712,17.326,71.712 L17.326,71.712z M17.326,58.085h3.963c1.411,0,2.564,1.154,2.564,2.564v3.264c0,1.411-1.154,2.564-2.564,2.564h-3.963 c-1.41,0-2.564-1.153-2.564-2.564v-3.264C14.762,59.239,15.916,58.085,17.326,58.085L17.326,58.085z M20.315,15.392h28.607 c2.013,0,3.846,0.828,5.175,2.156h0.008c1.33,1.33,2.157,3.167,2.157,5.184v19.737c0,2.017-0.828,3.853-2.158,5.183 c-1.33,1.329-3.166,2.157-5.183,2.157H20.315c-2.017,0-3.854-0.827-5.184-2.156l-0.124-0.136c-1.255-1.318-2.032-3.098-2.032-5.048 V22.731c0-2.014,0.826-3.847,2.154-5.177l0.008-0.008C16.468,16.218,18.301,15.392,20.315,15.392L20.315,15.392z M48.923,19.63 H20.315c-0.854,0-1.631,0.348-2.193,0.908c-0.56,0.563-0.908,1.339-0.908,2.193v19.737c0,0.812,0.316,1.553,0.828,2.107l0.085,0.08 c0.563,0.563,1.34,0.914,2.188,0.914h28.607c0.847,0,1.623-0.351,2.187-0.915c0.563-0.563,0.915-1.339,0.915-2.187V22.731 c0-0.848-0.351-1.625-0.914-2.188C50.552,19.98,49.776,19.63,48.923,19.63L48.923,19.63z M113.736,4.969H9.144 c-1.145,0-2.189,0.471-2.947,1.229C5.44,6.955,4.969,7.999,4.969,9.144v74.25c0,1.146,0.471,2.189,1.228,2.947 c0.758,0.757,1.802,1.229,2.947,1.229h104.592c1.146,0,2.189-0.472,2.947-1.229c0.757-0.758,1.228-1.802,1.228-2.947V9.144 c0-1.146-0.471-2.189-1.228-2.947C115.926,5.44,114.882,4.969,113.736,4.969L113.736,4.969z M92.535,25.036 c1.768,0.62,3.641,1.548,5.302,2.819c1.409,1.078,2.67,2.405,3.592,4.001c0.336,0.58,0.646,1.196,0.926,1.849 c0.271,0.628,0.517,1.3,0.732,2.013c0.305,1.001,0.563,2.07,0.771,3.204c0.208,1.125,0.365,2.299,0.471,3.517 c0.104,1.191,0.158,2.46,0.164,3.799c0.006,1.322-0.036,2.695-0.126,4.112c-0.074,0.857-0.174,1.718-0.261,2.575 c-0.024,0.255-0.241,0.446-0.493,0.446l-1.899,0.002c-0.273,0-0.497-0.223-0.497-0.497l0.268-2.649 c0-0.764,0.022-1.614,0.043-2.448c0.042-1.662,0.082-3.265-0.076-5.102c-0.099-1.147-0.241-2.229-0.425-3.24 c-0.188-1.023-0.419-1.986-0.691-2.883c-0.181-0.593-0.387-1.157-0.616-1.69L99.71,34.84c-0.233-0.541-0.493-1.055-0.773-1.541 l-0.014-0.025c-0.731-1.258-1.75-2.313-2.89-3.177c-1.398-1.059-2.979-1.832-4.444-2.345c-1.33-0.466-2.727-0.708-4.126-0.73 c-1.421-0.023-2.851,0.178-4.22,0.592c-0.498,0.155-0.99,0.337-1.47,0.547c-0.47,0.204-0.932,0.437-1.382,0.697 c-0.345,0.2-0.738,0.241-1.092,0.146c-0.357-0.095-0.678-0.327-0.878-0.673c-0.2-0.345-0.24-0.739-0.146-1.092 c0.096-0.357,0.328-0.678,0.673-0.878c0.546-0.316,1.107-0.598,1.679-0.845l0.036-0.014c0.569-0.245,1.152-0.458,1.741-0.636 c1.658-0.503,3.39-0.746,5.114-0.717C89.222,24.178,90.92,24.47,92.535,25.036L92.535,25.036z M78.648,41.162 c-0.119,1.171-0.035,2.374,0.059,3.705c0.03,0.451,0.065,0.908,0.088,1.359c0.051,0.903,0.087,1.795,0.104,2.671 c0.015,0.849,0.013,1.672-0.009,2.462c-0.023,0.748-0.105,2.053-0.2,3.27l-0.001,0.011c-0.086,1.104-0.187,2.154-0.267,2.695 c-0.035,0.247-0.249,0.425-0.491,0.425L76.02,57.76c-0.274,0-0.497-0.224-0.497-0.497l0.015-0.12 c0.083-0.533,0.185-1.546,0.272-2.616c0.103-1.246,0.186-2.539,0.206-3.242c0.021-0.751,0.023-1.538,0.008-2.354 c-0.017-0.805-0.052-1.657-0.104-2.551c-0.015-0.429-0.057-0.877-0.087-1.31c-0.108-1.531-0.207-2.915-0.051-4.336 c0.157-1.44,0.573-2.896,1.492-4.529c0.203-0.362,0.429-0.713,0.677-1.052c0.243-0.332,0.512-0.657,0.809-0.97 c0.251-0.266,0.757-0.741,1.237-1.126c0.367-0.294,0.736-0.55,1.009-0.656c0.549-0.263,1.092-0.495,1.625-0.691 c0.548-0.202,1.101-0.374,1.656-0.511l0.024-0.005c0.566-0.138,1.131-0.238,1.689-0.295c0.562-0.057,1.122-0.073,1.678-0.044 l0.079,0.005c0.374,0.034,0.705,0.21,0.94,0.47c0.242,0.268,0.385,0.625,0.37,1.01l-0.004,0.079 c-0.034,0.375-0.21,0.707-0.471,0.942c-0.273,0.248-0.641,0.389-1.036,0.369c-0.42-0.022-0.848-0.01-1.277,0.034 c-0.434,0.045-0.871,0.123-1.311,0.229c-0.438,0.108-0.89,0.25-1.348,0.418c-0.454,0.167-0.907,0.36-1.355,0.574 c-0.27,0.175-0.52,0.358-0.749,0.547c-0.234,0.193-0.456,0.402-0.662,0.621c-0.209,0.222-0.403,0.456-0.579,0.696 c-0.179,0.244-0.341,0.498-0.486,0.759C79.084,38.869,78.766,40.015,78.648,41.162L78.648,41.162z M73.573,49.019 c-0.076,1.462-0.298,2.96-0.589,3.953c-0.112,0.354-0.219,0.665-0.347,1.013c-0.076,0.196-0.264,0.315-0.462,0.315l-2.064,0.001 c-0.273,0-0.496-0.223-0.496-0.497c0-0.092,0.024-0.178,0.068-0.252c0.104-0.213,0.2-0.432,0.285-0.652 c0.092-0.236,0.176-0.482,0.251-0.739c0.243-0.826,0.396-1.745,0.452-2.759c0.056-1.019,0.014-2.14-0.13-3.366 c-0.274-1.353-0.438-2.658-0.492-3.907c-0.056-1.28,0-2.505,0.166-3.66c0.171-1.204,0.462-2.344,0.864-3.412 c0.407-1.08,0.929-2.086,1.559-3.011l0.01-0.014c0.225-0.319,0.559-0.523,0.915-0.589c0.361-0.069,0.749,0.001,1.076,0.225 l0.014,0.009c0.319,0.224,0.521,0.558,0.59,0.916c0.067,0.362-0.003,0.751-0.226,1.077c-0.504,0.74-0.923,1.547-1.249,2.416 l-0.01,0.024c-0.318,0.857-0.552,1.782-0.692,2.765c-0.142,1-0.189,2.056-0.14,3.164c0.049,1.091,0.193,2.237,0.437,3.433 C73.589,46.375,73.641,47.689,73.573,49.019L73.573,49.019z M92.539,32.352l0.45,0.292c0.309,0.22,0.564,0.413,0.86,0.648 l0.416,0.364c1.87,1.696,3.12,3.904,3.911,6.396c0.781,2.456,1.113,5.198,1.153,7.998c0.015,1.122-0.049,2.72-0.15,4.331 c-0.116,1.848-0.281,3.72-0.433,4.941c-0.031,0.251-0.246,0.436-0.493,0.436l-1.899,0.001c-0.274,0-0.497-0.224-0.497-0.497 l0.011-0.105c0.152-1.204,0.317-3.025,0.434-4.82c0.104-1.604,0.169-3.179,0.154-4.255c-0.035-2.47-0.316-4.875-0.972-7.005 c-0.645-2.095-1.655-3.927-3.158-5.292l-0.312-0.272l-0.646-0.495l-0.331-0.208c-0.334-0.206-0.556-0.531-0.643-0.889 c-0.087-0.356-0.037-0.748,0.167-1.083l0.02-0.028c0.207-0.325,0.523-0.54,0.871-0.624C91.811,32.098,92.201,32.148,92.539,32.352 L92.539,32.352z M93.196,46.271c0.058,0.458,0.102,0.896,0.139,1.357c0.104,1.556,0.117,4.115,0.052,6.733 c-0.062,2.454-0.195,4.958-0.392,6.733l-0.037,0.329c-0.028,0.253-0.244,0.44-0.493,0.439l-10.196,0.002 c-0.273,0-0.496-0.224-0.496-0.497l0.008-0.09c0.087-0.962,0.102-2.536,0.079-4.209c-0.03-2.189-0.132-4.563-0.23-5.965 l-0.102-1.503l-0.081-1.508c-0.031-0.748-0.055-1.487-0.035-2.212c0.02-0.741,0.085-1.462,0.228-2.148 c0.386-1.859,1.359-3.317,2.594-4.195c0.791-0.564,1.693-0.894,2.617-0.938c0.93-0.044,1.878,0.197,2.758,0.767 c1.306,0.846,2.46,2.422,3.162,4.876l0.006,0.022c0.066,0.241,0.13,0.494,0.189,0.753c0.062,0.275,0.116,0.545,0.162,0.807 L93.196,46.271L93.196,46.271z"
       id="path1942"
       style="fill:#274690;fill-opacity:1" /></g></svg>
