<svg xmlns="http://www.w3.org/2000/svg" viewBox="0 0 24 24"><g id="Layer_2" data-name="Layer 2"><g id="Layer_1-2" data-name="Layer 1"><rect width="24" height="24" fill="none"/><path d="M14,13.5h4V12H14Zm0,3h4V15H14ZM20,7H15V4a2,2,0,0,0-2-2H11A2,2,0,0,0,9,4V7H4A2,2,0,0,0,2,9V20a2,2,0,0,0,2,2H20a2,2,0,0,0,2-2V9A2,2,0,0,0,20,7ZM11,4h2V9H11Zm9,16H4V9H9a2,2,0,0,0,2,2h2a2,2,0,0,0,2-2h5ZM9,15a1.5,1.5,0,1,0-1.5-1.5A1.5,1.5,0,0,0,9,15Zm2.08,1.18a5.25,5.25,0,0,0-4.16,0A1.51,1.51,0,0,0,6,17.57V18h6v-.43A1.51,1.51,0,0,0,11.08,16.18Z" fill="#3d4d55"/><path d="M12.44,11H10.56A1.94,1.94,0,0,1,8.69,9H4V20H19V9H14.31A1.94,1.94,0,0,1,12.44,11ZM8.69,12a1.5,1.5,0,0,1,0,3,1.5,1.5,0,0,1,0-3Zm2.81,6H5.88v-.43a1.51,1.51,0,0,1,.86-1.39,4.64,4.64,0,0,1,3.9,0,1.53,1.53,0,0,1,.86,1.39Zm5.62-1.5H13.38V15h3.74Zm0-3H13.38V12h3.74Z" fill="#00bd80"/></g></g></svg>