<svg xmlns="http://www.w3.org/2000/svg" viewBox="0 0 382.4 354.33"><g id="Layer_2" data-name="Layer 2"><g id="Layer_1-2" data-name="Layer 1"><path d="M0,265.29c1.3-4.47,2.46-9,3.92-13.4C22.85,194.51,96,179,136.69,223.7c1.33,1.46,2.63,2.94,4.54,5.09,14.22-9.19,28.37-18.26,42.39-27.54,1.13-.75,1.85-2.91,1.87-4.43.14-13.16.08-26.32.08-38.13-11.74-4.42-23.2-7.27-33.22-12.76-39.66-21.74-51.52-74.78-25.66-111.84.57-.81,1-2.1,1.75-2.35,2.74-.93,5.61-1.51,8.43-2.23.2,2.89,1.67,6.63.4,8.53a76.13,76.13,0,0,0-12.69,32.33c-2.38,17,3.55,37.42,14.68,49.41,4-5.25,7.61-10.77,12-15.63s9.64-9.23,14.92-14.2c-5.64-8.43-9-18.07-5.23-27.9a44,44,0,0,1,11.9-17.4c11.3-9.55,28-8.34,39.15,1.36,12.65,11,14.26,25.8,4.67,44.09,4.82,4.51,10,8.77,14.45,13.7s8.12,10.5,12.64,16.46c14.59-19.45,18.7-40.49,11.14-63.35-13.27-40.11-60.27-57.76-97-36.8-3.9,2.21-8.6,7-12.21,1.13-3.9-6.31,2.74-8.54,6.77-10.88a78.19,78.19,0,0,1,85.79,5.28c25.55,19.23,37.47,51.46,28.87,82.26C257.89,130.75,235.59,150,202,156c-1.42.26-2.85.4-5,.69,0,13.7-.13,27.09.15,40.48,0,1.75,1.74,4,3.32,5.09,13.27,8.78,26.68,17.33,40.63,26.32,1.92-2.09,3.67-4.07,5.51-6,21.21-21.82,46.81-29,76.37-22.8,1.94.41,4.42.61,5.56,1.88,1.58,1.79,3.37,4.89,2.78,6.68s-4.12,3.44-6.26,3.33c-4.67-.25-9.24-1.91-13.9-2.56-25.6-3.57-53.08,10.9-66.09,34.66-12.9,23.55-10.18,54,6.18,73,8.8-9.81,17.67-19.68,26.87-29.92-9.07-19.59-6.94-34.44,7.11-44.83a31.65,31.65,0,0,1,39.37,1.43c12.64,10.79,14.37,26.64,5.11,43.27L357,316.84c7.17-8,11.61-18.41,13.25-29.72,3.63-25-4.05-46.13-23.26-62.84-1.5-1.3-3.67-2.3-4.38-3.93-.87-2-1.46-5.15-.44-6.56s4.23-2.09,6.38-1.91c1.72.15,3.37,1.94,4.92,3.17,26.8,21.36,36.27,59.05,22.93,91.11-13.7,32.95-47.4,51.9-84,47.23-32.58-4.15-60.32-31.57-65.47-64.73-2.7-17.35-1.63-24.43,7.85-50.76-13.56-8.76-27.26-17.67-41.07-26.4a5.22,5.22,0,0,0-4.59-.08c-13.85,8.73-27.58,17.66-40.84,26.21,2.62,9.24,5.85,17.63,7.31,26.32,7,41.68-21.42,81.85-62.85,89.13-4.44.78-11.13,3.65-12.7-3.36-1.71-7.61,5.83-5.93,10-7.61,9.38-3.74,18.66-7.74,27.88-11.87,3.7-1.66,3.84-4.32,1.81-7.9a74,74,0,0,0-24.88-26.29c-8.42-5.39-8.59-6.75-1.91-13.84,8.11-8.6,8-21.65-.36-29.46a20.61,20.61,0,0,0-28.38.29c-8.22,8.07-8.16,20.78.14,29.44,6.34,6.63,6.11,8.25-1.87,13.37-13,8.34-22.33,19.13-27.57,33,8.68,4,17.42,8.38,26.43,12.09,3.71,1.52,7.58,2.55,6.42,7.34-1.31,5.45-5.86,4.62-9.76,3.43Q12.75,337.94,1.61,291.87C1.15,290,.54,288.1,0,286.21Zm53.38,22.26C43.65,270.66,45.19,255,57.46,244a31.55,31.55,0,0,1,39.31-2.3c14.41,10.15,16.65,24.52,7.74,45.26l26.78,29.89c21.58-25.3,18.39-66.08-7.39-90a66.88,66.88,0,0,0-93.05,2c-24,24.09-26.18,65.54-4.5,88.83,4-5.34,7.7-11,12.14-15.91S48.15,292.45,53.38,287.55ZM148,129.21c25.26,21.86,65.33,21.54,86.44-.41-6-12.92-15.19-23-27.21-30.64-7.73-4.93-7.93-6.86-1.62-13.47,8.35-8.73,8.3-21.23-.1-29.37a20.69,20.69,0,0,0-28.38,0c-8.39,8-8.45,20.67-.15,29.38,6.38,6.7,6.16,8.56-1.56,13.46A71,71,0,0,0,148,129.21ZM347.24,326.48c-5.72-12.64-14.7-22.57-26.43-30.16-8.95-5.79-9.1-6.77-2.11-14.28,7.8-8.38,7.73-21.08-.15-28.9a20.61,20.61,0,0,0-28.88,0c-7.94,7.91-8,20.46-.21,28.89,7,7.54,6.86,8.52-2.06,14.28A69.92,69.92,0,0,0,261,326.46C282.63,348.33,325.43,348.34,347.24,326.48Z" fill="#274690"/><line x1="192" y1="156.39" x2="192" y2="203.39" fill="none" stroke="#2e8d9a" stroke-miterlimit="10" stroke-width="14"/><line x1="189.14" y1="201.87" x2="239" y2="234.39" fill="none" stroke="#2e8d9a" stroke-miterlimit="10" stroke-width="14"/><line x1="192" y1="203.39" x2="143.67" y2="233.03" fill="none" stroke="#2e8d9a" stroke-miterlimit="10" stroke-width="14"/></g></g></svg>