<svg width="82" height="64" viewBox="0 0 82 64" fill="none" xmlns="http://www.w3.org/2000/svg">
<path d="M21.644 18.734C21.285 18.734 20.994 19.025 20.994 19.384C20.994 19.743 21.285 20.034 21.644 20.034V18.734ZM27.3879 20.034C27.7468 20.034 28.0379 19.743 28.0379 19.384C28.0379 19.025 27.7468 18.734 27.3879 18.734V20.034ZM21.644 24.6867C21.285 24.6867 20.994 24.9778 20.994 25.3367C20.994 25.6957 21.285 25.9867 21.644 25.9867V24.6867ZM27.3879 25.9867C27.7468 25.9867 28.0379 25.6957 28.0379 25.3367C28.0379 24.9778 27.7468 24.6867 27.3879 24.6867V25.9867ZM21.644 30.6395C21.285 30.6395 20.994 30.9305 20.994 31.2895C20.994 31.6485 21.285 31.9395 21.644 31.9395V30.6395ZM27.3879 31.9395C27.7468 31.9395 28.0379 31.6485 28.0379 31.2895C28.0379 30.9305 27.7468 30.6395 27.3879 30.6395V31.9395ZM21.644 36.4878C21.285 36.4878 20.994 36.7789 20.994 37.1378C20.994 37.4968 21.285 37.7878 21.644 37.7878V36.4878ZM27.3879 37.7878C27.7468 37.7878 28.0379 37.4968 28.0379 37.1378C28.0379 36.7789 27.7468 36.4878 27.3879 36.4878V37.7878ZM21.644 42.3362C21.285 42.3362 20.994 42.6272 20.994 42.9862C20.994 43.3452 21.285 43.6362 21.644 43.6362V42.3362ZM27.3879 43.6362C27.7468 43.6362 28.0379 43.3452 28.0379 42.9862C28.0379 42.6272 27.7468 42.3362 27.3879 42.3362V43.6362ZM21.644 48.2889C21.285 48.2889 20.994 48.58 20.994 48.9389C20.994 49.2979 21.285 49.5889 21.644 49.5889V48.2889ZM27.3879 49.5889C27.7468 49.5889 28.0379 49.2979 28.0379 48.9389C28.0379 48.58 27.7468 48.2889 27.3879 48.2889V49.5889ZM25.427 52.9469V15.3754H24.127V52.9469H25.427ZM26.9307 13.8717H56.0424V12.5717H26.9307V13.8717ZM57.546 15.3754V52.9469H58.846V15.3754H57.546ZM56.0424 54.4506H42.1661V55.7506H56.0424V54.4506ZM42.3623 54.4506H26.9307V55.7506H42.3623V54.4506ZM21.644 20.034H24.777V18.734H21.644V20.034ZM24.777 20.034H27.3879V18.734H24.777V20.034ZM21.644 25.9867H24.777V24.6867H21.644V25.9867ZM24.777 25.9867H27.3879V24.6867H24.777V25.9867ZM21.644 31.9395H24.777V30.6395H21.644V31.9395ZM24.777 31.9395H27.3879V30.6395H24.777V31.9395ZM21.644 37.7878H24.777V36.4878H21.644V37.7878ZM24.777 37.7878H27.3879V36.4878H24.777V37.7878ZM21.644 43.6362H24.777V42.3362H21.644V43.6362ZM24.777 43.6362H27.3879V42.3362H24.777V43.6362ZM21.644 49.5889H24.777V48.2889H21.644V49.5889ZM24.777 49.5889H27.3879V48.2889H24.777V49.5889ZM56.0424 13.8717C56.8728 13.8717 57.546 14.5449 57.546 15.3754H58.846C58.846 13.827 57.5908 12.5717 56.0424 12.5717V13.8717ZM25.427 15.3754C25.427 14.5449 26.1002 13.8717 26.9307 13.8717V12.5717C25.3822 12.5717 24.127 13.8269 24.127 15.3754H25.427ZM24.127 52.9469C24.127 54.4953 25.3822 55.7506 26.9307 55.7506V54.4506C26.1002 54.4506 25.427 53.7774 25.427 52.9469H24.127ZM57.546 52.9469C57.546 53.7774 56.8728 54.4506 56.0424 54.4506V55.7506C57.5908 55.7506 58.846 54.4953 58.846 52.9469H57.546Z" fill="#214187"/>
<circle cx="42" cy="28" r="3" stroke="#214187" stroke-width="1.32"/>
<path d="M36 37.0525C36 34.9387 37.9091 33.3377 39.9906 33.7058L41.2498 33.9286C41.9385 34.0504 42.6428 34.0542 43.3328 33.9398L45.0454 33.6558C47.1161 33.3124 49 34.9096 49 37.0086V39C49 40.1046 48.1046 41 47 41H42.5H38C36.8954 41 36 40.1046 36 39V37.0525Z" stroke="#214187" stroke-width="1.32"/>
</svg>
