<svg width="82" height="64" viewBox="0 0 82 64" fill="none" xmlns="http://www.w3.org/2000/svg">
<path d="M55.0628 24.5803L55.0628 12.2174C55.0628 11.0615 54.1258 10.1245 52.9699 10.1245H42.8341L24.1054 10.0126C22.9447 10.0056 22 10.9447 22 12.1054V48.3172C22 49.473 22.937 50.4101 24.0929 50.4101H34.3683M27.1317 29.8992H45.4M27.1317 35.8992H41.2M27.1317 41.3992H32.4159H37.7M35.5 16.0992L41.5 23.5992M41.5 16.0992L35.5 23.5992" stroke="#214187" stroke-width="1.33944" stroke-linecap="round" stroke-linejoin="round"/>
<path d="M53.5162 30.8471L41.0784 43.2849C40.9924 43.3709 40.922 43.4712 40.8703 43.5813L38.7028 48.1992C38.2851 49.0891 39.2096 50.0136 40.0995 49.5959L44.7174 47.4284C44.8275 47.3767 44.9278 47.3063 45.0138 47.2203L57.4516 34.7825M53.5162 30.8471L54.8152 29.548C55.902 28.4613 57.6639 28.4613 58.7507 29.548V29.548C59.8374 30.6348 59.8374 32.3967 58.7507 33.4835L57.4516 34.7825M53.5162 30.8471L57.4516 34.7825" stroke="#214187" stroke-width="1.33944"/>
</svg>
