<?xml version="1.0" encoding="UTF-8" standalone="no"?>
<!-- Svg Vector Icons : http://www.onlinewebfonts.com/icon -->

<svg
   version="1.1"
   x="0px"
   y="0px"
   viewBox="0 0 1000 1000"
   enable-background="new 0 0 1000 1000"
   xml:space="preserve"
   id="svg24"
   sodipodi:docname="desclaimer.svg"
   inkscape:version="1.2 (dc2aedaf03, 2022-05-15)"
   inkscape:export-filename="4b16f5577ef239bcd4dfe897ae77c3de.svg"
   inkscape:export-xdpi="96"
   inkscape:export-ydpi="96"
   xmlns:inkscape="http://www.inkscape.org/namespaces/inkscape"
   xmlns:sodipodi="http://sodipodi.sourceforge.net/DTD/sodipodi-0.dtd"
   xmlns="http://www.w3.org/2000/svg"
   xmlns:svg="http://www.w3.org/2000/svg"><defs
   id="defs28"><clipPath
     clipPathUnits="userSpaceOnUse"
     id="clipPath2218"><path
       id="path2220"
       style="fill:#ff0000;fill-opacity:1;fill-rule:nonzero;stroke:none"
       d="M 562.23633,307.80664 V 905.04492 H 887.99609 V 307.80664 Z m 210.86133,311.91992 c 0.51054,0.0161 0.93404,0.59117 0.66015,1.55078 -0.43401,1.52059 -0.56506,3.10131 -0.80273,4.65821 -0.32275,2.03973 -0.67934,4.07365 -1.04883,6.10547 -0.39105,2.40691 -0.82564,4.80196 -1.11133,7.2246 -0.36137,2.40146 -0.77962,4.80351 -1.4668,7.13477 -0.35553,1.03093 -0.78785,2.02964 -1.23828,3.02149 -0.73358,1.61531 -2.36702,0.87196 -1.63086,-0.74219 0.4178,-0.91606 0.81492,-1.83883 1.1504,-2.78907 0.66847,-2.22983 1.04914,-4.53647 1.40624,-6.83398 0.2909,-2.45953 0.72869,-4.89246 1.12696,-7.33594 0.36652,-2.01544 0.72094,-4.03331 1.04101,-6.05664 0.25086,-1.63113 0.38746,-3.28711 0.84961,-4.8789 0.21642,-0.74539 0.66737,-1.07114 1.06446,-1.0586 z m -94.9961,0.57422 c 0.44895,6e-5 0.86916,0.44301 0.81055,1.32813 -0.1084,1.63691 0.17099,3.2141 0.62109,4.77929 0.63823,1.8015 1.33734,3.57952 1.99219,5.375 0.58735,1.71431 1.14058,3.42422 1.86523,5.08594 0.76273,1.63534 1.3305,3.3423 1.91602,5.04492 0.5059,1.38876 1.13141,2.71435 1.86524,3.99414 0.88244,1.53906 -0.67252,2.43181 -1.55469,0.89258 -0.78988,-1.37819 -1.46264,-2.8074 -2.00586,-4.30273 -0.56928,-1.65758 -1.11944,-3.32072 -1.86328,-4.91211 -0.73925,-1.69555 -1.30993,-3.4396 -1.90625,-5.18946 -0.66949,-1.83565 -1.38721,-3.65312 -2.03125,-5.49804 -0.48905,-1.72524 -0.80127,-3.46731 -0.68946,-5.26953 0.0549,-0.88535 0.53152,-1.32819 0.98047,-1.32813 z" /></clipPath><clipPath
     clipPathUnits="userSpaceOnUse"
     id="clipPath2234"><path
       id="path2236"
       style="fill:#ff0000;fill-opacity:1;fill-rule:nonzero;stroke:none"
       d="M 521.35352,228.96875 V 667.76367 H 821.28906 V 228.96875 Z m 251.74414,390.75781 c 0.51054,0.0161 0.93404,0.59117 0.66015,1.55078 -0.43401,1.52059 -0.56506,3.10131 -0.80273,4.65821 -0.32275,2.03973 -0.67934,4.07365 -1.04883,6.10547 -0.39105,2.40691 -0.82564,4.80196 -1.11133,7.2246 -0.36137,2.40146 -0.77962,4.80351 -1.4668,7.13477 -0.35553,1.03093 -0.78785,2.02964 -1.23828,3.02149 -0.73358,1.61531 -2.36702,0.87196 -1.63086,-0.74219 0.4178,-0.91606 0.81492,-1.83883 1.1504,-2.78907 0.66847,-2.22983 1.04914,-4.53647 1.40624,-6.83398 0.2909,-2.45953 0.72869,-4.89246 1.12696,-7.33594 0.36652,-2.01544 0.72094,-4.03331 1.04101,-6.05664 0.25086,-1.63113 0.38746,-3.28711 0.84961,-4.8789 0.21642,-0.74539 0.66737,-1.07114 1.06446,-1.0586 z m -94.9961,0.57422 c 0.44895,6e-5 0.86916,0.44301 0.81055,1.32813 -0.1084,1.63691 0.17099,3.2141 0.62109,4.77929 0.63823,1.8015 1.33734,3.57952 1.99219,5.375 0.58735,1.71431 1.14058,3.42422 1.86523,5.08594 0.76273,1.63534 1.3305,3.3423 1.91602,5.04492 0.5059,1.38876 1.13141,2.71435 1.86524,3.99414 0.88244,1.53906 -0.67252,2.43181 -1.55469,0.89258 -0.78988,-1.37819 -1.46264,-2.8074 -2.00586,-4.30273 -0.56928,-1.65758 -1.11944,-3.32072 -1.86328,-4.91211 -0.73925,-1.69555 -1.30993,-3.4396 -1.90625,-5.18946 -0.66949,-1.83565 -1.38721,-3.65312 -2.03125,-5.49804 -0.48905,-1.72524 -0.80127,-3.46731 -0.68946,-5.26953 0.0549,-0.88535 0.53152,-1.32819 0.98047,-1.32813 z" /></clipPath><clipPath
     clipPathUnits="userSpaceOnUse"
     id="clipPath2256"><path
       id="path2258"
       style="fill:#ff0000;fill-opacity:1;fill-rule:nonzero;stroke:none"
       d="M 111.39062,10.001953 V 990.00977 H 888.63281 V 10.001953 Z M 773.09766,619.72656 c 0.51054,0.0161 0.93404,0.59117 0.66015,1.55078 -0.43401,1.52059 -0.56506,3.10131 -0.80273,4.65821 -0.32275,2.03973 -0.67934,4.07365 -1.04883,6.10547 -0.39105,2.40691 -0.82564,4.80196 -1.11133,7.2246 -0.36137,2.40146 -0.77962,4.80351 -1.4668,7.13477 -0.35553,1.03093 -0.78785,2.02964 -1.23828,3.02149 -0.73358,1.61531 -2.36702,0.87196 -1.63086,-0.74219 0.4178,-0.91606 0.81492,-1.83883 1.1504,-2.78907 0.66847,-2.22983 1.04914,-4.53647 1.40624,-6.83398 0.2909,-2.45953 0.72869,-4.89246 1.12696,-7.33594 0.36652,-2.01544 0.72094,-4.03331 1.04101,-6.05664 0.25086,-1.63113 0.38746,-3.28711 0.84961,-4.8789 0.21642,-0.74539 0.66737,-1.07114 1.06446,-1.0586 z m -94.9961,0.57422 c 0.44895,6e-5 0.86916,0.44301 0.81055,1.32813 -0.1084,1.63691 0.17099,3.2141 0.62109,4.77929 0.63823,1.8015 1.33734,3.57952 1.99219,5.375 0.58735,1.71431 1.14058,3.42422 1.86523,5.08594 0.76273,1.63534 1.3305,3.3423 1.91602,5.04492 0.5059,1.38876 1.13141,2.71435 1.86524,3.99414 0.88244,1.53906 -0.67252,2.43181 -1.55469,0.89258 -0.78988,-1.37819 -1.46264,-2.8074 -2.00586,-4.30273 -0.56928,-1.65758 -1.11944,-3.32072 -1.86328,-4.91211 -0.73925,-1.69555 -1.30993,-3.4396 -1.90625,-5.18946 -0.66949,-1.83565 -1.38721,-3.65312 -2.03125,-5.49804 -0.48905,-1.72524 -0.80127,-3.46731 -0.68946,-5.26953 0.0549,-0.88535 0.53152,-1.32819 0.98047,-1.32813 z" /></clipPath></defs><sodipodi:namedview
   id="namedview26"
   pagecolor="#ffffff"
   bordercolor="#000000"
   borderopacity="0.25"
   inkscape:showpageshadow="2"
   inkscape:pageopacity="0.0"
   inkscape:pagecheckerboard="0"
   inkscape:deskcolor="#d1d1d1"
   showgrid="false"
   inkscape:zoom="0.59184838"
   inkscape:cx="947.8779"
   inkscape:cy="560.95448"
   inkscape:window-width="1920"
   inkscape:window-height="1017"
   inkscape:window-x="-8"
   inkscape:window-y="-8"
   inkscape:window-maximized="1"
   inkscape:current-layer="svg24" />
<metadata
   id="metadata2"> Svg Vector Icons : http://www.onlinewebfonts.com/icon </metadata>
<g
   id="g22"
   clip-path="url(#clipPath2256)"><g
     transform="translate(0.000000,512.000000) scale(0.100000,-0.100000)"
     id="g20"><path
       d="M2358.1,4991c-183.8-47.9-308.2-122.5-451.8-264.2c-201-201-294.8-421.2-294.8-691.1c0-547.5,438.4-985.9,984-985.9c277.6,0,505.4,91.9,691.1,277.6c317.8,317.8,388.6,786.8,178,1181.2c-72.7,137.8-279.5,336.9-419.2,403.9C2825.2,5019.7,2572.6,5048.4,2358.1,4991z"
       id="path4" /><path
       d="M7050.3,5000.6c-160.8-30.6-359.9-141.7-492-273.8c-532.2-532.2-298.7-1430,430.7-1646.4c216.3-63.2,536-28.7,735.1,80.4c490.1,266.1,664.3,897.9,381,1380.3C7900.3,4889.5,7460,5081,7050.3,5000.6z"
       id="path6" /><path
       d="M2350.5,2808.6c-361.8-88.1-662.4-392.4-748.5-758.1c-23-101.5-28.7-384.8-28.7-1778.5v-1657.8l-229.7-1391.8c-126.4-765.8-229.7-1435.8-229.7-1491.3c0-268,250.8-511.2,526.5-511.2c185.7,0,390.5,130.2,478.6,304.4c21.1,42.1,118.7,576.2,256.5,1412.8c124.4,738.9,227.8,1349.6,233.6,1353.5c5.7,5.7,107.2-582,225.9-1305.6c116.8-723.6,227.8-1357.3,245-1410.9c45.9-139.7,195.3-283.3,340.8-327.3c315.9-90,618.3,93.8,679.6,411.6c17.2,88.1-5.7,245-210.6,1477.9l-229.7,1376.4v832.8v832.8h-283.3c-329.3,0-419.3,23-537.9,130.2c-80.4,72.8-855.7,1192.7-932.3,1343.9c-122.5,245-40.2,530.3,197.2,687.3c114.9,76.6,216.3,105.3,361.8,101.5c130.2-1.9,222.1-32.6,321.6-109.1c36.4-26.8,220.2-273.8,407.8-545.6c224-327.4,352.2-497.7,375.2-497.7c28.7,0,32.5,28.7,32.5,321.6c0,216.3-9.6,358-28.7,442.2C3445.5,2594.2,2888.4,2938.8,2350.5,2808.6z"
       id="path8" /><path
       d="M6971.8,2808.6c-361.8-95.7-645.1-373.3-737-725.5c-21.1-84.2-28.7-214.4-28.7-501.6v-388.6h-497.7c-273.8,0-497.7-5.7-497.7-11.5c0-5.7,24.9-42.1,57.4-80.4c153.2-191.4,153.2-486.3,0-677.7c-32.5-38.3-57.4-74.7-57.4-80.4s224-11.5,497.7-11.5H6206v-947.6v-947.6h105.3h105.3v120.6c0,172.3,26.8,247,120.6,331.2l80.4,72.7l9.6,1409l9.6,1407.1l53.6,107.2c155.1,317.8,530.3,449.9,842.3,296.7c128.3-61.3,229.7-170.4,298.7-315.9l49.8-107.2l5.7-1395.6l5.7-1395.6l82.3-78.5c95.7-88.1,126.3-172.3,126.3-340.8c0-111,0-111,57.4-111h57.4V212.7c0,1416.6-5.7,1793.8-26.8,1870.4c-45.9,174.2-130.2,319.7-262.3,451.8C7674.4,2789.5,7303,2896.7,6971.8,2808.6z"
       id="path10" /><path
       d="M2228,2263c-176.1-88.1-268-302.5-214.4-497.7c9.6-36.4,216.3-346.5,455.6-689.2c375.2-530.3,451.8-627.9,530.3-677.7l91.9-57.4H3993h903.6l91.9,47.9c53.6,28.7,116.8,82.3,153.2,130.2c55.5,78.5,59.3,95.7,59.3,241.2c0,139.8-5.7,166.6-51.7,237.4c-28.7,42.1-93.8,103.4-143.6,132.1l-91.9,53.6l-744.7,9.6l-744.7,9.6l-323.5,459.4c-358,505.4-394.4,551.3-497.7,605C2503.6,2316.6,2335.2,2314.7,2228,2263z"
       id="path12" /><path
       d="M7107.7,2029.5c-91.9-36.4-206.7-137.8-256.5-229.7l-42.1-80.4l-5.7-1418.6l-5.7-1420.5l-51.7-9.6c-88.1-19.2-176.1-88.1-206.8-157c-15.3-38.3-26.8-128.3-26.8-220.2v-153.1h-336.9c-375.2,0-432.6-13.4-511.1-122.5l-42.1-59.3v-957.2c0-1066.3-5.7-1018.5,130.2-1100.8c59.4-36.4,107.2-38.3,1493.2-38.3c1587,0,1527.7-3.8,1604.2,122.5c34.5,55.5,36.4,112.9,36.4,1012.7c0,1075.9,5.7,1031.8-143.6,1104.6c-68.9,34.5-118.7,38.3-417.3,38.3h-338.8v180c0,166.6-3.8,185.7-49.8,241.2c-57.4,67-139.7,114.9-199.1,114.9c-38.3,0-38.3,1.9-38.3,1399.4c0,993.6-5.7,1422.4-21.1,1474.1c-30.6,97.6-118.7,201-214.4,248.9C7370,2048.6,7195.8,2062,7107.7,2029.5z M6908.6-1399.2c59.4-91.9,214.4-164.6,348.4-164.6c137.8,1.9,239.3,47.9,335,153.1c70.8,78.5,76.6,80.4,99.5,47.9c17.2-23,26.8-86.1,26.8-166.6v-130.2h-470.9h-470.9l7.7,132.1c5.7,116.8,34.5,193.3,70.8,193.3C6860.8-1334.1,6885.6-1362.8,6908.6-1399.2z"
       id="path14" /><path
       d="M5738.9-4090.8c-5.7-36.4-11.5-114.9-11.5-172.3c0-271.8,248.9-516.9,526.4-516.9c197.2,0,405.9,139.7,484.3,325.4c36.4,82.3,93.8,394.4,76.6,411.6c-3.8,3.8-245,9.6-536,13.4l-528.4,5.7L5738.9-4090.8z"
       id="path16" /><path
       d="M7622.7-4056.4c0-82.3,63.2-359.9,97.6-428.8c55.5-118.7,191.4-231.7,319.7-268c348.4-101.5,679.6,145.5,679.6,505.4c0,70.8-5.7,147.4-13.4,172.3l-13.4,42.1h-536C7743.3-4033.4,7622.7-4039.1,7622.7-4056.4z"
       id="path18" /></g></g>
<path
   style="fill:#274690;stroke:#2e8d9a;stroke-width:1;paint-order:markers fill stroke;fill-opacity:1"
   d="m 156.1709,988.60249 c -15.48244,-2.60303 -31.39363,-14.63227 -38.57566,-29.16413 -7.25486,-14.67921 -7.30119,-13.7408 4.36793,-88.47062 3.28345,-21.02748 12.66884,-78.84158 20.85642,-128.47577 l 14.8865,-90.24399 0.066,-136.15983 c 0.0363,-74.88791 0.50672,-152.02005 1.04533,-171.40476 0.93946,-33.81127 1.11055,-35.63371 4.20614,-44.80286 11.07372,-32.8004 37.74051,-58.35745 70.63019,-67.69087 14.16928,-4.02096 36.49857,-3.74425 51.04943,0.63262 18.73276,5.63478 33.96304,14.78289 46.43592,27.89189 13.20353,13.87693 23.0493,32.57242 26.28928,49.91904 1.7719,9.48669 2.25909,69.02795 0.57838,70.68521 -1.73364,1.70943 -10.16407,-8.82609 -31.77429,-39.70835 -42.03962,-60.07704 -47.87711,-66.76617 -62.66619,-71.8086 -8.31222,-2.83411 -28.71956,-2.88931 -37.81575,-0.10229 -12.05302,3.69297 -27.12601,15.40086 -33.66013,26.14536 -8.67347,14.26236 -9.80664,33.55785 -2.88735,49.16537 3.14487,7.09372 29.64185,47.1009 57.54757,86.88973 34.44309,49.11004 39.37924,54.70981 52.2197,59.24019 6.31277,2.22727 28.48693,4.01827 50.19333,4.05409 l 16.42772,0.0271 v 83.58795 83.58796 l 19.03082,114.44072 c 23.37006,140.53439 24.42709,147.50497 24.51038,161.63307 0.063,10.67262 -0.19188,11.88489 -4.26906,20.31063 -6.84775,14.15127 -16.34867,22.56601 -31.11359,27.55653 -6.1364,2.07409 -9.61025,2.46749 -18.43542,2.0877 -9.35091,-0.40241 -11.99992,-1.02214 -18.90992,-4.42392 -9.73841,-4.7942 -20.6791,-15.15527 -24.99355,-23.66941 -3.72321,-7.34742 -7.5681,-27.75415 -24.15329,-128.19367 -12.77558,-77.36852 -24.16894,-144.02346 -25.20313,-147.4467 -1.6577,-5.48705 -1.72607,-5.12095 -27.20227,145.65459 -13.53549,80.10695 -20.07126,116.06451 -22.80184,125.44802 -4.2191,14.49871 -22.82329,29.36994 -41.07182,32.8307 -7.07041,1.34088 -6.6939,1.34145 -14.80781,-0.0227 z"
   id="path935" /><path
   style="fill:#00612a;fill-opacity:1;stroke:none;stroke-width:1;paint-order:markers fill stroke"
   d="M 153.02596,986.75254 C 138.80776,982.9298 123.629,970.161 117.33449,956.72786 c -6.35098,-13.55365 -5.66012,-18.98361 29.6672,-233.17357 l 11.89915,-72.14465 0.046,-137.53277 c 0.0506,-151.48884 1.02833,-200.46977 4.21193,-211.0075 8.13496,-26.92683 29.99034,-51.99055 55.67009,-63.84242 13.51711,-6.23849 22.42696,-8.17402 38.04095,-8.26381 15.33726,-0.0882 23.73234,1.39461 37.28622,6.58575 29.30642,11.22439 54.61573,39.90752 61.16532,69.31891 3.09463,13.89662 3.80129,72.77546 0.87164,72.62402 -1.22638,-0.0634 -11.4394,-13.47378 -26.81187,-35.2058 -40.10124,-56.69098 -49.19862,-67.7022 -60.36532,-73.06449 -6.00417,-2.88323 -8.45833,-3.304 -21.70393,-3.72117 -17.4667,-0.55012 -25.21478,1.28696 -36.21062,8.58558 -8.52207,5.65663 -18.78646,16.71909 -22.14761,23.86963 -6.13531,13.05231 -6.6278,31.91462 -1.14564,43.87748 4.33772,9.46553 20.46381,34.41445 47.39935,73.3323 38.8511,56.13408 48.72188,68.38042 59.01598,73.21921 7.18415,3.37696 20.08204,4.97931 47.17456,5.86068 l 22.9988,0.74821 v 82.0847 82.08471 l 17.26794,104.40507 c 22.50732,136.08342 24.40436,148.09045 25.8591,163.67098 1.49427,16.0039 0.29394,23.02395 -5.62436,32.8941 -6.11449,10.19735 -11.86192,15.56726 -21.97101,20.52783 -8.6745,4.2566 -9.38017,4.39699 -22.10275,4.39699 -12.02673,0 -13.73007,-0.28869 -20.06881,-3.40124 -8.22345,-4.03802 -20.13659,-14.71364 -24.06936,-21.56909 C 309.003,953.72183 306.3631,940.29731 289.11232,836.91756 264.57816,689.89045 263.2886,682.7957 261.09877,682.7957 c -1.96937,0 -4.01835,10.75841 -20.3652,106.92951 -25.27995,148.72595 -28.07652,163.4575 -32.63033,171.88741 -5.87913,10.88328 -20.46689,21.60025 -34.30989,25.20589 -8.51333,2.21744 -12.31951,2.20535 -20.76739,-0.0659 z"
   id="path1006" /><path
   style="fill:#00612a;fill-opacity:1;stroke:none;stroke-width:1;paint-order:markers fill stroke"
   d="m 239.43633,204.31969 c -9.21894,-2.00582 -21.60039,-6.94436 -30.89406,-12.32261 -10.25397,-5.93395 -27.55595,-23.82234 -33.74468,-34.88836 -20.29065,-36.28153 -16.60332,-78.726753 9.531,-109.712216 17.63526,-20.908778 38.23462,-32.494304 64.06364,-36.030789 19.04844,-2.6080934 46.4306,3.479062 61.69514,13.715058 31.73695,21.281945 47.33433,49.027793 47.23513,84.025567 -0.13024,45.9488 -33.31876,86.84489 -77.30773,95.26137 -11.03307,2.11098 -30.76276,2.08763 -40.57844,-0.048 z"
   id="path1008" /><path
   style="fill:#00612a;fill-opacity:1;stroke:none;stroke-width:1;paint-order:markers fill stroke"
   d="m 707.28793,205.26836 c -5.30179,-0.8865 -18.35424,-5.39885 -24.49223,-8.46718 -25.42277,-12.70864 -43.11622,-34.01343 -51.51144,-62.02523 -4.07954,-13.61196 -4.60735,-35.604986 -1.17004,-48.754445 12.24549,-46.845338 58.01244,-79.8546279 103.52103,-74.664264 44.7012,5.09828 79.06772,35.200651 87.65615,76.779889 10.84206,52.48979 -22.81313,105.12558 -73.97957,115.70202 -10.02164,2.07154 -31.57867,2.84132 -40.0239,1.42921 z"
   id="path1010" /><path
   style="fill:#00612a;fill-opacity:1;stroke:none;stroke-width:1;paint-order:markers fill stroke"
   d="m 621.26643,572.87933 v -94.38471 l -42.1147,-0.13964 c -23.16308,-0.0768 -45.43311,-0.48003 -49.48896,-0.89606 l -7.37427,-0.75641 5.19128,-6.8528 c 8.35665,-11.03129 10.63506,-18.26571 10.63506,-33.76847 0,-14.88031 -2.17434,-22.32835 -9.5007,-32.54386 -7.91508,-11.03639 -12.98742,-9.86952 42.90251,-9.86952 h 49.49798 l 0.55577,-41.51732 c 0.62591,-46.75779 0.83841,-48.2012 9.80585,-66.60693 9.74653,-20.00483 25.87888,-35.92503 46.64048,-46.02715 17.22258,-8.38012 24.43138,-10.06409 43.01075,-10.04726 12.42467,0.0113 17.39547,0.545 24.84876,2.66816 32.13722,9.15468 59.29456,33.96677 69.82329,63.79352 2.48122,7.02903 3.26059,12.1018 4.00263,26.05239 0.50681,9.52808 0.95858,91.1141 1.00392,181.30227 l 0.0824,163.9785 h -4.54651 -4.54652 l -1.25889,-14.16469 c -1.48495,-16.70819 -4.20692,-22.93004 -14.14251,-32.32671 l -6.17945,-5.84426 -0.83963,-140.10241 -0.83962,-140.10239 -5.5652,-10.85044 c -12.32522,-24.03038 -31.84513,-36.48624 -57.23658,-36.52324 -24.5065,-0.0357 -45.32102,13.22974 -57.50502,36.64894 l -4.95787,9.52964 -0.97836,140.58711 -0.97838,140.58712 -7.30362,7.46347 c -10.6735,10.90708 -11.57276,13.16769 -12.11779,30.46225 l -0.46122,14.63561 h -10.03247 -10.03246 z"
   id="path1012"
   clip-path="url(#clipPath2234)" /><path
   style="fill:#00612a;fill-opacity:1;stroke:none;stroke-width:1;paint-order:markers fill stroke"
   d="m 617.41992,988.61367 c -18.65714,-3.14327 -36.08608,-18.72983 -41.73316,-37.3216 -2.15905,-7.10819 -2.44479,-10.24633 -1.86343,-20.46509 0.37766,-6.63823 1.02348,-12.94304 1.43516,-14.01068 0.67636,-1.75406 4.8585,-1.89491 43.39017,-1.46133 23.45291,0.26391 47.14053,0.78775 52.63915,1.16409 l 9.99749,0.68426 -0.79561,7.34816 c -1.68251,15.53954 -6.50778,32.23305 -11.5456,39.94322 -8.04549,12.31326 -21.68517,21.36057 -36.24834,24.04381 -7.76683,1.43103 -7.24324,1.42845 -15.27583,0.0752 z"
   id="path1014" /><path
   style="fill:#00612a;fill-opacity:1;stroke:none;stroke-width:1;paint-order:markers fill stroke"
   d="m 802.72206,985.89157 c -14.95701,-5.09841 -27.31903,-17.15873 -32.0746,-31.29181 -3.21336,-9.54976 -7.14857,-27.62293 -7.18074,-32.97881 l -0.0259,-4.30497 9.14083,-0.77269 c 5.02746,-0.42497 28.65165,-0.77268 52.49819,-0.77268 33.38636,0 43.57426,0.34345 44.30054,1.49343 0.51875,0.82138 1.14687,7.25196 1.39582,14.29017 0.36946,10.4451 -0.003,14.29549 -2.02454,20.95233 -8.38418,27.60306 -38.42824,42.79354 -66.02964,33.38503 z"
   id="path1016" /><path
   style="fill:#2e8d9a;fill-opacity:1;stroke:#2e8d9a;stroke-width:1;paint-order:markers fill stroke"
   d="m 586.91083,903.90416 c -9.7424,-0.93559 -17.49797,-5.22662 -20.42505,-11.30085 -3.00932,-6.2449 -3.67644,-26.23111 -3.71313,-111.2413 l -0.0366,-84.82677 4.47427,-5.87262 c 2.46085,-3.22994 6.46753,-6.89982 8.90374,-8.15528 5.48165,-2.82487 24.91273,-4.40199 54.87614,-4.45402 l 21.07383,-0.0366 0.4865,-17.02509 c 0.52574,-18.39845 1.3891,-21.44957 7.73707,-27.3427 4.0411,-3.75154 10.39212,-7.12432 15.33964,-8.14625 3.38227,-0.69863 3.62741,-1.14177 4.35062,-7.86465 0.42151,-3.91836 0.82473,-67.75073 0.89606,-141.84969 l 0.12966,-134.72538 3.82466,-6.85168 c 4.71039,-8.4384 15.37618,-19.00188 23.18186,-22.95946 4.87869,-2.47357 7.53351,-2.96213 16.00424,-2.94525 16.58676,0.0331 29.09507,6.10675 37.45298,18.18615 7.56662,10.9358 7.10206,1.76422 7.8564,155.10462 0.73311,149.0264 0.50794,143.85068 6.25845,143.85068 6.55791,0 19.23752,10.6896 21.32875,17.9813 0.64762,2.25811 1.17749,10.96406 1.17749,19.34654 v 15.24086 l 22.40143,0.0689 c 35.52687,0.10932 47.66539,1.30111 55.36911,5.43616 7.68318,4.12401 9.34446,7.10721 10.83328,19.45364 0.60402,5.00889 0.94101,48.52453 0.75043,96.90505 -0.32351,82.13235 -0.48663,88.09646 -2.52127,92.1853 -3.00685,6.04255 -5.7375,8.21458 -13.04186,10.37382 -5.50699,1.62791 -23.05929,1.88605 -141.29411,2.07791 -74.25328,0.1205 -138.90685,-0.15553 -143.67459,-0.61338 z M 772.47381,665.31122 c -1.47621,-22.03756 -3.08944,-23.23231 -15.47892,-11.4635 -11.69485,11.10896 -18.59117,13.84094 -33.23269,13.1652 -13.76106,-0.63512 -23.91681,-5.51061 -31.82961,-15.28054 -2.92711,-3.6141 -6.012,-6.73838 -6.85534,-6.94286 -3.77666,-0.91567 -7.6283,12.65756 -7.64887,26.9548 l -0.009,6.27241 h 47.95278 47.95277 z"
   id="path1813"
   clip-path="url(#clipPath2218)" /><path
   style="fill:#2e8d9a;fill-opacity:1;stroke:#2e8d9a;stroke-width:1;paint-order:markers fill stroke"
   d="m 304.06213,474.09975 c -6.88032,-4.40485 -11.75726,-9.25907 -20.19146,-20.09736 -15.61804,-20.06981 -60.25842,-84.01533 -75.43442,-108.05673 l -7.12203,-11.28253 v -10.94324 c 0,-10.15214 0.3023,-11.53454 4.1816,-19.12243 5.03358,-9.84564 13.65814,-17.45273 22.89805,-20.19669 8.82459,-2.62063 21.00588,-2.37032 28.92995,0.59445 11.18188,4.18368 16.17619,10.45189 78.10385,98.02597 l 6.4114,9.06659 44.92713,0.79004 c 24.70993,0.43452 58.17049,0.79004 74.35681,0.79004 h 29.42967 l 9.27683,6.09015 c 16.06324,10.54535 20.64742,19.89254 19.67998,40.12758 -0.42539,8.89747 -1.0535,11.62408 -3.72969,16.19066 -3.98471,6.79938 -11.27033,13.19201 -20.22601,17.74694 l -6.83571,3.47669 -89.93849,-0.0703 -89.93849,-0.0703 z"
   id="path1815" /><path
   style="fill:#dbc38f;fill-opacity:1;stroke:none;stroke-width:1;paint-order:markers fill stroke"
   d="m 591.69654,904.11885 c -4.92832,-0.25194 -10.03585,-0.78367 -11.35006,-1.18162 -6.85932,-2.07702 -13.3523,-7.34884 -14.63715,-11.88426 -2.43341,-8.58982 -2.97311,-30.06538 -2.97966,-118.56683 l -0.006,-76.37886 2.93363,-3.68674 c 3.55402,-4.4664 8.17098,-8.85963 10.66762,-10.15069 5.00146,-2.58636 20.22381,-3.88716 51.06423,-4.36359 13.38859,-0.20684 24.34729,-0.401 24.35267,-0.43148 0.005,-0.0305 0.26627,-6.65847 0.57976,-14.72887 0.78068,-20.09764 1.30711,-22.26211 6.7919,-27.92594 3.60251,-3.7201 8.48874,-6.84538 13.27935,-8.49359 4.05825,-1.39624 5.02619,-1.46176 5.02619,-0.34022 0,0.46024 1.49988,4.82852 3.33308,9.70728 2.53232,6.73935 3.17965,9.08576 2.69443,9.76654 -3.1598,4.4333 -5.12646,12.82827 -5.77267,24.64157 l -0.41664,7.61649 h 47.94166 47.94166 l -0.40071,-5.82437 c -0.69827,-10.14935 -1.57842,-18.2905 -2.24424,-20.75866 -0.88782,-3.29108 -0.79422,-4.57847 1.15096,-15.83035 l 1.70398,-9.85663 2.45066,0.047 c 3.90538,0.0749 8.86509,2.96487 14.27219,8.31618 7.66483,7.58575 7.64271,7.50966 7.91764,27.23515 l 0.22973,16.48246 26.06867,0.39195 c 34.53553,0.51926 42.65985,1.34204 50.67356,5.13193 7.42578,3.51184 9.95287,7.22343 11.62241,17.07008 1.04983,6.19172 1.10633,174.3062 0.0619,184.11696 -1.37179,12.88543 -7.20911,18.01817 -22.02011,19.36221 -7.8657,0.71378 -259.74827,1.1908 -272.93096,0.51688 z"
   id="path2260" /><path
   style="fill:#00612a;fill-opacity:1;stroke:none;stroke-width:1;paint-order:markers fill stroke"
   d="m 721.32617,666.98028 c -12.85329,-1.20196 -22.00049,-6.00921 -30.10031,-15.81901 -3.51539,-4.25753 -5.05007,-7.49525 -9.92288,-20.93427 l -1.9494,-5.37634 0.43553,-12.84349 c 0.23953,-7.06392 0.47415,-44.69833 0.52138,-83.63202 0.0472,-38.93369 0.25442,-97.13262 0.46043,-129.33094 l 0.37458,-58.54242 2.69819,-4.77897 c 4.31017,-7.63406 11.34938,-15.65788 18.31908,-20.88146 7.9058,-5.92517 15.03925,-7.6389 26.87376,-6.45612 15.00973,1.50012 24.71658,7.09145 33.45905,19.27306 3.233,4.50483 4.28242,7.68138 5.13106,15.53166 0.84435,7.81049 1.72408,64.85141 1.8795,121.8638 0.19697,72.25895 0.94696,142.97285 1.5871,149.64158 0.5275,5.49527 0.41581,6.93061 -1.39446,17.92115 -1.08233,6.57109 -2.14147,12.38145 -2.35365,12.91192 -0.21217,0.53046 -1.02594,1.25617 -1.80839,1.61267 -0.78244,0.35651 -3.62281,2.61066 -6.31195,5.00923 -6.98604,6.23121 -11.80477,9.95715 -14.92533,11.54058 -5.94083,3.01449 -13.83141,4.14428 -22.97329,3.28939 z"
   id="path2262" /><path
   style="fill:#00612a;fill-opacity:1;stroke:none;stroke-width:1;paint-order:markers fill stroke"
   d="m 303.31709,473.68149 c -7.13078,-4.84871 -13.03025,-11.00948 -22.38604,-23.37756 -19.23095,-25.42278 -59.03266,-82.7772 -75.66064,-109.02732 l -4.05002,-6.39365 0.19626,-11.29702 0.19625,-11.29703 3.08744,-6.20419 c 5.9735,-12.00373 14.58212,-19.46599 25.88508,-22.43815 5.32314,-1.39973 17.395,-1.39693 22.70012,0.005 13.65309,3.60866 18.44387,9.21164 69.55104,81.34218 9.77731,13.79928 18.22222,25.5272 18.76647,26.06205 0.88525,0.86994 5.995,1.04423 48.48058,1.65364 26.12007,0.37466 59.40313,0.67631 73.96234,0.67033 l 26.47129,-0.0109 7.87757,5.32283 c 17.64064,11.9197 21.77494,19.70248 21.13091,39.77872 -0.36857,11.48898 -1.06827,14.11808 -5.34439,20.08121 -4.06522,5.66902 -10.1664,10.72207 -18.51641,15.33546 l -6.71631,3.71077 -89.93544,2e-4 -89.93543,2e-4 z"
   id="path2264" /></svg>
