<svg width="82" height="64" viewBox="0 0 82 64" fill="none" xmlns="http://www.w3.org/2000/svg">
<path d="M39.7562 11.1393C40.7885 10.4497 42.1346 10.4497 43.1669 11.1393L44.9357 12.3211C45.5631 12.7403 46.3229 12.9137 47.07 12.8083L49.1764 12.511C50.4057 12.3375 51.6185 12.9215 52.2493 13.9908L53.3303 15.823C53.7136 16.4729 54.323 16.9588 55.0418 17.188L57.0686 17.8341C58.2515 18.2112 59.0907 19.2636 59.1952 20.5006L59.3741 22.6204C59.4375 23.3723 59.7757 24.0744 60.3239 24.5928L61.8697 26.0543C62.7718 26.9073 63.0713 28.2196 62.6286 29.3795L61.8701 31.3669C61.601 32.0719 61.601 32.8512 61.8701 33.5561L62.6286 35.5436C63.0713 36.7035 62.7718 38.0158 61.8697 38.8687L60.3239 40.3303C59.7757 40.8487 59.4375 41.5508 59.3741 42.3027L59.1952 44.4224C59.0907 45.6595 58.2515 46.7119 57.0686 47.089L55.0418 47.7351C54.323 47.9643 53.7136 48.4502 53.3303 49.1L52.2493 50.9323C51.6185 52.0015 50.4057 52.5856 49.1764 52.4121L47.07 52.1148C46.3229 52.0094 45.5631 52.1828 44.9357 52.602L43.1669 53.7837C42.1346 54.4734 40.7885 54.4734 39.7562 53.7837L37.9874 52.602C37.36 52.1828 36.6002 52.0094 35.8531 52.1148L33.7466 52.4121C32.5173 52.5856 31.3046 52.0015 30.6737 50.9323L29.5928 49.1C29.2094 48.4502 28.6001 47.9643 27.8812 47.7351L25.8544 47.089C24.6716 46.7119 23.8323 45.6595 23.7279 44.4224L23.549 42.3027C23.4856 41.5508 23.1474 40.8487 22.5992 40.3303L21.0534 38.8687C20.1513 38.0158 19.8518 36.7035 20.2945 35.5436L21.053 33.5561C21.3221 32.8512 21.3221 32.0719 21.053 31.3669L20.2945 29.3795C19.8518 28.2196 20.1513 26.9073 21.0534 26.0543L22.5992 24.5928C23.1474 24.0744 23.4856 23.3723 23.549 22.6204L23.7279 20.5006C23.8323 19.2636 24.6716 18.2112 25.8544 17.8341L27.8812 17.188C28.6001 16.9588 29.2094 16.4729 29.5928 15.823L30.6737 13.9908C31.3046 12.9215 32.5173 12.3375 33.7466 12.511L35.8531 12.8083C36.6002 12.9137 37.36 12.7403 37.9874 12.3211L39.7562 11.1393Z" stroke="#214187" stroke-width="1.3"/>
<circle cx="41.4614" cy="32.4617" r="16.0974" stroke="#214187" stroke-width="1.3"/>
<path d="M33.2256 32.4616L38.354 38.077L48.793 26.9409" stroke="#214187" stroke-width="1.6" stroke-linecap="round" stroke-linejoin="round"/>
</svg>
