<?xml version="1.0" encoding="UTF-8" standalone="no"?>
<svg
   viewBox="0 0 24 24"
   version="1.1"
   id="svg17933"
   sodipodi:docname="e3tmadaty.svg"
   inkscape:version="1.2 (dc2aedaf03, 2022-05-15)"
   xmlns:inkscape="http://www.inkscape.org/namespaces/inkscape"
   xmlns:sodipodi="http://sodipodi.sourceforge.net/DTD/sodipodi-0.dtd"
   xmlns="http://www.w3.org/2000/svg"
   xmlns:svg="http://www.w3.org/2000/svg">
  <defs
     id="defs17937" />
  <sodipodi:namedview
     id="namedview17935"
     pagecolor="#ffffff"
     bordercolor="#000000"
     borderopacity="0.25"
     inkscape:showpageshadow="2"
     inkscape:pageopacity="0.0"
     inkscape:pagecheckerboard="0"
     inkscape:deskcolor="#d1d1d1"
     showgrid="false"
     inkscape:zoom="34.875"
     inkscape:cx="11.985663"
     inkscape:cy="12.043011"
     inkscape:window-width="1920"
     inkscape:window-height="1017"
     inkscape:window-x="-8"
     inkscape:window-y="-8"
     inkscape:window-maximized="1"
     inkscape:current-layer="svg17933" />
  <g
     id="Layer_2"
     data-name="Layer 2">
    <g
       id="Layer_1-2"
       data-name="Layer 1">
      <path
         d="M0,0H24V24H0Z"
         fill="none"
         id="path17925" />
      <path
         d="M11,4a8,8,0,1,0,8,8A8,8,0,0,0,11,4ZM9,17,5,13l1.41-1.41L9,14.17l6.59-6.59L17,9Z"
         fill="#2e8d9a"
         id="path17927"
         style="fill:#6ebe8a;fill-opacity:1" />
      <path
         d="M12,2A10,10,0,1,0,22,12,10,10,0,0,0,12,2Zm0,18a8,8,0,1,1,8-8A8,8,0,0,1,12,20ZM16.59,7.58,10,14.17,7.41,11.59,6,13l4,4,8-8Z"
         fill="#274690"
         id="path17929"
         style="fill:#005430;fill-opacity:1" />
    </g>
  </g>
</svg>
