<?xml version="1.0" encoding="UTF-8" standalone="no"?>
<svg
   enable-background="new 0 0 24 24"
   height="24px"
   viewBox="0 0 24 24"
   width="24px"
   fill="#000000"
   version="1.1"
   id="svg8"
   sodipodi:docname="edit_calendar.svg"
   inkscape:version="1.2 (dc2aedaf03, 2022-05-15)"
   xmlns:inkscape="http://www.inkscape.org/namespaces/inkscape"
   xmlns:sodipodi="http://sodipodi.sourceforge.net/DTD/sodipodi-0.dtd"
   xmlns="http://www.w3.org/2000/svg"
   xmlns:svg="http://www.w3.org/2000/svg">
  <defs
     id="defs12" />
  <sodipodi:namedview
     id="namedview10"
     pagecolor="#ffffff"
     bordercolor="#000000"
     borderopacity="0.25"
     inkscape:showpageshadow="2"
     inkscape:pageopacity="0.0"
     inkscape:pagecheckerboard="0"
     inkscape:deskcolor="#d1d1d1"
     showgrid="false"
     inkscape:zoom="34.875"
     inkscape:cx="11.985663"
     inkscape:cy="9.7204301"
     inkscape:window-width="1920"
     inkscape:window-height="1017"
     inkscape:window-x="1912"
     inkscape:window-y="-8"
     inkscape:window-maximized="1"
     inkscape:current-layer="svg8" />
  <rect
     fill="none"
     height="24"
     width="24"
     id="rect2" />
  <rect
     height="2"
     opacity=".3"
     width="14"
     x="4.4551973"
     y="6.4874554"
     id="rect4"
     style="opacity:1;fill:#2E8D9A;fill-opacity:1" />
  <path
     d="M5,10h14v2h2V6c0-1.1-0.9-2-2-2h-1V2h-2v2H8V2H6v2H5C3.89,4,3.01,4.9,3.01,6L3,20c0,1.1,0.89,2,2,2h7v-2H5V10z M5,6h14v2H5 V6z M22.84,16.28l-0.71,0.71l-2.12-2.12l0.71-0.71c0.39-0.39,1.02-0.39,1.41,0l0.71,0.71C23.23,15.26,23.23,15.89,22.84,16.28z M19.3,15.58l2.12,2.12l-5.3,5.3H14v-2.12L19.3,15.58z"
     id="path6"
     style="fill:#274690;fill-opacity:1" />
</svg>
