<svg width="74" height="57" viewBox="0 0 74 57" fill="none" xmlns="http://www.w3.org/2000/svg">
<path d="M31.4332 23.2155C29.9731 23.5868 28.833 24.5107 28.2715 25.6284C27.2384 24.9162 25.7916 24.6503 24.3315 25.0217C22.8714 25.393 21.7313 26.3169 21.1698 27.4346C20.1367 26.7224 18.6899 26.4565 17.2298 26.8279C15.7697 27.1992 14.6298 28.1249 14.0683 29.2426C14.0085 28.6807 13.9622 27.9682 13.9622 27.3919C13.9622 19.261 19.7152 12.3164 27.9403 10.4019M31.4332 23.2155C32.8933 22.8441 34.3401 23.11 35.3732 23.8222C35.9347 22.7044 37.0748 21.7806 38.5349 21.4092C39.995 21.0379 41.4418 21.3038 42.4749 22.0159C43.0364 20.8982 44.1765 19.9744 45.6366 19.603C47.8411 19.0423 50.0182 19.6658 50.8027 21.3536M31.4332 23.2155L37.2307 44.5916M27.9403 10.4019C29.4416 10.0525 31.3454 9.98243 32.9653 9.98243C41.2339 9.98243 48.1969 14.6178 50.8072 21.3652M27.9403 10.4019L27.518 8.51416" stroke="#214187" stroke-width="1.3" stroke-linecap="round" stroke-linejoin="round"/>
<path d="M59.2635 51.5002C55.5744 44.7973 45.4822 39.9861 33.6104 39.9861C25.4725 39.9861 18.1708 42.2468 13.1946 45.8278M59.2635 51.5002H13.1946M59.2635 51.5002H65.3918" stroke="#214187" stroke-width="1.3" stroke-linecap="round"/>
<path d="M58.1198 22.3311C58.1198 23.2718 58.1198 23.4053 58.1198 24.2501M65.3916 26.244L63.5429 27.3561M50.8071 34.8937L52.3423 33.8675M50.8071 26.244L52.7261 27.3983M65.3916 34.8937L63.7283 33.9671M58.1198 37.2994V39.2184M62.2282 30.7748C62.2282 33.0496 60.3888 34.8937 58.1198 34.8937C55.8509 34.8937 54.0115 33.0496 54.0115 30.7748C54.0115 28.5 55.8509 26.656 58.1198 26.656C59.5578 26.656 60.8231 27.3966 61.5572 28.5181C61.9814 29.1663 62.2282 29.9416 62.2282 30.7748Z" stroke="#214187" stroke-width="1.3" stroke-linecap="round"/>
</svg>
