<svg xmlns="http://www.w3.org/2000/svg" viewBox="0 0 344.42 311.78"><g id="Layer_2" data-name="Layer 2"><g id="Layer_1-2" data-name="Layer 1"><path d="M0,88.66C3.22,77.4,7.44,66.76,16.41,58.57,27.46,48.48,40.62,44.69,55.23,44.73c16.76,0,33.51,0,51.12,0,0-5.65-.09-10.74,0-15.81C106.73,11.65,117.84.33,135.19.17q37-.34,73.92,0C226.94.3,237.87,11.54,238,29.32c0,4.87,0,9.75,0,15.42,10.44,0,20.23-.07,30,0,9.62.09,19.3-.23,28.86.65C324.37,47.93,343.77,68,344,95.54q.75,82.65,0,165.31c-.29,29.4-22.37,50.58-52.46,50.7q-119.28.51-238.57,0C25.8,311.51,7.31,296,.93,269.21A7.59,7.59,0,0,0,0,267.49ZM172,298.71v-.17c41.21,0,82.42.38,123.62-.15,20.42-.27,36-17.29,36-37.71q0-80.28-.15-160.57C331.43,73,316,57.66,289,57.65q-116.91,0-233.81,0c-27,0-42.37,15.41-42.42,42.57q-.12,77.94,0,155.88a57.23,57.23,0,0,0,1.38,14c4.56,18,19.23,28.56,39.59,28.61C93.15,298.79,132.57,298.71,172,298.71Zm52.8-254.22c0-6.3.26-11.87-.06-17.41-.47-8.07-5.58-13.66-13.63-13.75-26.2-.3-52.4-.19-78.59-.05-5.93,0-11,3.18-12.26,8.75-1.65,7.17-1.55,14.74-2.21,22.26h12.59c3.22-18.44,7.6-22,26.43-22,11.64,0,23.34-.61,34.91.28,5.39.42,11.8,2.51,15.48,6.13s4.49,10.1,6.76,15.83ZM200,44.42c1.26-6.88-1.53-9.54-7.5-9.53-13.63,0-27.25-.09-40.88,0-6.75.06-8.16,2.2-6.64,9.48Z" fill="#274690"/><path d="M188.87,164.18c9,9.54,17.54,18.7,26.35,27.54,1.14,1.15,4,1.28,5.88.84a140.87,140.87,0,0,0,16.06-4.77c5-1.87,9.05-1.18,12.66,2.91,2.66,3,5.7,5.7,8.5,8.6,5.77,6,5.29,9.24-2.11,13.44-9.33,5.31-18.84,10.33-28.06,15.81a18.59,18.59,0,0,0-6.26,6.39c-5.63,9.66-10.78,19.6-16.32,29.31-3.44,6-7.29,6.47-12.39,1.81q-.5-.45-1-.93c-15.4-15.92-14.7-10.21-8-31.48,2.11-6.74,1.84-11.28-4.14-16-8-6.38-15-14-23.08-21.58-1.35,2.27-2.47,4.05-3.49,5.88q-14.64,26.42-29.27,52.84c-5.07,9.14-8,9.5-15.56,2-3.5-3.47-6.77-7.21-10.52-10.37-4.84-4.07-5.32-8.51-3.47-14.35,7.13-22.6,13.79-45.35,20.81-68,1.19-3.84.85-6.4-2.37-9.26-8.38-7.42-16.59-15.06-24.44-23-8.76-8.92-9.65-21.88-2.82-32.06s19.74-14.26,30.8-9.5a28.51,28.51,0,0,1,8.64,6.12c7.4,7.48,14.76,15,21.6,23,3.37,3.92,6.44,4.17,11,2.73,22.37-7.1,44.88-13.78,67.25-20.89,5.6-1.78,9.82-1.25,13.72,3.45s8.37,8.73,12.42,13.22c5,5.54,4.42,9-2.21,12.7-17.77,9.93-35.61,19.73-53.42,29.61C193.53,161.3,191.51,162.6,188.87,164.18Zm-73.25,79.63c1.13-1.86,2.31-3.73,3.39-5.65q14.82-26.31,29.61-52.63c4.36-7.72,7.52-8.24,13.91-2.25,11.11,10.42,22.06,21,33.29,31.27,4.15,3.79,5.6,7.63,3.55,13.06-2,5.21-3,10.77-5,16-1.51,4.06-.19,6.29,3.95,8.2,4.67-8.47,9.05-17,14-25.14a23.85,23.85,0,0,1,7.74-7.74c8.16-5,16.67-9.33,25.15-14-1.89-4.22-4.2-5.44-8.21-4-5.46,2-11.21,3.15-16.64,5.18-5,1.85-8.42.51-11.87-3.23-10.47-11.36-21.18-22.49-31.76-33.75-5.93-6.31-5.44-9.88,2-14.07C196.75,145,214.74,135,232.7,125c1.82-1,3.55-2.24,5.11-3.23-4.11-8.1-9.65-8.59-17.37-6.06-21.23,7-42.8,12.9-64.08,19.72-6.28,2-10.42.81-14.68-4.06-7.37-8.41-15.28-16.35-23-24.44-7-7.32-14.75-8.16-20.45-2.34-5.89,6-5,13,2.82,20.39,8.26,7.88,16.43,15.88,24.92,23.5,4.44,4,5.29,8,3.49,13.71-6.76,21.3-12.75,42.86-19.82,64.05C107,234,107.15,239.56,115.62,243.81Z" fill="#2e8d9a"/></g></g></svg>