<svg xmlns="http://www.w3.org/2000/svg" viewBox="0 0 24 24"><g id="Layer_2" data-name="Layer 2"><g id="Layer_1-2" data-name="Layer 1"><path d="M0,0H24V24H0Z" fill="none"/><path d="M4,8.54A4,4,0,0,1,6,12a4,4,0,0,1-2,3.46V18H20V6H4Zm4.13,4,1.26,1,2.39-.64L9.39,8.72l1.4-.38,4,3.74,2.44-.65a1,1,0,0,1,1.18.68,1,1,0,0,1-.69,1.19L8.87,15.66,7.21,12.78Z" fill="#2E8D9A"/><path d="M21.19,3H5A2,2,0,0,0,3,5V9a2,2,0,0,1,0,4v4a2,2,0,0,0,2,2H21a2,2,0,0,0,2-2V5A1.91,1.91,0,0,0,21.19,3ZM21,17H5V14.46A4,4,0,0,0,5,7.54V5H21Z" fill="#274690"/><path d="M17.73,13.3a1,1,0,0,0,.69-1.19,1,1,0,0,0-1.18-.68l-2.44.65-4-3.74-1.4.38,2.4,4.16-2.39.64-1.26-1-.93.25,1.66,2.88Z" fill="#fff"/></g></g></svg>