<svg xmlns="http://www.w3.org/2000/svg" viewBox="0 0 24 24"><g id="Layer_2" data-name="Layer 2"><g id="Layer_1-2" data-name="Layer 1"><path d="M0,0H24V24H0Z" fill="none"/><path d="M18.5,10.2c0,2.57-2.1,5.79-6.16,9.51L12,20l-.34-.31C7.6,16,5.5,12.77,5.5,10.2a6.5,6.5,0,1,1,13,0Z" fill="#2CB1A6"/><path d="M13,10c1.33,0,4,.67,4,2v.16a5.27,5.27,0,0,1-8,0V12C9,10.67,11.67,10,13,10Zm0-1a2,2,0,1,1,2-2A2,2,0,0,1,13,9Zm6,.2a6,6,0,1,0-12,0c0,2.34,1.95,5.44,6,9.14C17.05,14.64,19,11.54,19,9.2ZM13,1a8,8,0,0,1,8,8.2q0,5-8,11.8Q5,14.18,5,9.2A8,8,0,0,1,13,1Z" fill="#47235C"/></g></g></svg>