<svg width="82" height="64" viewBox="0 0 82 64" fill="none" xmlns="http://www.w3.org/2000/svg">
<path d="M55.0628 24.5803L55.0628 12.2174C55.0628 11.0615 54.1258 10.1245 52.9699 10.1245H42.8341L24.1054 10.0126C22.9447 10.0056 22 10.9447 22 12.1054V48.3172C22 49.473 22.937 50.4101 24.0929 50.4101H34.3683M27.1317 29.8992H45.4M27.1317 35.8992H41.2M27.1317 41.3992H32.4159H37.7" stroke="#214187" stroke-width="1.33944" stroke-linecap="round" stroke-linejoin="round"/>
<path d="M53.5162 30.8471L41.0784 43.2849C40.9924 43.3709 40.922 43.4712 40.8703 43.5813L38.7028 48.1992C38.2851 49.0891 39.2096 50.0136 40.0995 49.5959L44.7174 47.4284C44.8275 47.3767 44.9278 47.3063 45.0138 47.2203L57.4516 34.7825M53.5162 30.8471L54.8152 29.548C55.902 28.4613 57.6639 28.4613 58.7507 29.548V29.548C59.8374 30.6348 59.8374 32.3967 58.7507 33.4835L57.4516 34.7825M53.5162 30.8471L57.4516 34.7825" stroke="#214187" stroke-width="1.33944"/>
<path d="M42.9763 19.962C42.9352 20.3599 42.8435 20.7404 42.7081 21.0976C42.0026 22.9595 40.1123 24.1903 38.0381 23.9762C36.736 23.8418 35.7264 23.4719 35 22.5M34.0917 20.4096C34.0011 19.9697 33.9753 19.5086 34.0239 19.038C34.279 16.5658 36.4899 14.7686 38.9621 15.0238C40.4151 15.1737 41.793 15.8429 42.5 17" stroke="#214187" stroke-linecap="round"/>
<path d="M36.5038 22.0436L34.7923 22.1277L34.8775 23.7508M41.162 17.1863L42.7513 17.0814L42.5223 15.4999" stroke="#214187" stroke-width="0.8" stroke-linecap="square" stroke-linejoin="round"/>
</svg>
