<svg xmlns="http://www.w3.org/2000/svg" viewBox="0 0 408.1 409.6"><g id="Layer_2" data-name="Layer 2"><g id="Layer_1-2" data-name="Layer 1"><path d="M235.88,0c14.91,6.4,20.63,18,19.2,33.81-.48,5.29-.08,10.66-.08,16C255,60,257.47,63.3,267.45,65c1.81.31,4.44-1.09,5.93-2.5,6.57-6.22,12.77-12.84,19.28-19.11,12.22-11.78,26.81-11.86,38.93,0q16.88,16.43,33.27,33.34c11.94,12.32,11.9,26.63.08,39-6.26,6.53-12.48,13.15-19.24,19.13-4.17,3.69-2.64,6.94-.83,10.54s1.83,8.86,8.54,8.41c9.26-.61,18.58-.28,27.88-.11,15.88.27,26.46,10.74,26.66,26.63q.32,24.39,0,48.79c-.18,16.36-10.72,26.69-27.19,26.91-9,.13-18.1.57-27.08-.15-6.67-.53-6.88,4.33-8.74,8.14s-3.35,7.35,1.08,11.2c6.61,5.75,12.58,12.24,18.67,18.57,12,12.46,12.23,26.66.36,38.95q-16.9,17.52-34.39,34.48c-10.07,9.7-24.2,10.54-34.06,2.58-4.09-3.3-6.74-7.23-3.38-12.36,3.23-4.92,7.83-5.29,12.4-2,5.67,4.1,10.2,2.76,14.74-1.88,10.61-10.84,21.46-21.44,32.05-32.3,5.83-6,5.79-9.63-.07-15.7-8-8.23-16-16.4-24.25-24.31-4.69-4.49-5.81-9-2.89-15a179.63,179.63,0,0,0,7.92-19.14c2.07-5.92,5.88-8.39,12-8.32q17.13.21,34.26,0c9.15-.11,11.4-2.3,11.48-11.38q.19-22.8,0-45.6c-.08-8.56-2.44-10.85-11.05-11-11.42-.15-22.85-.19-34.27,0-6.46.11-10.37-2.48-12.5-8.74a158.74,158.74,0,0,0-7.65-18.39c-2.83-5.82-2.33-10.43,2.51-15,8.29-7.88,16.28-16.08,24.25-24.3,6.17-6.37,6.19-10,0-16.29Q336.22,71.82,320,55.85c-5.88-5.78-9.75-5.74-15.7,0-8.2,8-16.34,16-24.21,24.33-4.48,4.73-9,5.8-14.91,2.88a179.4,179.4,0,0,0-19.06-8c-5.9-2.08-8.34-5.93-8.27-12q.21-17.2,0-34.4c-.11-9.17-2.29-11.42-11.36-11.49q-22.71-.19-45.42,0c-8.52.09-10.79,2.45-10.9,11.13-.16,11.46-.19,22.93,0,34.39.11,6.5-2.49,10.41-8.73,12.53A157,157,0,0,0,143.12,83c-5.8,2.84-10.38,2.3-15-2.55-7.84-8.32-16-16.35-24.2-24.34-6.29-6.14-10-6.15-16.26,0q-16.2,16-32.1,32.25c-5.84,6-5.81,9.64,0,15.7,8,8.23,16,16.41,24.24,24.31,4.7,4.48,5.83,9,2.92,15a180.72,180.72,0,0,0-7.93,19.15c-2.07,5.91-5.87,8.4-12,8.33q-17.13-.21-34.27,0c-9.15.11-11.4,2.29-11.48,11.37q-.19,22.8,0,45.59c.09,8.57,2.44,10.87,11,11,11.42.15,22.84.19,34.26,0,6.46-.11,10.38,2.46,12.51,8.73a157,157,0,0,0,7.65,18.39c2.82,5.82,2.35,10.43-2.49,15-8.3,7.88-16.29,16.08-24.25,24.3-6.18,6.38-6.21,10,0,16.3C66.48,332.35,77.29,343,87.94,353.79c4.33,4.39,8.77,5.54,14.13,1.72,4.51-3.21,9.16-3.26,12.52,1.6,3.76,5.44.83,9.51-3.63,12.87-9.07,6.82-23.08,6.82-31.69-1.27-13.36-12.57-26.41-25.53-38.83-39-9-9.8-8.16-23.93,1.16-34.13a223,223,0,0,1,19.76-19.73c5-4.25,3.27-7.86,1.5-12.54-1.88-4.93-3.91-8-10.07-7.45-7.91.69-15.94-.15-23.89.24-14.48.7-23.17-6.95-28.9-19.27v-64c6.37-14.93,17.82-20.64,33.62-19.3,6.84.59,13.84-.46,20.66.26,6.66.69,6.88-4.31,8.74-8.11s3.44-7.3-1-11.18c-6.79-5.92-13-12.56-19.2-19.11-11.47-12.06-11.51-26.3.06-38.31C53.74,65.76,64.83,54.67,76,43.69c12.38-12.17,27.07-12.18,39.48-.18,6.49,6.28,12.67,12.89,19.23,19.1,1.47,1.39,4.14,2.71,5.94,2.37C150.87,63.06,153,60.16,153,49.71c0-5.32.41-10.68-.07-16C151.49,17.9,157.25,6.39,172.13,0Z" fill="#274690"/><path d="M157.78,409.6c-1.59-4.53-4.53-9.05-4.57-13.6-.35-42.05-.21-84.11-.2-126.16,0-2.13-.69-4.88.35-6.25,2.18-2.88,5.11-6.57,8.12-7,2.36-.32,5.81,3.43,7.82,6.09,1.21,1.61.79,4.61.79,7,0,42.06,0,84.11.08,126.17,0,5.62-.7,10.62-6,13.75Z" fill="#2e8d9a"/><path d="M243.85,409.6c-2-4.05-5.66-8.09-5.7-12.16-.42-43.11-.26-86.24-.25-129.36,0-6.09,1.35-11.88,8.69-11.78s8.46,5.73,8.45,11.94c-.07,42.85.1,85.71-.25,128.56,0,4.28-3,8.53-4.57,12.8Z" fill="#2e8d9a"/><path d="M200.82,409.6c-1.73-3.64-4.82-7.24-5-10.94-.56-15.41-.19-30.85-.25-46.28,0-6.12,2-10.91,8.79-10.68,6.34.21,8,5,8,10.68-.06,15.43.3,30.87-.26,46.28-.13,3.7-3.22,7.3-4.95,10.94Z" fill="#2e8d9a"/><path d="M204.49,228.64c4.32-5.28,7.69-9,10.65-13.08,6.63-9.06,15.39-12.44,26.35-10.8,2.34.35,4.78,0,7.16.19,22,1.46,39.14,18.12,39.86,40.22.75,22.9.29,45.85.36,68.78,0,5.92-2.42,10.15-8.72,10-5.84-.17-8-4.34-8-9.88,0-20.53-.19-41.06,0-61.59.27-24.42-14.8-32.66-37.35-30.24-2.05.22-4.14,2.15-5.78,3.74-5.94,5.72-11.71,11.62-17.51,17.48-5.13,5.19-10.13,5-15.17-.13-4.28-4.37-9.2-8.25-12.84-13.09-8.63-11.49-20-9.67-30.91-6.26-11.86,3.69-16.56,13.52-16.66,25.49-.16,18.93-.05,37.86-.05,56.79,0,2.4,0,4.8,0,7.2.1,5.78-1.87,10.38-8.23,10.49s-8.59-4.28-8.54-10.16c0-3.73,0-7.46,0-11.19,0-17.33-.13-34.67,0-52,.27-28.37,17.71-45.06,46-46,12.18-.41,21.71,2.38,29,12.29C196.66,220.24,199.73,223.25,204.49,228.64Z" fill="#2e8d9a"/><path d="M203.88,187.49c-23.4-.06-42.68-19.52-42.36-42.76s19.85-42.58,43-42.27c22.87.3,41.89,19.58,41.95,42.52A42.6,42.6,0,0,1,203.88,187.49Zm.05-67.78a25.4,25.4,0,0,0-25.39,25.23,25.81,25.81,0,0,0,25.14,25.69c14,.23,25.92-11.7,25.79-25.83A25.41,25.41,0,0,0,203.93,119.71Z" fill="#2e8d9a"/><path d="M212.39,46.19c0,6.22.07,12.13-7,12.88-2.61.28-7.53-1.67-7.87-3.34a47.81,47.81,0,0,1-.42-16.95c.3-1.83,5-4.34,7.53-4.17C212,35.14,212.65,41,212.39,46.19Z" fill="#274690"/><path d="M48.22,215.06c-6.9-1.71-12.68-1.85-13.57-8.84-.33-2.58,1.71-7.61,3.29-7.88a50.3,50.3,0,0,1,17.52-.09c1.64.3,4.18,6.91,3.14,8.4C56.15,210.16,51.8,212.34,48.22,215.06Z" fill="#274690"/><path d="M362.83,196.18c1.57.41,5.25.38,7.36,2.2s3.52,5.65,3,8.11-3.57,5.4-6.07,6.12c-3.66,1-8.21,1.27-11.67-.05-2.75-1.05-6.33-5.11-6.11-7.52.27-3,3.84-5.89,6.51-8.24C356.94,195.83,359.4,196.41,362.83,196.18Z" fill="#274690"/><path d="M193.89,276.09c2.42-3.58,4.09-8.53,7.46-10.42,4.85-2.73,9.28.11,10.61,5.79.65,2.79.41,5.81.38,8.72-.06,5.45-2.14,9.47-8.2,9.55s-8.29-3.75-8.48-9.27c0-1.06,0-2.12,0-3.19Z" fill="#2e8d9a"/><path d="M212.39,311.93c-.08,9.1-4.1,13.57-10.58,11.71-5.43-1.55-6.29-5.84-6.18-10.65.11-5.22-1-11.08,5.52-13.54C208,296.86,212.47,301.93,212.39,311.93Z" fill="#2e8d9a"/></g></g></svg>