<?xml version="1.0" encoding="UTF-8" standalone="no"?>
<svg
   viewBox="0 0 24 24"
   version="1.1"
   id="svg21610"
   sodipodi:docname="entdab.svg"
   inkscape:version="1.2 (dc2aedaf03, 2022-05-15)"
   xmlns:inkscape="http://www.inkscape.org/namespaces/inkscape"
   xmlns:sodipodi="http://sodipodi.sourceforge.net/DTD/sodipodi-0.dtd"
   xmlns="http://www.w3.org/2000/svg"
   xmlns:svg="http://www.w3.org/2000/svg">
  <defs
     id="defs21614" />
  <sodipodi:namedview
     id="namedview21612"
     pagecolor="#ffffff"
     bordercolor="#000000"
     borderopacity="0.25"
     inkscape:showpageshadow="2"
     inkscape:pageopacity="0.0"
     inkscape:pagecheckerboard="0"
     inkscape:deskcolor="#d1d1d1"
     showgrid="false"
     inkscape:zoom="34.875"
     inkscape:cx="11.985663"
     inkscape:cy="12.043011"
     inkscape:window-width="1920"
     inkscape:window-height="1017"
     inkscape:window-x="-8"
     inkscape:window-y="-8"
     inkscape:window-maximized="1"
     inkscape:current-layer="Layer_2" />
  <g
     id="Layer_2"
     data-name="Layer 2">
    <g
       id="Layer_1-2"
       data-name="Layer 1">
      <path
         d="M0,0H24V24H0Z"
         fill="none"
         id="path21602" />
      <path
         d="M18.5,10.2c0,2.57-2.1,5.79-6.16,9.51L12,20l-.34-.31C7.6,16,5.5,12.77,5.5,10.2a6.5,6.5,0,1,1,13,0Z"
         fill="#2e8d9a"
         id="path21604"
         style="fill:#6ebe8a;fill-opacity:1" />
      <path
         d="M13,10c1.33,0,4,.67,4,2v.16a5.27,5.27,0,0,1-8,0V12C9,10.67,11.67,10,13,10Zm0-1a2,2,0,1,1,2-2A2,2,0,0,1,13,9Zm6,.2a6,6,0,1,0-12,0c0,2.34,1.95,5.44,6,9.14C17.05,14.64,19,11.54,19,9.2ZM13,1a8,8,0,0,1,8,8.2q0,5-8,11.8Q5,14.18,5,9.2A8,8,0,0,1,13,1Z"
         fill="#274690"
         id="path21606"
         style="fill:#005430;fill-opacity:1" />
    </g>
  </g>
</svg>
