<svg width="82" height="64" viewBox="0 0 82 64" fill="none" xmlns="http://www.w3.org/2000/svg">
<path d="M39.2236 15.2742C39.763 13.6141 42.1116 13.6141 42.651 15.2742L45.3873 23.6958C45.6285 24.4382 46.3204 24.9408 47.101 24.9408H55.956C57.7015 24.9408 58.4273 27.1745 57.0151 28.2005L49.8513 33.4053C49.2197 33.8641 48.9555 34.6774 49.1967 35.4199L51.933 43.8414C52.4724 45.5015 50.5724 46.882 49.1602 45.856L41.9964 40.6512C41.3649 40.1923 40.5097 40.1923 39.8782 40.6512L32.7143 45.856C31.3022 46.882 29.4021 45.5015 29.9415 43.8414L32.6779 35.4199C32.9191 34.6774 32.6548 33.8641 32.0233 33.4053L24.8595 28.2005C23.4473 27.1745 24.1731 24.9408 25.9186 24.9408H34.7736C35.5542 24.9408 36.246 24.4382 36.4873 23.6958L39.2236 15.2742Z" stroke="#214187" stroke-width="1.4" stroke-linecap="round" stroke-linejoin="round"/>
<path d="M27.4232 35.1139L22.3777 38.7797C20.9655 39.8057 19.0654 38.4253 19.6048 36.7652L21.1275 32.0788C21.3688 31.3364 21.1045 30.5231 20.473 30.0642L16.4865 27.1679C15.0743 26.1419 15.8001 23.9083 17.5456 23.9083H22.4732C23.2538 23.9083 23.9456 23.4056 24.1868 22.6632L25.7095 17.9768C26.2489 16.3167 28.5975 16.3167 29.1369 17.9768L30.3506 21.712" stroke="#214187" stroke-width="1.4" stroke-linecap="round" stroke-linejoin="round"/>
<path d="M55.5768 35.1139L60.6223 38.7797C62.0345 39.8057 63.9346 38.4253 63.3952 36.7652L61.8725 32.0788C61.6312 31.3364 61.8955 30.5231 62.527 30.0642L66.5135 27.1679C67.9257 26.1419 67.1999 23.9083 65.4544 23.9083H60.5268C59.7462 23.9083 59.0544 23.4056 58.8132 22.6632L57.2905 17.9768C56.7511 16.3167 54.4025 16.3167 53.8631 17.9768L52.6494 21.712" stroke="#214187" stroke-width="1.4" stroke-linecap="round" stroke-linejoin="round"/>
</svg>
