<?xml version="1.0" encoding="UTF-8" standalone="no"?>
<svg
   viewBox="0 0 24 24"
   version="1.1"
   id="svg23201"
   sodipodi:docname="events.svg"
   inkscape:version="1.2 (dc2aedaf03, 2022-05-15)"
   xmlns:inkscape="http://www.inkscape.org/namespaces/inkscape"
   xmlns:sodipodi="http://sodipodi.sourceforge.net/DTD/sodipodi-0.dtd"
   xmlns="http://www.w3.org/2000/svg"
   xmlns:svg="http://www.w3.org/2000/svg">
  <defs
     id="defs23205" />
  <sodipodi:namedview
     id="namedview23203"
     pagecolor="#ffffff"
     bordercolor="#000000"
     borderopacity="0.25"
     inkscape:showpageshadow="2"
     inkscape:pageopacity="0.0"
     inkscape:pagecheckerboard="0"
     inkscape:deskcolor="#d1d1d1"
     showgrid="false"
     inkscape:zoom="34.875"
     inkscape:cx="11.928315"
     inkscape:cy="12.071685"
     inkscape:window-width="1920"
     inkscape:window-height="1017"
     inkscape:window-x="-8"
     inkscape:window-y="-8"
     inkscape:window-maximized="1"
     inkscape:current-layer="svg23201" />
  <g
     id="Layer_2"
     data-name="Layer 2">
    <g
       id="Layer_1-2"
       data-name="Layer 1">
      <rect
         width="24"
         height="24"
         fill="none"
         id="rect23193" />
      <rect
         x="4.0286741"
         y="6.4587812"
         width="14"
         height="2"
         fill="#2e8d9a"
         id="rect23195"
         style="fill:#dbc38f;fill-opacity:1" />
      <path
         d="M19,4H18V2H16V4H8V2H6V4H5A2,2,0,0,0,3,6V20a2,2,0,0,0,2,2H19a2,2,0,0,0,2-2V6A2,2,0,0,0,19,4Zm0,16H5V10H19ZM19,8H5V6H19ZM9,14H7V12H9Zm4,0H11V12h2Zm4,0H15V12h2ZM9,18H7V16H9Zm4,0H11V16h2Zm4,0H15V16h2Z"
         fill="#274690"
         id="path23197"
         style="fill:#00612a;fill-opacity:1" />
    </g>
  </g>
</svg>
