<svg xmlns="http://www.w3.org/2000/svg" viewBox="0 0 370.88 370.87"><g id="Layer_2" data-name="Layer 2"><g id="Layer_1-2" data-name="Layer 1"><path d="M190.89,286.89h-8.67q-80.68,0-161.37,0c-13.75,0-20.8-7-20.81-20.59Q0,182.61.18,98.94a15.8,15.8,0,0,1,3.87-9.7q39.21-42.58,79-84.63A15.54,15.54,0,0,1,93.13.2Q214.9-.17,336.67,0c15.63,0,21.94,6.47,21.94,22.45q0,103.47.12,206.93a30.63,30.63,0,0,0,2.72,12c15.4,34.63,12.29,67.52-11.9,96.54-24.38,29.24-56.73,39.47-93.38,28.75-36.17-10.58-57.42-36-63.76-73.4-.21-1.22-.4-2.45-.66-3.67C191.6,288.93,191.32,288.23,190.89,286.89Zm90.25-83.65c-42.6-.11-77.63,34.55-77.89,77.07a77.88,77.88,0,0,0,77.44,78.27c42.59.11,77.63-34.56,77.9-77.08A77.85,77.85,0,0,0,281.14,203.24ZM334.71,71.67v9c0,39.58.4,79.17-.28,118.74-.17,9.9,4.78,14.4,12.23,19.63v-7.68q0-94.09,0-188.2C346.66,12.67,345.91,12,335,12H94.23c-5.54,20-11,39.53-16.58,59.71ZM24.14,90.75c-9.53,4.51-12.24,11.16-12.23,19.84.12,51,.05,102.06.06,153.09,0,10.52.77,11.25,11.69,11.25H191.25c.58-4.05,1.09-7.63,1.71-12H24.14Zm191.41,53v47.05h46.93V143.76ZM143,250.66V203.77H96v46.89ZM202.9,84.07h-47V131h47Zm12.63-.1v47.1h47V84Zm59.94,0V130.9h46.89V84ZM83.36,203.74H36.47v46.89H83.36Zm-47-60.15v47.15H83.1V143.59ZM96,190.73h46.88V143.84H96ZM156,143.61v47.15h46.62V143.61ZM322.3,199.13V144H275.51v45.19ZM96.27,83.84V131h46.62V83.84Zm59.66,119.67V251c12.64,0,24.78.16,36.91-.17,1.79,0,4.08-2.08,5.18-3.81,8.72-13.63,4.12-28.68,5.17-43.53ZM48.6,119.18C45.14,95.09,45.07,95,36.35,92v39H83.17V84.3C76,81.9,73.4,85,72,91.26c-2.13,9.4-5,18.62-7.61,27.92ZM31.06,77.56c12.68,1.59,21.08,7.75,27.14,19.35L76.48,31l-1.27-.67ZM215.58,219l18.78-15.38H215.58Z" fill="#274690"/><path d="M274.94,239.43h12c0,3.57.09,7.2,0,10.83-.23,7.35-.56,14,7,19.33,3.34,2.35,3.14,9.7,4.59,14.77.79,2.76.91,6.22,2.67,8.11,4.37,4.66,9.52,8.6,14.91,13.32l-11.15,10.75c-2.11-3.27-3.63-6.57-6-9.07-5.06-5.36-9.23-11.25-19-9.15-7.1,1.52-12.94-4.13-15.68-11.35s-1.42-14.56,4.75-18.82c5.76-4,6.35-8.53,6-14.39C274.73,249.11,274.94,244.43,274.94,239.43Zm5.9,32.71c-2.8,4.44-5.54,6.9-5.42,9.2.11,1.91,3.61,5.06,5.57,5s5.35-3.26,5.42-5.19C286.49,278.9,283.7,276.5,280.84,272.14Z" fill="#2e8d9a"/><path d="M281.23,229.37c-2.85-3.5-6.06-5.78-5.8-7.56.34-2.39,3.37-4.38,5.25-6.55,2,2,5.23,3.75,5.74,6.08C286.8,223.13,283.78,225.64,281.23,229.37Z" fill="#2e8d9a"/><path d="M247.57,239.51c-4.24,2.53-6.75,5.2-9,5-1.91-.16-5.32-4.18-4.91-5.54.7-2.31,3.7-5,6.06-5.38C241.48,233.34,243.77,236.5,247.57,239.51Z" fill="#2e8d9a"/><path d="M323.09,230.58c2.58,4.21,5.28,6.68,5.12,9-.13,1.91-4.11,5.37-5.47,5-2.32-.68-5.07-3.65-5.45-6C317,236.73,320.14,234.4,323.09,230.58Z" fill="#2e8d9a"/><path d="M221.16,272.41c2.8,3.94,5.86,6.41,5.49,8.17-.49,2.36-3.36,5.19-5.73,5.8-1.35.35-5.22-3.31-5.26-5.23C215.6,278.85,218.42,276.48,221.16,272.41Z" fill="#2e8d9a"/><path d="M349.16,281c-4.08,2.7-6.46,5.5-8.76,5.43-1.92-.06-5.55-3.95-5.19-5.31.61-2.36,3.48-5.22,5.84-5.69C342.81,275.05,345.26,278.14,349.16,281Z" fill="#2e8d9a"/><path d="M239.42,314.25c2.58,4.21,5.28,6.69,5.12,9-.13,1.91-4.11,5.37-5.47,5-2.32-.67-5.08-3.64-5.45-6C233.33,320.41,236.47,318.08,239.42,314.25Z" fill="#2e8d9a"/><path d="M323.26,314.26c2.49,4.26,5.15,6.79,4.94,9.06-.17,1.91-4.22,5.29-5.57,4.87-2.31-.72-5-3.74-5.33-6.11C317.05,320.3,320.22,318,323.26,314.26Z" fill="#2e8d9a"/><path d="M280.37,332.21c3,3.71,6.26,6,6,7.75-.33,2.39-3,5.43-5.32,6.2-1.33.43-5.46-3-5.63-4.86C275.23,339,277.9,336.46,280.37,332.21Z" fill="#2e8d9a"/><path d="M96,59.25V24.3H334.1v35ZM322.42,36.37H107.92V47.44h214.5Z" fill="#274690"/><path d="M277.29,170.74l7.95-7,8.39,7.45c5.62-6.92,11.33-13.94,17.67-21.76l7.59,9.6L292,185.77Z" fill="#2e8d9a"/><path d="M112.24,125.86,97.47,111.37l8.86-7L114,111l19-20.54,6.58,8.64Z" fill="#2e8d9a"/><path d="M200.51,219.06,173,246.53l-14.38-16.26,7.56-6.37,8,7.11,17.74-21.83Z" fill="#2e8d9a"/></g></g></svg>