<svg width="21" height="20" viewBox="0 0 21 20" fill="none" xmlns="http://www.w3.org/2000/svg">
<g id="Group 623">
<path id="Vector" d="M8.01663 2.36664L3.52496 5.86664C2.77496 6.44997 2.16663 7.69164 2.16663 8.63331V14.8083C2.16663 16.7416 3.74163 18.325 5.67496 18.325H15.325C17.2583 18.325 18.8333 16.7416 18.8333 14.8166V8.74997C18.8333 7.74164 18.1583 6.44997 17.3333 5.87497L12.1833 2.26664C11.0166 1.44997 9.14163 1.49164 8.01663 2.36664Z" stroke="#29B3B4" stroke-width="1.5" stroke-linecap="round" stroke-linejoin="round"/>
<path id="Vector_2" d="M9.875 14.9917C9.875 15.3369 10.1548 15.6167 10.5 15.6167C10.8452 15.6167 11.125 15.3369 11.125 14.9917V12.4917C11.125 12.1465 10.8452 11.8667 10.5 11.8667C10.1548 11.8667 9.875 12.1465 9.875 12.4917V14.9917Z" stroke="#29B3B4" stroke-width="1.25" stroke-linecap="round" stroke-linejoin="round"/>
</g>
</svg>
