<?xml version="1.0" encoding="UTF-8" standalone="no"?>
<svg
   id="Layer_1"
   data-name="Layer 1"
   viewBox="0 0 122.88 107.54"
   version="1.1"
   sodipodi:docname="travel-icon.svg"
   inkscape:version="1.2 (dc2aedaf03, 2022-05-15)"
   xmlns:inkscape="http://www.inkscape.org/namespaces/inkscape"
   xmlns:sodipodi="http://sodipodi.sourceforge.net/DTD/sodipodi-0.dtd"
   xmlns="http://www.w3.org/2000/svg"
   xmlns:svg="http://www.w3.org/2000/svg"
   xmlns:rdf="http://www.w3.org/1999/02/22-rdf-syntax-ns#"
   xmlns:cc="http://creativecommons.org/ns#"
   xmlns:dc="http://purl.org/dc/elements/1.1/">
  <defs
     id="defs9" />
  <sodipodi:namedview
     id="namedview7"
     pagecolor="#ffffff"
     bordercolor="#000000"
     borderopacity="0.25"
     inkscape:showpageshadow="2"
     inkscape:pageopacity="0.0"
     inkscape:pagecheckerboard="0"
     inkscape:deskcolor="#d1d1d1"
     showgrid="false"
     inkscape:zoom="7.7831504"
     inkscape:cx="61.093513"
     inkscape:cy="53.834242"
     inkscape:window-width="1920"
     inkscape:window-height="1017"
     inkscape:window-x="-8"
     inkscape:window-y="-8"
     inkscape:window-maximized="1"
     inkscape:current-layer="Layer_1" />
  <title
     id="title2">travel</title>
  <path
     d="M88.42,68.75a48.8,48.8,0,0,1-4.74,11.1h9.89a7.67,7.67,0,0,0,1.35.65h0a7,7,0,0,0,6.68-1l2.72-1.85a53.3,53.3,0,0,1-4.25,7.66,50.16,50.16,0,0,1-13.6,13.59,52,52,0,0,1-8.6,4.67,49.29,49.29,0,0,1-9.57,3,52.37,52.37,0,0,1-20.27,0,49,49,0,0,1-9.41-2.91l-.16-.06a52.41,52.41,0,0,1-8.6-4.67,49.81,49.81,0,0,1-7.46-6.14c-1-1-1.94-2-2.85-3.1a48.57,48.57,0,0,1,4.54-3.46q1.13,1.31,2.34,2.52h0a43.34,43.34,0,0,0,6.59,5.43,47.51,47.51,0,0,0,7.69,4.16l.13.06a42.89,42.89,0,0,0,8.3,2.55c.71.14,1.44.27,2.17.37a90.25,90.25,0,0,1-16-17.24h-8c3-1.9,6.34-3.75,9.65-5.49.25.43.51.85.78,1.27H56V69.62l1.4-.59a6.73,6.73,0,0,0,3,2.93v7.89H78.57c4.34-6.81,6.68-13.67,7-20.57l2.88,9.47ZM51.35,52.45c.68-2.17,2.57-3.91,5.31-5.67L47.3,35.84c-.63-.55-.47-1,.12-1.39l3.11-1.33a1.82,1.82,0,0,1,1.51.19l13.59,6.85,16-9.25L59.51,3.41c-.57-.63-.49-1.12.4-1.44l5-2L98.15,21.46l12-5.83c4.57-2,8.51-2.32,11-.83a2.9,2.9,0,0,1,1.78,3c.05,3-2.46,6.24-6.89,9l-12.47,4.86-1,39.53-4.46,3c-.77.55-1.22.35-1.42-.48L86.37,40l-16.64,8L67.73,63A1.85,1.85,0,0,1,67,64.38L64.17,66.2c-.65.26-1.11.14-1.2-.69l-3.76-13.9c-3,1.28-5.52,1.86-7.7,1.18-.2-.06-.22-.15-.16-.34Zm-4.2-6.93c-13.22,7-30.9,18.37-37.4,25C-11.51,92.41,5.08,109.47,29.92,102c-7.78-1.15-13.87-2.72-17.25-4.94-14.43-9.48,32-29.94,42.86-34.42l-.85-3.15a13.18,13.18,0,0,1-5.07-.53L49,58.69a6.05,6.05,0,0,1-3.55-3.51l-.13-.35a6.08,6.08,0,0,1-.07-4.26,13.1,13.1,0,0,1,2.41-4.47l-.49-.58ZM8,63.11A53.31,53.31,0,0,1,7.66,57a51.43,51.43,0,0,1,1-10.14,48.27,48.27,0,0,1,2.9-9.41l.06-.15a53.32,53.32,0,0,1,4.68-8.61,49.17,49.17,0,0,1,6.13-7.45,49.81,49.81,0,0,1,7.46-6.14,52.41,52.41,0,0,1,8.6-4.67,49.51,49.51,0,0,1,9.57-3,51.5,51.5,0,0,1,5.87-.82,9.24,9.24,0,0,0,.74,1l5.72,7.13V29.86H70.61l-5.19,3L56,28.12V14.71A104.13,104.13,0,0,0,41.56,29.86h1.33a6.85,6.85,0,0,0-2.17,3.5,5.42,5.42,0,0,0-.17.8l0,.09H38.48A51.72,51.72,0,0,0,32.74,46c-1.81,1.09-3.63,2.2-5.43,3.34a50.67,50.67,0,0,1,6-15.13H19.54a48.92,48.92,0,0,0-2.67,5.32l-.06.13A42.11,42.11,0,0,0,14.26,48a44.76,44.76,0,0,0-.82,6.82H19a130.39,130.39,0,0,0-11,8.3Zm77.51-3.9H74.7l.59-4.4h8.9l1.33,4.4ZM81,84.07a90.83,90.83,0,0,1-16,17.25c.73-.11,1.45-.24,2.17-.38a43.49,43.49,0,0,0,8.42-2.61,47.09,47.09,0,0,0,7.69-4.16,43.34,43.34,0,0,0,6.59-5.43h0A42.75,42.75,0,0,0,94,84.07ZM60.38,99.5A93.83,93.83,0,0,0,75.62,84.07H60.38V99.5ZM56,84.07H40.75A94.23,94.23,0,0,0,56,99.5V84.07ZM36.16,29.86A100.58,100.58,0,0,1,51.72,12.65c-.86.12-1.71.26-2.55.43a42,42,0,0,0-8.43,2.61,47.51,47.51,0,0,0-7.69,4.16,43.34,43.34,0,0,0-6.59,5.43h0a43.24,43.24,0,0,0-4,4.57Z"
     id="path4"
     style="opacity:1" />
  <path
     style="opacity:1;fill:#47235C;fill-opacity:1;stroke:#2CB1A6;stroke-width:1;paint-order:markers fill stroke"
     d="M 7.9817083,62.410461 C 7.8035489,61.289447 7.7417024,54.809772 7.8914506,52.954143 8.4901467,45.535302 10.630008,38.587125 14.339843,32.016074 18.003597,25.526643 23.454686,19.587755 29.544737,15.450548 35.893016,11.137916 42.560453,8.4238896 49.818864,7.1978237 c 2.592717,-0.4379532 4.142825,-0.5509479 4.235759,-0.3087648 0.03784,0.098602 1.463616,1.9124371 3.168394,4.0307441 l 3.0996,3.851467 v 7.548985 7.548985 l 5.002774,0.03361 5.002772,0.03361 -2.332355,1.349068 c -1.282795,0.741987 -2.400714,1.366626 -2.484263,1.388087 -0.08355,0.02146 -2.23922,-1.00495 -4.790381,-2.280914 L 56.082689,28.07277 v -6.680751 c 0,-3.674414 -0.0474,-6.680752 -0.105334,-6.680752 -0.41737,0 -6.910066,6.303134 -9.727482,9.443476 -1.915846,2.135438 -4.680537,5.45337 -4.683833,5.621117 -10e-4,0.053 0.263641,0.09636 0.588185,0.09636 h 0.590078 l -0.583135,0.648587 c -0.713154,0.793197 -1.31348,1.963243 -1.519787,2.962085 l -0.154592,0.748457 -1.081743,0.03676 -1.081742,0.03676 -0.890832,1.477551 c -1.643595,2.726098 -3.360295,6.340513 -4.533569,9.545174 -0.123965,0.338596 -0.34978,0.693455 -0.501812,0.788573 -0.152032,0.09512 -1.201497,0.738286 -2.332145,1.429257 -1.130647,0.690972 -2.185679,1.340024 -2.344513,1.442337 -0.282848,0.182196 -0.287078,0.177132 -0.205528,-0.246129 0.0458,-0.237683 0.331026,-1.308497 0.633851,-2.379586 0.992674,-3.511099 2.469026,-7.119187 4.232426,-10.343723 0.528041,-0.965568 0.960073,-1.78996 0.960073,-1.831985 0,-0.04202 -3.129283,-0.06145 -6.953963,-0.04318 l -6.953964,0.03323 -0.942462,1.797297 c -2.681574,5.113824 -4.200854,10.043782 -4.870379,15.804042 -0.106726,0.918219 -0.194047,2.001094 -0.194047,2.406391 v 0.736902 l 2.593166,0.03478 2.593165,0.03478 -1.019253,0.69965 c -2.499329,1.715624 -6.935328,5.077464 -8.6814182,6.579247 -0.3982556,0.342533 -0.7532875,0.622788 -0.78896,0.622788 -0.035672,0 -0.099317,-0.216815 -0.1414315,-0.48181 z M 37.264385,28.491034 c 3.68518,-4.975537 8.203521,-10.015641 12.556183,-14.006129 2.203638,-2.02028 2.204288,-2.005125 -0.06755,-1.573438 -8.07008,1.533448 -15.594834,5.265037 -21.723883,10.773057 -1.852354,1.664662 -5.016224,5.098719 -5.493707,5.962854 -0.117634,0.212892 0.243378,0.224844 6.790864,0.224844 h 6.915104 z"
     id="path2937" />
  <path
     style="opacity:1;fill:#47235C;fill-opacity:1;stroke:#2CB1A6;stroke-width:1;paint-order:markers fill stroke"
     d="M 97.048938,74.238774 C 96.937648,74.11076 94.516235,66.374151 91.668018,57.046309 88.819802,47.718466 86.4559,40.04965 86.414901,40.004496 c -0.041,-0.04516 -3.774843,1.701023 -8.297433,3.880395 -4.52259,2.179372 -8.271828,3.981599 -8.331638,4.004949 -0.05981,0.02335 -0.563912,3.480721 -1.120224,7.683046 -0.723752,5.467142 -1.076574,7.76851 -1.240321,8.090281 -0.168015,0.330155 -0.65445,0.731449 -1.829975,1.509671 -1.593499,1.054929 -2.024698,1.220172 -2.304443,0.883101 -0.08074,-0.09728 -1.010801,-3.371499 -2.066805,-7.276035 -1.056005,-3.904535 -1.947697,-7.126845 -1.981541,-7.160688 -0.03384,-0.03384 -0.536473,0.119828 -1.116955,0.341494 -2.333204,0.890966 -4.469558,1.221417 -5.929478,0.917171 -0.886698,-0.184788 -0.906669,-0.271962 -0.328085,-1.432168 0.511671,-1.026031 2.289195,-2.851004 3.797796,-3.899174 0.664789,-0.461894 1.026461,-0.792281 0.969029,-0.885209 -0.08239,-0.133301 -8.825819,-10.394683 -9.467092,-11.110673 -0.242733,-0.271015 -0.249118,-0.324252 -0.07561,-0.630473 0.141505,-0.249749 0.628834,-0.523465 1.92402,-1.080654 0.953984,-0.410405 1.886203,-0.748225 2.071597,-0.750715 0.192637,-0.0026 3.385918,1.531233 7.451995,3.579396 l 7.114915,3.58392 7.965926,-4.614995 C 78.001833,33.098889 81.580226,30.9474 81.572558,30.85605 81.564888,30.764702 76.592611,24.517329 70.523048,16.973001 64.453485,9.4286739 59.413996,3.1172707 59.324184,2.9476611 59.183915,2.6827671 59.194312,2.6058553 59.397914,2.4022539 59.528278,2.2718895 60.820119,1.6905097 62.268671,1.1102986 l 2.63373,-1.05492909 16.621365,10.74758549 16.621363,10.747586 0.714473,-0.350895 c 7.849348,-3.855 12.252768,-5.91357 13.574648,-6.346057 2.80222,-0.916817 5.06826,-1.131423 6.92705,-0.656026 2.72957,0.698108 3.79706,2.053707 3.43897,4.36716 -0.33438,2.16025 -1.80071,4.345916 -4.25082,6.336112 -1.92617,1.564611 -2.22939,1.711805 -8.761,4.252928 -3.42728,1.33338 -6.24205,2.431776 -6.25505,2.440879 -0.013,0.0091 -0.23118,8.45686 -0.48483,18.772794 -0.25365,10.315935 -0.49391,19.218782 -0.5339,19.784106 l -0.0727,1.027861 -2.33504,1.577995 c -1.284277,0.867897 -2.452175,1.608624 -2.595332,1.646061 -0.158951,0.04157 -0.339063,-0.02255 -0.46263,-0.164685 z"
     id="path2939" />
  <path
     style="opacity:1;fill:#47235C;fill-opacity:1;stroke:#2CB1A6;stroke-width:1;paint-order:markers fill stroke"
     d="m 16.574265,103.66081 c -5.950602,-0.39487 -11.1271942,-2.76274 -13.8903834,-6.353707 -4.98418,-6.477315 -2.74149039,-15.931904 6.0757515,-25.613769 1.4338749,-1.574481 2.7100009,-2.758712 4.9657019,-4.608116 6.304679,-5.169082 16.731795,-12.065558 27.657,-18.292291 4.532624,-2.583333 5.685363,-3.166396 5.902994,-2.985778 0.265665,0.220482 0.257029,0.246929 -0.401148,1.228442 -1.293616,1.929121 -1.994139,3.863076 -1.998751,5.518017 -0.01186,4.254283 3.265616,6.990076 8.381697,6.996425 l 1.360127,0.0017 0.348537,1.316947 c 0.191696,0.724321 0.37606,1.410373 0.409699,1.524558 0.04725,0.160392 -0.239079,0.331914 -1.258975,0.754167 -8.109006,3.357269 -19.226395,8.77497 -26.05305,12.696119 -11.010751,6.324443 -17.092485,11.63761 -18.061712,15.779196 -1.1025953,4.711482 4.440333,7.889384 17.541072,10.05675 l 2.113256,0.34961 -1.920532,0.47369 c -3.96598,0.9782 -7.836036,1.37939 -11.171284,1.15806 z"
     id="path2941" />
  <path
     style="opacity:1;fill:#47235C;fill-opacity:1;stroke:#2CB1A6;stroke-width:1;paint-order:markers fill stroke"
     d="m 54.862103,107.39954 c -0.282662,-0.0279 -1.178828,-0.11328 -1.991481,-0.18981 -6.575849,-0.61927 -13.604915,-2.86472 -19.593609,-6.25922 -1.789245,-1.014172 -4.951114,-3.156374 -6.681099,-4.526517 -1.583456,-1.254092 -6.873823,-6.376857 -6.873823,-6.656055 0,-0.204811 4.042947,-3.363338 4.305106,-3.363338 0.03534,0 0.887931,0.845969 1.894655,1.879932 2.901291,2.979791 5.552771,5.093264 8.961195,7.142897 3.975335,2.39054 8.531047,4.274197 12.685855,5.245241 1.574484,0.36798 3.759928,0.74398 3.759928,0.64689 0,-0.0468 -0.735619,-0.71884 -1.634709,-1.493447 -4.479146,-3.859008 -9.014532,-8.731572 -12.791732,-13.742719 l -1.549521,-2.055723 -3.800305,-0.06424 -3.800305,-0.06424 2.184206,-1.301362 c 1.862383,-1.109619 5.166219,-2.963165 6.57309,-3.687693 l 0.405923,-0.209047 0.410488,0.63969 0.410488,0.639691 h 9.173119 9.173117 V 74.834881 69.689292 L 56.62874,69.44143 c 0.693767,-0.314912 0.830757,-0.313951 0.932478,0.0065 0.128899,0.406122 1.415698,1.729822 2.12253,2.183394 l 0.638869,0.409961 v 3.905329 3.905327 h 9.181773 9.181774 l 0.839121,-1.413637 c 3.131773,-5.275991 5.190934,-10.983405 5.793532,-16.058036 0.337383,-2.841197 0.22423,-2.969965 1.713391,1.949851 l 1.33426,4.40807 -0.482021,1.477551 c -0.948464,2.90735 -2.688493,6.892866 -3.912557,8.961667 l -0.399107,0.674534 h 4.889213 4.889212 l 0.650461,0.329615 c 0.84337,0.427366 2.416548,0.826729 3.256673,0.826729 1.74196,0 2.993538,-0.479276 5.181738,-1.984275 0.79897,-0.549524 1.48297,-0.968852 1.51998,-0.93184 0.10296,0.102964 -1.48636,3.156271 -2.65401,5.098695 -6.664875,11.087347 -17.711892,19.332155 -30.383612,22.676435 -4.103688,1.08303 -7.185784,1.47988 -11.948889,1.53855 -1.978633,0.0244 -3.828784,0.0215 -4.111446,-0.006 z m 14.39006,-6.87828 c 9.091329,-2.291664 17.471019,-7.579402 23.559262,-14.866325 0.610177,-0.730311 1.155648,-1.409663 1.212158,-1.509672 0.08804,-0.1558 -0.840925,-0.180854 -6.488375,-0.174994 l -6.591121,0.0068 -0.835138,1.165123 c -3.312547,4.621423 -8.864225,10.665985 -13.490681,14.688396 -0.883318,0.767982 -1.623024,1.436762 -1.643789,1.486172 -0.05436,0.12935 2.47362,-0.34079 4.277684,-0.79555 z M 56.082689,91.736632 V 83.96343 h -7.708961 c -4.239928,0 -7.708961,0.03345 -7.708961,0.07434 0,0.110191 1.382506,1.798924 3.199847,3.908622 1.896663,2.201776 6.531273,6.875225 8.62056,8.692797 2.155511,1.875185 3.365341,2.870644 3.488834,2.870644 0.05978,0 0.108681,-3.497941 0.108681,-7.773201 z m 5.253581,7.085047 c 2.88159,-2.334715 6.648649,-5.893369 9.316481,-8.801068 2.135903,-2.327945 4.95046,-5.676955 4.955568,-5.896578 0.0029,-0.126725 -1.60887,-0.160603 -7.640983,-0.160603 h -7.644719 v 7.773202 c 0,4.275261 0.03697,7.773202 0.08215,7.773202 0.04519,0 0.46436,-0.309671 0.9315,-0.688155 z"
     id="path2943" />
  <path
     style="opacity:1;fill:#47235C;fill-opacity:1;stroke:#2CB1A6;stroke-width:1;paint-order:markers fill stroke"
     d="m 74.84116,58.867431 c 0,-0.288969 0.306813,-2.672413 0.453572,-3.523518 l 0.072,-0.417568 h 4.400072 4.400073 l 0.560272,1.895119 c 0.308149,1.042316 0.587111,1.9963 0.619915,2.119964 0.05609,0.211459 -0.254851,0.224845 -5.223132,0.224845 H 74.84116 Z"
     id="path2945" />
  <metadata
     id="metadata4762">
    <rdf:RDF>
      <cc:Work
         rdf:about="">
        <dc:title>travel</dc:title>
      </cc:Work>
    </rdf:RDF>
  </metadata>
</svg>
