<svg xmlns="http://www.w3.org/2000/svg" viewBox="0 0 368.38 382.53"><g id="Layer_2" data-name="Layer 2"><g id="Layer_1-2" data-name="Layer 1"><path d="M33,0h160.5c24.68,7.87,34.21,25.33,32.62,50.26-.59,9.17-.1,18.41-.1,27.62V90.21H368.38V292.93H226c0,16.19.12,31.6,0,47-.25,25.92-16.95,42.53-42.79,42.56q-70.08.09-140.18,0c-26.28,0-43-16.72-43-43Q0,191.27,0,43.05A53.73,53.73,0,0,1,.79,32.66C4.32,14.8,16.31,5.07,33,0ZM346.24,113H23V269.53H346.24ZM22.56,292.85c0,16.51-.13,32.38.05,48.26C22.74,353,29.85,360,42,360q70.88.13,141.74,0c12.6,0,19.35-6.68,19.57-19.46.25-14.44.08-28.89,0-43.33a25.34,25.34,0,0,0-.83-4.36ZM203.15,89.61c0-17.55.23-34.19-.1-50.81-.15-7.37-4.34-12.59-11.4-15.12-6.41-2.3-11.5-2.22-15.37,5.2-6,11.44-13.31,22.18-19.8,33.37-2.07,3.58-4.27,5.33-8.73,5.29-23.23-.25-46.46,0-69.68-.32a11.35,11.35,0,0,1-8-4.55C62.59,51.21,55.56,39.45,48.77,27.58c-2.3-4-4.91-5.64-9.51-5.12-8.17.92-15.75,6.23-16.09,14.18-.77,17.54-.24,35.13-.24,53ZM72.29,22.8C76.07,29.2,79.1,35.15,83,40.49a11.13,11.13,0,0,0,7.53,4.25c15,.4,30,.27,45,.12,2,0,5-.49,5.89-1.84,4.28-6.26,8-12.9,12.41-20.22Z" fill="#274690"/><path d="M95.44,217.35l80.36-80.3L191,153.44c-31,30.92-62.62,62.38-93.69,93.35l-47-46.9,14.24-13.7Z" fill="#2e8d9a"/><path d="M323.47,247.18h-101V225.66h101Z" fill="#2e8d9a"/><path d="M289.24,202.1H222.43V180.49h66.81Z" fill="#2e8d9a"/><path d="M266.72,157H222.67V135.39h44.05Z" fill="#2e8d9a"/><path d="M90.66,337.15V315.68h44.23v21.47Z" fill="#274690"/></g></g></svg>