<?xml version="1.0" encoding="UTF-8" standalone="no"?>
<svg
   viewBox="0 0 24 24"
   version="1.1"
   id="svg25670"
   sodipodi:docname="kharejdawam.svg"
   inkscape:version="1.2 (dc2aedaf03, 2022-05-15)"
   xmlns:inkscape="http://www.inkscape.org/namespaces/inkscape"
   xmlns:sodipodi="http://sodipodi.sourceforge.net/DTD/sodipodi-0.dtd"
   xmlns="http://www.w3.org/2000/svg"
   xmlns:svg="http://www.w3.org/2000/svg">
  <defs
     id="defs25674" />
  <sodipodi:namedview
     id="namedview25672"
     pagecolor="#ffffff"
     bordercolor="#000000"
     borderopacity="0.25"
     inkscape:showpageshadow="2"
     inkscape:pageopacity="0.0"
     inkscape:pagecheckerboard="0"
     inkscape:deskcolor="#d1d1d1"
     showgrid="false"
     inkscape:zoom="34.875"
     inkscape:cx="11.985663"
     inkscape:cy="12.043011"
     inkscape:window-width="1920"
     inkscape:window-height="1017"
     inkscape:window-x="-8"
     inkscape:window-y="-8"
     inkscape:window-maximized="1"
     inkscape:current-layer="svg25670" />
  <g
     id="Layer_2"
     data-name="Layer 2">
    <g
       id="Layer_1-2"
       data-name="Layer 1">
      <path
         d="M0,0H24V24H0Z"
         fill="none"
         id="path25660" />
      <path
         d="m 11.193548,17.516129 a 2,2 0 0 1 -1.9999996,-2 v -6 a 2,2 0 0 1 1.9999996,-2 h 6 v -2 H 3.1935484 v 14 H 17.193548 v -2 z"
         fill="#2e8d9a"
         id="path25662"
         style="fill:#6ebe8a;fill-opacity:1" />
      <path
         d="M20,7.28V5a2,2,0,0,0-2-2H4A2,2,0,0,0,2,5V19a2,2,0,0,0,2,2H18a2,2,0,0,0,2-2V16.72A2,2,0,0,0,21,15V9A2,2,0,0,0,20,7.28ZM19,9v6H12V9ZM4,19V5H18V7H12a2,2,0,0,0-2,2v6a2,2,0,0,0,2,2h6v2Z"
         fill="#274690"
         id="path25664"
         style="fill:#005430;fill-opacity:1" />
      <circle
         cx="16"
         cy="12"
         r="1.5"
         fill="#2e8d9a"
         id="circle25666"
         style="fill:#6ebe8a;fill-opacity:1" />
    </g>
  </g>
</svg>
