<svg xmlns="http://www.w3.org/2000/svg" viewBox="0 0 24 24"><g id="Layer_2" data-name="Layer 2"><g id="Layer_1-2" data-name="Layer 1"><path d="M0,0H24V24H0Z" fill="none"/><path d="M13,17a2,2,0,0,1-2-2V9a2,2,0,0,1,2-2h6V5H5V19H19V17Z" fill="#2e8d9a"/><path d="M20,7.28V5a2,2,0,0,0-2-2H4A2,2,0,0,0,2,5V19a2,2,0,0,0,2,2H18a2,2,0,0,0,2-2V16.72A2,2,0,0,0,21,15V9A2,2,0,0,0,20,7.28ZM19,9v6H12V9ZM4,19V5H18V7H12a2,2,0,0,0-2,2v6a2,2,0,0,0,2,2h6v2Z" fill="#274690"/><circle cx="16" cy="12" r="1.5" fill="#2e8d9a"/></g></g></svg>