<svg width="82" height="64" viewBox="0 0 82 64" fill="none" xmlns="http://www.w3.org/2000/svg">
<line x1="18.65" y1="23.6791" x2="63.35" y2="23.6791" stroke="#214187" stroke-width="1.3" stroke-linecap="round"/>
<path d="M42.7076 52.5359H61.8463C63.0358 52.5359 64 51.5717 64 50.3822V17.7031C64 16.5136 63.0358 15.5494 61.8463 15.5494H20.1537C18.9642 15.5494 18 16.5136 18 17.7031V50.3822C18 51.5717 18.9642 52.5359 20.1537 52.5359H42.9864" stroke="#214187" stroke-width="1.3"/>
<path d="M52.3835 15.9495C52.3835 15.2211 52.5849 14.5069 52.9655 13.8859C53.3461 13.2648 53.891 12.7611 54.5399 12.4305C55.1889 12.0998 55.9167 11.955 56.6428 12.0122C57.369 12.0693 58.0652 12.3262 58.6544 12.7543C59.2437 13.1824 59.7031 13.7652 59.9818 14.4381C60.2606 15.111 60.3478 15.8479 60.2338 16.5673C60.1199 17.2867 59.8092 17.9606 59.3362 18.5145C58.992 18.9175 58.5715 19.2456 58.1011 19.4811C57.8085 19.6276 57.4715 19.4534 57.3704 19.1423C57.2693 18.8311 57.4443 18.502 57.7269 18.337C57.9933 18.1815 58.2331 17.9817 58.4352 17.745C58.7664 17.3573 58.9838 16.8856 59.0636 16.382C59.1433 15.8784 59.0823 15.3626 58.8872 14.8915C58.6921 14.4205 58.3705 14.0125 57.958 13.7129C57.5455 13.4132 57.0582 13.2334 56.5499 13.1934C56.0416 13.1534 55.5321 13.2547 55.0779 13.4862C54.6236 13.7177 54.2421 14.0702 53.9757 14.505C53.7093 14.9397 53.5683 15.4396 53.5683 15.9495L52.3835 15.9495Z" fill="#214187"/>
<path d="M42.3268 15.9495C42.3268 15.2211 42.5283 14.5069 42.9088 13.8859C43.2894 13.2648 43.8343 12.7611 44.4833 12.4305C45.1323 12.0998 45.8601 11.955 46.5862 12.0122C47.3123 12.0693 48.0085 12.3262 48.5978 12.7543C49.1871 13.1824 49.6465 13.7652 49.9252 14.4381C50.2039 15.111 50.2911 15.8479 50.1772 16.5673C50.0633 17.2867 49.7526 17.9606 49.2796 18.5145C48.9353 18.9175 48.5148 19.2456 48.0444 19.4811C47.7518 19.6276 47.4148 19.4534 47.3137 19.1423C47.2126 18.8311 47.3877 18.502 47.6703 18.337C47.9367 18.1815 48.1764 17.9817 48.3786 17.745C48.7097 17.3573 48.9272 16.8856 49.0069 16.382C49.0867 15.8784 49.0256 15.3626 48.8305 14.8915C48.6354 14.4205 48.3138 14.0125 47.9014 13.7129C47.4889 13.4132 47.0015 13.2334 46.4932 13.1934C45.985 13.1534 45.4755 13.2547 45.0212 13.4862C44.5669 13.7177 44.1855 14.0702 43.9191 14.505C43.6527 14.9397 43.5117 15.4396 43.5117 15.9495L42.3268 15.9495Z" fill="#214187"/>
<path d="M32.27 15.9495C32.27 15.2211 32.4714 14.5069 32.852 13.8859C33.2325 13.2648 33.7774 12.7611 34.4264 12.4305C35.0754 12.0998 35.8032 11.955 36.5293 12.0122C37.2555 12.0693 37.9516 12.3262 38.5409 12.7543C39.1302 13.1824 39.5896 13.7652 39.8683 14.4381C40.147 15.111 40.2343 15.8479 40.1203 16.5673C40.0064 17.2867 39.6957 17.9606 39.2227 18.5145C38.8784 18.9175 38.458 19.2456 37.9875 19.4811C37.695 19.6276 37.3579 19.4534 37.2568 19.1423C37.1557 18.8311 37.3308 18.502 37.6134 18.337C37.8798 18.1815 38.1195 17.9817 38.3217 17.745C38.6528 17.3573 38.8703 16.8856 38.9501 16.382C39.0298 15.8784 38.9688 15.3626 38.7736 14.8915C38.5785 14.4205 38.257 14.0125 37.8445 13.7129C37.432 13.4132 36.9447 13.2334 36.4364 13.1934C35.9281 13.1534 35.4186 13.2547 34.9643 13.4862C34.51 13.7177 34.1286 14.0702 33.8622 14.505C33.5958 14.9397 33.4548 15.4396 33.4548 15.9495L32.27 15.9495Z" fill="#214187"/>
<path d="M22.2131 15.9495C22.2131 15.2211 22.4145 14.5069 22.7951 13.8859C23.1756 13.2648 23.7205 12.7611 24.3695 12.4305C25.0185 12.0998 25.7463 11.955 26.4724 12.0122C27.1986 12.0693 27.8948 12.3262 28.484 12.7543C29.0733 13.1824 29.5327 13.7652 29.8114 14.4381C30.0902 15.111 30.1774 15.8479 30.0634 16.5673C29.9495 17.2867 29.6388 17.9606 29.1658 18.5145C28.8215 18.9175 28.4011 19.2456 27.9306 19.4811C27.6381 19.6276 27.3011 19.4534 27.2 19.1423C27.0988 18.8311 27.2739 18.502 27.5565 18.337C27.8229 18.1815 28.0626 17.9817 28.2648 17.745C28.5959 17.3573 28.8134 16.8856 28.8932 16.382C28.9729 15.8784 28.9119 15.3626 28.7168 14.8915C28.5216 14.4205 28.2001 14.0125 27.7876 13.7129C27.3751 13.4132 26.8878 13.2334 26.3795 13.1934C25.8712 13.1534 25.3617 13.2547 24.9074 13.4862C24.4531 13.7177 24.0717 14.0702 23.8053 14.505C23.5389 14.9397 23.3979 15.4396 23.3979 15.9495L22.2131 15.9495Z" fill="#214187"/>
<line x1="36.2355" y1="31.1054" x2="58.2868" y2="31.1056" stroke="#214187" stroke-width="1.3" stroke-linecap="round"/>
<path d="M29.4795 29.8284L26.4881 32.8224L25.2162 31.4303" stroke="#214187" stroke-width="1.3" stroke-linecap="round"/>
<line x1="36.6666" y1="37.6217" x2="52.7444" y2="37.6217" stroke="#214187" stroke-width="1.3" stroke-linecap="round"/>
<path d="M29.4795 36.3262L26.4881 39.3202L25.2162 37.9281" stroke="#214187" stroke-width="1.3" stroke-linecap="round"/>
<line x1="36.6666" y1="44.1383" x2="51.6583" y2="44.1383" stroke="#214187" stroke-width="1.3" stroke-linecap="round"/>
<path d="M29.4795 42.8621L26.4881 45.8561L25.2162 44.464" stroke="#214187" stroke-width="1.3" stroke-linecap="round"/>
</svg>
