<?xml version="1.0" encoding="UTF-8" standalone="no"?>
<svg
   viewBox="0 0 25 26.07"
   version="1.1"
   id="svg27403"
   sodipodi:docname="mawa3idi.svg"
   inkscape:version="1.2 (dc2aedaf03, 2022-05-15)"
   xmlns:inkscape="http://www.inkscape.org/namespaces/inkscape"
   xmlns:sodipodi="http://sodipodi.sourceforge.net/DTD/sodipodi-0.dtd"
   xmlns="http://www.w3.org/2000/svg"
   xmlns:svg="http://www.w3.org/2000/svg">
  <defs
     id="defs27407" />
  <sodipodi:namedview
     id="namedview27405"
     pagecolor="#ffffff"
     bordercolor="#000000"
     borderopacity="0.25"
     inkscape:showpageshadow="2"
     inkscape:pageopacity="0.0"
     inkscape:pagecheckerboard="0"
     inkscape:deskcolor="#d1d1d1"
     showgrid="false"
     inkscape:zoom="32.105869"
     inkscape:cx="12.489928"
     inkscape:cy="13.08172"
     inkscape:window-width="1920"
     inkscape:window-height="1017"
     inkscape:window-x="-8"
     inkscape:window-y="-8"
     inkscape:window-maximized="1"
     inkscape:current-layer="Layer_1-2" />
  <g
     id="Layer_2"
     data-name="Layer 2">
    <g
       id="Layer_1-2"
       data-name="Layer 1">
      <path
         d="M0,0H24V26.07H0Z"
         fill="none"
         id="path27385" />
      <rect
         x="6"
         y="6.52"
         width="4"
         height="5.43"
         fill="#2e8d9a"
         id="rect27387"
         style="fill:#2CB1A6;fill-opacity:1" />
      <rect
         x="6"
         y="14.12"
         width="4"
         height="5.43"
         fill="#2e8d9a"
         id="rect27389"
         style="fill:#2CB1A6;fill-opacity:1" />
      <rect
         x="12"
         y="14.12"
         width="4"
         height="5.43"
         fill="#2e8d9a"
         id="rect27391"
         style="fill:#2CB1A6;fill-opacity:1" />
      <rect
         x="18"
         y="14.12"
         width="4"
         height="5.43"
         fill="#2e8d9a"
         id="rect27393"
         style="fill:#2CB1A6;fill-opacity:1" />
      <rect
         x="18"
         y="6.52"
         width="4"
         height="5.43"
         fill="#2e8d9a"
         id="rect27395"
         style="fill:#2CB1A6;fill-opacity:1" />
      <rect
         x="12"
         y="6.52"
         width="4"
         height="5.43"
         fill="#2e8d9a"
         id="rect27397"
         style="fill:#2CB1A6;fill-opacity:1" />
      <path
         d="M23,3.35H7A2.09,2.09,0,0,0,5,5.52v13a2.1,2.1,0,0,0,2,2.17H23a2.1,2.1,0,0,0,2-2.17v-13A2.09,2.09,0,0,0,23,3.35ZM11,18.56H7V13.12h4ZM11,11H7V5.52h4Zm6,7.61H13V13.12h4ZM17,11H13V5.52h4Zm6,7.61H19V13.12h4ZM23,11H19V5.52h4Z"
         fill="#274690"
         id="path27399"
         style="fill:#47235C;fill-opacity:1" />
    </g>
  </g>
</svg>
