<svg xmlns="http://www.w3.org/2000/svg" viewBox="0 0 25 26.07"><g id="Layer_2" data-name="Layer 2"><g id="Layer_1-2" data-name="Layer 1"><path d="M0,0H24V26.07H0Z" fill="none"/><rect x="6" y="6.52" width="4" height="5.43" fill="#2e8d9a"/><rect x="6" y="14.12" width="4" height="5.43" fill="#2e8d9a"/><rect x="12" y="14.12" width="4" height="5.43" fill="#2e8d9a"/><rect x="18" y="14.12" width="4" height="5.43" fill="#2e8d9a"/><rect x="18" y="6.52" width="4" height="5.43" fill="#2e8d9a"/><rect x="12" y="6.52" width="4" height="5.43" fill="#2e8d9a"/><path d="M23,3.35H7A2.09,2.09,0,0,0,5,5.52v13a2.1,2.1,0,0,0,2,2.17H23a2.1,2.1,0,0,0,2-2.17v-13A2.09,2.09,0,0,0,23,3.35ZM11,18.56H7V13.12h4ZM11,11H7V5.52h4Zm6,7.61H13V13.12h4ZM17,11H13V5.52h4Zm6,7.61H19V13.12h4ZM23,11H19V5.52h4Z" fill="#274690"/></g></g></svg>