<?xml version="1.0" encoding="UTF-8" standalone="no"?>
<svg
   viewBox="0 0 25 26.07"
   version="1.1"
   id="svg2689"
   sodipodi:docname="mawa3idi-mustafeed.svg"
   xml:space="preserve"
   inkscape:version="1.2 (dc2aedaf03, 2022-05-15)"
   xmlns:inkscape="http://www.inkscape.org/namespaces/inkscape"
   xmlns:sodipodi="http://sodipodi.sourceforge.net/DTD/sodipodi-0.dtd"
   xmlns="http://www.w3.org/2000/svg"
   xmlns:svg="http://www.w3.org/2000/svg"><defs
     id="defs2693"><clipPath
       clipPathUnits="userSpaceOnUse"
       id="clipPath7713"><path
         id="path7715"
         style="fill:#ff0000;fill-opacity:1;fill-rule:nonzero;stroke:none"
         d="M 8.005e-4,-5.1046e-4 V 26.069802 H 25.000801 v -4.847656 c -0.152675,0.166119 -0.321605,0.317491 -0.501954,0.455078 -0.150013,0.08042 -0.282974,0.203694 -0.449218,0.240234 -0.299201,0.06573 -0.613205,0.08966 -0.917969,0.05859 -0.180432,-0.01839 -0.34521,-0.115335 -0.503906,-0.203125 -0.236975,-0.131093 -0.434028,-0.355837 -0.580078,-0.578125 -0.02644,-0.04024 -0.04763,-0.08145 -0.06836,-0.125 -0.03104,0.01926 -0.06179,0.03819 -0.0918,0.05664 -0.01298,0.008 -0.0267,0.01628 -0.04102,0.02148 -0.180198,0.106731 -0.367931,0.205153 -0.570313,0.263672 -0.171256,0.04297 -0.342644,0.07957 -0.519531,0.08789 -0.04774,0.02014 -0.07574,0.03155 -0.0957,0.03906 -0.003,0.0015 -0.0068,0.0025 -0.0098,0.0039 -1.34e-4,1.8e-4 -0.0083,0.004 -0.0078,0.0039 -0.06928,0.03368 -0.12653,0.06127 -0.21875,0.115234 -0.151574,0.07784 -0.305735,0.150887 -0.462891,0.216797 -0.09137,0.03858 -0.186951,0.07092 -0.275391,0.115234 -0.03179,0.0189 -0.06143,0.03866 -0.09375,0.05664 -0.0061,0.0034 0.02147,-0.01532 0.01563,-0.01172 -0.139865,0.08608 -0.278989,0.173226 -0.429687,0.238281 -7.93e-4,0.01277 -0.0013,0.0105 -0.002,0.02539 -0.0098,0.198957 -0.02523,0.398436 -0.06641,0.59375 -0.05638,0.243761 -0.136108,0.480571 -0.259766,0.697266 v 0.002 c -0.0096,0.08983 -0.02463,0.177855 -0.05273,0.248047 -0.226493,0.564899 -0.509161,1.076523 -1.267579,1.152343 -0.448523,0.04484 -0.867256,-0.247624 -1.300781,-0.371093 -0.07553,-0.08047 -0.158002,-0.155708 -0.226562,-0.242188 -0.220675,-0.278325 -0.335258,-0.622139 -0.376953,-0.970703 -0.0048,-0.04415 -0.0066,-0.08867 -0.0098,-0.132813 -1.566453,0.485151 -2.698811,-1.150518 -1.046875,-2.921875 0.151363,-0.162304 0.290383,-0.338805 0.449219,-0.49414 0.06878,-0.06726 0.140657,-0.131576 0.210937,-0.197266 0.202153,-0.166759 0.402686,-0.335275 0.617188,-0.486328 0.190283,-0.133998 0.227608,-0.152737 0.419922,-0.271484 0.289809,-0.162185 0.581708,-0.320711 0.875,-0.476563 0.218568,-0.114405 0.446246,-0.21085 0.669921,-0.314453 -0.0098,-0.01691 -0.01968,-0.03376 -0.0293,-0.05078 -0.112203,-0.203574 -0.20311,-0.418332 -0.28711,-0.634766 -0.04589,-0.123349 -0.08946,-0.246852 -0.126953,-0.373047 -0.03196,-0.107451 -0.01159,-0.06593 -0.0293,-0.103515 -0.06779,-0.200805 -0.11472,-0.407697 -0.15625,-0.615235 -0.04407,-0.212632 -0.07134,-0.428341 -0.08984,-0.644531 -0.01653,-0.216695 -0.01898,-0.43318 -0.02148,-0.650391 -0.0018,-0.18472 -0.0015,-0.369958 -0.002,-0.554687 -0.001,-0.150266 -7.94e-4,-0.300978 0.0039,-0.451172 0.0069,-0.287362 0.07411,-0.565818 0.167969,-0.835937 0.08586,-0.24645 0.212955,-0.474109 0.349609,-0.695313 0.12512,-0.193266 0.272489,-0.369968 0.423828,-0.542969 0.06745,-0.07558 0.04797,-0.05738 0.119141,-0.154297 0.124651,-0.185755 0.27174,-0.351619 0.427734,-0.511718 0.238812,-0.234537 0.516188,-0.42337 0.792969,-0.609375 0.241807,-0.164665 0.503927,-0.291928 0.771485,-0.408203 0.306024,-0.135375 0.634795,-0.198702 0.960937,-0.263672 0.217821,-0.03759 0.435014,-0.08531 0.650391,-0.1347663 0.291462,-0.06025 0.582361,-0.121371 0.875,-0.175781 0.249192,-0.04835 0.500872,-0.07486 0.753906,-0.0918 0.362188,-0.02197 0.713648,0.06385 1.060547,0.154297 0.201063,0.05131 0.391078,0.131209 0.574219,0.22461 V -5.1046e-4 Z" /></clipPath></defs><sodipodi:namedview
     id="namedview2691"
     pagecolor="#ffffff"
     bordercolor="#000000"
     borderopacity="0.25"
     inkscape:showpageshadow="2"
     inkscape:pageopacity="0.0"
     inkscape:pagecheckerboard="0"
     inkscape:deskcolor="#d1d1d1"
     showgrid="false"
     inkscape:zoom="32.105869"
     inkscape:cx="12.489928"
     inkscape:cy="13.050573"
     inkscape:window-width="1920"
     inkscape:window-height="1017"
     inkscape:window-x="1912"
     inkscape:window-y="-8"
     inkscape:window-maximized="1"
     inkscape:current-layer="svg2689" /><g
     id="Layer_2"
     data-name="Layer 2"
     transform="translate(-2.7097849,0.43605734)"
     clip-path="url(#clipPath7713)"><g
       id="Layer_1-2"
       data-name="Layer 1"><path
         d="M 0,0 H 24 V 26.07 H 0 Z"
         fill="none"
         id="path2671" /><rect
         x="6"
         y="6.52"
         width="4"
         height="5.4299998"
         fill="#00bd82"
         id="rect2673" /><rect
         x="6"
         y="14.12"
         width="4"
         height="5.4299998"
         fill="#00bd82"
         id="rect2675" /><rect
         x="12"
         y="14.12"
         width="4"
         height="5.4299998"
         fill="#00bd82"
         id="rect2677" /><rect
         x="18"
         y="14.12"
         width="4"
         height="5.4299998"
         fill="#00bd82"
         id="rect2679" /><rect
         x="18"
         y="6.52"
         width="4"
         height="5.4299998"
         fill="#00bd82"
         id="rect2681" /><rect
         x="12"
         y="6.52"
         width="4"
         height="5.4299998"
         fill="#00bd82"
         id="rect2683" /><path
         d="M 23,3.35 H 7 A 2.09,2.09 0 0 0 5,5.52 v 13 a 2.1,2.1 0 0 0 2,2.17 h 16 a 2.1,2.1 0 0 0 2,-2.17 v -13 A 2.09,2.09 0 0 0 23,3.35 Z M 11,18.56 H 7 v -5.44 h 4 z M 11,11 H 7 V 5.52 h 4 z m 6,7.61 h -4 v -5.49 h 4 z M 17,11 H 13 V 5.52 h 4 z m 6,7.61 h -4 v -5.49 h 4 z M 23,11 H 19 V 5.52 h 4 z"
         fill="#3d4d55"
         id="path2685" /></g></g><path
     d="M 9.9586015,8.525842 H 29.504588 V 27.94724 H 9.9586015 Z"
     fill="none"
     id="path5389"
     style="stroke-width:0.999998" /><path
     d="m 20.432386,20.784448 c -2.190779,0 -4.699181,1.035809 -4.886496,1.61845 h 9.772993 c -0.162884,-0.57455 -2.687574,-1.61845 -4.886497,-1.61845 z"
     opacity="0.3"
     id="path5391"
     style="opacity:1;fill:#00bd82;fill-opacity:1;stroke-width:0.999998" /><ellipse
     cx="20.588152"
     cy="15.066746"
     opacity="0.3"
     id="circle5393"
     style="opacity:1;fill:#00bd82;fill-opacity:1;stroke-width:0.999998"
     rx="1.6288322"
     ry="1.6184498" /><path
     d="m 20.572563,18.928369 c -2.17449,0 -6.515328,1.026973 -6.515328,3.065591 v 1.532796 H 27.087891 V 21.99396 c 0,-2.038618 -4.340837,-3.065591 -6.515328,-3.065591 z m -4.886497,3.065591 c 0.179172,-0.551805 2.695718,-1.532795 4.886497,-1.532795 2.198924,0 4.723613,0.988653 4.886496,1.532795 z m 4.886497,-4.598387 c 1.799859,0 3.257665,-1.371851 3.257665,-3.065591 0,-1.693739 -1.457806,-3.065591 -3.257665,-3.065591 -1.799859,0 -3.257664,1.371852 -3.257664,3.065591 0,1.69374 1.457805,3.065591 3.257664,3.065591 z m 0,-4.598387 c 0.895858,0 1.628832,0.689758 1.628832,1.532796 0,0.843037 -0.732974,1.532796 -1.628832,1.532796 -0.895857,0 -1.628832,-0.689759 -1.628832,-1.532796 0,-0.843038 0.732975,-1.532796 1.628832,-1.532796 z"
     id="path5395"
     style="fill:#3d4d55;fill-opacity:1;stroke-width:0.999999" /></svg>
