<svg width="21" height="20" viewBox="0 0 21 20" fill="none" xmlns="http://www.w3.org/2000/svg">
<g id="Group 623">
<path id="user_icon" d="M14.6369 5.41659C14.6369 7.58069 12.8077 9.37493 10.5 9.37493C8.19221 9.37493 6.36306 7.58069 6.36306 5.41659C6.36306 3.25249 8.19221 1.45825 10.5 1.45825C12.8077 1.45825 14.6369 3.25249 14.6369 5.41659ZM10.5 12.3437C11.5092 12.3437 12.4706 12.1368 13.341 11.7708H13.8333C16.2713 11.7708 18.2083 13.6689 18.2083 15.9583V17.4479C18.2083 18.0293 17.711 18.5416 17.0476 18.5416H3.95234C3.28893 18.5416 2.79163 18.0293 2.79163 17.4479V15.9583C2.79163 13.6689 4.72866 11.7708 7.16664 11.7708H7.6594C8.53198 12.1364 9.48992 12.3437 10.5 12.3437Z" stroke="#29B3B4" stroke-width="1.25"/>
</g>
</svg>
