<svg width="21" height="20" viewBox="0 0 21 20" fill="none" xmlns="http://www.w3.org/2000/svg">
<g id="Group 623">
<path id="user_icon" d="M14.6369 5.41665C14.6369 7.58076 12.8078 9.375 10.5 9.375C8.19227 9.375 6.36312 7.58076 6.36312 5.41665C6.36312 3.25255 8.19227 1.45831 10.5 1.45831C12.8078 1.45831 14.6369 3.25255 14.6369 5.41665ZM10.5 12.3438C11.5093 12.3438 12.4707 12.1368 13.3411 11.7708H13.8334C16.2713 11.7708 18.2084 13.6689 18.2084 15.9583V17.4479C18.2084 18.0293 17.7111 18.5417 17.0477 18.5417H3.9524C3.28899 18.5417 2.79169 18.0293 2.79169 17.4479V15.9583C2.79169 13.6689 4.72872 11.7708 7.1667 11.7708H7.65946C8.53204 12.1365 9.48998 12.3438 10.5 12.3438Z" stroke="#8E8E8E" stroke-width="1.25"/>
</g>
</svg>
