<svg width="34" height="40" viewBox="0 0 34 40" fill="none" xmlns="http://www.w3.org/2000/svg">
<g id="top_navbar/color3">
<path id="Rectangle 121" d="M14.5122 8.70733V7.46343C14.5122 6.31845 15.4404 5.39026 16.5854 5.39026V5.39026C17.7304 5.39026 18.6585 6.31845 18.6585 7.46343V8.70733" stroke="#666666" stroke-width="2.07317" stroke-linecap="square"/>
<path id="Vector" d="M23.5262 11.6575C25.3138 13.4092 26.3181 15.785 26.3181 18.2623C26.3181 29.1597 30 32.2732 30 32.2732H3.72913C3.72913 32.2732 7.25386 29.1597 7.25386 18.2623C7.25386 15.785 8.25813 13.4092 10.0458 11.6575C11.8334 9.90579 14.2579 8.92169 16.786 8.92169C19.3141 8.92169 21.7386 9.90579 23.5262 11.6575Z" stroke="#666666" stroke-width="2.07317" stroke-linecap="square"/>
<path id="Vector_2" d="M20.5995 33C20.193 33.9125 19.6095 34.6699 18.9075 35.1964C18.2055 35.7229 17.4096 36 16.5995 36C15.7894 36 14.9935 35.7229 14.2914 35.1964C13.5894 34.6699 13.006 33.9125 12.5995 33" stroke="#666666" stroke-width="1.86585" stroke-linecap="square"/>
<path id="Ellipse 70" d="M27.0267 7.07266C28.4515 8.54782 29.6833 10.3201 30.6233 12.3427C31.7914 14.8564 32.3735 17.4653 32.423 19.9666" stroke="#666666" stroke-width="2.07317" stroke-linecap="square"/>
<path id="Ellipse 71" d="M6.82998 7.07266C5.40518 8.54782 4.1734 10.3201 3.23343 12.3427C2.06524 14.8564 1.48321 17.4653 1.43371 19.9666" stroke="#666666" stroke-width="2.07317" stroke-linecap="square"/>
</g>
</svg>
