<?xml version="1.0" encoding="UTF-8" standalone="no"?>
<svg
   viewBox="0 0 24 24"
   version="1.1"
   id="svg30005"
   sodipodi:docname="offers.svg"
   inkscape:version="1.2 (dc2aedaf03, 2022-05-15)"
   xmlns:inkscape="http://www.inkscape.org/namespaces/inkscape"
   xmlns:sodipodi="http://sodipodi.sourceforge.net/DTD/sodipodi-0.dtd"
   xmlns="http://www.w3.org/2000/svg"
   xmlns:svg="http://www.w3.org/2000/svg">
  <defs
     id="defs30009" />
  <sodipodi:namedview
     id="namedview30007"
     pagecolor="#ffffff"
     bordercolor="#000000"
     borderopacity="0.25"
     inkscape:showpageshadow="2"
     inkscape:pageopacity="0.0"
     inkscape:pagecheckerboard="0"
     inkscape:deskcolor="#d1d1d1"
     showgrid="false"
     inkscape:zoom="34.875"
     inkscape:cx="11.985663"
     inkscape:cy="12.071685"
     inkscape:window-width="1920"
     inkscape:window-height="1017"
     inkscape:window-x="-8"
     inkscape:window-y="-8"
     inkscape:window-maximized="1"
     inkscape:current-layer="svg30005" />
  <g
     id="Layer_2"
     data-name="Layer 2">
    <g
       id="Layer_1-2"
       data-name="Layer 1">
      <path
         d="M24,0V24H0V0Z"
         fill="none"
         id="path29995" />
      <path
         d="M20,11V4H13L4,13l7,7ZM16,6.5A1.5,1.5,0,1,1,17.5,8,1.5,1.5,0,0,1,16,6.5Z"
         fill="#2e8d9a"
         id="path29997"
         style="fill:#dbc38f;fill-opacity:1" />
      <path
         d="M22.42,12.41A2,2,0,0,0,23,11V4a2,2,0,0,0-2-2H14a2,2,0,0,0-1.42.59l-9,9A2,2,0,0,0,3,13a2,2,0,0,0,.59,1.41l7,7A2,2,0,0,0,12,22a2,2,0,0,0,1.42-.59ZM5,13l9-9h7v7h0l-9,9Z"
         fill="#274690"
         id="path29999"
         style="fill:#00612a;fill-opacity:1" />
      <circle
         cx="17.5"
         cy="6.5"
         r="1.5"
         fill="#fff"
         id="circle30001" />
    </g>
  </g>
</svg>
