<svg xmlns="http://www.w3.org/2000/svg" viewBox="0 0 360.67 355.9"><g id="Layer_2" data-name="Layer 2"><g id="Layer_1-2" data-name="Layer 1"><path d="M25.68,260.32c.85-8.47-2.91-15.25-10-20.62-8.38-6.3-11.06-14.81-7.4-24.49,3.43-9.08,2-16.8-3.51-24.53-6.34-8.82-6.28-16.61.12-25.5,5.39-7.49,6.74-15,3.59-23.86-3.81-10.7-1.5-18.1,7.39-25.07C22.88,110.72,26.37,104,25.7,95c-.85-11.47,4.56-19,15.22-22.9,8-2.93,12.46-8.7,14.55-16.72,3.14-12,8.62-16.78,20.67-18,8.28-.81,14.79-4.38,18.73-11.85,5.56-10.53,14.36-14.08,25.69-11.77,8.65,1.76,15.58-.85,21.83-6.77,8.26-7.82,15.84-9,25.94-3.84,8.27,4.24,16,4.16,24.28,0,10.11-5.13,17.56-4,26,3.93,6.29,5.91,13.19,8.44,21.84,6.7,11.32-2.28,20.08,1.31,25.63,11.88,3.92,7.45,10.5,11,18.79,11.77,11.6,1.09,17.86,6.1,20.52,17.3,2.08,8.78,7,14.41,15.37,17.73,10.66,4.23,15.13,11.21,14.5,22.64-.48,8.71,2.53,15.36,9.36,20.78,9.46,7.51,11.53,14.75,7.6,26.38-2.69,8-1.67,15,3.13,21.89,7.06,10.13,7.16,17.64.25,27.42-5,7.09-6.11,14.35-3.33,22.56,3.9,11.54,1.8,18.58-7.85,26.28-6.58,5.25-9.57,11.72-9.18,20.12.56,12.12-3.63,18.62-14.72,23.18-8,3.27-13.15,8.6-15,17.2-2.29,10.77-9.05,17-20.16,17.85-9.32.7-15.69,5.11-20.29,13.18-5.45,9.54-13.06,12.59-24,10.43-8.46-1.66-15.67.24-22,6.26-8.79,8.32-16.36,9.43-27.26,3.91-7.81-3.95-15.14-3.82-22.88.13-10.39,5.29-18.29,4.22-26.65-3.73-6.79-6.45-14.34-8.34-23.38-6.32-9.33,2.08-17.72-1.3-22.36-9.69-4.92-8.91-11.85-13.53-22-14.4-10.45-.89-16.72-7-18.92-17.22-1.82-8.43-6.6-14.4-14.79-17.39C30,279.93,25,272.26,25.68,260.32Z" fill="#274690"/><path d="M109.18,159.94H97.09v-56c5,0,9.46.28,13.83-.08,4.58-.37,6.63,1.45,7.81,5.8a288.09,288.09,0,0,0,11.78,35.45V104.4h11.64v56c-5.13,0-10.35.56-15.34-.28-2.07-.34-4.48-3.41-5.26-5.73-3.9-11.7-7.32-23.56-12.37-35.21Z" fill="#274690"/><path d="M296.74,247.49c-12.5,1.91-12.5,1.91-16.45-9.53-2.92-8.47-2.92-8.47-13-7.4v17.23h-12V191.63c10.42.52,20.95-.19,30.9,1.87,10.86,2.26,15.45,18.16,8,27.73-4.31,5.53-4.16,9.71-1.53,15.21C294.28,239.76,295.26,243.37,296.74,247.49ZM267.38,221.1c6.35-2.17,11.8-3.23,16.16-6,1.43-.91,1.25-7.15-.37-9.42-3.93-5.52-10-3.63-15.79-2.77Z" fill="#274690"/><path d="M65.22,220.22c.12-2.23.21-4.46.37-6.69,1.33-18.95,17.11-28.55,34.52-20.66,11.49,5.21,12.28,16.08,12.34,26.61.06,10.69,0,22-11.69,27.66-17.55,8.47-33.88-1.08-35.19-20.24C65.42,224.68,65.33,222.45,65.22,220.22Zm12.47-.64c.28,4,.15,7.57.85,10.93,1.15,5.5,4.63,8.45,10.59,8.27,5.53-.18,9.32-2.64,9.66-8.17a142.59,142.59,0,0,0-.18-21.28c-.45-5-4.06-7.52-9.33-7.69-5.57-.19-9.15,2.24-10.37,7.5C78.09,212.72,78,216.47,77.69,219.58Z" fill="#274690"/><path d="M185.88,126.72v10.52H167v12.29h23.82v10.31H154.72V104.47h35.61c2,9.64,1.68,10.11-7.61,10.15-5,0-9.93,0-15.53,0v12.09Z" fill="#274690"/><path d="M245.82,192.38v10.06H231.36c-10.53,0-10.73.3-9.05,12.13h17.85c2.51,10.14,2,10.8-7.07,10.86-3.45,0-6.89,0-10.1,0-3.14,11.31-2.45,12.24,8.4,12.26H245.8v10.15h-36V192.38Z" fill="#274690"/><path d="M201.09,202.44c-5.35,0-10.34.4-15.25-.09-7.08-.71-9.53,2.22-8.49,8.91.29,1.9.23,3.85.38,6.7,4.07,0,7.74,0,11.41,0,9.13,0,9.59.67,7.26,10.75H177.59v19H165.15V217.28c0-6.72.11-13.44,0-20.15-.07-3.8,1.49-5.35,5.34-5.27,7.74.16,15.48,0,23.22,0C202.68,191.93,202.85,192.16,201.09,202.44Z" fill="#274690"/><path d="M153,228.65H133.81v19.23h-12V192.57h35.57v9.84H134.22v15.52H153Z" fill="#274690"/><path d="M267.38,221.1V202.9c5.77-.86,11.86-2.75,15.79,2.77,1.62,2.27,1.8,8.51.37,9.42C279.18,217.87,273.73,218.93,267.38,221.1Z" fill="#274690"/><path d="M77.69,219.58c.34-3.11.4-6.86,1.22-10.44,1.22-5.26,4.8-7.69,10.37-7.5,5.27.17,8.88,2.67,9.33,7.69a142.59,142.59,0,0,1,.18,21.28c-.34,5.53-4.13,8-9.66,8.17-6,.18-9.44-2.77-10.59-8.27C77.84,227.15,78,223.63,77.69,219.58Z" fill="#274690"/><text transform="translate(82.47 146.39)" font-size="71" fill="#2e8d9a" font-family="Cairo-Bold, Cairo" font-weight="700">ضورع<tspan x="-40.22" y="85.2">تاموصخ</tspan></text></g></g></svg>