<svg xmlns="http://www.w3.org/2000/svg" viewBox="0 0 24 24"><g id="Layer_2" data-name="Layer 2"><g id="Layer_1-2" data-name="Layer 1"><path d="M24,0V24H0V0Z" fill="none"/><path d="M20,11V4H13L4,13l7,7ZM16,6.5A1.5,1.5,0,1,1,17.5,8,1.5,1.5,0,0,1,16,6.5Z" fill="#00a887"/><path d="M22.42,12.41A2,2,0,0,0,23,11V4a2,2,0,0,0-2-2H14a2,2,0,0,0-1.42.59l-9,9A2,2,0,0,0,3,13a2,2,0,0,0,.59,1.41l7,7A2,2,0,0,0,12,22a2,2,0,0,0,1.42-.59ZM5,13l9-9h7v7h0l-9,9Z" fill="#004f51"/><circle cx="17.5" cy="6.5" r="1.5" fill="#fff"/></g></g></svg>