<svg width="82" height="64" viewBox="0 0 82 64" fill="none" xmlns="http://www.w3.org/2000/svg">
<path d="M27.6977 23.4264C27.1846 24.4465 26.8389 25.2987 26.7596 25.8304C26.3783 28.3857 32.4846 52.9704 33.7118 53.48C34.939 53.9896 56.0975 48.6563 56.7185 47.7694C56.8808 47.5376 56.5859 45.5988 56.0418 42.8377" stroke="#214187" stroke-width="1.33022" stroke-linecap="round"/>
<path d="M27.665 23.0176C27.665 20.434 32.6597 9.61487 34.2709 8.96896C35.8821 8.32304 48.6105 12.36 49.8995 13.4904C51.1884 14.6207 61.0167 39.3271 60.5333 40.2959C60.05 41.2648 39.9101 49.6617 38.6211 49.3388C37.3322 49.0158 27.665 25.6013 27.665 23.0176Z" stroke="#214187" stroke-width="1.33022" stroke-linecap="round"/>
<ellipse cx="3.49908" cy="3.49902" rx="3.49908" ry="3.49902" transform="matrix(0.986172 0.165724 -0.165731 0.986171 35.5635 14.4351)" stroke="#214187" stroke-width="1.33022"/>
<path d="M39.098 18.9418C39.098 3.37855 23.7896 4.90933 30.1681 13.8391" stroke="#214187" stroke-width="1.33022" stroke-linecap="round"/>
<path d="M41.8946 31.1302C41.1426 31.1302 40.5491 30.8697 40.1141 30.3487C39.7112 29.8599 39.5098 29.2369 39.5098 28.4796C39.5098 27.9532 39.7837 27.451 40.3316 26.973C40.8579 26.5165 41.387 26.2882 41.9187 26.2882C42.6975 26.2882 43.3179 26.546 43.7798 27.0616C44.2202 27.5611 44.4404 28.203 44.4404 28.9871C44.4404 29.6424 44.1665 30.1715 43.6187 30.5743C43.1299 30.9449 42.5552 31.1302 41.8946 31.1302ZM48.2673 27.69C48.0686 28.0123 47.8564 28.4393 47.6308 28.971L47.0588 30.2762L45.4636 33.7002L43.6589 37.5029C43.4924 37.9165 43.2212 38.5261 42.8452 39.3318C42.6948 39.6165 42.4934 39.7588 42.241 39.7588C42.0637 39.7588 41.9026 39.6943 41.7576 39.5654C41.6179 39.4419 41.5481 39.2861 41.5481 39.0981C41.5481 39.0176 41.5642 38.929 41.5965 38.8323C41.8596 38.1072 42.284 37.1592 42.8694 35.9883C43.5623 34.608 44.0134 33.6707 44.2229 33.1766L46.3982 28.3426C46.6882 27.6283 46.9541 27.1395 47.1958 26.8763C47.3623 26.6937 47.5342 26.6024 47.7114 26.6024C47.894 26.6024 48.0552 26.6722 48.1948 26.8119C48.3398 26.9461 48.4123 27.1046 48.4123 27.2872C48.4123 27.4054 48.364 27.5396 48.2673 27.69ZM48.4768 39.6702C47.7463 39.6702 47.1394 39.4526 46.656 39.0176C46.1511 38.561 45.8987 37.9675 45.8987 37.2371C45.8987 36.4422 46.1243 35.7842 46.5754 35.2632C47.0481 34.7046 47.6765 34.4253 48.4607 34.4253C49.1911 34.4253 49.8303 34.6294 50.3781 35.0376C50.9851 35.4942 51.2885 36.0796 51.2885 36.794C51.2885 37.6157 51.0253 38.3005 50.499 38.8484C49.9726 39.3962 49.2985 39.6702 48.4768 39.6702ZM41.8946 27.6417C41.6475 27.6417 41.4165 27.7223 41.2017 27.8834C40.9707 28.0606 40.8553 28.2594 40.8553 28.4796C40.8553 28.9093 40.9412 29.2342 41.1131 29.4544C41.2903 29.6693 41.5508 29.7767 41.8946 29.7767C42.1846 29.7767 42.4478 29.7122 42.6841 29.5833C42.9527 29.4329 43.0869 29.2342 43.0869 28.9871C43.0869 28.536 42.9876 28.2003 42.7888 27.9801C42.5901 27.7545 42.292 27.6417 41.8946 27.6417ZM48.4607 35.7788C48.0739 35.7788 47.7705 35.9239 47.5503 36.2139C47.3515 36.4824 47.2522 36.8235 47.2522 37.2371C47.2522 37.5969 47.3677 37.8682 47.5986 38.0508C47.8349 38.2334 48.1867 38.3247 48.654 38.3247C49.0837 38.3247 49.4033 38.1985 49.6128 37.9461C49.8276 37.6882 49.935 37.3042 49.935 36.794C49.935 36.4824 49.7685 36.2273 49.4355 36.0286C49.1455 35.8621 48.8205 35.7788 48.4607 35.7788Z" fill="#214187"/>
</svg>
