<?xml version="1.0" encoding="UTF-8" standalone="no"?>
<svg
   enable-background="new 0 0 24 24"
   height="24px"
   viewBox="0 0 24 24"
   width="24px"
   fill="#000000"
   version="1.1"
   id="svg3558"
   sodipodi:docname="qr_code_scanner_black_24dp.svg"
   inkscape:version="1.2 (dc2aedaf03, 2022-05-15)"
   xmlns:inkscape="http://www.inkscape.org/namespaces/inkscape"
   xmlns:sodipodi="http://sodipodi.sourceforge.net/DTD/sodipodi-0.dtd"
   xmlns="http://www.w3.org/2000/svg"
   xmlns:svg="http://www.w3.org/2000/svg">
  <defs
     id="defs3562" />
  <sodipodi:namedview
     id="namedview3560"
     pagecolor="#ffffff"
     bordercolor="#000000"
     borderopacity="0.25"
     inkscape:showpageshadow="2"
     inkscape:pageopacity="0.0"
     inkscape:pagecheckerboard="0"
     inkscape:deskcolor="#d1d1d1"
     showgrid="false"
     inkscape:zoom="34.875"
     inkscape:cx="11.985663"
     inkscape:cy="12.014337"
     inkscape:window-width="1920"
     inkscape:window-height="1017"
     inkscape:window-x="-8"
     inkscape:window-y="-8"
     inkscape:window-maximized="1"
     inkscape:current-layer="svg3558" />
  <rect
     fill="none"
     height="24"
     width="24"
     id="rect3554" />
  <path
     d="M9.5,6.5v3h-3v-3H9.5 M11,5H5v6h6V5L11,5z M9.5,14.5v3h-3v-3H9.5 M11,13H5v6h6V13L11,13z M17.5,6.5v3h-3v-3H17.5 M19,5h-6v6 h6V5L19,5z M13,13h1.5v1.5H13V13z M14.5,14.5H16V16h-1.5V14.5z M16,13h1.5v1.5H16V13z M13,16h1.5v1.5H13V16z M14.5,17.5H16V19h-1.5 V17.5z M16,16h1.5v1.5H16V16z M17.5,14.5H19V16h-1.5V14.5z M17.5,17.5H19V19h-1.5V17.5z M22,7h-2V4h-3V2h5V7z M22,22v-5h-2v3h-3v2 H22z M2,22h5v-2H4v-3H2V22z M2,2v5h2V4h3V2H2z"
     id="path3556"
     style="fill:#274690;fill-opacity:1" />
  <path
     style="fill:#274690;fill-opacity:1;stroke:#2e8d9a;stroke-width:1"
     d="M 6.5089606,8 V 6.5232975 H 8 9.4910394 V 8 9.4767025 H 8 6.5089606 Z"
     id="path4113" />
  <path
     style="fill:#274690;fill-opacity:1;stroke:#2e8d9a;stroke-width:1"
     d="M 14.508961,8 V 6.5232975 H 16 17.491039 V 8 9.4767025 H 16 14.508961 Z"
     id="path4115" />
  <path
     style="fill:#274690;fill-opacity:1;stroke:#2e8d9a;stroke-width:1"
     d="M 6.5089606,16 V 14.523297 H 8 9.4910394 V 16 17.476703 H 8 6.5089606 Z"
     id="path4117" />
</svg>
