<svg width="82" height="64" viewBox="0 0 82 64" fill="none" xmlns="http://www.w3.org/2000/svg">
<path d="M22 16.7736C22 14.6895 23.6895 13 25.7736 13H38.6037V29.6037H22V16.7736Z" stroke="#214187" stroke-width="1.3" stroke-linecap="round" stroke-linejoin="round"/>
<path d="M22 47.8299C22 49.914 23.6895 51.6035 25.7736 51.6035H38.6037V34.9998H22V47.8299Z" stroke="#214187" stroke-width="1.3" stroke-linecap="round" stroke-linejoin="round"/>
<path d="M60.6038 16.7736C60.6038 14.6895 58.9143 13 56.8302 13H44V29.6037H60.6038V16.7736Z" stroke="#214187" stroke-width="1.3" stroke-linecap="round" stroke-linejoin="round"/>
<path d="M54.1885 19.415H50.4149V23.1886H54.1885V19.415Z" stroke="#214187" stroke-width="1.3" stroke-linecap="round" stroke-linejoin="round"/>
<path d="M32.1887 19.415H28.4151V23.1886H32.1887V19.415Z" stroke="#214187" stroke-width="1.3" stroke-linecap="round" stroke-linejoin="round"/>
<path d="M32.1887 41.4146H28.4151V45.1881H32.1887V41.4146Z" stroke="#214187" stroke-width="1.3" stroke-linecap="round" stroke-linejoin="round"/>
<path d="M54.1885 41.4146H50.4149V45.1881H54.1885V41.4146Z" stroke="#214187" stroke-width="1.3" stroke-linecap="round" stroke-linejoin="round"/>
<path d="M44 51.6035V45.3771M60.6038 34.9998V40.8488M54.566 34.9998H44V40.8488M49.8491 51.6035H56.8302C58.9143 51.6035 60.6038 49.914 60.6038 47.8299V45.3771" stroke="#214187" stroke-width="1.3" stroke-linecap="round" stroke-linejoin="round"/>
</svg>
