<?xml version="1.0" standalone="no"?>
<!DOCTYPE svg PUBLIC "-//W3C//DTD SVG 20010904//EN"
 "http://www.w3.org/TR/2001/REC-SVG-20010904/DTD/svg10.dtd">
<svg version="1.0" xmlns="http://www.w3.org/2000/svg"
 width="368.000000pt" height="158.000000pt" viewBox="0 0 368.000000 158.000000"
 preserveAspectRatio="xMidYMid meet">

<g transform="translate(0.000000,158.000000) scale(0.100000,-0.100000)"
fill="#000000" stroke="none">
<path d="M2400 1370 l0 -90 90 0 90 0 0 90 0 90 -90 0 -90 0 0 -90z"/>
<path d="M2670 1370 l0 -90 90 0 90 0 0 90 0 90 -90 0 -90 0 0 -90z"/>
<path d="M3045 1320 c-66 -56 -177 -150 -247 -208 l-127 -107 0 -102 -1 -103
185 0 185 0 0 100 0 100 -32 0 -33 1 50 45 c28 24 67 58 88 75 l37 31 0 -241
0 -241 -85 0 c-69 0 -86 -3 -94 -17 -10 -17 -10 -17 -11 0 0 16 -17 17 -204
17 -186 0 -205 -2 -209 -17 -4 -17 -5 -17 -6 0 -1 14 -11 17 -71 17 l-70 0 0
231 0 232 -72 74 c-56 57 -78 73 -94 69 -17 -5 -362 -167 -444 -209 -25 -13
-25 -15 -28 -151 l-3 -138 51 -50 c28 -28 48 -54 43 -57 -4 -3 -87 -4 -183 -1
l-175 5 -3 255 -2 256 -74 73 -73 72 -244 -116 c-134 -64 -265 -126 -291 -137
l-48 -21 0 -141 0 -142 45 -44 c25 -24 45 -48 45 -52 0 -4 -22 -8 -50 -8 -33
0 -50 -4 -50 -12 0 -10 -2 -10 -8 -1 -6 9 -76 13 -272 15 l-265 3 -3 273 -2
272 -100 0 -100 0 0 -370 0 -369 568 -1 567 0 38 51 c20 27 37 56 37 63 0 18
-65 78 -75 69 -4 -5 -5 -3 -2 3 3 6 -37 53 -89 105 -78 78 -94 99 -94 124 0
30 5 33 168 112 92 45 171 79 175 76 5 -3 8 -134 7 -291 -1 -158 -1 -293 -1
-299 1 -16 91 -18 91 -3 0 6 5 10 11 10 5 0 7 -5 4 -10 -4 -6 28 -10 89 -10
66 0 96 4 99 13 4 9 6 9 6 0 1 -9 59 -12 228 -13 212 0 228 -1 248 -20 12 -11
25 -20 31 -20 5 0 25 25 43 55 40 64 59 71 53 20 l-4 -35 576 0 575 0 1 418 0
418 -75 48 c-42 27 -84 50 -93 53 -11 2 -60 -32 -137 -97z m-845 -492 l0 -213
-126 127 c-163 164 -163 161 -4 240 63 31 118 57 123 58 4 0 7 -96 7 -212z
m-90 -152 c0 -3 -4 -8 -10 -11 -5 -3 -10 -1 -10 4 0 6 5 11 10 11 6 0 10 -2
10 -4z m-1983 -88 c-3 -8 -6 -5 -6 6 -1 11 2 17 5 13 3 -3 4 -12 1 -19z m605
-50 c2 -25 0 -44 -4 -41 -5 2 -7 30 -7 61 1 62 6 53 11 -20z m1090 5 c2 -24 0
-43 -4 -43 -5 0 -7 26 -7 58 1 61 6 55 11 -15z m525 45 c-3 -8 -6 -5 -6 6 -1
11 2 17 5 13 3 -3 4 -12 1 -19z m103 -8 c0 -5 -5 -10 -11 -10 -5 0 -7 5 -4 10
3 6 8 10 11 10 2 0 4 -4 4 -10z m740 -10 c0 -5 -5 -10 -11 -10 -5 0 -7 5 -4
10 3 6 8 10 11 10 2 0 4 -4 4 -10z m-3119 -31 c-5 -13 -10 -19 -10 -12 -1 15
10 45 15 40 3 -2 0 -15 -5 -28z m2929 23 c0 -5 -7 -9 -15 -9 -8 0 -15 4 -15 9
0 4 7 8 15 8 8 0 15 -4 15 -8z m-2728 -64 c-8 -8 -8 6 -1 52 1 8 4 2 6 -14 3
-16 0 -33 -5 -38z m38 42 c0 -5 -2 -10 -4 -10 -3 0 -8 5 -11 10 -3 6 -1 10 4
10 6 0 11 -4 11 -10z m810 -6 c0 -8 -5 -12 -10 -9 -6 4 -8 11 -5 16 9 14 15
11 15 -7z m277 -6 c-3 -8 -6 -5 -6 6 -1 11 2 17 5 13 3 -3 4 -12 1 -19z m890
-15 c-3 -10 -5 -4 -5 12 0 17 2 24 5 18 2 -7 2 -21 0 -30z m919 -10 c-6 -14
-8 -14 -20 3 -8 10 -12 23 -8 28 3 5 9 1 13 -10 7 -17 8 -16 9 6 2 18 4 20 7
7 3 -10 2 -25 -1 -34z m-2696 27 c0 -5 -2 -10 -4 -10 -3 0 -8 5 -11 10 -3 6
-1 10 4 10 6 0 11 -4 11 -10z m427 -12 c-3 -8 -6 -5 -6 6 -1 11 2 17 5 13 3
-3 4 -12 1 -19z m1090 0 c-3 -8 -6 -5 -6 6 -1 11 2 17 5 13 3 -3 4 -12 1 -19z
m390 -10 c-3 -8 -6 -5 -6 6 -1 11 2 17 5 13 3 -3 4 -12 1 -19z m536 2 c3 -11
1 -18 -4 -14 -5 3 -9 12 -9 20 0 20 7 17 13 -6z m-1968 -9 c-3 -6 -11 -11 -17
-11 -6 0 -6 6 2 15 14 17 26 13 15 -4z m1086 -4 c-10 -9 -11 -8 -5 6 3 10 9
15 12 12 3 -3 0 -11 -7 -18z m63 8 c3 -8 1 -15 -4 -15 -6 0 -10 7 -10 15 0 8
2 15 4 15 2 0 6 -7 10 -15z m-1094 -5 c0 -5 -2 -10 -4 -10 -3 0 -8 5 -11 10
-3 6 -1 10 4 10 6 0 11 -4 11 -10z m100 6 c0 -3 -4 -8 -10 -11 -5 -3 -10 -1
-10 4 0 6 5 11 10 11 6 0 10 -2 10 -4z"/>
<path d="M3450 685 l0 -315 -516 0 c-341 0 -513 -3 -509 -10 3 -5 2 -10 -4
-10 -5 0 -12 6 -15 13 -2 6 -4 -33 -3 -87 l2 -99 80 3 c44 1 130 3 190 2 72 0
113 4 117 12 6 8 8 8 8 -1 0 -8 13 -13 30 -13 28 0 30 3 31 38 l2 37 7 -40 c4
-22 8 -37 9 -34 0 4 19 3 41 -1 22 -4 40 -5 40 -1 0 3 39 6 87 6 l88 0 6 45 6
45 1 -48 2 -48 99 2 100 2 -5 31 -4 31 10 -32 c8 -26 16 -33 36 -33 19 0 25 4
20 15 -3 8 -1 15 4 15 6 0 10 -6 10 -14 0 -12 22 -15 110 -18 l110 -3 0 413 0
412 -95 0 -95 0 0 -315z m-930 -395 c0 -5 -2 -10 -4 -10 -3 0 -8 5 -11 10 -3
6 -1 10 4 10 6 0 11 -4 11 -10z m87 -22 c-3 -8 -6 -5 -6 6 -1 11 2 17 5 13 3
-3 4 -12 1 -19z m720 -60 c-3 -8 -6 -5 -6 6 -1 11 2 17 5 13 3 -3 4 -12 1 -19z
m-207 -8 c0 -5 -2 -10 -4 -10 -3 0 -8 5 -11 10 -3 6 -1 10 4 10 6 0 11 -4 11
-10z"/>
<path d="M0 280 l0 -90 95 0 95 0 0 90 0 90 -95 0 -95 0 0 -90z"/>
<path d="M280 280 l0 -90 85 0 85 0 0 90 0 90 -85 0 -85 0 0 -90z"/>
</g>
</svg>
