<svg xmlns="http://www.w3.org/2000/svg" viewBox="0 0 382.51 204.13"><g id="Layer_2" data-name="Layer 2"><g id="Layer_1-2" data-name="Layer 1"><path d="M0,24.07C5.85,6.35,18.32-.07,36.54,0,140.35.37,244.16.18,348,.18Q382.5.2,382.5,34.57q0,67.86,0,135.71c0,21.89-11.81,33.66-33.75,33.67-104.06,0-208.13-.19-312.19.18C18.34,204.2,5.87,197.77,0,180.07Zm190.5,168.5q78.45,0,156.89,0c17.83,0,23.88-6,23.89-23.76q0-66.74,0-133.49c0-17.75-6-23.73-23.9-23.73q-156.13,0-312.28,0c-17.85,0-23.86,6-23.87,23.74q0,66.75,0,133.5c0,17.75,6,23.73,23.88,23.74Q112.81,192.59,190.5,192.57Z" fill="#274690"/><path d="M293,63.19c10.19,0,18.91-.45,27.54.25,2.88.23,7.38,3,7.88,5.31,1,4.85-3.48,5.85-7.45,5.87-11.7.08-23.4.26-35.09-.15-2.84-.1-6.91-1.63-8-3.76s.28-6.19,1.87-8.53c5.82-8.58,12.19-16.78,19.41-26.55-4.94,0-8.37.79-11.14-.23-2.51-.92-4.29-3.81-6.39-5.83,2.06-1.78,4.1-5.08,6.2-5.11,21.4-.39,42.82-.34,64.22-.17,6.23,0,6.58,4.72,6.58,9.59q-.09,60.36,0,120.72c0,5.74-.12,11.5,0,17.24s-2.59,8.28-8.15,8.11c-1.5,0-3,0-4.48,0H78.58c-.49,0-1,0-1.49,0-4.6-.16-10.85,1.11-10.88-5.7s6.23-5.76,10.83-5.78c17.88-.07,35.76,0,54.12,0V36.33H35.73V168.45h9.32c4.1,0,8.29,1.17,7.49,5.93-.37,2.19-4.63,5.28-7.16,5.32-23.87.35-21.45,2.49-21.45-20q0-62.23,0-124.47c0-10.2.87-11.07,11.13-11.07H257.63c1.49,0,3.35-.54,4.41.15A59.84,59.84,0,0,1,268.65,30c-2.25,1.88-4.24,4.64-6.82,5.42-3.13.95-6.77.23-10.58.23V167.88h62.36c-1.56-5.85-5.95-7.63-11-9.43-3-1.07-5.3-4-7.92-6.12,2.58-1.82,4.92-4.48,7.79-5.3,7.83-2.25,12.86-7.79,12.8-15.36a15,15,0,0,0-11.66-14.58c-7.7-1.59-14.22,1.79-17.44,9.41-1.61,3.8-2.89,8.36-8.12,6.26-5.42-2.19-3.77-6.93-2.08-10.92,4.3-10.16,12.24-15.77,23-16.38,10.55-.6,18.89,4.14,24.09,13.44,5.37,9.59,4.59,19.17-1.5,28.26a55.71,55.71,0,0,1-4.16,4.94L327.24,168h19.48V35.8c-10.63,0-21.46-.08-32.29.11-1.18,0-2.64,1.32-3.45,2.41C305.23,46.11,299.62,54,293,63.19ZM238.94,168.07V36.33H143.57V168.07Z" fill="#274690"/><path d="M112,102.79c0,6.25.2,12.5,0,18.74a29,29,0,0,1-28.39,28.18C69,150,55.84,138.7,55,123.64A353.55,353.55,0,0,1,55,80.21c1-15,14.36-26,29-25.49A28.73,28.73,0,0,1,111.92,81.8c.39,7,.06,14,.06,21Zm-46.26-.87c0,6.23-.18,12.47,0,18.69.36,10.07,7.26,17.21,16.66,17.57,9.9.39,17.66-6.3,18.07-16.74.5-12.93.49-25.92,0-38.85A16.84,16.84,0,0,0,82.93,66.05c-9.37.17-16.67,7.33-17.11,17.19C65.54,89.46,65.77,95.7,65.76,101.92Z" fill="#2e8d9a"/><path d="M192.5,67.54c-4.24,0-7.85.67-11-.23-2.35-.66-4.12-3.38-6.15-5.18,1.95-1.87,3.7-5.05,5.88-5.37a53.29,53.29,0,0,1,16.34,0c2.23.38,5.6,3.92,5.63,6.07q.58,39.34,0,78.7c0,2.12-3.63,4.18-5.57,6.27-1.7-2.35-4.82-4.67-4.86-7-.39-21.49-.23-43-.24-64.47Z" fill="#2e8d9a"/></g></g></svg>