<?xml version="1.0" encoding="UTF-8" standalone="no"?>
<svg
   enable-background="new 0 0 24 24"
   height="24px"
   viewBox="0 0 24 24"
   width="24px"
   fill="#000000"
   version="1.1"
   id="svg8"
   sodipodi:docname="rate.svg"
   inkscape:version="1.2 (dc2aedaf03, 2022-05-15)"
   xmlns:inkscape="http://www.inkscape.org/namespaces/inkscape"
   xmlns:sodipodi="http://sodipodi.sourceforge.net/DTD/sodipodi-0.dtd"
   xmlns="http://www.w3.org/2000/svg"
   xmlns:svg="http://www.w3.org/2000/svg">
  <defs
     id="defs12" />
  <sodipodi:namedview
     id="namedview10"
     pagecolor="#ffffff"
     bordercolor="#000000"
     borderopacity="0.25"
     inkscape:showpageshadow="2"
     inkscape:pageopacity="0.0"
     inkscape:pagecheckerboard="0"
     inkscape:deskcolor="#d1d1d1"
     showgrid="false"
     inkscape:zoom="34.875"
     inkscape:cx="11.985663"
     inkscape:cy="12.014337"
     inkscape:window-width="1920"
     inkscape:window-height="1017"
     inkscape:window-x="1912"
     inkscape:window-y="-3"
     inkscape:window-maximized="1"
     inkscape:current-layer="svg8" />
  <rect
     fill="none"
     height="24"
     width="24"
     id="rect2" />
  <polygon
     opacity=".3"
     points="10.06,12 11,8.89 11.94,12 14.76,12 12.49,13.62 13.42,16.63 11,14.79 8.58,16.63 9.51,13.62 7.24,12 "
     id="polygon4"
     style="opacity:1;fill:#2e8d9a;fill-opacity:1;stroke-width:1.41807"
     transform="matrix(0.70518634,0,0,0.70518634,3.2331699,3.8251945)" />
  <path
     d="m11 8.89.94 3.11h2.82l-2.27 1.62.93 3.01L11 14.79l-2.42 1.84.93-3.01L7.24 12h2.82L11 8.89zM8.58 10H1l6.17 4.41L4.83 22 11 17.31 17.18 22l-2.35-7.59L21 10h-7.58L11 2l-2.42 8zm12.78 12-1.86-6.01L23.68 13h-3.44l-3.08 2.2 1.46 4.72L21.36 22zM17 8l-1.82-6-1.04 3.45.77 2.55H17z"
     id="path6"
     style="fill:#274690;fill-opacity:1" />
</svg>
