<svg width="82" height="64" viewBox="0 0 82 64" fill="none" xmlns="http://www.w3.org/2000/svg">
<path d="M50.7961 31.0999C50.7961 33.6225 54.8862 35.6675 59.9314 35.6675C64.9767 35.6675 69.0667 33.6225 69.0667 31.0999C69.0667 28.5772 64.9767 26.5322 59.9314 26.5322C56.7473 26.5322 53.9437 27.3467 52.3085 28.5818" stroke="#214187" stroke-width="1.3" stroke-linecap="round"/>
<path d="M69.7167 34.7539C69.7167 34.3949 69.4257 34.1039 69.0667 34.1039C68.7077 34.1039 68.4167 34.3949 68.4167 34.7539H69.7167ZM68.4167 34.7539C68.4167 35.0906 68.2635 35.4627 67.8815 35.8578C67.4965 36.256 66.9081 36.6443 66.1305 36.9845C64.5773 37.664 62.3861 38.1006 59.9314 38.1006V39.4006C62.522 39.4006 64.8985 38.9425 66.6516 38.1755C67.5272 37.7924 68.2766 37.3195 68.8161 36.7614C69.3587 36.2001 69.7167 35.5208 69.7167 34.7539H68.4167ZM59.9314 38.1006C57.4768 38.1006 55.2856 37.664 53.7323 36.9845C52.9548 36.6443 52.3663 36.256 51.9814 35.8578C51.5994 35.4627 51.4461 35.0906 51.4461 34.7539H50.1461C50.1461 35.5208 50.5041 36.2001 51.0467 36.7614C51.5863 37.3195 52.3357 37.7924 53.2113 38.1755C54.9644 38.9425 57.3408 39.4006 59.9314 39.4006V38.1006ZM51.4461 34.7539C51.4461 34.381 51.6354 33.9613 52.1156 33.5191L51.2349 32.5629C50.5877 33.159 50.1461 33.9008 50.1461 34.7539H51.4461Z" fill="#214187"/>
<path d="M68.4142 36.3895C68.8351 36.8457 69.0667 37.3437 69.0667 37.8652C69.0667 40.057 64.9767 41.8338 59.9314 41.8338C54.8862 41.8338 50.7961 40.057 50.7961 37.8652C50.7961 37.2407 51.1282 36.6499 51.7198 36.1243" stroke="#214187" stroke-width="1.3"/>
<path d="M68.4142 42.5557C68.8351 43.0119 69.0667 43.51 69.0667 44.0315C69.0667 46.2233 64.9767 48.0001 59.9314 48.0001C54.8862 48.0001 50.7961 46.2233 50.7961 44.0315C50.7961 43.407 51.1282 42.8162 51.7198 42.2905" stroke="#214187" stroke-width="1.3"/>
<path d="M68.1876 39.2073C68.7513 39.7264 69.0667 40.3072 69.0667 40.9201C69.0667 43.1275 64.9767 44.9168 59.9314 44.9168C54.8861 44.9168 50.7961 43.1275 50.7961 40.9201C50.7961 40.3072 51.1116 39.7264 51.6753 39.2073" stroke="#214187" stroke-width="1.3"/>
<path d="M45.6076 45H15.4551C14.0992 45 13 43.9008 13 42.5449V17.4551C13 16.0992 14.0992 15 15.4551 15H56.5449C57.9008 15 59 16.0992 59 17.4551V19.1441" stroke="#214187" stroke-width="1.3" stroke-linecap="round" stroke-linejoin="round"/>
<path d="M28.9869 20.0398H23.5692C23.0131 20.0398 22.4761 20.2427 22.059 20.6104L20.137 22.3046L18.5155 23.7339C17.9174 24.261 17.5676 25.0716 17.5676 25.9302V35.3752C17.5676 36.1388 17.9493 36.8519 18.5846 37.2755L22.131 39.6397C22.5061 39.8898 22.9469 40.0232 23.3978 40.0232H28.9869M43.9456 20.0398H50.0629C50.6634 20.0398 51.2396 20.2762 51.667 20.698L54 23M43.9456 40.0232H48.3991" stroke="#214187" stroke-width="1.3" stroke-linecap="round" stroke-linejoin="round"/>
<path d="M38.4649 26.5916H36.5169M33.8972 32.4129H36.5169M36.5169 26.5916H35.6212C34.8175 26.5916 34.1659 27.2431 34.1659 28.0469V28.0469C34.1659 28.8507 34.8175 29.5022 35.6212 29.5022H36.8752C37.6789 29.5022 38.3305 30.1538 38.3305 30.9576V30.9576C38.3305 31.7613 37.6789 32.4129 36.8752 32.4129H36.5169M36.5169 26.5916V24.8787M36.5169 32.4129V34.0139" stroke="#214187" stroke-linecap="round" stroke-linejoin="round"/>
<circle cx="36.4092" cy="29.6744" r="7.42242" stroke="#214187"/>
</svg>
