<?xml version="1.0" encoding="UTF-8" standalone="no"?>
<svg
   viewBox="0 0 24 24"
   version="1.1"
   id="svg35038"
   sodipodi:docname="sejelalrawatb.svg"
   inkscape:version="1.2 (dc2aedaf03, 2022-05-15)"
   xmlns:inkscape="http://www.inkscape.org/namespaces/inkscape"
   xmlns:sodipodi="http://sodipodi.sourceforge.net/DTD/sodipodi-0.dtd"
   xmlns="http://www.w3.org/2000/svg"
   xmlns:svg="http://www.w3.org/2000/svg">
  <defs
     id="defs35042" />
  <sodipodi:namedview
     id="namedview35040"
     pagecolor="#ffffff"
     bordercolor="#000000"
     borderopacity="0.25"
     inkscape:showpageshadow="2"
     inkscape:pageopacity="0.0"
     inkscape:pagecheckerboard="0"
     inkscape:deskcolor="#d1d1d1"
     showgrid="false"
     inkscape:zoom="34.875"
     inkscape:cx="11.985663"
     inkscape:cy="12.071685"
     inkscape:window-width="1920"
     inkscape:window-height="1017"
     inkscape:window-x="-8"
     inkscape:window-y="-8"
     inkscape:window-maximized="1"
     inkscape:current-layer="svg35038" />
  <g
     id="Layer_2"
     data-name="Layer 2">
    <g
       id="Layer_1-2"
       data-name="Layer 1">
      <rect
         width="24"
         height="24"
         fill="none"
         id="rect35026" />
      <path
         d="M9.17,6H4V18H20V8H11.17Z"
         fill="#2e8d9a"
         id="path35028"
         style="fill:#dbc38f;fill-opacity:1" />
      <path
         d="M21,5H13L11,3H5A2,2,0,0,0,3,5V17a2,2,0,0,0,2,2H21a2,2,0,0,0,2-2V7A2,2,0,0,0,21,5Zm0,12H5V5h5.17l2,2H21Z"
         fill="#274690"
         id="path35030"
         style="fill:#00612a;fill-opacity:1" />
      <rect
         x="6"
         y="10"
         width="12"
         height="2"
         fill="#fff"
         id="rect35032" />
      <rect
         x="10"
         y="14"
         width="8"
         height="2"
         fill="#fff"
         id="rect35034" />
    </g>
  </g>
</svg>
