<svg width="21" height="20" viewBox="0 0 21 20" fill="none" xmlns="http://www.w3.org/2000/svg">
<g id="Group 623">
<path id="Vector" d="M18.8333 7.02282V3.28062C18.8333 2.1184 18.3 1.64856 16.975 1.64856H13.6083C12.2833 1.64856 11.75 2.1184 11.75 3.28062V7.01458C11.75 8.18505 12.2833 8.64664 13.6083 8.64664H16.975C18.3 8.65488 18.8333 8.18505 18.8333 7.02282Z" stroke="#8E8E8E" stroke-width="1.25" stroke-linecap="round" stroke-linejoin="round"/>
<path id="Vector_2" d="M18.8333 16.2959V12.9658C18.8333 11.6552 18.3 11.1277 16.975 11.1277H13.6083C12.2833 11.1277 11.75 11.6552 11.75 12.9658V16.2959C11.75 17.6065 12.2833 18.134 13.6083 18.134H16.975C18.3 18.134 18.8333 17.6065 18.8333 16.2959Z" stroke="#8E8E8E" stroke-width="1.25" stroke-linecap="round" stroke-linejoin="round"/>
<path id="Vector_3" d="M9.25 7.02282V3.28062C9.25 2.1184 8.71667 1.64856 7.39167 1.64856H4.02502C2.70002 1.64856 2.16669 2.1184 2.16669 3.28062V7.01458C2.16669 8.18505 2.70002 8.64664 4.02502 8.64664H7.39167C8.71667 8.65488 9.25 8.18505 9.25 7.02282Z" stroke="#8E8E8E" stroke-width="1.25" stroke-linecap="round" stroke-linejoin="round"/>
<path id="Vector_4" d="M9.25 16.2959V12.9658C9.25 11.6552 8.71667 11.1277 7.39167 11.1277H4.02502C2.70002 11.1277 2.16669 11.6552 2.16669 12.9658V16.2959C2.16669 17.6065 2.70002 18.134 4.02502 18.134H7.39167C8.71667 18.134 9.25 17.6065 9.25 16.2959Z" stroke="#8E8E8E" stroke-width="1.25" stroke-linecap="round" stroke-linejoin="round"/>
</g>
</svg>
