<svg width="21" height="21" viewBox="0 0 21 21" fill="none" xmlns="http://www.w3.org/2000/svg">
<g id="Group 623">
<path id="Vector" d="M18.8333 7.88255V4.09922C18.8333 2.92422 18.3 2.44922 16.975 2.44922H13.6083C12.2833 2.44922 11.75 2.92422 11.75 4.09922V7.87422C11.75 9.05755 12.2833 9.52422 13.6083 9.52422H16.975C18.3 9.53255 18.8333 9.05755 18.8333 7.88255Z" fill="#7FD1D2" stroke="#7FD1D2" stroke-width="1.25" stroke-linecap="round" stroke-linejoin="round"/>
<path id="Vector_2" d="M18.8333 17.2575V13.8908C18.8333 12.5658 18.3 12.0325 16.975 12.0325H13.6083C12.2833 12.0325 11.75 12.5658 11.75 13.8908V17.2575C11.75 18.5825 12.2833 19.1158 13.6083 19.1158H16.975C18.3 19.1158 18.8333 18.5825 18.8333 17.2575Z" stroke="#29B3B4" stroke-width="1.25" stroke-linecap="round" stroke-linejoin="round"/>
<path id="Vector_3" d="M9.24996 7.88255V4.09922C9.24996 2.92422 8.71663 2.44922 7.39163 2.44922H4.02496C2.69996 2.44922 2.16663 2.92422 2.16663 4.09922V7.87422C2.16663 9.05755 2.69996 9.52422 4.02496 9.52422H7.39163C8.71663 9.53255 9.24996 9.05755 9.24996 7.88255Z" stroke="#29B3B4" stroke-width="1.25" stroke-linecap="round" stroke-linejoin="round"/>
<path id="Vector_4" d="M9.24996 17.2575V13.8908C9.24996 12.5658 8.71663 12.0325 7.39163 12.0325H4.02496C2.69996 12.0325 2.16663 12.5658 2.16663 13.8908V17.2575C2.16663 18.5825 2.69996 19.1158 4.02496 19.1158H7.39163C8.71663 19.1158 9.24996 18.5825 9.24996 17.2575Z" stroke="#29B3B4" stroke-width="1.25" stroke-linecap="round" stroke-linejoin="round"/>
</g>
</svg>
