<?xml version="1.0" encoding="UTF-8" standalone="no"?>
<svg
   height="24px"
   viewBox="0 0 24 24"
   width="24px"
   fill="#000000"
   version="1.1"
   id="svg10"
   sodipodi:docname="how_to_reg_black_24dp.svg"
   inkscape:version="1.2 (dc2aedaf03, 2022-05-15)"
   xmlns:inkscape="http://www.inkscape.org/namespaces/inkscape"
   xmlns:sodipodi="http://sodipodi.sourceforge.net/DTD/sodipodi-0.dtd"
   xmlns="http://www.w3.org/2000/svg"
   xmlns:svg="http://www.w3.org/2000/svg">
  <defs
     id="defs14" />
  <sodipodi:namedview
     id="namedview12"
     pagecolor="#ffffff"
     bordercolor="#000000"
     borderopacity="0.25"
     inkscape:showpageshadow="2"
     inkscape:pageopacity="0.0"
     inkscape:pagecheckerboard="0"
     inkscape:deskcolor="#d1d1d1"
     showgrid="false"
     inkscape:zoom="34.875"
     inkscape:cx="11.985663"
     inkscape:cy="12.014337"
     inkscape:window-width="1920"
     inkscape:window-height="1017"
     inkscape:window-x="1912"
     inkscape:window-y="-8"
     inkscape:window-maximized="1"
     inkscape:current-layer="svg10" />
  <path
     d="M0 0h24v24H0V0z"
     fill="none"
     id="path2" />
  <circle
     cx="10.942653"
     cy="8.5161295"
     opacity=".3"
     r="2"
     id="circle4"
     style="opacity:1;fill:#2e8d9a;fill-opacity:1" />
  <path
     d="m 5.0286738,18.401434 h 4.9900002 l -0.9900002,-1 0.93,-0.94 c -2.38,0.27 -4.73,1.31 -4.93,1.94 z"
     opacity=".3"
     id="path6"
     style="opacity:1;fill:#2e8d9a;fill-opacity:1" />
  <path
     d="M11 12c2.21 0 4-1.79 4-4s-1.79-4-4-4-4 1.79-4 4 1.79 4 4 4zm0-6c1.1 0 2 .9 2 2s-.9 2-2 2-2-.9-2-2 .9-2 2-2zm-1 12H5c.2-.63 2.55-1.67 4.93-1.94h.03l.46-.45L12 14.06c-.39-.04-.68-.06-1-.06-2.67 0-8 1.34-8 4v2h9l-2-2zm10.6-5.5l-5.13 5.17-2.07-2.08L12 17l3.47 3.5L22 13.91z"
     id="path8"
     style="fill:#274690;fill-opacity:1" />
</svg>
