<?xml version="1.0" encoding="UTF-8" standalone="no"?>
<svg
   viewBox="0 0 24 24"
   version="1.1"
   id="svg37492"
   sodipodi:docname="ta3refalratb.svg"
   inkscape:version="1.2 (dc2aedaf03, 2022-05-15)"
   xmlns:inkscape="http://www.inkscape.org/namespaces/inkscape"
   xmlns:sodipodi="http://sodipodi.sourceforge.net/DTD/sodipodi-0.dtd"
   xmlns="http://www.w3.org/2000/svg"
   xmlns:svg="http://www.w3.org/2000/svg">
  <defs
     id="defs37496" />
  <sodipodi:namedview
     id="namedview37494"
     pagecolor="#ffffff"
     bordercolor="#000000"
     borderopacity="0.25"
     inkscape:showpageshadow="2"
     inkscape:pageopacity="0.0"
     inkscape:pagecheckerboard="0"
     inkscape:deskcolor="#d1d1d1"
     showgrid="false"
     inkscape:zoom="34.875"
     inkscape:cx="11.985663"
     inkscape:cy="12.043011"
     inkscape:window-width="1920"
     inkscape:window-height="1017"
     inkscape:window-x="-8"
     inkscape:window-y="-8"
     inkscape:window-maximized="1"
     inkscape:current-layer="svg37492" />
  <g
     id="Layer_2"
     data-name="Layer 2">
    <g
       id="Layer_1-2"
       data-name="Layer 1">
      <rect
         width="24"
         height="24"
         fill="none"
         id="rect37480" />
      <path
         d="M16,6H2v8H16ZM9,13a3,3,0,1,1,3-3A3,3,0,0,1,9,13Z"
         fill="#2e8d9a"
         id="path37482"
         style="fill:#6ebe8a;fill-opacity:1" />
      <path
         d="M17,4H3A2,2,0,0,0,1,6v8a2,2,0,0,0,2,2H17a2,2,0,0,0,2-2V6a2,2,0,0,0-2-2ZM3,14V6H17v8Z"
         fill="#274690"
         id="path37484"
         style="fill:#005430;fill-opacity:1" />
      <path
         d="M10,7a3,3,0,1,0,3,3,3,3,0,0,0-3-3Z"
         fill="#274690"
         id="path37486"
         style="fill:#005430;fill-opacity:1" />
      <path
         d="M23,7V18a2,2,0,0,1-2,2H4V18H21V7Z"
         fill="#274690"
         id="path37488"
         style="fill:#005430;fill-opacity:1" />
    </g>
  </g>
</svg>
