<svg xmlns="http://www.w3.org/2000/svg" viewBox="0 0 382.51 371.65"><g id="Layer_2" data-name="Layer 2"><g id="Layer_1-2" data-name="Layer 1"><path d="M0,275.92V19.42C6.26,4.56,17.71,0,33.31,0,139.62.37,245.93.19,352.24.2,372.72.2,382.5,10,382.5,30.45q0,116.59,0,233.19c0,21.64-9.35,31.1-30.83,31.12q-56.4,0-112.79,0H229.6c.64,4.51.9,7.73,1.57,10.86,4.16,19.69,13.08,27,33.06,27.36,3.73.06,7.49-.16,11.19.22,12.28,1.26,20.15,12.45,17.12,24.08-2.27,8.73-9.79,14.29-20.39,14.31q-81,.13-162.07,0a22.71,22.71,0,0,1-3-.17c-10.81-1.37-17.84-9.22-17.63-19.65.2-10.23,7.82-18,18.61-18.68,4.72-.3,9.46-.11,14.19-.21,19-.42,33.05-18.5,29.07-38.15H142.6c-36.1,0-72.21-.47-108.3.21C18.56,295.28,6.64,291,0,275.92ZM38.93,39.1V229.89H343.59V39.1ZM369.61,244.43H12.8c0,6.58,0,12.75,0,18.92,0,15,3.54,18.57,18.43,18.57H351.48c1.74,0,3.49.07,5.22,0,7.82-.51,12.46-4.82,12.83-12.75S369.61,253.19,369.61,244.43Zm-344.16-14v-9.66q0-91.5,0-183c0-10.66,1.28-11.94,12.1-11.94q153.52,0,307.05,0c11.25,0,12.44,1.2,12.44,12.37V230.26h12.14c.19-2.53.5-4.71.5-6.89q0-96.75,0-193.5c0-12.87-4-16.63-17.28-16.63h-322c-14,0-17.6,3.63-17.6,17.81q0,95.63,0,191.25c0,2.63.31,5.26.5,8.1Zm201.8,102.13c-4-12.25-8-24.37-12.15-37H167.41c-4.2,12.76-8.18,24.88-12.17,37Zm-36,26.08h76.84c2,0,4.39.65,5.88-.22,2.46-1.44,4.33-3.88,6.45-5.9-2-2.11-3.76-4.65-6.15-6.18-1.43-.91-3.87-.26-5.86-.26q-72,.13-144,.26c-4.47,0-8.94-.12-13.42-.27-4.69-.15-9,.86-8.83,6.5.11,5.06,4,6.32,8.5,6.08,1.74-.09,3.48,0,5.22,0Z" fill="#274690"/><path d="M299.58,178.58c-2.7,3.92-4.43,7.86-7.39,10.27-2.14,1.74-5.92,1.46-9,2.08-.49-2.91-1-5.81-1.44-8.71,0-.19.21-.46.37-.64,17.41-18,9-40.34,11.22-62.33-6.35,3-11.7,5-16.44,8-1.7,1.08-2.67,4.48-2.72,6.85q-.4,17.61-.06,35.23c.11,5.39-1.73,8.73-6.72,11.18-23.43,11.54-46.61,23.6-70.15,34.88-3.39,1.63-8.94,1.43-12.39-.23C161.57,204,138.61,192,115.36,180.69c-5.31-2.6-7.14-6.07-7-11.73.27-11.74.39-23.51-.15-35.23-.12-2.69-2.54-6.29-4.93-7.67-6.87-4-14.41-6.76-21.37-10.58-2.28-1.25-5-4.28-5-6.45s2.76-5.33,5.07-6.44q52.15-25,104.62-49.33a13.08,13.08,0,0,1,9.76.17Q248.89,77.64,301,102.64c2.54,1.22,4.87,5.67,5,8.71.5,13.47.61,27-.05,40.47a35,35,0,0,0,7.35,24.24c3.16,4.15,9.45,9.68,2.49,14.63-7.14,5.09-9.37-3.12-12.71-7.26C302,182.08,301.05,180.62,299.58,178.58Zm-29.87-62.7H197.88c-.15,1.8-.39,3.25-.37,4.69.06,4.39-1.69,7.54-6.32,7.5s-6.24-3.26-6.19-7.62c.09-8-.38-16,.34-23.94.21-2.32,3.68-4.34,5.65-6.49,2.14,2,4.67,3.7,6.27,6,1,1.41.48,3.81.66,6h69.27C243.12,89.47,218.91,78,194.61,66.64a8.43,8.43,0,0,0-6.32-.13C158.6,80.38,129,94.44,99.19,108.56c.75.84,1.13,1.61,1.74,1.89,29.18,13.75,58.35,27.5,87.63,41,1.83.85,4.83.47,6.77-.43C219.62,139.7,243.81,128.17,269.71,115.88ZM121.09,134.53c0,11.24-.21,21.39.2,31.51.07,1.78,2.34,4.14,4.18,5.08q30.87,15.82,62,31.12a9.63,9.63,0,0,0,7.45.12Q226.4,187,257.57,170.93a7.76,7.76,0,0,0,3.68-5.43c.36-9.9.17-19.82.17-30.83-17,8-32.89,15.93-49.24,22.89-9.83,4.18-17.81,8.55-14.73,21.26.11.46.13,1.19-.14,1.45-2,1.9-4,5.13-6,5.15s-5.19-2.89-5.85-5.12c-1-3.45-.11-7.44-.54-11.14-.23-1.95-1.08-4.81-2.5-5.5C162.37,153.92,142.19,144.49,121.09,134.53Z" fill="#2e8d9a"/><path d="M191.26,256.38c6,0,12-.68,17.85.29,2.77.46,5,4,7.5,6.2-2.36,2.05-4.65,5.74-7.11,5.87a364.83,364.83,0,0,1-36.53,0c-2.45-.13-4.73-3.83-7.08-5.88,2.48-2.16,4.74-5.73,7.51-6.19C179.21,255.71,185.29,256.38,191.26,256.38Z" fill="#2e8d9a"/></g></g></svg>