<?xml version="1.0" encoding="UTF-8" standalone="no"?>
<!-- Svg Vector Icons : http://www.onlinewebfonts.com/icon -->

<svg
   version="1.1"
   x="0px"
   y="0px"
   viewBox="0 0 1000 1000"
   enable-background="new 0 0 1000 1000"
   xml:space="preserve"
   id="svg12"
   sodipodi:docname="76a1977620627e408cc94220252cc2f5.svg"
   inkscape:version="1.2 (dc2aedaf03, 2022-05-15)"
   xmlns:inkscape="http://www.inkscape.org/namespaces/inkscape"
   xmlns:sodipodi="http://sodipodi.sourceforge.net/DTD/sodipodi-0.dtd"
   xmlns="http://www.w3.org/2000/svg"
   xmlns:svg="http://www.w3.org/2000/svg"><defs
   id="defs16" /><sodipodi:namedview
   id="namedview14"
   pagecolor="#ffffff"
   bordercolor="#000000"
   borderopacity="0.25"
   inkscape:showpageshadow="2"
   inkscape:pageopacity="0.0"
   inkscape:pagecheckerboard="0"
   inkscape:deskcolor="#d1d1d1"
   showgrid="false"
   inkscape:zoom="0.837"
   inkscape:cx="499.40263"
   inkscape:cy="500.59737"
   inkscape:window-width="1920"
   inkscape:window-height="1017"
   inkscape:window-x="-8"
   inkscape:window-y="-8"
   inkscape:window-maximized="1"
   inkscape:current-layer="svg12" />
<metadata
   id="metadata2"> Svg Vector Icons : http://www.onlinewebfonts.com/icon </metadata>
<g
   id="g10"
   style="fill:#274690;fill-opacity:1;stroke:none"><g
     transform="translate(0.000000,511.000000) scale(0.100000,-0.100000)"
     id="g8"
     style="fill:#274690;fill-opacity:1;stroke:none"><path
       d="M5713,5015.2c-10.8-15.1-77.5-172.2-146.4-350.9c-249.8-630.8-549-1179.9-906.4-1664.3c-234.7-316.5-736.3-820.3-1048.5-1052.9c-434.9-323-1001.2-630.8-1558.8-848.3l-243.3-94.7v-2067v-2066.9l329.4-148.6C4089.6-4161.1,4981-4512.1,5868.1-4744.6c387.6-103.3,572.7-101.2,790.2,6.4c178.7,86.1,363.9,279.9,475.8,493.1c112,213.1,170.1,277.7,325.1,355.3c211,105.5,411.2,247.6,518.9,366c111.9,124.9,230.4,359.6,269.1,534c12.9,64.6,30.2,135.6,36.6,157.2c21.5,77.5,127.1,174.4,260.5,232.5c75.4,34.4,180.9,92.6,232.5,131.3c206.7,148.6,346.6,458.6,396.2,867.7c32.3,282.1,58.1,333.7,202.4,430.6c335.9,221.8,555.5,620.1,521,947.4c-17.2,172.2-135.6,413.4-256.2,518.9c-94.7,84-385.4,228.2-725.6,363.9c-751.4,301.4-1548.1,488.8-2465.3,585.6c-189.5,19.4-346.7,36.6-351,38.8c-2.1,2.2,68.9,202.4,157.2,443.5c208.8,574.9,361.7,1089.5,445.7,1492.1c58.2,277.7,66.7,372.5,68.9,658.8c2.1,292.8-4.3,350.9-47.4,484.4c-68.9,206.7-185.2,368.2-344.5,478C6163,4987.3,5771.2,5090.6,5713,5015.2z"
       id="path4"
       style="fill:#274690;fill-opacity:1;stroke:none" /><path
       d="M315.3,709.1C145.2-83.2,102.2-453.5,100-1084.4c0-583.5,28-839.7,152.9-1453.3c40.9-206.7,81.8-402.6,86.1-437.1l10.8-58.1H832h482.3v1959.3V885.7H834.2H354.1L315.3,709.1z"
       id="path6"
       style="fill:#274690;fill-opacity:1;stroke:none" /></g></g>
</svg>
