<?xml version="1.0" encoding="UTF-8" standalone="no"?>
<svg
   enable-background="new 0 0 24 24"
   height="24px"
   viewBox="0 0 24 24"
   width="24px"
   fill="#000000"
   version="1.1"
   id="svg12"
   sodipodi:docname="groups_black_24dp.svg"
   inkscape:version="1.2 (dc2aedaf03, 2022-05-15)"
   xmlns:inkscape="http://www.inkscape.org/namespaces/inkscape"
   xmlns:sodipodi="http://sodipodi.sourceforge.net/DTD/sodipodi-0.dtd"
   xmlns="http://www.w3.org/2000/svg"
   xmlns:svg="http://www.w3.org/2000/svg">
  <defs
     id="defs16" />
  <sodipodi:namedview
     id="namedview14"
     pagecolor="#ffffff"
     bordercolor="#000000"
     borderopacity="0.25"
     inkscape:showpageshadow="2"
     inkscape:pageopacity="0.0"
     inkscape:pagecheckerboard="0"
     inkscape:deskcolor="#d1d1d1"
     showgrid="false"
     inkscape:zoom="34.875"
     inkscape:cx="11.913978"
     inkscape:cy="12.014337"
     inkscape:window-width="1920"
     inkscape:window-height="1017"
     inkscape:window-x="-8"
     inkscape:window-y="-8"
     inkscape:window-maximized="1"
     inkscape:current-layer="svg12" />
  <rect
     fill="none"
     height="24"
     width="24"
     id="rect2" />
  <g
     opacity="0.3"
     id="g6"
     style="fill:#00bd82;fill-opacity:1;opacity:1"
     transform="translate(-0.45878136,0.37275986)">
    <path
       d="m 8.07,16 c 0.09,-0.23 0.13,-0.39 0.91,-0.69 0.97,-0.38 1.99,-0.56 3.02,-0.56 1.03,0 2.05,0.18 3.02,0.56 0.77,0.3 0.81,0.46 0.91,0.69 z M 12,8 c 0.55,0 1,0.45 1,1 0,0.55 -0.45,1 -1,1 -0.55,0 -1,-0.45 -1,-1 0,-0.55 0.45,-1 1,-1"
       id="path4"
       style="fill:#00bd82;fill-opacity:1" />
  </g>
  <g
     id="g10"
     style="fill:#3d4d55;fill-opacity:1">
    <path
       d="M4,13c1.1,0,2-0.9,2-2c0-1.1-0.9-2-2-2s-2,0.9-2,2C2,12.1,2.9,13,4,13z M5.13,14.1C4.76,14.04,4.39,14,4,14 c-0.99,0-1.93,0.21-2.78,0.58C0.48,14.9,0,15.62,0,16.43V18l4.5,0v-1.61C4.5,15.56,4.73,14.78,5.13,14.1z M20,13c1.1,0,2-0.9,2-2 c0-1.1-0.9-2-2-2s-2,0.9-2,2C18,12.1,18.9,13,20,13z M24,16.43c0-0.81-0.48-1.53-1.22-1.85C21.93,14.21,20.99,14,20,14 c-0.39,0-0.76,0.04-1.13,0.1c0.4,0.68,0.63,1.46,0.63,2.29V18l4.5,0V16.43z M16.24,13.65c-1.17-0.52-2.61-0.9-4.24-0.9 c-1.63,0-3.07,0.39-4.24,0.9C6.68,14.13,6,15.21,6,16.39V18h12v-1.61C18,15.21,17.32,14.13,16.24,13.65z M8.07,16 c0.09-0.23,0.13-0.39,0.91-0.69c0.97-0.38,1.99-0.56,3.02-0.56s2.05,0.18,3.02,0.56c0.77,0.3,0.81,0.46,0.91,0.69H8.07z M12,8 c0.55,0,1,0.45,1,1s-0.45,1-1,1s-1-0.45-1-1S11.45,8,12,8 M12,6c-1.66,0-3,1.34-3,3c0,1.66,1.34,3,3,3s3-1.34,3-3 C15,7.34,13.66,6,12,6L12,6z"
       id="path8"
       style="fill:#3d4d55;fill-opacity:1" />
  </g>
</svg>
