<?xml version="1.0" encoding="UTF-8" standalone="no"?>
<svg
   enable-background="new 0 0 24 24"
   height="24px"
   viewBox="0 0 24 24"
   width="24px"
   fill="#000000"
   version="1.1"
   id="svg18"
   sodipodi:docname="violation.svg"
   inkscape:version="1.2 (dc2aedaf03, 2022-05-15)"
   xmlns:inkscape="http://www.inkscape.org/namespaces/inkscape"
   xmlns:sodipodi="http://sodipodi.sourceforge.net/DTD/sodipodi-0.dtd"
   xmlns="http://www.w3.org/2000/svg"
   xmlns:svg="http://www.w3.org/2000/svg">
  <defs
     id="defs22" />
  <sodipodi:namedview
     id="namedview20"
     pagecolor="#ffffff"
     bordercolor="#000000"
     borderopacity="0.25"
     inkscape:showpageshadow="2"
     inkscape:pageopacity="0.0"
     inkscape:pagecheckerboard="0"
     inkscape:deskcolor="#d1d1d1"
     showgrid="false"
     inkscape:zoom="34.875"
     inkscape:cx="11.985663"
     inkscape:cy="12.129032"
     inkscape:window-width="1920"
     inkscape:window-height="1017"
     inkscape:window-x="-8"
     inkscape:window-y="-8"
     inkscape:window-maximized="1"
     inkscape:current-layer="g16" />
  <g
     id="g4">
    <path
       d="M0,0h24v24H0V0z"
       fill="none"
       id="path2" />
  </g>
  <g
     id="g16"
     style="fill:#c1a999;fill-opacity:1">
    <g
       id="g14"
       style="fill:#c1a999;fill-opacity:1">
      <path
         d="M 4.1684587,18.971326 H 18.168459 V 4.9713262 H 4.1684587 Z M 13.898459,7.1213262 c 0.2,-0.2 0.51,-0.2 0.71,0 l 1.41,1.41 c 0.2,0.2 0.2,0.51 0,0.71 l -1.06,1.0599998 -2.12,-2.1199998 z m -7.7300003,7.7099998 5.9600003,-5.9599998 2.12,2.1199998 -5.9800003,5.98 h -2.1 z"
         opacity=".3"
         id="path6"
         style="opacity:1;fill:#2E8D9A;fill-opacity:1" />
      <path
         d="M19,3h-4.18C14.4,1.84,13.3,1,12,1S9.6,1.84,9.18,3H5C3.9,3,3,3.9,3,5v14c0,1.1,0.9,2,2,2h14c1.1,0,2-0.9,2-2V5 C21,3.9,20.1,3,19,3z M12,2.75c0.41,0,0.75,0.34,0.75,0.75S12.41,4.25,12,4.25s-0.75-0.34-0.75-0.75S11.59,2.75,12,2.75z M19,19H5 V5h14V19z"
         id="path8"
         style="fill:#274690;fill-opacity:1" />
      <polygon
         points="15.08,11.03 12.96,8.91 7,14.86 7,17 9.1,17"
         id="polygon10"
         style="fill:#274690;fill-opacity:1" />
      <path
         d="M16.85,9.27c0.2-0.2,0.2-0.51,0-0.71l-1.41-1.41c-0.2-0.2-0.51-0.2-0.71,0l-1.06,1.06l2.12,2.12L16.85,9.27z"
         id="path12"
         style="fill:#274690;fill-opacity:1" />
    </g>
  </g>
</svg>
