<svg width="82" height="64" viewBox="0 0 82 64" fill="none" xmlns="http://www.w3.org/2000/svg">
<g clip-path="url(#clip0_2081_4165)">
<path d="M11 26.135V20.7331H14.6545C18.1409 20.7331 21.145 23.1884 21.839 26.605L23.1543 33.0804C23.1543 33.0804 37.4309 34.9189 38.5884 35.3955C39.746 35.8721 40.261 37.1042 40.5809 38.4823M11 26.135H15.3209C15.9699 26.135 16.5496 26.5411 16.7714 27.151L18.7357 32.5529C19.1017 33.5595 18.3563 34.6238 17.2852 34.6238H11M11 26.135V34.6238M11 34.6238V42.7267V50.8296H23.0567M23.0567 50.8296C24.0523 53.317 26.485 55.074 29.328 55.074C32.4671 55.074 35.106 52.9318 35.8625 50.0296M23.0567 50.8296C22.7463 50.0542 22.5756 49.2078 22.5756 48.3215C22.5756 44.5923 25.5987 41.5691 29.328 41.5691C33.0572 41.5691 36.0804 44.5923 36.0804 48.3215C36.0804 48.9116 36.0047 49.4841 35.8625 50.0296M35.8625 50.0296C36.4469 49.8753 34.9228 49.672 37.4309 49.4791C39.9389 49.2862 39.8066 46.4909 40.2259 44.6358M40.5809 38.4823L42.4469 17.1598M40.5809 38.4823C38.8761 38.4823 37.4941 39.8643 37.4941 41.5691C37.4941 43.1539 38.6883 44.4597 40.2259 44.6358M40.5809 38.4823C42.2857 38.4823 43.6677 39.8643 43.6677 41.5691C43.6677 43.2739 42.2857 44.6559 40.5809 44.6559C40.4609 44.6559 40.3424 44.6491 40.2259 44.6358M71 20.1543L47.4224 10.3151C46.6218 8.93114 45.1254 8 43.4116 8C40.8544 8 38.7814 10.073 38.7814 12.6302C38.7814 15.1874 40.8544 17.2604 43.4116 17.2604C44.1765 17.2604 44.898 17.075 45.5338 16.7466L58.8457 26.135M71 20.1543V36.3601M71 20.1543H63.09C60.7459 20.1543 58.8457 22.0546 58.8457 24.3987V26.135M71 36.3601V47.5498C71 47.976 70.6545 48.3215 70.2283 48.3215H67.3113M71 36.3601H58.8457M58.8457 36.3601H49.9711V43.1125H49.7375C48.4589 43.1125 47.4224 44.1491 47.4224 45.4277V46.0064C47.4224 47.285 48.4589 48.3215 49.7375 48.3215H53.081M58.8457 36.3601V26.135M53.081 48.3215C53.3756 51.9932 56.4486 54.881 60.1961 54.881C63.9436 54.881 67.0167 51.9932 67.3113 48.3215M53.081 48.3215C53.0657 48.1306 53.0579 47.9376 53.0579 47.7428C53.0579 43.8004 56.2538 40.6045 60.1961 40.6045C64.1385 40.6045 67.3344 43.8004 67.3344 47.7428C67.3344 47.9376 67.3266 48.1306 67.3113 48.3215M32.8392 48.3987C32.8392 50.3166 31.2845 51.8714 29.3666 51.8714C27.4486 51.8714 25.8939 50.3166 25.8939 48.3987C25.8939 46.4808 27.4486 44.926 29.3666 44.926C31.2845 44.926 32.8392 46.4808 32.8392 48.3987ZM63.7074 47.8585C63.7074 49.7764 62.1527 51.3312 60.2348 51.3312C58.3169 51.3312 56.7621 49.7764 56.7621 47.8585C56.7621 45.9406 58.3169 44.3858 60.2348 44.3858C62.1527 44.3858 63.7074 45.9406 63.7074 47.8585Z" stroke="#214288" stroke-width="1.3" stroke-linecap="round" stroke-linejoin="round"/>
</g>
<defs>
<clipPath id="clip0_2081_4165">
<rect width="81.9803" height="63.0618" fill="white"/>
</clipPath>
</defs>
</svg>
