<?xml version="1.0" encoding="UTF-8" standalone="no"?>
<svg
   enable-background="new 0 0 24 24"
   height="24px"
   viewBox="0 0 24 24"
   width="24px"
   fill="#000000"
   version="1.1"
   id="svg18"
   sodipodi:docname="ViolatedVehicleInfo.svg"
   inkscape:version="1.2 (dc2aedaf03, 2022-05-15)"
   xmlns:inkscape="http://www.inkscape.org/namespaces/inkscape"
   xmlns:sodipodi="http://sodipodi.sourceforge.net/DTD/sodipodi-0.dtd"
   xmlns:xlink="http://www.w3.org/1999/xlink"
   xmlns="http://www.w3.org/2000/svg"
   xmlns:svg="http://www.w3.org/2000/svg">
  <defs
     id="defs22">
    <linearGradient
       id="linearGradient3076"
       inkscape:swatch="solid">
      <stop
         style="stop-color:#2cb1a6;stop-opacity:1;"
         offset="0"
         id="stop3074" />
    </linearGradient>
    <linearGradient
       inkscape:collect="always"
       xlink:href="#linearGradient3076"
       id="linearGradient3078"
       x1="5"
       y1="13.5"
       x2="19"
       y2="13.5"
       gradientUnits="userSpaceOnUse" />
  </defs>
  <sodipodi:namedview
     id="namedview20"
     pagecolor="#ffffff"
     bordercolor="#000000"
     borderopacity="0.25"
     inkscape:showpageshadow="2"
     inkscape:pageopacity="0.0"
     inkscape:pagecheckerboard="0"
     inkscape:deskcolor="#2CB1A6"
     showgrid="false"
     inkscape:zoom="34.875"
     inkscape:cx="11.985663"
     inkscape:cy="9.8351254"
     inkscape:window-width="1920"
     inkscape:window-height="1017"
     inkscape:window-x="-8"
     inkscape:window-y="-8"
     inkscape:window-maximized="1"
     inkscape:current-layer="svg18" />
  <g
     id="g4">
    <rect
       fill="none"
       height="24"
       width="24"
       id="rect2" />
  </g>
  <g
     id="g16"
     style="fill:#47235C;fill-opacity:1">
    <g
       id="g14"
       style="fill:#47235C;fill-opacity:1">
      <g
         opacity=".3"
         id="g8"
         style="fill:#47235C;fill-opacity:1">
        <path
           d="M17.91,13c0.06,0.16,0.09,0.33,0.09,0.5c0,0.83-0.67,1.5-1.5,1.5S15,14.33,15,13.5c0-0.39,0.15-0.74,0.39-1 c-0.86-0.35-1.63-0.86-2.29-1.5H5v5h14v-3.07C18.67,12.98,18.39,13,17.91,13z M7.5,15C6.67,15,6,14.33,6,13.5S6.67,12,7.5,12 S9,12.67,9,13.5S8.33,15,7.5,15z"
           id="path6"
           style="fill:url(#linearGradient3078);fill-opacity:1;opacity:1;stroke:none;fill-rule:nonzero" />
      </g>
      <g
         id="g12"
         style="fill:#47235C;fill-opacity:1">
        <path
           d="M18,1c-2.76,0-5,2.24-5,5s2.24,5,5,5s5-2.24,5-5S20.76,1,18,1z M18.5,7h-1V3h1V7z M18.5,8v1h-1V8H18.5z M6,13.5 C6,12.67,6.67,12,7.5,12S9,12.67,9,13.5S8.33,15,7.5,15S6,14.33,6,13.5z M19,12.93c0.65-0.09,1.34-0.28,2-0.6h0V19 c0,0.55-0.45,1-1,1h-1c-0.55,0-1-0.45-1-1v-1H6v1c0,0.55-0.45,1-1,1H4c-0.55,0-1-0.45-1-1v-8l2.08-5.99C5.29,4.42,5.84,4,6.5,4 l4.79,0C11.1,4.63,11,5.31,11,6H6.85L5.81,9h5.86v0c0.36,0.75,0.84,1.43,1.43,2L5,11v5h14L19,12.93z M17.91,13 c-0.89-0.01-1.74-0.19-2.53-0.51C15.15,12.76,15,13.11,15,13.5c0,0.83,0.67,1.5,1.5,1.5s1.5-0.67,1.5-1.5 C18,13.32,17.97,13.16,17.91,13z"
           id="path10"
           style="fill:#47235C;fill-opacity:1" />
      </g>
    </g>
  </g>
  <path
     style="opacity:1;fill:#2cb1a6;fill-opacity:1;fill-rule:nonzero;stroke:none;stroke-width:3;paint-order:markers fill stroke"
     d="m 5.0179211,13.491139 v -2.494525 l 4.0358423,-0.0073 4.0358426,-0.0073 0.215053,0.196134 c 0.47736,0.435364 1.022111,0.801758 1.655448,1.113439 l 0.408136,0.200853 -0.06801,0.09067 c -0.488186,0.650802 -0.366427,1.610136 0.265505,2.091893 0.724075,0.552003 1.697491,0.392976 2.195996,-0.358762 0.208385,-0.314241 0.297541,-0.805902 0.206839,-1.140635 -0.0235,-0.08672 -0.03958,-0.16081 -0.03574,-0.16465 0.0038,-0.0038 0.214743,-0.01951 0.468673,-0.03481 0.25393,-0.0153 0.491666,-0.03535 0.528301,-0.04455 l 0.06661,-0.01673 -0.0077,1.535366 -0.0077,1.535366 H 11.999508 5.0179211 Z m 2.8551023,1.46174 c 1.1270073,-0.28824 1.5072507,-1.681086 0.6857869,-2.512063 -0.5860533,-0.59284 -1.5330647,-0.589174 -2.126818,0.0082 -0.5787526,0.582314 -0.5802835,1.514442 -0.00345,2.098959 0.3929373,0.398169 0.9071482,0.542296 1.4444785,0.40487 z"
     id="path3149" />
</svg>
