<?xml version="1.0" encoding="UTF-8" standalone="no"?>
<svg
   enable-background="new 0 0 24 24"
   height="24px"
   viewBox="0 0 24 24"
   width="24px"
   fill="#000000"
   version="1.1"
   id="svg16"
   sodipodi:docname="wallet_black_24dp.svg"
   inkscape:version="1.2 (dc2aedaf03, 2022-05-15)"
   xmlns:inkscape="http://www.inkscape.org/namespaces/inkscape"
   xmlns:sodipodi="http://sodipodi.sourceforge.net/DTD/sodipodi-0.dtd"
   xmlns="http://www.w3.org/2000/svg"
   xmlns:svg="http://www.w3.org/2000/svg">
  <defs
     id="defs20" />
  <sodipodi:namedview
     id="namedview18"
     pagecolor="#ffffff"
     bordercolor="#000000"
     borderopacity="0.25"
     inkscape:showpageshadow="2"
     inkscape:pageopacity="0.0"
     inkscape:pagecheckerboard="0"
     inkscape:deskcolor="#d1d1d1"
     showgrid="false"
     inkscape:zoom="34.875"
     inkscape:cx="11.985663"
     inkscape:cy="12.014337"
     inkscape:window-width="1920"
     inkscape:window-height="1017"
     inkscape:window-x="-8"
     inkscape:window-y="-8"
     inkscape:window-maximized="1"
     inkscape:current-layer="svg16" />
  <g
     id="g4">
    <rect
       fill="none"
       height="24"
       width="24"
       id="rect2" />
  </g>
  <g
     id="g14">
    <g
       id="g12">
      <path
         d="M 18,10.860215 H 6 c -0.84,0 -1.55,0.52 -1.85,1.25 l 11.11,2.72 c 0.31,0.08 0.64,0 0.88,-0.2 l 3.49,-2.92 c -0.37,-0.51 -0.96,-0.85 -1.63,-0.85 z"
         opacity=".3"
         id="path6"
         style="opacity:1;fill:#00bd82;fill-opacity:1" />
      <path
         d="M 18,6.8602151 H 6 c -1.1,0 -2,0.9 -2,2 v 0.55 c 0.59,-0.34 1.27,-0.55 2,-0.55 h 12 c 0.73,0 1.41,0.21 2,0.55 v -0.55 c 0,-1.1 -0.9,-2 -2,-2 z"
         opacity=".3"
         id="path8"
         style="opacity:1;fill:#00bd82;fill-opacity:1" />
      <path
         d="M18,4H6C3.79,4,2,5.79,2,8v8c0,2.21,1.79,4,4,4h12c2.21,0,4-1.79,4-4V8C22,5.79,20.21,4,18,4z M16.14,13.77 c-0.24,0.2-0.57,0.28-0.88,0.2L4.15,11.25C4.45,10.52,5.16,10,6,10h12c0.67,0,1.26,0.34,1.63,0.84L16.14,13.77z M20,8.55 C19.41,8.21,18.73,8,18,8H6C5.27,8,4.59,8.21,4,8.55V8c0-1.1,0.9-2,2-2h12c1.1,0,2,0.9,2,2V8.55z"
         id="path10"
         style="fill:#3d4d55;fill-opacity:1" />
    </g>
  </g>
</svg>
