<svg width="82" height="64" viewBox="0 0 82 64" fill="none" xmlns="http://www.w3.org/2000/svg">
<g clip-path="url(#clip0_2081_4168)">
<path d="M15 18.5V50.1C15 52.6957 17.1043 54.8 19.7 54.8H58.3C60.8957 54.8 63 52.6957 63 50.1V45.5M15 18.5C15 20.7091 16.7909 22.5 19 22.5C19 22.5 19 22.5 19 22.5C19 22.5 54.5 22.5 58 22.5C58.4379 22.5 58.8367 22.5156 59.2002 22.5479M15 18.5C15 16.2909 16.7909 14.5 19 14.5H21.7415M63 25.9995V18.5C63 16.2909 61.2091 14.5 59 14.5H37.6238M63 25.9995V29.5249M63 25.9995C62.5626 23.8123 61.7424 22.7736 59.2002 22.5479M63 32.5249L54.7434 32.5C54.1527 32.5 53.5997 32.7898 53.2635 33.2754L50.0096 37.9754C49.5829 38.5918 49.5829 39.4082 50.0096 40.0246L53.2635 44.7246C53.5997 45.2102 54.1527 45.5 54.7434 45.5H63M63 32.5249V29.5249M63 32.5249C63.9334 32.5166 66.5 32.3525 66.5 31.7624M63 29.5249H64.3003C65.1287 29.5249 66.5 30.1965 66.5 31.0249V31.7624M63 45.5H64.0003C64.9944 45.5 66.5 44.6941 66.5 43.7V32.5V31.7624M19 18.5H20.8003M50.8003 18.5H56.0037C56.4655 18.5 56.932 18.5554 57.3562 18.738C59.947 19.8535 59.6023 22.069 59.2002 22.5479M50.8003 18.5H20.8003M50.8003 18.5L37.6238 14.5M20.8003 18.5L21.7415 14.5M21.7415 14.5L22.5562 11.0374C22.6884 10.4755 23.2677 10.1419 23.8201 10.3096L37.6238 14.5M59.2002 39.2002C59.2002 40.5809 58.0809 41.7002 56.7002 41.7002C55.3195 41.7002 54.2002 40.5809 54.2002 39.2002C54.2002 37.8195 55.3195 36.7002 56.7002 36.7002C58.0809 36.7002 59.2002 37.8195 59.2002 39.2002Z" stroke="#214187" stroke-width="1.3" stroke-linecap="round"/>
</g>
<defs>
<clipPath id="clip0_2081_4168">
<rect width="81.9803" height="63.0618" fill="white"/>
</clipPath>
</defs>
</svg>
