<svg width="82" height="64" viewBox="0 0 82 64" fill="none" xmlns="http://www.w3.org/2000/svg">
<path d="M54.1102 27.3233C54.1102 27.6767 54.3967 27.9633 54.7502 27.9633C55.1037 27.9633 55.3902 27.6767 55.3902 27.3233H54.1102ZM37.5501 46.3688C37.9036 46.3688 38.1901 46.0822 38.1901 45.7288C38.1901 45.3753 37.9036 45.0888 37.5501 45.0888V46.3688ZM61.2603 31.8787C61.2603 32.2322 61.5468 32.5187 61.9002 32.5187C62.2537 32.5187 62.5402 32.2322 62.5402 31.8787H61.2603ZM50.5352 25.8233C50.5352 26.1767 50.8217 26.4633 51.1752 26.4633C51.5286 26.4633 51.8152 26.1767 51.8152 25.8233H50.5352ZM19.64 44.7073V19.2213H18.36V44.7073H19.64ZM29.7251 18.8399H40.4501V17.5599H29.7251V18.8399ZM40.4501 18.8399H51.1752V17.5599H40.4501V18.8399ZM51.8152 18.1999V13H50.5352V18.1999H51.8152ZM49.1752 10.36H31.7251V11.64H49.1752V10.36ZM29.0851 13V18.1999H30.3651V13H29.0851ZM20.0214 18.8399H26.15V17.5599H20.0214V18.8399ZM26.15 18.8399H29.7251V17.5599H26.15V18.8399ZM26.15 45.0888H20.0214V46.3688H26.15V45.0888ZM25.51 18.1999V45.7288H26.79V18.1999H25.51ZM51.1752 18.8399H54.7502V17.5599H51.1752V18.8399ZM54.7502 18.8399H60.8788V17.5599H54.7502V18.8399ZM54.1102 18.1999V27.3233H55.3902V18.1999H54.1102ZM37.5501 45.0888H26.15V46.3688H37.5501V45.0888ZM61.2603 19.2184C61.2603 19.2231 61.2603 19.2277 61.2603 19.2324C61.2603 19.2371 61.2603 19.2418 61.2603 19.2465C61.2603 19.2512 61.2603 19.256 61.2603 19.2607C61.2603 19.2655 61.2603 19.2702 61.2603 19.275C61.2603 19.2798 61.2603 19.2845 61.2603 19.2893C61.2603 19.2941 61.2603 19.299 61.2603 19.3038C61.2603 19.3086 61.2603 19.3135 61.2603 19.3183C61.2603 19.3232 61.2603 19.328 61.2603 19.3329C61.2603 19.3378 61.2603 19.3427 61.2603 19.3476C61.2603 19.3525 61.2603 19.3574 61.2603 19.3624C61.2603 19.3673 61.2603 19.3723 61.2603 19.3772C61.2603 19.3822 61.2603 19.3872 61.2603 19.3922C61.2603 19.3971 61.2603 19.4021 61.2603 19.4072C61.2603 19.4122 61.2603 19.4172 61.2603 19.4223C61.2603 19.4273 61.2603 19.4324 61.2603 19.4374C61.2603 19.4425 61.2603 19.4476 61.2603 19.4527C61.2603 19.4578 61.2603 19.4629 61.2603 19.468C61.2603 19.4731 61.2603 19.4783 61.2603 19.4834C61.2603 19.4886 61.2603 19.4938 61.2603 19.4989C61.2603 19.5041 61.2603 19.5093 61.2603 19.5145C61.2603 19.5197 61.2603 19.5249 61.2603 19.5302C61.2603 19.5354 61.2603 19.5406 61.2603 19.5459C61.2603 19.5512 61.2603 19.5564 61.2603 19.5617C61.2603 19.567 61.2603 19.5723 61.2603 19.5776C61.2603 19.5829 61.2603 19.5882 61.2603 19.5936C61.2603 19.5989 61.2603 19.6043 61.2603 19.6096C61.2603 19.615 61.2603 19.6204 61.2603 19.6257C61.2603 19.6311 61.2603 19.6365 61.2603 19.6419C61.2603 19.6474 61.2603 19.6528 61.2603 19.6582C61.2603 19.6637 61.2603 19.6691 61.2603 19.6746C61.2603 19.68 61.2603 19.6855 61.2603 19.691C61.2603 19.6965 61.2603 19.702 61.2603 19.7075C61.2603 19.713 61.2603 19.7186 61.2603 19.7241C61.2603 19.7297 61.2603 19.7352 61.2603 19.7408C61.2603 19.7463 61.2603 19.7519 61.2603 19.7575C61.2603 19.7631 61.2603 19.7687 61.2603 19.7743C61.2603 19.7799 61.2603 19.7856 61.2603 19.7912C61.2603 19.7969 61.2603 19.8025 61.2603 19.8082C61.2603 19.8138 61.2603 19.8195 61.2603 19.8252C61.2603 19.8309 61.2603 19.8366 61.2603 19.8423C61.2603 19.8481 61.2603 19.8538 61.2603 19.8595C61.2603 19.8653 61.2603 19.871 61.2603 19.8768C61.2603 19.8826 61.2603 19.8883 61.2603 19.8941C61.2603 19.8999 61.2603 19.9057 61.2603 19.9115C61.2603 19.9173 61.2603 19.9232 61.2603 19.929C61.2603 19.9349 61.2603 19.9407 61.2603 19.9466C61.2603 19.9524 61.2603 19.9583 61.2603 19.9642C61.2603 19.9701 61.2603 19.976 61.2603 19.9819C61.2603 19.9878 61.2603 19.9937 61.2603 19.9997C61.2603 20.0056 61.2603 20.0116 61.2603 20.0175C61.2603 20.0235 61.2603 20.0295 61.2603 20.0354C61.2603 20.0414 61.2603 20.0474 61.2603 20.0534C61.2603 20.0594 61.2603 20.0655 61.2603 20.0715C61.2603 20.0775 61.2603 20.0836 61.2603 20.0896C61.2603 20.0957 61.2603 20.1017 61.2603 20.1078C61.2603 20.1139 61.2603 20.12 61.2603 20.1261C61.2603 20.1322 61.2603 20.1383 61.2603 20.1444C61.2603 20.1506 61.2603 20.1567 61.2603 20.1629C61.2603 20.169 61.2603 20.1752 61.2603 20.1813C61.2603 20.1875 61.2603 20.1937 61.2603 20.1999C61.2603 20.2061 61.2603 20.2123 61.2603 20.2185C61.2603 20.2247 61.2603 20.231 61.2603 20.2372C61.2603 20.2435 61.2603 20.2497 61.2603 20.256C61.2603 20.2622 61.2603 20.2685 61.2603 20.2748C61.2603 20.2811 61.2603 20.2874 61.2603 20.2937C61.2603 20.3 61.2603 20.3063 61.2603 20.3127C61.2603 20.319 61.2603 20.3253 61.2603 20.3317C61.2603 20.3381 61.2603 20.3444 61.2603 20.3508C61.2603 20.3572 61.2603 20.3636 61.2603 20.37C61.2603 20.3764 61.2603 20.3828 61.2603 20.3892C61.2603 20.3956 61.2603 20.4021 61.2603 20.4085C61.2603 20.415 61.2603 20.4214 61.2603 20.4279C61.2603 20.4343 61.2603 20.4408 61.2603 20.4473C61.2603 20.4538 61.2603 20.4603 61.2603 20.4668C61.2603 20.4733 61.2603 20.4799 61.2603 20.4864C61.2603 20.4929 61.2603 20.4995 61.2603 20.506C61.2603 20.5126 61.2603 20.5191 61.2603 20.5257C61.2603 20.5323 61.2603 20.5389 61.2603 20.5455C61.2603 20.5521 61.2603 20.5587 61.2603 20.5653C61.2603 20.5719 61.2603 20.5786 61.2603 20.5852C61.2603 20.5919 61.2603 20.5985 61.2603 20.6052C61.2603 20.6118 61.2603 20.6185 61.2603 20.6252C61.2603 20.6319 61.2603 20.6386 61.2603 20.6453C61.2603 20.652 61.2603 20.6587 61.2603 20.6654C61.2603 20.6722 61.2603 20.6789 61.2603 20.6856C61.2603 20.6924 61.2603 20.6991 61.2603 20.7059C61.2603 20.7127 61.2603 20.7195 61.2603 20.7263C61.2603 20.733 61.2603 20.7399 61.2603 20.7467C61.2603 20.7535 61.2603 20.7603 61.2603 20.7671C61.2603 20.774 61.2603 20.7808 61.2603 20.7877C61.2603 20.7945 61.2603 20.8014 61.2603 20.8082C61.2603 20.8151 61.2603 20.822 61.2603 20.8289C61.2603 20.8358 61.2603 20.8427 61.2603 20.8496C61.2603 20.8565 61.2603 20.8634 61.2603 20.8704C61.2603 20.8773 61.2603 20.8843 61.2603 20.8912C61.2603 20.8982 61.2603 20.9051 61.2603 20.9121C61.2603 20.9191 61.2603 20.9261 61.2603 20.9331C61.2603 20.9401 61.2603 20.9471 61.2603 20.9541C61.2603 20.9611 61.2603 20.9681 61.2603 20.9752C61.2603 20.9822 61.2603 20.9892 61.2603 20.9963C61.2603 21.0034 61.2603 21.0104 61.2603 21.0175C61.2603 21.0246 61.2603 21.0317 61.2603 21.0387C61.2603 21.0458 61.2603 21.0529 61.2603 21.0601C61.2603 21.0672 61.2603 21.0743 61.2603 21.0814C61.2603 21.0886 61.2603 21.0957 61.2603 21.1029C61.2603 21.11 61.2603 21.1172 61.2603 21.1244C61.2603 21.1315 61.2603 21.1387 61.2603 21.1459C61.2603 21.1531 61.2603 21.1603 61.2603 21.1675C61.2603 21.1747 61.2603 21.1819 61.2603 21.1892C61.2603 21.1964 61.2603 21.2036 61.2603 21.2109C61.2603 21.2181 61.2603 21.2254 61.2603 21.2327C61.2603 21.2399 61.2603 21.2472 61.2603 21.2545C61.2603 21.2618 61.2603 21.2691 61.2603 21.2764C61.2603 21.2837 61.2603 21.291 61.2603 21.2983C61.2603 21.3057 61.2603 21.313 61.2603 21.3203C61.2603 21.3277 61.2603 21.335 61.2603 21.3424C61.2603 21.3498 61.2603 21.3571 61.2603 21.3645C61.2603 21.3719 61.2603 21.3793 61.2603 21.3867C61.2603 21.3941 61.2603 21.4015 61.2603 21.4089C61.2603 21.4163 61.2603 21.4237 61.2603 21.4312C61.2603 21.4386 61.2603 21.4461 61.2603 21.4535C61.2603 21.461 61.2603 21.4684 61.2603 21.4759C61.2603 21.4834 61.2603 21.4908 61.2603 21.4983C61.2603 21.5058 61.2603 21.5133 61.2603 21.5208C61.2603 21.5283 61.2603 21.5359 61.2603 21.5434C61.2603 21.5509 61.2603 21.5584 61.2603 21.566C61.2603 21.5735 61.2603 21.5811 61.2603 21.5886C61.2603 21.5962 61.2603 21.6038 61.2603 21.6113C61.2603 21.6189 61.2603 21.6265 61.2603 21.6341C61.2603 21.6417 61.2603 21.6493 61.2603 21.6569C61.2603 21.6645 61.2603 21.6722 61.2603 21.6798C61.2603 21.6874 61.2603 21.6951 61.2603 21.7027C61.2603 21.7103 61.2603 21.718 61.2603 21.7257C61.2603 21.7333 61.2603 21.741 61.2603 21.7487C61.2603 21.7564 61.2603 21.7641 61.2603 21.7718C61.2603 21.7795 61.2603 21.7872 61.2603 21.7949C61.2603 21.8026 61.2603 21.8103 61.2603 21.8181C61.2603 21.8258 61.2603 21.8335 61.2603 21.8413C61.2603 21.849 61.2603 21.8568 61.2603 21.8645C61.2603 21.8723 61.2603 21.8801 61.2603 21.8879C61.2603 21.8957 61.2603 21.9034 61.2603 21.9112C61.2603 21.919 61.2603 21.9268 61.2603 21.9347C61.2603 21.9425 61.2603 21.9503 61.2603 21.9581C61.2603 21.966 61.2603 21.9738 61.2603 21.9816C61.2603 21.9895 61.2603 21.9974 61.2603 22.0052C61.2603 22.0131 61.2603 22.021 61.2603 22.0288C61.2603 22.0367 61.2603 22.0446 61.2603 22.0525C61.2603 22.0604 61.2603 22.0683 61.2603 22.0762C61.2603 22.0841 61.2603 22.092 61.2603 22.1C61.2603 22.1079 61.2603 22.1158 61.2603 22.1238C61.2603 22.1317 61.2603 22.1397 61.2603 22.1476C61.2603 22.1556 61.2603 22.1636 61.2603 22.1715C61.2603 22.1795 61.2603 22.1875 61.2603 22.1955C61.2603 22.2035 61.2603 22.2115 61.2603 22.2195C61.2603 22.2275 61.2603 22.2355 61.2603 22.2435C61.2603 22.2515 61.2603 22.2596 61.2603 22.2676C61.2603 22.2756 61.2603 22.2837 61.2603 22.2917C61.2603 22.2998 61.2603 22.3078 61.2603 22.3159C61.2603 22.324 61.2603 22.332 61.2603 22.3401C61.2603 22.3482 61.2603 22.3563 61.2603 22.3644C61.2603 22.3725 61.2603 22.3806 61.2603 22.3887C61.2603 22.3968 61.2603 22.4049 61.2603 22.4131C61.2603 22.4212 61.2603 22.4293 61.2603 22.4375C61.2603 22.4456 61.2603 22.4537 61.2603 22.4619C61.2603 22.4701 61.2603 22.4782 61.2603 22.4864C61.2603 22.4946 61.2603 22.5027 61.2603 22.5109C61.2603 22.5191 61.2603 22.5273 61.2603 22.5355C61.2603 22.5437 61.2603 22.5519 61.2603 22.5601C61.2603 22.5683 61.2603 22.5765 61.2603 22.5848C61.2603 22.593 61.2603 22.6012 61.2603 22.6095C61.2603 22.6177 61.2603 22.626 61.2603 22.6342C61.2603 22.6425 61.2603 22.6507 61.2603 22.659C61.2603 22.6673 61.2603 22.6755 61.2603 22.6838C61.2603 22.6921 61.2603 22.7004 61.2603 22.7087C61.2603 22.717 61.2603 22.7253 61.2603 22.7336C61.2603 22.7419 61.2603 22.7502 61.2603 22.7586C61.2603 22.7669 61.2603 22.7752 61.2603 22.7835C61.2603 22.7919 61.2603 22.8002 61.2603 22.8086C61.2603 22.8169 61.2603 22.8253 61.2603 22.8337C61.2603 22.842 61.2603 22.8504 61.2603 22.8588C61.2603 22.8671 61.2603 22.8755 61.2603 22.8839C61.2603 22.8923 61.2603 22.9007 61.2603 22.9091C61.2603 22.9175 61.2603 22.9259 61.2603 22.9343C61.2603 22.9428 61.2603 22.9512 61.2603 22.9596C61.2603 22.968 61.2603 22.9765 61.2603 22.9849C61.2603 22.9934 61.2603 23.0018 61.2603 23.0103C61.2603 23.0187 61.2603 23.0272 61.2603 23.0356C61.2603 23.0441 61.2603 23.0526 61.2603 23.0611C61.2603 23.0695 61.2603 23.078 61.2603 23.0865C61.2603 23.095 61.2603 23.1035 61.2603 23.112C61.2603 23.1205 61.2603 23.129 61.2603 23.1376C61.2603 23.1461 61.2603 23.1546 61.2603 23.1631C61.2603 23.1717 61.2603 23.1802 61.2603 23.1887C61.2603 23.1973 61.2603 23.2058 61.2603 23.2144C61.2603 23.2229 61.2603 23.2315 61.2603 23.2401C61.2603 23.2486 61.2603 23.2572 61.2603 23.2658C61.2603 23.2744 61.2603 23.2829 61.2603 23.2915C61.2603 23.3001 61.2603 23.3087 61.2603 23.3173C61.2603 23.3259 61.2603 23.3345 61.2603 23.3431C61.2603 23.3518 61.2603 23.3604 61.2603 23.369C61.2603 23.3776 61.2603 23.3863 61.2603 23.3949C61.2603 23.4035 61.2603 23.4122 61.2603 23.4208C61.2603 23.4295 61.2603 23.4381 61.2603 23.4468C61.2603 23.4554 61.2603 23.4641 61.2603 23.4728C61.2603 23.4815 61.2603 23.4901 61.2603 23.4988C61.2603 23.5075 61.2603 23.5162 61.2603 23.5249C61.2603 23.5336 61.2603 23.5423 61.2603 23.551C61.2603 23.5597 61.2603 23.5684 61.2603 23.5771C61.2603 23.5858 61.2603 23.5945 61.2603 23.6033C61.2603 23.612 61.2603 23.6207 61.2603 23.6295C61.2603 23.6382 61.2603 23.6469 61.2603 23.6557C61.2603 23.6644 61.2603 23.6732 61.2603 23.6819C61.2603 23.6907 61.2603 23.6995 61.2603 23.7082C61.2603 23.717 61.2603 23.7258 61.2603 23.7346C61.2603 23.7433 61.2603 23.7521 61.2603 23.7609C61.2603 23.7697 61.2603 23.7785 61.2603 23.7873C61.2603 23.7961 61.2603 23.8049 61.2603 23.8137C61.2603 23.8225 61.2603 23.8313 61.2603 23.8402C61.2603 23.849 61.2603 23.8578 61.2603 23.8666C61.2603 23.8755 61.2603 23.8843 61.2603 23.8931C61.2603 23.902 61.2603 23.9108 61.2603 23.9197C61.2603 23.9285 61.2603 23.9374 61.2603 23.9462C61.2603 23.9551 61.2603 23.964 61.2603 23.9728C61.2603 23.9817 61.2603 23.9906 61.2603 23.9995C61.2603 24.0083 61.2603 24.0172 61.2603 24.0261C61.2603 24.035 61.2603 24.0439 61.2603 24.0528C61.2603 24.0617 61.2603 24.0706 61.2603 24.0795C61.2603 24.0884 61.2603 24.0973 61.2603 24.1062C61.2603 24.1151 61.2603 24.1241 61.2603 24.133C61.2603 24.1419 61.2603 24.1509 61.2603 24.1598C61.2603 24.1687 61.2603 24.1777 61.2603 24.1866C61.2603 24.1956 61.2603 24.2045 61.2603 24.2135C61.2603 24.2224 61.2603 24.2314 61.2603 24.2403C61.2603 24.2493 61.2603 24.2583 61.2603 24.2672C61.2603 24.2762 61.2603 24.2852 61.2603 24.2942C61.2603 24.3031 61.2603 24.3121 61.2603 24.3211C61.2603 24.3301 61.2603 24.3391 61.2603 24.3481C61.2603 24.3571 61.2603 24.3661 61.2603 24.3751C61.2603 24.3841 61.2603 24.3931 61.2603 24.4021C61.2603 24.4111 61.2603 24.4201 61.2603 24.4292C61.2603 24.4382 61.2603 24.4472 61.2603 24.4562C61.2603 24.4653 61.2603 24.4743 61.2603 24.4834C61.2603 24.4924 61.2603 24.5014 61.2603 24.5105C61.2603 24.5195 61.2603 24.5286 61.2603 24.5376C61.2603 24.5467 61.2603 24.5557 61.2603 24.5648C61.2603 24.5739 61.2603 24.5829 61.2603 24.592C61.2603 24.6011 61.2603 24.6102 61.2603 24.6192C61.2603 24.6283 61.2603 24.6374 61.2603 24.6465C61.2603 24.6556 61.2603 24.6646 61.2603 24.6737C61.2603 24.6828 61.2603 24.6919 61.2603 24.701C61.2603 24.7101 61.2603 24.7192 61.2603 24.7283C61.2603 24.7375 61.2603 24.7466 61.2603 24.7557C61.2603 24.7648 61.2603 24.7739 61.2603 24.783C61.2603 24.7922 61.2603 24.8013 61.2603 24.8104C61.2603 24.8195 61.2603 24.8287 61.2603 24.8378C61.2603 24.847 61.2603 24.8561 61.2603 24.8652C61.2603 24.8744 61.2603 24.8835 61.2603 24.8927C61.2603 24.9018 61.2603 24.911 61.2603 24.9201C61.2603 24.9293 61.2603 24.9385 61.2603 24.9476C61.2603 24.9568 61.2603 24.966 61.2603 24.9751C61.2603 24.9843 61.2603 24.9935 61.2603 25.0027C61.2603 25.0118 61.2603 25.021 61.2603 25.0302C61.2603 25.0394 61.2603 25.0486 61.2603 25.0578C61.2603 25.0669 61.2603 25.0761 61.2603 25.0853C61.2603 25.0945 61.2603 25.1037 61.2603 25.1129C61.2603 25.1221 61.2603 25.1313 61.2603 25.1406C61.2603 25.1498 61.2603 25.159 61.2603 25.1682C61.2603 25.1774 61.2603 25.1866 61.2603 25.1959C61.2603 25.2051 61.2603 25.2143 61.2603 25.2235C61.2603 25.2328 61.2603 25.242 61.2603 25.2512C61.2603 25.2604 61.2603 25.2697 61.2603 25.2789C61.2603 25.2882 61.2603 25.2974 61.2603 25.3066C61.2603 25.3159 61.2603 25.3251 61.2603 25.3344C61.2603 25.3436 61.2603 25.3529 61.2603 25.3621C61.2603 25.3714 61.2603 25.3807 61.2603 25.3899C61.2603 25.3992 61.2603 25.4085 61.2603 25.4177C61.2603 25.427 61.2603 25.4363 61.2603 25.4455C61.2603 25.4548 61.2603 25.4641 61.2603 25.4733C61.2603 25.4826 61.2603 25.4919 61.2603 25.5012C61.2603 25.5105 61.2603 25.5198 61.2603 25.529C61.2603 25.5383 61.2603 25.5476 61.2603 25.5569C61.2603 25.5662 61.2603 25.5755 61.2603 25.5848C61.2603 25.5941 61.2603 25.6034 61.2603 25.6127C61.2603 25.622 61.2603 25.6313 61.2603 25.6406C61.2603 25.6499 61.2603 25.6592 61.2603 25.6685C61.2603 25.6778 61.2603 25.6871 61.2603 25.6965C61.2603 25.7058 61.2603 25.7151 61.2603 25.7244C61.2603 25.7337 61.2603 25.7431 61.2603 25.7524C61.2603 25.7617 61.2603 25.771 61.2603 25.7804C61.2603 25.7897 61.2603 25.799 61.2603 25.8084C61.2603 25.8177 61.2603 25.827 61.2603 25.8364C61.2603 25.8457 61.2603 25.855 61.2603 25.8644C61.2603 25.8737 61.2603 25.8831 61.2603 25.8924C61.2603 25.9017 61.2603 25.9111 61.2603 25.9204C61.2603 25.9298 61.2603 25.9391 61.2603 25.9485C61.2603 25.9578 61.2603 25.9672 61.2603 25.9766C61.2603 25.9859 61.2603 25.9953 61.2603 26.0046C61.2603 26.014 61.2603 26.0233 61.2603 26.0327C61.2603 26.0421 61.2603 26.0514 61.2603 26.0608C61.2603 26.0702 61.2603 26.0795 61.2603 26.0889C61.2603 26.0983 61.2603 26.1077 61.2603 26.117C61.2603 26.1264 61.2603 26.1358 61.2603 26.1451C61.2603 26.1545 61.2603 26.1639 61.2603 26.1733C61.2603 26.1827 61.2603 26.192 61.2603 26.2014C61.2603 26.2108 61.2603 26.2202 61.2603 26.2296C61.2603 26.239 61.2603 26.2483 61.2603 26.2577C61.2603 26.2671 61.2603 26.2765 61.2603 26.2859C61.2603 26.2953 61.2603 26.3047 61.2603 26.3141C61.2603 26.3235 61.2603 26.3329 61.2603 26.3423C61.2603 26.3517 61.2603 26.3611 61.2603 26.3705C61.2603 26.3799 61.2603 26.3893 61.2603 26.3987C61.2603 26.4081 61.2603 26.4175 61.2603 26.4269C61.2603 26.4363 61.2603 26.4457 61.2603 26.4551C61.2603 26.4645 61.2603 26.4739 61.2603 26.4833C61.2603 26.4927 61.2603 26.5021 61.2603 26.5115C61.2603 26.5209 61.2603 26.5304 61.2603 26.5398C61.2603 26.5492 61.2603 26.5586 61.2603 26.568C61.2603 26.5774 61.2603 26.5868 61.2603 26.5963C61.2603 26.6057 61.2603 26.6151 61.2603 26.6245C61.2603 26.6339 61.2603 26.6433 61.2603 26.6528C61.2603 26.6622 61.2603 26.6716 61.2603 26.681C61.2603 26.6904 61.2603 26.6999 61.2603 26.7093C61.2603 26.7187 61.2603 26.7281 61.2603 26.7376C61.2603 26.747 61.2603 26.7564 61.2603 26.7658C61.2603 26.7753 61.2603 26.7847 61.2603 26.7941C61.2603 26.8035 61.2603 26.813 61.2603 26.8224C61.2603 26.8318 61.2603 26.8413 61.2603 26.8507C61.2603 26.8601 61.2603 26.8695 61.2603 26.879C61.2603 26.8884 61.2603 26.8978 61.2603 26.9073C61.2603 26.9167 61.2603 26.9261 61.2603 26.9356C61.2603 26.945 61.2603 26.9544 61.2603 26.9639C61.2603 26.9733 61.2603 26.9827 61.2603 26.9922C61.2603 27.0016 61.2603 27.011 61.2603 27.0205C61.2603 27.0299 61.2603 27.0393 61.2603 27.0488C61.2603 27.0582 61.2603 27.0676 61.2603 27.0771C61.2603 27.0865 61.2603 27.0959 61.2603 27.1054C61.2603 27.1148 61.2603 27.1243 61.2603 27.1337C61.2603 27.1431 61.2603 27.1526 61.2603 27.162C61.2603 27.1714 61.2603 27.1809 61.2603 27.1903C61.2603 27.1997 61.2603 27.2092 61.2603 27.2186C61.2603 27.2281 61.2603 27.2375 61.2603 27.2469C61.2603 27.2564 61.2603 27.2658 61.2603 27.2752C61.2603 27.2847 61.2603 27.2941 61.2603 27.3035C61.2603 27.313 61.2603 27.3224 61.2603 27.3319C61.2603 27.3413 61.2603 27.3507 61.2603 27.3602C61.2603 27.3696 61.2603 27.379 61.2603 27.3885C61.2603 27.3979 61.2603 27.4073 61.2603 27.4168C61.2603 27.4262 61.2603 27.4356 61.2603 27.4451C61.2603 27.4545 61.2603 27.4639 61.2603 27.4734C61.2603 27.4828 61.2603 27.4922 61.2603 27.5017C61.2603 27.5111 61.2603 27.5205 61.2603 27.53C61.2603 27.5394 61.2603 27.5488 61.2603 27.5583C61.2603 27.5677 61.2603 27.5771 61.2603 27.5866C61.2603 27.596 61.2603 27.6054 61.2603 27.6149C61.2603 27.6243 61.2603 27.6337 61.2603 27.6431C61.2603 27.6526 61.2603 27.662 61.2603 27.6714C61.2603 27.6808 61.2603 27.6903 61.2603 27.6997C61.2603 27.7091 61.2603 27.7185 61.2603 27.728C61.2603 27.7374 61.2603 27.7468 61.2603 27.7562C61.2603 27.7657 61.2603 27.7751 61.2603 27.7845C61.2603 27.7939 61.2603 27.8033 61.2603 27.8128C61.2603 27.8222 61.2603 27.8316 61.2603 27.841C61.2603 27.8504 61.2603 27.8598 61.2603 27.8693C61.2603 27.8787 61.2603 27.8881 61.2603 27.8975C61.2603 27.9069 61.2603 27.9163 61.2603 27.9257C61.2603 27.9352 61.2603 27.9446 61.2603 27.954C61.2603 27.9634 61.2603 27.9728 61.2603 27.9822C61.2603 27.9916 61.2603 28.001 61.2603 28.0104C61.2603 28.0198 61.2603 28.0292 61.2603 28.0386C61.2603 28.048 61.2603 28.0574 61.2603 28.0668C61.2603 28.0762 61.2603 28.0856 61.2603 28.095C61.2603 28.1044 61.2603 28.1138 61.2603 28.1232C61.2603 28.1326 61.2603 28.142 61.2603 28.1514C61.2603 28.1608 61.2603 28.1702 61.2603 28.1796C61.2603 28.189 61.2603 28.1983 61.2603 28.2077C61.2603 28.2171 61.2603 28.2265 61.2603 28.2359C61.2603 28.2453 61.2603 28.2547 61.2603 28.264C61.2603 28.2734 61.2603 28.2828 61.2603 28.2922C61.2603 28.3015 61.2603 28.3109 61.2603 28.3203C61.2603 28.3297 61.2603 28.339 61.2603 28.3484C61.2603 28.3578 61.2603 28.3672 61.2603 28.3765C61.2603 28.3859 61.2603 28.3953 61.2603 28.4046C61.2603 28.414 61.2603 28.4234 61.2603 28.4327C61.2603 28.4421 61.2603 28.4514 61.2603 28.4608C61.2603 28.4701 61.2603 28.4795 61.2603 28.4889C61.2603 28.4982 61.2603 28.5076 61.2603 28.5169C61.2603 28.5263 61.2603 28.5356 61.2603 28.545C61.2603 28.5543 61.2603 28.5636 61.2603 28.573C61.2603 28.5823 61.2603 28.5917 61.2603 28.601C61.2603 28.6104 61.2603 28.6197 61.2603 28.629C61.2603 28.6384 61.2603 28.6477 61.2603 28.657C61.2603 28.6663 61.2603 28.6757 61.2603 28.685C61.2603 28.6943 61.2603 28.7037 61.2603 28.713C61.2603 28.7223 61.2603 28.7316 61.2603 28.7409C61.2603 28.7502 61.2603 28.7596 61.2603 28.7689C61.2603 28.7782 61.2603 28.7875 61.2603 28.7968C61.2603 28.8061 61.2603 28.8154 61.2603 28.8247C61.2603 28.834 61.2603 28.8433 61.2603 28.8526C61.2603 28.8619 61.2603 28.8712 61.2603 28.8805C61.2603 28.8898 61.2603 28.8991 61.2603 28.9084C61.2603 28.9177 61.2603 28.927 61.2603 28.9363C61.2603 28.9455 61.2603 28.9548 61.2603 28.9641C61.2603 28.9734 61.2603 28.9827 61.2603 28.9919C61.2603 29.0012 61.2603 29.0105 61.2603 29.0197C61.2603 29.029 61.2603 29.0383 61.2603 29.0475C61.2603 29.0568 61.2603 29.0661 61.2603 29.0753C61.2603 29.0846 61.2603 29.0938 61.2603 29.1031C61.2603 29.1123 61.2603 29.1216 61.2603 29.1308C61.2603 29.1401 61.2603 29.1493 61.2603 29.1586C61.2603 29.1678 61.2603 29.177 61.2603 29.1863C61.2603 29.1955 61.2603 29.2048 61.2603 29.214C61.2603 29.2232 61.2603 29.2324 61.2603 29.2417C61.2603 29.2509 61.2603 29.2601 61.2603 29.2693C61.2603 29.2785 61.2603 29.2878 61.2603 29.297C61.2603 29.3062 61.2603 29.3154 61.2603 29.3246C61.2603 29.3338 61.2603 29.343 61.2603 29.3522C61.2603 29.3614 61.2603 29.3706 61.2603 29.3798C61.2603 29.389 61.2603 29.3982 61.2603 29.4074C61.2603 29.4166 61.2603 29.4257 61.2603 29.4349C61.2603 29.4441 61.2603 29.4533 61.2603 29.4625C61.2603 29.4716 61.2603 29.4808 61.2603 29.49C61.2603 29.4991 61.2603 29.5083 61.2603 29.5175C61.2603 29.5266 61.2603 29.5358 61.2603 29.5449C61.2603 29.5541 61.2603 29.5632 61.2603 29.5724C61.2603 29.5815 61.2603 29.5907 61.2603 29.5998C61.2603 29.6089 61.2603 29.6181 61.2603 29.6272C61.2603 29.6363 61.2603 29.6455 61.2603 29.6546C61.2603 29.6637 61.2603 29.6729 61.2603 29.682C61.2603 29.6911 61.2603 29.7002 61.2603 29.7093C61.2603 29.7184 61.2603 29.7275 61.2603 29.7366C61.2603 29.7457 61.2603 29.7548 61.2603 29.7639C61.2603 29.773 61.2603 29.7821 61.2603 29.7912C61.2603 29.8003 61.2603 29.8094 61.2603 29.8185C61.2603 29.8276 61.2603 29.8366 61.2603 29.8457C61.2603 29.8548 61.2603 29.8638 61.2603 29.8729C61.2603 29.882 61.2603 29.891 61.2603 29.9001C61.2603 29.9092 61.2603 29.9182 61.2603 29.9273C61.2603 29.9363 61.2603 29.9454 61.2603 29.9544C61.2603 29.9634 61.2603 29.9725 61.2603 29.9815C61.2603 29.9905 61.2603 29.9996 61.2603 30.0086C61.2603 30.0176 61.2603 30.0267 61.2603 30.0357C61.2603 30.0447 61.2603 30.0537 61.2603 30.0627C61.2603 30.0717 61.2603 30.0807 61.2603 30.0897C61.2603 30.0987 61.2603 30.1077 61.2603 30.1167C61.2603 30.1257 61.2603 30.1347 61.2603 30.1437C61.2603 30.1527 61.2603 30.1616 61.2603 30.1706C61.2603 30.1796 61.2603 30.1886 61.2603 30.1975C61.2603 30.2065 61.2603 30.2155 61.2603 30.2244C61.2603 30.2334 61.2603 30.2423 61.2603 30.2513C61.2603 30.2602 61.2603 30.2692 61.2603 30.2781C61.2603 30.287 61.2603 30.296 61.2603 30.3049C61.2603 30.3138 61.2603 30.3228 61.2603 30.3317C61.2603 30.3406 61.2603 30.3495 61.2603 30.3584C61.2603 30.3673 61.2603 30.3762 61.2603 30.3851C61.2603 30.3941 61.2603 30.4029 61.2603 30.4118C61.2603 30.4207 61.2603 30.4296 61.2603 30.4385C61.2603 30.4474 61.2603 30.4563 61.2603 30.4651C61.2603 30.474 61.2603 30.4829 61.2603 30.4917C61.2603 30.5006 61.2603 30.5095 61.2603 30.5183C61.2603 30.5272 61.2603 30.536 61.2603 30.5449C61.2603 30.5537 61.2603 30.5626 61.2603 30.5714C61.2603 30.5802 61.2603 30.5891 61.2603 30.5979C61.2603 30.6067 61.2603 30.6155 61.2603 30.6243C61.2603 30.6332 61.2603 30.642 61.2603 30.6508C61.2603 30.6596 61.2603 30.6684 61.2603 30.6772C61.2603 30.686 61.2603 30.6947 61.2603 30.7035C61.2603 30.7123 61.2603 30.7211 61.2603 30.7299C61.2603 30.7386 61.2603 30.7474 61.2603 30.7562C61.2603 30.7649 61.2603 30.7737 61.2603 30.7824C61.2603 30.7912 61.2603 30.7999 61.2603 30.8087C61.2603 30.8174 61.2603 30.8262 61.2603 30.8349C61.2603 30.8436 61.2603 30.8523 61.2603 30.8611C61.2603 30.8698 61.2603 30.8785 61.2603 30.8872C61.2603 30.8959 61.2603 30.9046 61.2603 30.9133C61.2603 30.922 61.2603 30.9307 61.2603 30.9394C61.2603 30.9481 61.2603 30.9568 61.2603 30.9654C61.2603 30.9741 61.2603 30.9828 61.2603 30.9915C61.2603 31.0001 61.2603 31.0088 61.2603 31.0174C61.2603 31.0261 61.2603 31.0347 61.2603 31.0434C61.2603 31.052 61.2603 31.0606 61.2603 31.0693C61.2603 31.0779 61.2603 31.0865 61.2603 31.0952C61.2603 31.1038 61.2603 31.1124 61.2603 31.121C61.2603 31.1296 61.2603 31.1382 61.2603 31.1468C61.2603 31.1554 61.2603 31.164 61.2603 31.1726C61.2603 31.1811 61.2603 31.1897 61.2603 31.1983C61.2603 31.2069 61.2603 31.2154 61.2603 31.224C61.2603 31.2326 61.2603 31.2411 61.2603 31.2497C61.2603 31.2582 61.2603 31.2667 61.2603 31.2753C61.2603 31.2838 61.2603 31.2923 61.2603 31.3009C61.2603 31.3094 61.2603 31.3179 61.2603 31.3264C61.2603 31.3349 61.2603 31.3434 61.2603 31.3519C61.2603 31.3604 61.2603 31.3689 61.2603 31.3774C61.2603 31.3859 61.2603 31.3944 61.2603 31.4028C61.2603 31.4113 61.2603 31.4198 61.2603 31.4282C61.2603 31.4367 61.2603 31.4452 61.2603 31.4536C61.2603 31.4621 61.2603 31.4705 61.2603 31.4789C61.2603 31.4874 61.2603 31.4958 61.2603 31.5042C61.2603 31.5126 61.2603 31.5211 61.2603 31.5295C61.2603 31.5379 61.2603 31.5463 61.2603 31.5547C61.2603 31.5631 61.2603 31.5715 61.2603 31.5798C61.2603 31.5882 61.2603 31.5966 61.2603 31.605C61.2603 31.6133 61.2603 31.6217 61.2603 31.6301C61.2603 31.6384 61.2603 31.6468 61.2603 31.6551C61.2603 31.6635 61.2603 31.6718 61.2603 31.6801C61.2603 31.6884 61.2603 31.6968 61.2603 31.7051C61.2603 31.7134 61.2603 31.7217 61.2603 31.73C61.2603 31.7383 61.2603 31.7466 61.2603 31.7549C61.2603 31.7632 61.2603 31.7715 61.2603 31.7797C61.2603 31.788 61.2603 31.7963 61.2603 31.8045C61.2603 31.8128 61.2603 31.8211 61.2603 31.8293C61.2603 31.8376 61.2603 31.8458 61.2603 31.854C61.2603 31.8623 61.2603 31.8705 61.2603 31.8787H62.5402C62.5402 31.8705 62.5402 31.8623 62.5402 31.854C62.5402 31.8458 62.5402 31.8376 62.5402 31.8293C62.5402 31.8211 62.5402 31.8128 62.5402 31.8045C62.5402 31.7963 62.5402 31.788 62.5402 31.7797C62.5402 31.7715 62.5402 31.7632 62.5402 31.7549C62.5402 31.7466 62.5402 31.7383 62.5402 31.73C62.5402 31.7217 62.5402 31.7134 62.5402 31.7051C62.5402 31.6968 62.5402 31.6884 62.5402 31.6801C62.5402 31.6718 62.5402 31.6635 62.5402 31.6551C62.5402 31.6468 62.5402 31.6384 62.5402 31.6301C62.5402 31.6217 62.5402 31.6133 62.5402 31.605C62.5402 31.5966 62.5402 31.5882 62.5402 31.5798C62.5402 31.5715 62.5402 31.5631 62.5402 31.5547C62.5402 31.5463 62.5402 31.5379 62.5402 31.5295C62.5402 31.5211 62.5402 31.5126 62.5402 31.5042C62.5402 31.4958 62.5402 31.4874 62.5402 31.4789C62.5402 31.4705 62.5402 31.4621 62.5402 31.4536C62.5402 31.4452 62.5402 31.4367 62.5402 31.4282C62.5402 31.4198 62.5402 31.4113 62.5402 31.4028C62.5402 31.3944 62.5402 31.3859 62.5402 31.3774C62.5402 31.3689 62.5402 31.3604 62.5402 31.3519C62.5402 31.3434 62.5402 31.3349 62.5402 31.3264C62.5402 31.3179 62.5402 31.3094 62.5402 31.3009C62.5402 31.2923 62.5402 31.2838 62.5402 31.2753C62.5402 31.2667 62.5402 31.2582 62.5402 31.2497C62.5402 31.2411 62.5402 31.2326 62.5402 31.224C62.5402 31.2154 62.5402 31.2069 62.5402 31.1983C62.5402 31.1897 62.5402 31.1811 62.5402 31.1726C62.5402 31.164 62.5402 31.1554 62.5402 31.1468C62.5402 31.1382 62.5402 31.1296 62.5402 31.121C62.5402 31.1124 62.5402 31.1038 62.5402 31.0952C62.5402 31.0865 62.5402 31.0779 62.5402 31.0693C62.5402 31.0606 62.5402 31.052 62.5402 31.0434C62.5402 31.0347 62.5402 31.0261 62.5402 31.0174C62.5402 31.0088 62.5402 31.0001 62.5402 30.9915C62.5402 30.9828 62.5402 30.9741 62.5402 30.9654C62.5402 30.9568 62.5402 30.9481 62.5402 30.9394C62.5402 30.9307 62.5402 30.922 62.5402 30.9133C62.5402 30.9046 62.5402 30.8959 62.5402 30.8872C62.5402 30.8785 62.5402 30.8698 62.5402 30.8611C62.5402 30.8523 62.5402 30.8436 62.5402 30.8349C62.5402 30.8262 62.5402 30.8174 62.5402 30.8087C62.5402 30.7999 62.5402 30.7912 62.5402 30.7824C62.5402 30.7737 62.5402 30.7649 62.5402 30.7562C62.5402 30.7474 62.5402 30.7386 62.5402 30.7299C62.5402 30.7211 62.5402 30.7123 62.5402 30.7035C62.5402 30.6947 62.5402 30.686 62.5402 30.6772C62.5402 30.6684 62.5402 30.6596 62.5402 30.6508C62.5402 30.642 62.5402 30.6332 62.5402 30.6243C62.5402 30.6155 62.5402 30.6067 62.5402 30.5979C62.5402 30.5891 62.5402 30.5802 62.5402 30.5714C62.5402 30.5626 62.5402 30.5537 62.5402 30.5449C62.5402 30.536 62.5402 30.5272 62.5402 30.5183C62.5402 30.5095 62.5402 30.5006 62.5402 30.4917C62.5402 30.4829 62.5402 30.474 62.5402 30.4651C62.5402 30.4563 62.5402 30.4474 62.5402 30.4385C62.5402 30.4296 62.5402 30.4207 62.5402 30.4118C62.5402 30.4029 62.5402 30.3941 62.5402 30.3851C62.5402 30.3762 62.5402 30.3673 62.5402 30.3584C62.5402 30.3495 62.5402 30.3406 62.5402 30.3317C62.5402 30.3228 62.5402 30.3138 62.5402 30.3049C62.5402 30.296 62.5402 30.287 62.5402 30.2781C62.5402 30.2692 62.5402 30.2602 62.5402 30.2513C62.5402 30.2423 62.5402 30.2334 62.5402 30.2244C62.5402 30.2155 62.5402 30.2065 62.5402 30.1975C62.5402 30.1886 62.5402 30.1796 62.5402 30.1706C62.5402 30.1616 62.5402 30.1527 62.5402 30.1437C62.5402 30.1347 62.5402 30.1257 62.5402 30.1167C62.5402 30.1077 62.5402 30.0987 62.5402 30.0897C62.5402 30.0807 62.5402 30.0717 62.5402 30.0627C62.5402 30.0537 62.5402 30.0447 62.5402 30.0357C62.5402 30.0267 62.5402 30.0176 62.5402 30.0086C62.5402 29.9996 62.5402 29.9905 62.5402 29.9815C62.5402 29.9725 62.5402 29.9634 62.5402 29.9544C62.5402 29.9454 62.5402 29.9363 62.5402 29.9273C62.5402 29.9182 62.5402 29.9092 62.5402 29.9001C62.5402 29.891 62.5402 29.882 62.5402 29.8729C62.5402 29.8638 62.5402 29.8548 62.5402 29.8457C62.5402 29.8366 62.5402 29.8276 62.5402 29.8185C62.5402 29.8094 62.5402 29.8003 62.5402 29.7912C62.5402 29.7821 62.5402 29.773 62.5402 29.7639C62.5402 29.7548 62.5402 29.7457 62.5402 29.7366C62.5402 29.7275 62.5402 29.7184 62.5402 29.7093C62.5402 29.7002 62.5402 29.6911 62.5402 29.682C62.5402 29.6729 62.5402 29.6637 62.5402 29.6546C62.5402 29.6455 62.5402 29.6363 62.5402 29.6272C62.5402 29.6181 62.5402 29.6089 62.5402 29.5998C62.5402 29.5907 62.5402 29.5815 62.5402 29.5724C62.5402 29.5632 62.5402 29.5541 62.5402 29.5449C62.5402 29.5358 62.5402 29.5266 62.5402 29.5175C62.5402 29.5083 62.5402 29.4991 62.5402 29.49C62.5402 29.4808 62.5402 29.4716 62.5402 29.4625C62.5402 29.4533 62.5402 29.4441 62.5402 29.4349C62.5402 29.4257 62.5402 29.4166 62.5402 29.4074C62.5402 29.3982 62.5402 29.389 62.5402 29.3798C62.5402 29.3706 62.5402 29.3614 62.5402 29.3522C62.5402 29.343 62.5402 29.3338 62.5402 29.3246C62.5402 29.3154 62.5402 29.3062 62.5402 29.297C62.5402 29.2878 62.5402 29.2785 62.5402 29.2693C62.5402 29.2601 62.5402 29.2509 62.5402 29.2417C62.5402 29.2324 62.5402 29.2232 62.5402 29.214C62.5402 29.2048 62.5402 29.1955 62.5402 29.1863C62.5402 29.177 62.5402 29.1678 62.5402 29.1586C62.5402 29.1493 62.5402 29.1401 62.5402 29.1308C62.5402 29.1216 62.5402 29.1123 62.5402 29.1031C62.5402 29.0938 62.5402 29.0846 62.5402 29.0753C62.5402 29.0661 62.5402 29.0568 62.5402 29.0475C62.5402 29.0383 62.5402 29.029 62.5402 29.0197C62.5402 29.0105 62.5402 29.0012 62.5402 28.9919C62.5402 28.9827 62.5402 28.9734 62.5402 28.9641C62.5402 28.9548 62.5402 28.9455 62.5402 28.9363C62.5402 28.927 62.5402 28.9177 62.5402 28.9084C62.5402 28.8991 62.5402 28.8898 62.5402 28.8805C62.5402 28.8712 62.5402 28.8619 62.5402 28.8526C62.5402 28.8433 62.5402 28.834 62.5402 28.8247C62.5402 28.8154 62.5402 28.8061 62.5402 28.7968C62.5402 28.7875 62.5402 28.7782 62.5402 28.7689C62.5402 28.7596 62.5402 28.7502 62.5402 28.7409C62.5402 28.7316 62.5402 28.7223 62.5402 28.713C62.5402 28.7037 62.5402 28.6943 62.5402 28.685C62.5402 28.6757 62.5402 28.6663 62.5402 28.657C62.5402 28.6477 62.5402 28.6384 62.5402 28.629C62.5402 28.6197 62.5402 28.6104 62.5402 28.601C62.5402 28.5917 62.5402 28.5823 62.5402 28.573C62.5402 28.5636 62.5402 28.5543 62.5402 28.545C62.5402 28.5356 62.5402 28.5263 62.5402 28.5169C62.5402 28.5076 62.5402 28.4982 62.5402 28.4889C62.5402 28.4795 62.5402 28.4701 62.5402 28.4608C62.5402 28.4514 62.5402 28.4421 62.5402 28.4327C62.5402 28.4234 62.5402 28.414 62.5402 28.4046C62.5402 28.3953 62.5402 28.3859 62.5402 28.3765C62.5402 28.3672 62.5402 28.3578 62.5402 28.3484C62.5402 28.339 62.5402 28.3297 62.5402 28.3203C62.5402 28.3109 62.5402 28.3015 62.5402 28.2922C62.5402 28.2828 62.5402 28.2734 62.5402 28.264C62.5402 28.2547 62.5402 28.2453 62.5402 28.2359C62.5402 28.2265 62.5402 28.2171 62.5402 28.2077C62.5402 28.1983 62.5402 28.189 62.5402 28.1796C62.5402 28.1702 62.5402 28.1608 62.5402 28.1514C62.5402 28.142 62.5402 28.1326 62.5402 28.1232C62.5402 28.1138 62.5402 28.1044 62.5402 28.095C62.5402 28.0856 62.5402 28.0762 62.5402 28.0668C62.5402 28.0574 62.5402 28.048 62.5402 28.0386C62.5402 28.0292 62.5402 28.0198 62.5402 28.0104C62.5402 28.001 62.5402 27.9916 62.5402 27.9822C62.5402 27.9728 62.5402 27.9634 62.5402 27.954C62.5402 27.9446 62.5402 27.9352 62.5402 27.9257C62.5402 27.9163 62.5402 27.9069 62.5402 27.8975C62.5402 27.8881 62.5402 27.8787 62.5402 27.8693C62.5402 27.8598 62.5402 27.8504 62.5402 27.841C62.5402 27.8316 62.5402 27.8222 62.5402 27.8128C62.5402 27.8033 62.5402 27.7939 62.5402 27.7845C62.5402 27.7751 62.5402 27.7657 62.5402 27.7562C62.5402 27.7468 62.5402 27.7374 62.5402 27.728C62.5402 27.7185 62.5402 27.7091 62.5402 27.6997C62.5402 27.6903 62.5402 27.6808 62.5402 27.6714C62.5402 27.662 62.5402 27.6526 62.5402 27.6431C62.5402 27.6337 62.5402 27.6243 62.5402 27.6149C62.5402 27.6054 62.5402 27.596 62.5402 27.5866C62.5402 27.5771 62.5402 27.5677 62.5402 27.5583C62.5402 27.5488 62.5402 27.5394 62.5402 27.53C62.5402 27.5205 62.5402 27.5111 62.5402 27.5017C62.5402 27.4922 62.5402 27.4828 62.5402 27.4734C62.5402 27.4639 62.5402 27.4545 62.5402 27.4451C62.5402 27.4356 62.5402 27.4262 62.5402 27.4168C62.5402 27.4073 62.5402 27.3979 62.5402 27.3885C62.5402 27.379 62.5402 27.3696 62.5402 27.3602C62.5402 27.3507 62.5402 27.3413 62.5402 27.3319C62.5402 27.3224 62.5402 27.313 62.5402 27.3035C62.5402 27.2941 62.5402 27.2847 62.5402 27.2752C62.5402 27.2658 62.5402 27.2564 62.5402 27.2469C62.5402 27.2375 62.5402 27.2281 62.5402 27.2186C62.5402 27.2092 62.5402 27.1997 62.5402 27.1903C62.5402 27.1809 62.5402 27.1714 62.5402 27.162C62.5402 27.1526 62.5402 27.1431 62.5402 27.1337C62.5402 27.1243 62.5402 27.1148 62.5402 27.1054C62.5402 27.0959 62.5402 27.0865 62.5402 27.0771C62.5402 27.0676 62.5402 27.0582 62.5402 27.0488C62.5402 27.0393 62.5402 27.0299 62.5402 27.0205C62.5402 27.011 62.5402 27.0016 62.5402 26.9922C62.5402 26.9827 62.5402 26.9733 62.5402 26.9639C62.5402 26.9544 62.5402 26.945 62.5402 26.9356C62.5402 26.9261 62.5402 26.9167 62.5402 26.9073C62.5402 26.8978 62.5402 26.8884 62.5402 26.879C62.5402 26.8695 62.5402 26.8601 62.5402 26.8507C62.5402 26.8413 62.5402 26.8318 62.5402 26.8224C62.5402 26.813 62.5402 26.8035 62.5402 26.7941C62.5402 26.7847 62.5402 26.7753 62.5402 26.7658C62.5402 26.7564 62.5402 26.747 62.5402 26.7376C62.5402 26.7281 62.5402 26.7187 62.5402 26.7093C62.5402 26.6999 62.5402 26.6904 62.5402 26.681C62.5402 26.6716 62.5402 26.6622 62.5402 26.6528C62.5402 26.6433 62.5402 26.6339 62.5402 26.6245C62.5402 26.6151 62.5402 26.6057 62.5402 26.5963C62.5402 26.5868 62.5402 26.5774 62.5402 26.568C62.5402 26.5586 62.5402 26.5492 62.5402 26.5398C62.5402 26.5304 62.5402 26.5209 62.5402 26.5115C62.5402 26.5021 62.5402 26.4927 62.5402 26.4833C62.5402 26.4739 62.5402 26.4645 62.5402 26.4551C62.5402 26.4457 62.5402 26.4363 62.5402 26.4269C62.5402 26.4175 62.5402 26.4081 62.5402 26.3987C62.5402 26.3893 62.5402 26.3799 62.5402 26.3705C62.5402 26.3611 62.5402 26.3517 62.5402 26.3423C62.5402 26.3329 62.5402 26.3235 62.5402 26.3141C62.5402 26.3047 62.5402 26.2953 62.5402 26.2859C62.5402 26.2765 62.5402 26.2671 62.5402 26.2577C62.5402 26.2483 62.5402 26.239 62.5402 26.2296C62.5402 26.2202 62.5402 26.2108 62.5402 26.2014C62.5402 26.192 62.5402 26.1827 62.5402 26.1733C62.5402 26.1639 62.5402 26.1545 62.5402 26.1451C62.5402 26.1358 62.5402 26.1264 62.5402 26.117C62.5402 26.1077 62.5402 26.0983 62.5402 26.0889C62.5402 26.0795 62.5402 26.0702 62.5402 26.0608C62.5402 26.0514 62.5402 26.0421 62.5402 26.0327C62.5402 26.0233 62.5402 26.014 62.5402 26.0046C62.5402 25.9953 62.5402 25.9859 62.5402 25.9766C62.5402 25.9672 62.5402 25.9578 62.5402 25.9485C62.5402 25.9391 62.5402 25.9298 62.5402 25.9204C62.5402 25.9111 62.5402 25.9017 62.5402 25.8924C62.5402 25.8831 62.5402 25.8737 62.5402 25.8644C62.5402 25.855 62.5402 25.8457 62.5402 25.8364C62.5402 25.827 62.5402 25.8177 62.5402 25.8084C62.5402 25.799 62.5402 25.7897 62.5402 25.7804C62.5402 25.771 62.5402 25.7617 62.5402 25.7524C62.5402 25.7431 62.5402 25.7337 62.5402 25.7244C62.5402 25.7151 62.5402 25.7058 62.5402 25.6965C62.5402 25.6871 62.5402 25.6778 62.5402 25.6685C62.5402 25.6592 62.5402 25.6499 62.5402 25.6406C62.5402 25.6313 62.5402 25.622 62.5402 25.6127C62.5402 25.6034 62.5402 25.5941 62.5402 25.5848C62.5402 25.5755 62.5402 25.5662 62.5402 25.5569C62.5402 25.5476 62.5402 25.5383 62.5402 25.529C62.5402 25.5198 62.5402 25.5105 62.5402 25.5012C62.5402 25.4919 62.5402 25.4826 62.5402 25.4733C62.5402 25.4641 62.5402 25.4548 62.5402 25.4455C62.5402 25.4363 62.5402 25.427 62.5402 25.4177C62.5402 25.4085 62.5402 25.3992 62.5402 25.3899C62.5402 25.3807 62.5402 25.3714 62.5402 25.3621C62.5402 25.3529 62.5402 25.3436 62.5402 25.3344C62.5402 25.3251 62.5402 25.3159 62.5402 25.3066C62.5402 25.2974 62.5402 25.2882 62.5402 25.2789C62.5402 25.2697 62.5402 25.2604 62.5402 25.2512C62.5402 25.242 62.5402 25.2328 62.5402 25.2235C62.5402 25.2143 62.5402 25.2051 62.5402 25.1959C62.5402 25.1866 62.5402 25.1774 62.5402 25.1682C62.5402 25.159 62.5402 25.1498 62.5402 25.1406C62.5402 25.1313 62.5402 25.1221 62.5402 25.1129C62.5402 25.1037 62.5402 25.0945 62.5402 25.0853C62.5402 25.0761 62.5402 25.0669 62.5402 25.0578C62.5402 25.0486 62.5402 25.0394 62.5402 25.0302C62.5402 25.021 62.5402 25.0118 62.5402 25.0027C62.5402 24.9935 62.5402 24.9843 62.5402 24.9751C62.5402 24.966 62.5402 24.9568 62.5402 24.9476C62.5402 24.9385 62.5402 24.9293 62.5402 24.9201C62.5402 24.911 62.5402 24.9018 62.5402 24.8927C62.5402 24.8835 62.5402 24.8744 62.5402 24.8652C62.5402 24.8561 62.5402 24.847 62.5402 24.8378C62.5402 24.8287 62.5402 24.8195 62.5402 24.8104C62.5402 24.8013 62.5402 24.7922 62.5402 24.783C62.5402 24.7739 62.5402 24.7648 62.5402 24.7557C62.5402 24.7466 62.5402 24.7375 62.5402 24.7283C62.5402 24.7192 62.5402 24.7101 62.5402 24.701C62.5402 24.6919 62.5402 24.6828 62.5402 24.6737C62.5402 24.6646 62.5402 24.6556 62.5402 24.6465C62.5402 24.6374 62.5402 24.6283 62.5402 24.6192C62.5402 24.6102 62.5402 24.6011 62.5402 24.592C62.5402 24.5829 62.5402 24.5739 62.5402 24.5648C62.5402 24.5557 62.5402 24.5467 62.5402 24.5376C62.5402 24.5286 62.5402 24.5195 62.5402 24.5105C62.5402 24.5014 62.5402 24.4924 62.5402 24.4834C62.5402 24.4743 62.5402 24.4653 62.5402 24.4562C62.5402 24.4472 62.5402 24.4382 62.5402 24.4292C62.5402 24.4201 62.5402 24.4111 62.5402 24.4021C62.5402 24.3931 62.5402 24.3841 62.5402 24.3751C62.5402 24.3661 62.5402 24.3571 62.5402 24.3481C62.5402 24.3391 62.5402 24.3301 62.5402 24.3211C62.5402 24.3121 62.5402 24.3031 62.5402 24.2942C62.5402 24.2852 62.5402 24.2762 62.5402 24.2672C62.5402 24.2583 62.5402 24.2493 62.5402 24.2403C62.5402 24.2314 62.5402 24.2224 62.5402 24.2135C62.5402 24.2045 62.5402 24.1956 62.5402 24.1866C62.5402 24.1777 62.5402 24.1687 62.5402 24.1598C62.5402 24.1509 62.5402 24.1419 62.5402 24.133C62.5402 24.1241 62.5402 24.1151 62.5402 24.1062C62.5402 24.0973 62.5402 24.0884 62.5402 24.0795C62.5402 24.0706 62.5402 24.0617 62.5402 24.0528C62.5402 24.0439 62.5402 24.035 62.5402 24.0261C62.5402 24.0172 62.5402 24.0083 62.5402 23.9995C62.5402 23.9906 62.5402 23.9817 62.5402 23.9728C62.5402 23.964 62.5402 23.9551 62.5402 23.9462C62.5402 23.9374 62.5402 23.9285 62.5402 23.9197C62.5402 23.9108 62.5402 23.902 62.5402 23.8931C62.5402 23.8843 62.5402 23.8755 62.5402 23.8666C62.5402 23.8578 62.5402 23.849 62.5402 23.8402C62.5402 23.8313 62.5402 23.8225 62.5402 23.8137C62.5402 23.8049 62.5402 23.7961 62.5402 23.7873C62.5402 23.7785 62.5402 23.7697 62.5402 23.7609C62.5402 23.7521 62.5402 23.7433 62.5402 23.7346C62.5402 23.7258 62.5402 23.717 62.5402 23.7082C62.5402 23.6995 62.5402 23.6907 62.5402 23.6819C62.5402 23.6732 62.5402 23.6644 62.5402 23.6557C62.5402 23.6469 62.5402 23.6382 62.5402 23.6295C62.5402 23.6207 62.5402 23.612 62.5402 23.6033C62.5402 23.5945 62.5402 23.5858 62.5402 23.5771C62.5402 23.5684 62.5402 23.5597 62.5402 23.551C62.5402 23.5423 62.5402 23.5336 62.5402 23.5249C62.5402 23.5162 62.5402 23.5075 62.5402 23.4988C62.5402 23.4901 62.5402 23.4815 62.5402 23.4728C62.5402 23.4641 62.5402 23.4554 62.5402 23.4468C62.5402 23.4381 62.5402 23.4295 62.5402 23.4208C62.5402 23.4122 62.5402 23.4035 62.5402 23.3949C62.5402 23.3863 62.5402 23.3776 62.5402 23.369C62.5402 23.3604 62.5402 23.3518 62.5402 23.3431C62.5402 23.3345 62.5402 23.3259 62.5402 23.3173C62.5402 23.3087 62.5402 23.3001 62.5402 23.2915C62.5402 23.2829 62.5402 23.2744 62.5402 23.2658C62.5402 23.2572 62.5402 23.2486 62.5402 23.2401C62.5402 23.2315 62.5402 23.2229 62.5402 23.2144C62.5402 23.2058 62.5402 23.1973 62.5402 23.1887C62.5402 23.1802 62.5402 23.1717 62.5402 23.1631C62.5402 23.1546 62.5402 23.1461 62.5402 23.1376C62.5402 23.129 62.5402 23.1205 62.5402 23.112C62.5402 23.1035 62.5402 23.095 62.5402 23.0865C62.5402 23.078 62.5402 23.0695 62.5402 23.0611C62.5402 23.0526 62.5402 23.0441 62.5402 23.0356C62.5402 23.0272 62.5402 23.0187 62.5402 23.0103C62.5402 23.0018 62.5402 22.9934 62.5402 22.9849C62.5402 22.9765 62.5402 22.968 62.5402 22.9596C62.5402 22.9512 62.5402 22.9428 62.5402 22.9343C62.5402 22.9259 62.5402 22.9175 62.5402 22.9091C62.5402 22.9007 62.5402 22.8923 62.5402 22.8839C62.5402 22.8755 62.5402 22.8671 62.5402 22.8588C62.5402 22.8504 62.5402 22.842 62.5402 22.8337C62.5402 22.8253 62.5402 22.8169 62.5402 22.8086C62.5402 22.8002 62.5402 22.7919 62.5402 22.7835C62.5402 22.7752 62.5402 22.7669 62.5402 22.7586C62.5402 22.7502 62.5402 22.7419 62.5402 22.7336C62.5402 22.7253 62.5402 22.717 62.5402 22.7087C62.5402 22.7004 62.5402 22.6921 62.5402 22.6838C62.5402 22.6755 62.5402 22.6673 62.5402 22.659C62.5402 22.6507 62.5402 22.6425 62.5402 22.6342C62.5402 22.626 62.5402 22.6177 62.5402 22.6095C62.5402 22.6012 62.5402 22.593 62.5402 22.5848C62.5402 22.5765 62.5402 22.5683 62.5402 22.5601C62.5402 22.5519 62.5402 22.5437 62.5402 22.5355C62.5402 22.5273 62.5402 22.5191 62.5402 22.5109C62.5402 22.5027 62.5402 22.4946 62.5402 22.4864C62.5402 22.4782 62.5402 22.4701 62.5402 22.4619C62.5402 22.4537 62.5402 22.4456 62.5402 22.4375C62.5402 22.4293 62.5402 22.4212 62.5402 22.4131C62.5402 22.4049 62.5402 22.3968 62.5402 22.3887C62.5402 22.3806 62.5402 22.3725 62.5402 22.3644C62.5402 22.3563 62.5402 22.3482 62.5402 22.3401C62.5402 22.332 62.5402 22.324 62.5402 22.3159C62.5402 22.3078 62.5402 22.2998 62.5402 22.2917C62.5402 22.2837 62.5402 22.2756 62.5402 22.2676C62.5402 22.2596 62.5402 22.2515 62.5402 22.2435C62.5402 22.2355 62.5402 22.2275 62.5402 22.2195C62.5402 22.2115 62.5402 22.2035 62.5402 22.1955C62.5402 22.1875 62.5402 22.1795 62.5402 22.1715C62.5402 22.1636 62.5402 22.1556 62.5402 22.1476C62.5402 22.1397 62.5402 22.1317 62.5402 22.1238C62.5402 22.1158 62.5402 22.1079 62.5402 22.1C62.5402 22.092 62.5402 22.0841 62.5402 22.0762C62.5402 22.0683 62.5402 22.0604 62.5402 22.0525C62.5402 22.0446 62.5402 22.0367 62.5402 22.0288C62.5402 22.021 62.5402 22.0131 62.5402 22.0052C62.5402 21.9974 62.5402 21.9895 62.5402 21.9816C62.5402 21.9738 62.5402 21.966 62.5402 21.9581C62.5402 21.9503 62.5402 21.9425 62.5402 21.9347C62.5402 21.9268 62.5402 21.919 62.5402 21.9112C62.5402 21.9034 62.5402 21.8957 62.5402 21.8879C62.5402 21.8801 62.5402 21.8723 62.5402 21.8645C62.5402 21.8568 62.5402 21.849 62.5402 21.8413C62.5402 21.8335 62.5402 21.8258 62.5402 21.8181C62.5402 21.8103 62.5402 21.8026 62.5402 21.7949C62.5402 21.7872 62.5402 21.7795 62.5402 21.7718C62.5402 21.7641 62.5402 21.7564 62.5402 21.7487C62.5402 21.741 62.5402 21.7333 62.5402 21.7257C62.5402 21.718 62.5402 21.7103 62.5402 21.7027C62.5402 21.6951 62.5402 21.6874 62.5402 21.6798C62.5402 21.6722 62.5402 21.6645 62.5402 21.6569C62.5402 21.6493 62.5402 21.6417 62.5402 21.6341C62.5402 21.6265 62.5402 21.6189 62.5402 21.6113C62.5402 21.6038 62.5402 21.5962 62.5402 21.5886C62.5402 21.5811 62.5402 21.5735 62.5402 21.566C62.5402 21.5584 62.5402 21.5509 62.5402 21.5434C62.5402 21.5359 62.5402 21.5283 62.5402 21.5208C62.5402 21.5133 62.5402 21.5058 62.5402 21.4983C62.5402 21.4908 62.5402 21.4834 62.5402 21.4759C62.5402 21.4684 62.5402 21.461 62.5402 21.4535C62.5402 21.4461 62.5402 21.4386 62.5402 21.4312C62.5402 21.4237 62.5402 21.4163 62.5402 21.4089C62.5402 21.4015 62.5402 21.3941 62.5402 21.3867C62.5402 21.3793 62.5402 21.3719 62.5402 21.3645C62.5402 21.3571 62.5402 21.3498 62.5402 21.3424C62.5402 21.335 62.5402 21.3277 62.5402 21.3203C62.5402 21.313 62.5402 21.3057 62.5402 21.2983C62.5402 21.291 62.5402 21.2837 62.5402 21.2764C62.5402 21.2691 62.5402 21.2618 62.5402 21.2545C62.5402 21.2472 62.5402 21.2399 62.5402 21.2327C62.5402 21.2254 62.5402 21.2181 62.5402 21.2109C62.5402 21.2036 62.5402 21.1964 62.5402 21.1892C62.5402 21.1819 62.5402 21.1747 62.5402 21.1675C62.5402 21.1603 62.5402 21.1531 62.5402 21.1459C62.5402 21.1387 62.5402 21.1315 62.5402 21.1244C62.5402 21.1172 62.5402 21.11 62.5402 21.1029C62.5402 21.0957 62.5402 21.0886 62.5402 21.0814C62.5402 21.0743 62.5402 21.0672 62.5402 21.0601C62.5402 21.0529 62.5402 21.0458 62.5402 21.0387C62.5402 21.0317 62.5402 21.0246 62.5402 21.0175C62.5402 21.0104 62.5402 21.0034 62.5402 20.9963C62.5402 20.9892 62.5402 20.9822 62.5402 20.9752C62.5402 20.9681 62.5402 20.9611 62.5402 20.9541C62.5402 20.9471 62.5402 20.9401 62.5402 20.9331C62.5402 20.9261 62.5402 20.9191 62.5402 20.9121C62.5402 20.9051 62.5402 20.8982 62.5402 20.8912C62.5402 20.8843 62.5402 20.8773 62.5402 20.8704C62.5402 20.8634 62.5402 20.8565 62.5402 20.8496C62.5402 20.8427 62.5402 20.8358 62.5402 20.8289C62.5402 20.822 62.5402 20.8151 62.5402 20.8082C62.5402 20.8014 62.5402 20.7945 62.5402 20.7877C62.5402 20.7808 62.5402 20.774 62.5402 20.7671C62.5402 20.7603 62.5402 20.7535 62.5402 20.7467C62.5402 20.7399 62.5402 20.733 62.5402 20.7263C62.5402 20.7195 62.5402 20.7127 62.5402 20.7059C62.5402 20.6991 62.5402 20.6924 62.5402 20.6856C62.5402 20.6789 62.5402 20.6722 62.5402 20.6654C62.5402 20.6587 62.5402 20.652 62.5402 20.6453C62.5402 20.6386 62.5402 20.6319 62.5402 20.6252C62.5402 20.6185 62.5402 20.6118 62.5402 20.6052C62.5402 20.5985 62.5402 20.5919 62.5402 20.5852C62.5402 20.5786 62.5402 20.5719 62.5402 20.5653C62.5402 20.5587 62.5402 20.5521 62.5402 20.5455C62.5402 20.5389 62.5402 20.5323 62.5402 20.5257C62.5402 20.5191 62.5402 20.5126 62.5402 20.506C62.5402 20.4995 62.5402 20.4929 62.5402 20.4864C62.5402 20.4799 62.5402 20.4733 62.5402 20.4668C62.5402 20.4603 62.5402 20.4538 62.5402 20.4473C62.5402 20.4408 62.5402 20.4343 62.5402 20.4279C62.5402 20.4214 62.5402 20.415 62.5402 20.4085C62.5402 20.4021 62.5402 20.3956 62.5402 20.3892C62.5402 20.3828 62.5402 20.3764 62.5402 20.37C62.5402 20.3636 62.5402 20.3572 62.5402 20.3508C62.5402 20.3444 62.5402 20.3381 62.5402 20.3317C62.5402 20.3253 62.5402 20.319 62.5402 20.3127C62.5402 20.3063 62.5402 20.3 62.5402 20.2937C62.5402 20.2874 62.5402 20.2811 62.5402 20.2748C62.5402 20.2685 62.5402 20.2622 62.5402 20.256C62.5402 20.2497 62.5402 20.2435 62.5402 20.2372C62.5402 20.231 62.5402 20.2247 62.5402 20.2185C62.5402 20.2123 62.5402 20.2061 62.5402 20.1999C62.5402 20.1937 62.5402 20.1875 62.5402 20.1813C62.5402 20.1752 62.5402 20.169 62.5402 20.1629C62.5402 20.1567 62.5402 20.1506 62.5402 20.1444C62.5402 20.1383 62.5402 20.1322 62.5402 20.1261C62.5402 20.12 62.5402 20.1139 62.5402 20.1078C62.5402 20.1017 62.5402 20.0957 62.5402 20.0896C62.5402 20.0836 62.5402 20.0775 62.5402 20.0715C62.5402 20.0655 62.5402 20.0594 62.5402 20.0534C62.5402 20.0474 62.5402 20.0414 62.5402 20.0354C62.5402 20.0295 62.5402 20.0235 62.5402 20.0175C62.5402 20.0116 62.5402 20.0056 62.5402 19.9997C62.5402 19.9937 62.5402 19.9878 62.5402 19.9819C62.5402 19.976 62.5402 19.9701 62.5402 19.9642C62.5402 19.9583 62.5402 19.9524 62.5402 19.9466C62.5402 19.9407 62.5402 19.9349 62.5402 19.929C62.5402 19.9232 62.5402 19.9173 62.5402 19.9115C62.5402 19.9057 62.5402 19.8999 62.5402 19.8941C62.5402 19.8883 62.5402 19.8826 62.5402 19.8768C62.5402 19.871 62.5402 19.8653 62.5402 19.8595C62.5402 19.8538 62.5402 19.8481 62.5402 19.8423C62.5402 19.8366 62.5402 19.8309 62.5402 19.8252C62.5402 19.8195 62.5402 19.8138 62.5402 19.8082C62.5402 19.8025 62.5402 19.7969 62.5402 19.7912C62.5402 19.7856 62.5402 19.7799 62.5402 19.7743C62.5402 19.7687 62.5402 19.7631 62.5402 19.7575C62.5402 19.7519 62.5402 19.7463 62.5402 19.7408C62.5402 19.7352 62.5402 19.7297 62.5402 19.7241C62.5402 19.7186 62.5402 19.713 62.5402 19.7075C62.5402 19.702 62.5402 19.6965 62.5402 19.691C62.5402 19.6855 62.5402 19.68 62.5402 19.6746C62.5402 19.6691 62.5402 19.6637 62.5402 19.6582C62.5402 19.6528 62.5402 19.6474 62.5402 19.6419C62.5402 19.6365 62.5402 19.6311 62.5402 19.6257C62.5402 19.6204 62.5402 19.615 62.5402 19.6096C62.5402 19.6043 62.5402 19.5989 62.5402 19.5936C62.5402 19.5882 62.5402 19.5829 62.5402 19.5776C62.5402 19.5723 62.5402 19.567 62.5402 19.5617C62.5402 19.5564 62.5402 19.5512 62.5402 19.5459C62.5402 19.5406 62.5402 19.5354 62.5402 19.5302C62.5402 19.5249 62.5402 19.5197 62.5402 19.5145C62.5402 19.5093 62.5402 19.5041 62.5402 19.4989C62.5402 19.4938 62.5402 19.4886 62.5402 19.4834C62.5402 19.4783 62.5402 19.4731 62.5402 19.468C62.5402 19.4629 62.5402 19.4578 62.5402 19.4527C62.5402 19.4476 62.5402 19.4425 62.5402 19.4374C62.5402 19.4324 62.5402 19.4273 62.5402 19.4223C62.5402 19.4172 62.5402 19.4122 62.5402 19.4072C62.5402 19.4021 62.5402 19.3971 62.5402 19.3922C62.5402 19.3872 62.5402 19.3822 62.5402 19.3772C62.5402 19.3723 62.5402 19.3673 62.5402 19.3624C62.5402 19.3574 62.5402 19.3525 62.5402 19.3476C62.5402 19.3427 62.5402 19.3378 62.5402 19.3329C62.5402 19.328 62.5402 19.3232 62.5402 19.3183C62.5402 19.3135 62.5402 19.3086 62.5402 19.3038C62.5402 19.299 62.5402 19.2941 62.5402 19.2893C62.5402 19.2845 62.5402 19.2798 62.5402 19.275C62.5402 19.2702 62.5402 19.2655 62.5402 19.2607C62.5402 19.256 62.5402 19.2512 62.5402 19.2465C62.5402 19.2418 62.5402 19.2371 62.5402 19.2324C62.5402 19.2277 62.5402 19.2231 62.5402 19.2184H61.2603ZM29.0851 18.1999V45.7288H30.3651V18.1999H29.0851ZM50.5352 18.1999V25.8233H51.8152V18.1999H50.5352ZM31.7251 10.36C30.267 10.36 29.0851 11.542 29.0851 13H30.3651C30.3651 12.2489 30.974 11.64 31.7251 11.64V10.36ZM18.36 44.7073C18.36 45.6249 19.1039 46.3688 20.0214 46.3688V45.0888C19.8108 45.0888 19.64 44.918 19.64 44.7073H18.36ZM51.8152 13C51.8152 11.542 50.6332 10.36 49.1752 10.36V11.64C49.9263 11.64 50.5352 12.2489 50.5352 13H51.8152ZM60.8788 18.8399C61.0918 18.8399 61.2603 19.0101 61.2603 19.2184H62.5402C62.5402 18.2985 61.794 17.5599 60.8788 17.5599V18.8399ZM19.64 19.2213C19.64 19.0106 19.8108 18.8399 20.0214 18.8399V17.5599C19.1038 17.5599 18.36 18.3037 18.36 19.2213H19.64Z" fill="#214187"/>
<path d="M50.7641 34.4929V40.1108L53.0098 41.7025L55.2555 43.2942M61.9999 40.1108C61.9999 46.3161 56.9695 51.3466 50.7641 51.3466C44.5588 51.3466 39.5283 46.3161 39.5283 40.1108C39.5283 33.9054 44.5588 28.875 50.7641 28.875C56.9695 28.875 61.9999 33.9054 61.9999 40.1108Z" stroke="#214187" stroke-width="1.28" stroke-linecap="round"/>
</svg>
